%TF.GenerationSoftware,KiCad,Pcbnew,(5.1.10)-1*%
%TF.CreationDate,2021-09-02T16:56:43-04:00*%
%TF.ProjectId,buoy-c,62756f79-2d63-42e6-9b69-6361645f7063,1.0*%
%TF.SameCoordinates,Original*%
%TF.FileFunction,Copper,L1,Top*%
%TF.FilePolarity,Positive*%
%FSLAX46Y46*%
G04 Gerber Fmt 4.6, Leading zero omitted, Abs format (unit mm)*
G04 Created by KiCad (PCBNEW (5.1.10)-1) date 2021-09-02 16:56:43*
%MOMM*%
%LPD*%
G01*
G04 APERTURE LIST*
%TA.AperFunction,Profile*%
%ADD10C,0.050000*%
%TD*%
%TA.AperFunction,ComponentPad*%
%ADD11C,3.500000*%
%TD*%
%TA.AperFunction,ComponentPad*%
%ADD12R,3.500000X3.500000*%
%TD*%
%TA.AperFunction,ComponentPad*%
%ADD13C,2.300000*%
%TD*%
%TA.AperFunction,SMDPad,CuDef*%
%ADD14C,17.800000*%
%TD*%
%TA.AperFunction,ComponentPad*%
%ADD15O,1.700000X1.700000*%
%TD*%
%TA.AperFunction,ComponentPad*%
%ADD16R,1.700000X1.700000*%
%TD*%
%TA.AperFunction,SMDPad,CuDef*%
%ADD17R,0.800000X1.800000*%
%TD*%
%TA.AperFunction,SMDPad,CuDef*%
%ADD18R,4.100000X4.100000*%
%TD*%
%TA.AperFunction,SMDPad,CuDef*%
%ADD19R,3.050000X3.300000*%
%TD*%
%TA.AperFunction,SMDPad,CuDef*%
%ADD20R,0.700000X0.350000*%
%TD*%
%TA.AperFunction,ComponentPad*%
%ADD21C,0.650000*%
%TD*%
%TA.AperFunction,ComponentPad*%
%ADD22C,1.815000*%
%TD*%
%TA.AperFunction,ComponentPad*%
%ADD23C,2.085000*%
%TD*%
%TA.AperFunction,SMDPad,CuDef*%
%ADD24R,0.900000X2.000000*%
%TD*%
%TA.AperFunction,SMDPad,CuDef*%
%ADD25R,2.000000X0.900000*%
%TD*%
%TA.AperFunction,SMDPad,CuDef*%
%ADD26R,5.000000X5.000000*%
%TD*%
%TA.AperFunction,ComponentPad*%
%ADD27R,3.000000X3.000000*%
%TD*%
%TA.AperFunction,ComponentPad*%
%ADD28C,3.000000*%
%TD*%
%TA.AperFunction,SMDPad,CuDef*%
%ADD29R,0.800000X0.900000*%
%TD*%
%TA.AperFunction,SMDPad,CuDef*%
%ADD30R,0.900000X0.800000*%
%TD*%
%TA.AperFunction,ComponentPad*%
%ADD31C,0.600000*%
%TD*%
%TA.AperFunction,SMDPad,CuDef*%
%ADD32R,2.513000X3.402000*%
%TD*%
%TA.AperFunction,SMDPad,CuDef*%
%ADD33R,1.525000X0.700000*%
%TD*%
%TA.AperFunction,SMDPad,CuDef*%
%ADD34R,1.050000X0.450000*%
%TD*%
%TA.AperFunction,SMDPad,CuDef*%
%ADD35R,3.400000X5.000000*%
%TD*%
%TA.AperFunction,SMDPad,CuDef*%
%ADD36R,1.000000X2.000000*%
%TD*%
%TA.AperFunction,ViaPad*%
%ADD37C,0.800000*%
%TD*%
%TA.AperFunction,Conductor*%
%ADD38C,0.250000*%
%TD*%
G04 APERTURE END LIST*
D10*
X151750000Y-194500000D02*
G75*
G02*
X148750000Y-197500000I-3000000J0D01*
G01*
X148750000Y-100000000D02*
G75*
G02*
X151750000Y-103000000I0J-3000000D01*
G01*
X103550000Y-197500000D02*
G75*
G02*
X100550000Y-194500000I0J3000000D01*
G01*
X100550000Y-103000000D02*
G75*
G02*
X103550000Y-100000000I3000000J0D01*
G01*
X103550000Y-197500000D02*
X148750000Y-197500000D01*
X103550000Y-100000000D02*
X148750000Y-100000000D01*
X151750000Y-103000000D02*
X151750000Y-194500000D01*
X100550000Y-103000000D02*
X100550000Y-194500000D01*
D11*
%TO.P,J5,2*%
%TO.N,+BATT*%
X134975600Y-114700000D03*
D12*
%TO.P,J5,1*%
%TO.N,GND*%
X134975600Y-186700000D03*
%TD*%
%TO.P,C14,1*%
%TO.N,+BATT*%
%TA.AperFunction,SMDPad,CuDef*%
G36*
G01*
X128828780Y-123510380D02*
X129778780Y-123510380D01*
G75*
G02*
X130028780Y-123760380I0J-250000D01*
G01*
X130028780Y-124260380D01*
G75*
G02*
X129778780Y-124510380I-250000J0D01*
G01*
X128828780Y-124510380D01*
G75*
G02*
X128578780Y-124260380I0J250000D01*
G01*
X128578780Y-123760380D01*
G75*
G02*
X128828780Y-123510380I250000J0D01*
G01*
G37*
%TD.AperFunction*%
%TO.P,C14,2*%
%TO.N,GND*%
%TA.AperFunction,SMDPad,CuDef*%
G36*
G01*
X128828780Y-125410380D02*
X129778780Y-125410380D01*
G75*
G02*
X130028780Y-125660380I0J-250000D01*
G01*
X130028780Y-126160380D01*
G75*
G02*
X129778780Y-126410380I-250000J0D01*
G01*
X128828780Y-126410380D01*
G75*
G02*
X128578780Y-126160380I0J250000D01*
G01*
X128578780Y-125660380D01*
G75*
G02*
X128828780Y-125410380I250000J0D01*
G01*
G37*
%TD.AperFunction*%
%TD*%
D13*
%TO.P,J2,2*%
%TO.N,BAT-CR2032*%
X108822360Y-187892660D03*
X111922360Y-187892660D03*
X111922360Y-167092660D03*
X108822360Y-167092660D03*
D14*
%TO.P,J2,1*%
%TO.N,GND*%
X110322360Y-177492660D03*
%TD*%
%TO.P,R33,2*%
%TO.N,VDD*%
%TA.AperFunction,SMDPad,CuDef*%
G36*
G01*
X141625741Y-102939900D02*
X140725739Y-102939900D01*
G75*
G02*
X140475740Y-102689901I0J249999D01*
G01*
X140475740Y-102164899D01*
G75*
G02*
X140725739Y-101914900I249999J0D01*
G01*
X141625741Y-101914900D01*
G75*
G02*
X141875740Y-102164899I0J-249999D01*
G01*
X141875740Y-102689901D01*
G75*
G02*
X141625741Y-102939900I-249999J0D01*
G01*
G37*
%TD.AperFunction*%
%TO.P,R33,1*%
%TO.N,+BATT*%
%TA.AperFunction,SMDPad,CuDef*%
G36*
G01*
X141625741Y-104764900D02*
X140725739Y-104764900D01*
G75*
G02*
X140475740Y-104514901I0J249999D01*
G01*
X140475740Y-103989899D01*
G75*
G02*
X140725739Y-103739900I249999J0D01*
G01*
X141625741Y-103739900D01*
G75*
G02*
X141875740Y-103989899I0J-249999D01*
G01*
X141875740Y-104514901D01*
G75*
G02*
X141625741Y-104764900I-249999J0D01*
G01*
G37*
%TD.AperFunction*%
%TD*%
%TO.P,R32,2*%
%TO.N,+3V3*%
%TA.AperFunction,SMDPad,CuDef*%
G36*
G01*
X149356659Y-114115800D02*
X150256661Y-114115800D01*
G75*
G02*
X150506660Y-114365799I0J-249999D01*
G01*
X150506660Y-114890801D01*
G75*
G02*
X150256661Y-115140800I-249999J0D01*
G01*
X149356659Y-115140800D01*
G75*
G02*
X149106660Y-114890801I0J249999D01*
G01*
X149106660Y-114365799D01*
G75*
G02*
X149356659Y-114115800I249999J0D01*
G01*
G37*
%TD.AperFunction*%
%TO.P,R32,1*%
%TO.N,VDD*%
%TA.AperFunction,SMDPad,CuDef*%
G36*
G01*
X149356659Y-112290800D02*
X150256661Y-112290800D01*
G75*
G02*
X150506660Y-112540799I0J-249999D01*
G01*
X150506660Y-113065801D01*
G75*
G02*
X150256661Y-113315800I-249999J0D01*
G01*
X149356659Y-113315800D01*
G75*
G02*
X149106660Y-113065801I0J249999D01*
G01*
X149106660Y-112540799D01*
G75*
G02*
X149356659Y-112290800I249999J0D01*
G01*
G37*
%TD.AperFunction*%
%TD*%
D15*
%TO.P,J3,2*%
%TO.N,/5V_USB*%
X114345720Y-129646680D03*
D16*
%TO.P,J3,1*%
%TO.N,GND*%
X114345720Y-132186680D03*
%TD*%
D15*
%TO.P,J10,6*%
%TO.N,ESP_IO2*%
X122521980Y-154302460D03*
%TO.P,J10,5*%
%TO.N,ESP_IO15*%
X122521980Y-151762460D03*
%TO.P,J10,4*%
%TO.N,ESP_IO8*%
X122521980Y-149222460D03*
%TO.P,J10,3*%
%TO.N,ESP_IO7*%
X122521980Y-146682460D03*
%TO.P,J10,2*%
%TO.N,ESP_IO6*%
X122521980Y-144142460D03*
D16*
%TO.P,J10,1*%
%TO.N,GND*%
X122521980Y-141602460D03*
%TD*%
%TO.P,R34,2*%
%TO.N,Net-(D8-Pad2)*%
%TA.AperFunction,SMDPad,CuDef*%
G36*
G01*
X125560119Y-161250020D02*
X126460121Y-161250020D01*
G75*
G02*
X126710120Y-161500019I0J-249999D01*
G01*
X126710120Y-162025021D01*
G75*
G02*
X126460121Y-162275020I-249999J0D01*
G01*
X125560119Y-162275020D01*
G75*
G02*
X125310120Y-162025021I0J249999D01*
G01*
X125310120Y-161500019D01*
G75*
G02*
X125560119Y-161250020I249999J0D01*
G01*
G37*
%TD.AperFunction*%
%TO.P,R34,1*%
%TO.N,ESP_IO2*%
%TA.AperFunction,SMDPad,CuDef*%
G36*
G01*
X125560119Y-159425020D02*
X126460121Y-159425020D01*
G75*
G02*
X126710120Y-159675019I0J-249999D01*
G01*
X126710120Y-160200021D01*
G75*
G02*
X126460121Y-160450020I-249999J0D01*
G01*
X125560119Y-160450020D01*
G75*
G02*
X125310120Y-160200021I0J249999D01*
G01*
X125310120Y-159675019D01*
G75*
G02*
X125560119Y-159425020I249999J0D01*
G01*
G37*
%TD.AperFunction*%
%TD*%
%TO.P,D8,2*%
%TO.N,Net-(D8-Pad2)*%
%TA.AperFunction,SMDPad,CuDef*%
G36*
G01*
X126404690Y-165462800D02*
X125492190Y-165462800D01*
G75*
G02*
X125248440Y-165219050I0J243750D01*
G01*
X125248440Y-164731550D01*
G75*
G02*
X125492190Y-164487800I243750J0D01*
G01*
X126404690Y-164487800D01*
G75*
G02*
X126648440Y-164731550I0J-243750D01*
G01*
X126648440Y-165219050D01*
G75*
G02*
X126404690Y-165462800I-243750J0D01*
G01*
G37*
%TD.AperFunction*%
%TO.P,D8,1*%
%TO.N,GND*%
%TA.AperFunction,SMDPad,CuDef*%
G36*
G01*
X126404690Y-167337800D02*
X125492190Y-167337800D01*
G75*
G02*
X125248440Y-167094050I0J243750D01*
G01*
X125248440Y-166606550D01*
G75*
G02*
X125492190Y-166362800I243750J0D01*
G01*
X126404690Y-166362800D01*
G75*
G02*
X126648440Y-166606550I0J-243750D01*
G01*
X126648440Y-167094050D01*
G75*
G02*
X126404690Y-167337800I-243750J0D01*
G01*
G37*
%TD.AperFunction*%
%TD*%
D15*
%TO.P,J7,2*%
%TO.N,+BATT*%
X109062520Y-129646680D03*
D16*
%TO.P,J7,1*%
%TO.N,GND*%
X109062520Y-132186680D03*
%TD*%
D15*
%TO.P,J14,9*%
%TO.N,VDD*%
X122521980Y-168455340D03*
%TO.P,J14,8*%
%TO.N,Net-(J14-Pad8)*%
X122521980Y-170995340D03*
%TO.P,J14,7*%
%TO.N,GND*%
X122521980Y-173535340D03*
%TO.P,J14,6*%
%TO.N,SCL*%
X122521980Y-176075340D03*
%TO.P,J14,5*%
%TO.N,SDA*%
X122521980Y-178615340D03*
%TO.P,J14,4*%
%TO.N,Net-(J14-Pad4)*%
X122521980Y-181155340D03*
%TO.P,J14,3*%
%TO.N,Net-(J14-Pad3)*%
X122521980Y-183695340D03*
%TO.P,J14,2*%
%TO.N,Net-(J14-Pad2)*%
X122521980Y-186235340D03*
D16*
%TO.P,J14,1*%
%TO.N,Net-(J14-Pad1)*%
X122521980Y-188775340D03*
%TD*%
D17*
%TO.P,U1,1*%
%TO.N,Net-(U1-Pad1)*%
X133185140Y-174314040D03*
%TO.P,U1,2*%
%TO.N,Net-(U1-Pad2)*%
X134285140Y-174314040D03*
%TO.P,U1,3*%
%TO.N,Net-(U1-Pad3)*%
X135385140Y-174314040D03*
%TO.P,U1,4*%
%TO.N,Net-(U1-Pad4)*%
X136485140Y-174314040D03*
%TO.P,U1,5*%
%TO.N,Net-(U1-Pad5)*%
X137585140Y-174314040D03*
%TO.P,U1,6*%
%TO.N,Net-(U1-Pad6)*%
X138685140Y-174314040D03*
%TO.P,U1,7*%
%TO.N,Net-(U1-Pad7)*%
X139785140Y-174314040D03*
%TO.P,U1,8*%
%TO.N,Net-(U1-Pad8)*%
X142785140Y-174314040D03*
%TO.P,U1,9*%
%TO.N,Net-(U1-Pad9)*%
X143885140Y-174314040D03*
%TO.P,U1,10*%
%TO.N,GND*%
X144985140Y-174314040D03*
%TO.P,U1,11*%
%TO.N,Net-(J4-Pad3)*%
X146085140Y-174314040D03*
%TO.P,U1,12*%
%TO.N,GND*%
X147185140Y-174314040D03*
%TO.P,U1,13*%
X147185140Y-162114040D03*
%TO.P,U1,14*%
%TO.N,Net-(U1-Pad14)*%
X146085140Y-162114040D03*
%TO.P,U1,15*%
%TO.N,Net-(U1-Pad15)*%
X144985140Y-162114040D03*
%TO.P,U1,16*%
%TO.N,Net-(U1-Pad16)*%
X143885140Y-162114040D03*
%TO.P,U1,17*%
%TO.N,Net-(U1-Pad17)*%
X142785140Y-162114040D03*
%TO.P,U1,18*%
%TO.N,Net-(U1-Pad18)*%
X139785140Y-162114040D03*
%TO.P,U1,19*%
%TO.N,Net-(U1-Pad19)*%
X138685140Y-162114040D03*
%TO.P,U1,20*%
%TO.N,GPS_TX*%
X137585140Y-162114040D03*
%TO.P,U1,21*%
%TO.N,GPS_RX*%
X136485140Y-162114040D03*
%TO.P,U1,22*%
%TO.N,BAT-CR2032*%
X135385140Y-162114040D03*
%TO.P,U1,23*%
%TO.N,VDD*%
X134285140Y-162114040D03*
%TO.P,U1,24*%
%TO.N,GND*%
X133185140Y-162114040D03*
%TD*%
D18*
%TO.P,L1,1*%
%TO.N,Net-(L1-Pad1)*%
X129113280Y-112669520D03*
%TO.P,L1,2*%
%TO.N,Net-(L1-Pad2)*%
X129113280Y-103169520D03*
%TD*%
D19*
%TO.P,L2,1*%
%TO.N,+BATT*%
X145897600Y-124082700D03*
%TO.P,L2,2*%
%TO.N,Net-(L2-Pad2)*%
X145897600Y-132482700D03*
%TD*%
D20*
%TO.P,J1,A1*%
%TO.N,GND*%
X114314020Y-115570820D03*
%TO.P,J1,A2*%
%TO.N,Net-(J1-PadA2)*%
X114314020Y-116070820D03*
%TO.P,J1,A3*%
%TO.N,Net-(J1-PadA3)*%
X114314020Y-116570820D03*
%TO.P,J1,A4*%
%TO.N,/5V_USB*%
X114314020Y-117070820D03*
%TO.P,J1,A5*%
%TO.N,Net-(J1-PadA5)*%
X114314020Y-117570820D03*
%TO.P,J1,A6*%
%TO.N,/FB2*%
X114314020Y-118070820D03*
%TO.P,J1,A7*%
%TO.N,/FB1*%
X114314020Y-118570820D03*
%TO.P,J1,A8*%
%TO.N,Net-(J1-PadA8)*%
X114314020Y-119070820D03*
%TO.P,J1,A9*%
%TO.N,/5V_USB*%
X114314020Y-119570820D03*
%TO.P,J1,A10*%
%TO.N,Net-(J1-PadA10)*%
X114314020Y-120070820D03*
%TO.P,J1,A11*%
%TO.N,Net-(J1-PadA11)*%
X114314020Y-120570820D03*
%TO.P,J1,A12*%
%TO.N,GND*%
X114314020Y-121070820D03*
D21*
%TO.P,J1,B1*%
X113164020Y-121370820D03*
%TO.P,J1,B2*%
%TO.N,Net-(J1-PadB2)*%
X112464020Y-120720820D03*
%TO.P,J1,B3*%
%TO.N,Net-(J1-PadB3)*%
X112464020Y-119920820D03*
%TO.P,J1,B4*%
%TO.N,/5V_USB*%
X113164020Y-119520820D03*
%TO.P,J1,B5*%
%TO.N,Net-(J1-PadB5)*%
X112464020Y-119120820D03*
%TO.P,J1,B6*%
%TO.N,/FB2*%
X113164020Y-118720820D03*
%TO.P,J1,B7*%
%TO.N,/FB1*%
X113164020Y-117920820D03*
%TO.P,J1,B8*%
%TO.N,Net-(J1-PadB8)*%
X112464020Y-117520820D03*
%TO.P,J1,B9*%
%TO.N,/5V_USB*%
X113164020Y-117120820D03*
%TO.P,J1,B10*%
%TO.N,Net-(J1-PadB10)*%
X112464020Y-116720820D03*
%TO.P,J1,B11*%
%TO.N,Net-(J1-PadB11)*%
X112464020Y-115920820D03*
%TO.P,J1,B12*%
%TO.N,GND*%
X113164020Y-115270820D03*
D22*
%TO.P,J1,S1*%
X113964020Y-113820820D03*
D23*
%TO.P,J1,S2*%
X108364020Y-113820820D03*
%TO.P,J1,S3*%
X108364020Y-122820820D03*
D22*
%TO.P,J1,S4*%
X113964020Y-122820820D03*
%TD*%
D24*
%TO.P,U4,1*%
%TO.N,GND*%
X144041600Y-139030300D03*
%TO.P,U4,2*%
%TO.N,VDD*%
X142771600Y-139030300D03*
%TO.P,U4,3*%
%TO.N,ESP_EN*%
X141501600Y-139030300D03*
%TO.P,U4,4*%
%TO.N,Net-(U4-Pad4)*%
X140231600Y-139030300D03*
%TO.P,U4,5*%
%TO.N,Net-(U4-Pad5)*%
X138961600Y-139030300D03*
%TO.P,U4,6*%
%TO.N,BUTTON_INT*%
X137691600Y-139030300D03*
%TO.P,U4,7*%
%TO.N,Net-(U4-Pad7)*%
X136421600Y-139030300D03*
%TO.P,U4,8*%
%TO.N,EN_5V*%
X135151600Y-139030300D03*
%TO.P,U4,9*%
%TO.N,BATT_LEVEL*%
X133881600Y-139030300D03*
%TO.P,U4,10*%
%TO.N,RST_RTC*%
X132611600Y-139030300D03*
%TO.P,U4,11*%
%TO.N,INT_RTC*%
X131341600Y-139030300D03*
%TO.P,U4,12*%
%TO.N,PWM_SERVO*%
X130071600Y-139030300D03*
%TO.P,U4,13*%
%TO.N,LORA_RST*%
X128801600Y-139030300D03*
%TO.P,U4,14*%
%TO.N,Net-(U4-Pad14)*%
X127531600Y-139030300D03*
D25*
%TO.P,U4,15*%
%TO.N,GND*%
X126531600Y-141815300D03*
%TO.P,U4,16*%
%TO.N,Net-(U4-Pad16)*%
X126531600Y-143085300D03*
%TO.P,U4,17*%
%TO.N,Net-(U4-Pad17)*%
X126531600Y-144355300D03*
%TO.P,U4,18*%
%TO.N,Net-(U4-Pad18)*%
X126531600Y-145625300D03*
%TO.P,U4,19*%
%TO.N,Net-(U4-Pad19)*%
X126531600Y-146895300D03*
%TO.P,U4,20*%
%TO.N,ESP_IO6*%
X126531600Y-148165300D03*
%TO.P,U4,21*%
%TO.N,ESP_IO7*%
X126531600Y-149435300D03*
%TO.P,U4,22*%
%TO.N,ESP_IO8*%
X126531600Y-150705300D03*
%TO.P,U4,23*%
%TO.N,ESP_IO15*%
X126531600Y-151975300D03*
%TO.P,U4,24*%
%TO.N,ESP_IO2*%
X126531600Y-153245300D03*
D24*
%TO.P,U4,25*%
%TO.N,ESP_IO0*%
X127531600Y-156030300D03*
%TO.P,U4,26*%
%TO.N,BUTTON_KILL*%
X128801600Y-156030300D03*
%TO.P,U4,27*%
%TO.N,GPS_TX*%
X130071600Y-156030300D03*
%TO.P,U4,28*%
%TO.N,GPS_RX*%
X131341600Y-156030300D03*
%TO.P,U4,29*%
%TO.N,LORA_NSS*%
X132611600Y-156030300D03*
%TO.P,U4,30*%
%TO.N,LORA_SCK*%
X133881600Y-156030300D03*
%TO.P,U4,31*%
%TO.N,LORA_MISO*%
X135151600Y-156030300D03*
%TO.P,U4,32*%
%TO.N,Net-(U4-Pad32)*%
X136421600Y-156030300D03*
%TO.P,U4,33*%
%TO.N,SDA*%
X137691600Y-156030300D03*
%TO.P,U4,34*%
%TO.N,ESP_RX*%
X138961600Y-156030300D03*
%TO.P,U4,35*%
%TO.N,ESP_TX*%
X140231600Y-156030300D03*
%TO.P,U4,36*%
%TO.N,SCL*%
X141501600Y-156030300D03*
%TO.P,U4,37*%
%TO.N,LORA_MOSI*%
X142771600Y-156030300D03*
%TO.P,U4,38*%
%TO.N,GND*%
X144041600Y-156030300D03*
D26*
%TO.P,U4,39*%
X136541600Y-146530300D03*
%TD*%
%TO.P,C1,1*%
%TO.N,+BATT*%
%TA.AperFunction,SMDPad,CuDef*%
G36*
G01*
X109811800Y-102735720D02*
X110761800Y-102735720D01*
G75*
G02*
X111011800Y-102985720I0J-250000D01*
G01*
X111011800Y-103485720D01*
G75*
G02*
X110761800Y-103735720I-250000J0D01*
G01*
X109811800Y-103735720D01*
G75*
G02*
X109561800Y-103485720I0J250000D01*
G01*
X109561800Y-102985720D01*
G75*
G02*
X109811800Y-102735720I250000J0D01*
G01*
G37*
%TD.AperFunction*%
%TO.P,C1,2*%
%TO.N,GND*%
%TA.AperFunction,SMDPad,CuDef*%
G36*
G01*
X109811800Y-104635720D02*
X110761800Y-104635720D01*
G75*
G02*
X111011800Y-104885720I0J-250000D01*
G01*
X111011800Y-105385720D01*
G75*
G02*
X110761800Y-105635720I-250000J0D01*
G01*
X109811800Y-105635720D01*
G75*
G02*
X109561800Y-105385720I0J250000D01*
G01*
X109561800Y-104885720D01*
G75*
G02*
X109811800Y-104635720I250000J0D01*
G01*
G37*
%TD.AperFunction*%
%TD*%
%TO.P,C2,1*%
%TO.N,BAT-CR2032*%
%TA.AperFunction,SMDPad,CuDef*%
G36*
G01*
X119014220Y-168440440D02*
X119964220Y-168440440D01*
G75*
G02*
X120214220Y-168690440I0J-250000D01*
G01*
X120214220Y-169190440D01*
G75*
G02*
X119964220Y-169440440I-250000J0D01*
G01*
X119014220Y-169440440D01*
G75*
G02*
X118764220Y-169190440I0J250000D01*
G01*
X118764220Y-168690440D01*
G75*
G02*
X119014220Y-168440440I250000J0D01*
G01*
G37*
%TD.AperFunction*%
%TO.P,C2,2*%
%TO.N,GND*%
%TA.AperFunction,SMDPad,CuDef*%
G36*
G01*
X119014220Y-170340440D02*
X119964220Y-170340440D01*
G75*
G02*
X120214220Y-170590440I0J-250000D01*
G01*
X120214220Y-171090440D01*
G75*
G02*
X119964220Y-171340440I-250000J0D01*
G01*
X119014220Y-171340440D01*
G75*
G02*
X118764220Y-171090440I0J250000D01*
G01*
X118764220Y-170590440D01*
G75*
G02*
X119014220Y-170340440I250000J0D01*
G01*
G37*
%TD.AperFunction*%
%TD*%
%TO.P,C3,1*%
%TO.N,/5V_USB*%
%TA.AperFunction,SMDPad,CuDef*%
G36*
G01*
X122366700Y-115582680D02*
X122366700Y-116532680D01*
G75*
G02*
X122116700Y-116782680I-250000J0D01*
G01*
X121616700Y-116782680D01*
G75*
G02*
X121366700Y-116532680I0J250000D01*
G01*
X121366700Y-115582680D01*
G75*
G02*
X121616700Y-115332680I250000J0D01*
G01*
X122116700Y-115332680D01*
G75*
G02*
X122366700Y-115582680I0J-250000D01*
G01*
G37*
%TD.AperFunction*%
%TO.P,C3,2*%
%TO.N,GND*%
%TA.AperFunction,SMDPad,CuDef*%
G36*
G01*
X120466700Y-115582680D02*
X120466700Y-116532680D01*
G75*
G02*
X120216700Y-116782680I-250000J0D01*
G01*
X119716700Y-116782680D01*
G75*
G02*
X119466700Y-116532680I0J250000D01*
G01*
X119466700Y-115582680D01*
G75*
G02*
X119716700Y-115332680I250000J0D01*
G01*
X120216700Y-115332680D01*
G75*
G02*
X120466700Y-115582680I0J-250000D01*
G01*
G37*
%TD.AperFunction*%
%TD*%
%TO.P,C4,1*%
%TO.N,Net-(C4-Pad1)*%
%TA.AperFunction,SMDPad,CuDef*%
G36*
G01*
X136260820Y-104170820D02*
X137210820Y-104170820D01*
G75*
G02*
X137460820Y-104420820I0J-250000D01*
G01*
X137460820Y-104920820D01*
G75*
G02*
X137210820Y-105170820I-250000J0D01*
G01*
X136260820Y-105170820D01*
G75*
G02*
X136010820Y-104920820I0J250000D01*
G01*
X136010820Y-104420820D01*
G75*
G02*
X136260820Y-104170820I250000J0D01*
G01*
G37*
%TD.AperFunction*%
%TO.P,C4,2*%
%TO.N,Net-(C4-Pad2)*%
%TA.AperFunction,SMDPad,CuDef*%
G36*
G01*
X136260820Y-106070820D02*
X137210820Y-106070820D01*
G75*
G02*
X137460820Y-106320820I0J-250000D01*
G01*
X137460820Y-106820820D01*
G75*
G02*
X137210820Y-107070820I-250000J0D01*
G01*
X136260820Y-107070820D01*
G75*
G02*
X136010820Y-106820820I0J250000D01*
G01*
X136010820Y-106320820D01*
G75*
G02*
X136260820Y-106070820I250000J0D01*
G01*
G37*
%TD.AperFunction*%
%TD*%
%TO.P,C5,2*%
%TO.N,Net-(C5-Pad2)*%
%TA.AperFunction,SMDPad,CuDef*%
G36*
G01*
X138455380Y-103802600D02*
X139405380Y-103802600D01*
G75*
G02*
X139655380Y-104052600I0J-250000D01*
G01*
X139655380Y-104552600D01*
G75*
G02*
X139405380Y-104802600I-250000J0D01*
G01*
X138455380Y-104802600D01*
G75*
G02*
X138205380Y-104552600I0J250000D01*
G01*
X138205380Y-104052600D01*
G75*
G02*
X138455380Y-103802600I250000J0D01*
G01*
G37*
%TD.AperFunction*%
%TO.P,C5,1*%
%TO.N,Net-(C4-Pad1)*%
%TA.AperFunction,SMDPad,CuDef*%
G36*
G01*
X138455380Y-101902600D02*
X139405380Y-101902600D01*
G75*
G02*
X139655380Y-102152600I0J-250000D01*
G01*
X139655380Y-102652600D01*
G75*
G02*
X139405380Y-102902600I-250000J0D01*
G01*
X138455380Y-102902600D01*
G75*
G02*
X138205380Y-102652600I0J250000D01*
G01*
X138205380Y-102152600D01*
G75*
G02*
X138455380Y-101902600I250000J0D01*
G01*
G37*
%TD.AperFunction*%
%TD*%
%TO.P,C6,2*%
%TO.N,Net-(C4-Pad1)*%
%TA.AperFunction,SMDPad,CuDef*%
G36*
G01*
X141655780Y-117790380D02*
X142605780Y-117790380D01*
G75*
G02*
X142855780Y-118040380I0J-250000D01*
G01*
X142855780Y-118540380D01*
G75*
G02*
X142605780Y-118790380I-250000J0D01*
G01*
X141655780Y-118790380D01*
G75*
G02*
X141405780Y-118540380I0J250000D01*
G01*
X141405780Y-118040380D01*
G75*
G02*
X141655780Y-117790380I250000J0D01*
G01*
G37*
%TD.AperFunction*%
%TO.P,C6,1*%
%TO.N,Net-(C6-Pad1)*%
%TA.AperFunction,SMDPad,CuDef*%
G36*
G01*
X141655780Y-115890380D02*
X142605780Y-115890380D01*
G75*
G02*
X142855780Y-116140380I0J-250000D01*
G01*
X142855780Y-116640380D01*
G75*
G02*
X142605780Y-116890380I-250000J0D01*
G01*
X141655780Y-116890380D01*
G75*
G02*
X141405780Y-116640380I0J250000D01*
G01*
X141405780Y-116140380D01*
G75*
G02*
X141655780Y-115890380I250000J0D01*
G01*
G37*
%TD.AperFunction*%
%TD*%
%TO.P,C7,1*%
%TO.N,+BATT*%
%TA.AperFunction,SMDPad,CuDef*%
G36*
G01*
X137817840Y-120894180D02*
X138767840Y-120894180D01*
G75*
G02*
X139017840Y-121144180I0J-250000D01*
G01*
X139017840Y-121644180D01*
G75*
G02*
X138767840Y-121894180I-250000J0D01*
G01*
X137817840Y-121894180D01*
G75*
G02*
X137567840Y-121644180I0J250000D01*
G01*
X137567840Y-121144180D01*
G75*
G02*
X137817840Y-120894180I250000J0D01*
G01*
G37*
%TD.AperFunction*%
%TO.P,C7,2*%
%TO.N,GND*%
%TA.AperFunction,SMDPad,CuDef*%
G36*
G01*
X137817840Y-122794180D02*
X138767840Y-122794180D01*
G75*
G02*
X139017840Y-123044180I0J-250000D01*
G01*
X139017840Y-123544180D01*
G75*
G02*
X138767840Y-123794180I-250000J0D01*
G01*
X137817840Y-123794180D01*
G75*
G02*
X137567840Y-123544180I0J250000D01*
G01*
X137567840Y-123044180D01*
G75*
G02*
X137817840Y-122794180I250000J0D01*
G01*
G37*
%TD.AperFunction*%
%TD*%
%TO.P,C8,1*%
%TO.N,+3V3*%
%TA.AperFunction,SMDPad,CuDef*%
G36*
G01*
X144132119Y-112341440D02*
X146332121Y-112341440D01*
G75*
G02*
X146582120Y-112591439I0J-249999D01*
G01*
X146582120Y-113241441D01*
G75*
G02*
X146332121Y-113491440I-249999J0D01*
G01*
X144132119Y-113491440D01*
G75*
G02*
X143882120Y-113241441I0J249999D01*
G01*
X143882120Y-112591439D01*
G75*
G02*
X144132119Y-112341440I249999J0D01*
G01*
G37*
%TD.AperFunction*%
%TO.P,C8,2*%
%TO.N,GND*%
%TA.AperFunction,SMDPad,CuDef*%
G36*
G01*
X144132119Y-115291440D02*
X146332121Y-115291440D01*
G75*
G02*
X146582120Y-115541439I0J-249999D01*
G01*
X146582120Y-116191441D01*
G75*
G02*
X146332121Y-116441440I-249999J0D01*
G01*
X144132119Y-116441440D01*
G75*
G02*
X143882120Y-116191441I0J249999D01*
G01*
X143882120Y-115541439D01*
G75*
G02*
X144132119Y-115291440I249999J0D01*
G01*
G37*
%TD.AperFunction*%
%TD*%
%TO.P,C9,2*%
%TO.N,GND*%
%TA.AperFunction,SMDPad,CuDef*%
G36*
G01*
X139288100Y-194642720D02*
X139288100Y-195592720D01*
G75*
G02*
X139038100Y-195842720I-250000J0D01*
G01*
X138538100Y-195842720D01*
G75*
G02*
X138288100Y-195592720I0J250000D01*
G01*
X138288100Y-194642720D01*
G75*
G02*
X138538100Y-194392720I250000J0D01*
G01*
X139038100Y-194392720D01*
G75*
G02*
X139288100Y-194642720I0J-250000D01*
G01*
G37*
%TD.AperFunction*%
%TO.P,C9,1*%
%TO.N,/5V_USB*%
%TA.AperFunction,SMDPad,CuDef*%
G36*
G01*
X141188100Y-194642720D02*
X141188100Y-195592720D01*
G75*
G02*
X140938100Y-195842720I-250000J0D01*
G01*
X140438100Y-195842720D01*
G75*
G02*
X140188100Y-195592720I0J250000D01*
G01*
X140188100Y-194642720D01*
G75*
G02*
X140438100Y-194392720I250000J0D01*
G01*
X140938100Y-194392720D01*
G75*
G02*
X141188100Y-194642720I0J-250000D01*
G01*
G37*
%TD.AperFunction*%
%TD*%
%TO.P,C11,1*%
%TO.N,/5V_USB*%
%TA.AperFunction,SMDPad,CuDef*%
G36*
G01*
X141221120Y-192361800D02*
X141221120Y-193311800D01*
G75*
G02*
X140971120Y-193561800I-250000J0D01*
G01*
X140471120Y-193561800D01*
G75*
G02*
X140221120Y-193311800I0J250000D01*
G01*
X140221120Y-192361800D01*
G75*
G02*
X140471120Y-192111800I250000J0D01*
G01*
X140971120Y-192111800D01*
G75*
G02*
X141221120Y-192361800I0J-250000D01*
G01*
G37*
%TD.AperFunction*%
%TO.P,C11,2*%
%TO.N,GND*%
%TA.AperFunction,SMDPad,CuDef*%
G36*
G01*
X139321120Y-192361800D02*
X139321120Y-193311800D01*
G75*
G02*
X139071120Y-193561800I-250000J0D01*
G01*
X138571120Y-193561800D01*
G75*
G02*
X138321120Y-193311800I0J250000D01*
G01*
X138321120Y-192361800D01*
G75*
G02*
X138571120Y-192111800I250000J0D01*
G01*
X139071120Y-192111800D01*
G75*
G02*
X139321120Y-192361800I0J-250000D01*
G01*
G37*
%TD.AperFunction*%
%TD*%
%TO.P,C13,2*%
%TO.N,GND*%
%TA.AperFunction,SMDPad,CuDef*%
G36*
G01*
X131114780Y-125392600D02*
X132064780Y-125392600D01*
G75*
G02*
X132314780Y-125642600I0J-250000D01*
G01*
X132314780Y-126142600D01*
G75*
G02*
X132064780Y-126392600I-250000J0D01*
G01*
X131114780Y-126392600D01*
G75*
G02*
X130864780Y-126142600I0J250000D01*
G01*
X130864780Y-125642600D01*
G75*
G02*
X131114780Y-125392600I250000J0D01*
G01*
G37*
%TD.AperFunction*%
%TO.P,C13,1*%
%TO.N,+BATT*%
%TA.AperFunction,SMDPad,CuDef*%
G36*
G01*
X131114780Y-123492600D02*
X132064780Y-123492600D01*
G75*
G02*
X132314780Y-123742600I0J-250000D01*
G01*
X132314780Y-124242600D01*
G75*
G02*
X132064780Y-124492600I-250000J0D01*
G01*
X131114780Y-124492600D01*
G75*
G02*
X130864780Y-124242600I0J250000D01*
G01*
X130864780Y-123742600D01*
G75*
G02*
X131114780Y-123492600I250000J0D01*
G01*
G37*
%TD.AperFunction*%
%TD*%
%TO.P,C16,1*%
%TO.N,ESP_IO0*%
%TA.AperFunction,SMDPad,CuDef*%
G36*
G01*
X115890020Y-192415500D02*
X116840020Y-192415500D01*
G75*
G02*
X117090020Y-192665500I0J-250000D01*
G01*
X117090020Y-193165500D01*
G75*
G02*
X116840020Y-193415500I-250000J0D01*
G01*
X115890020Y-193415500D01*
G75*
G02*
X115640020Y-193165500I0J250000D01*
G01*
X115640020Y-192665500D01*
G75*
G02*
X115890020Y-192415500I250000J0D01*
G01*
G37*
%TD.AperFunction*%
%TO.P,C16,2*%
%TO.N,GND*%
%TA.AperFunction,SMDPad,CuDef*%
G36*
G01*
X115890020Y-194315500D02*
X116840020Y-194315500D01*
G75*
G02*
X117090020Y-194565500I0J-250000D01*
G01*
X117090020Y-195065500D01*
G75*
G02*
X116840020Y-195315500I-250000J0D01*
G01*
X115890020Y-195315500D01*
G75*
G02*
X115640020Y-195065500I0J250000D01*
G01*
X115640020Y-194565500D01*
G75*
G02*
X115890020Y-194315500I250000J0D01*
G01*
G37*
%TD.AperFunction*%
%TD*%
%TO.P,C17,2*%
%TO.N,GND*%
%TA.AperFunction,SMDPad,CuDef*%
G36*
G01*
X124640320Y-134828700D02*
X125590320Y-134828700D01*
G75*
G02*
X125840320Y-135078700I0J-250000D01*
G01*
X125840320Y-135578700D01*
G75*
G02*
X125590320Y-135828700I-250000J0D01*
G01*
X124640320Y-135828700D01*
G75*
G02*
X124390320Y-135578700I0J250000D01*
G01*
X124390320Y-135078700D01*
G75*
G02*
X124640320Y-134828700I250000J0D01*
G01*
G37*
%TD.AperFunction*%
%TO.P,C17,1*%
%TO.N,+5V*%
%TA.AperFunction,SMDPad,CuDef*%
G36*
G01*
X124640320Y-132928700D02*
X125590320Y-132928700D01*
G75*
G02*
X125840320Y-133178700I0J-250000D01*
G01*
X125840320Y-133678700D01*
G75*
G02*
X125590320Y-133928700I-250000J0D01*
G01*
X124640320Y-133928700D01*
G75*
G02*
X124390320Y-133678700I0J250000D01*
G01*
X124390320Y-133178700D01*
G75*
G02*
X124640320Y-132928700I250000J0D01*
G01*
G37*
%TD.AperFunction*%
%TD*%
%TO.P,C18,2*%
%TO.N,GND*%
%TA.AperFunction,SMDPad,CuDef*%
G36*
G01*
X122913120Y-195588040D02*
X123863120Y-195588040D01*
G75*
G02*
X124113120Y-195838040I0J-250000D01*
G01*
X124113120Y-196338040D01*
G75*
G02*
X123863120Y-196588040I-250000J0D01*
G01*
X122913120Y-196588040D01*
G75*
G02*
X122663120Y-196338040I0J250000D01*
G01*
X122663120Y-195838040D01*
G75*
G02*
X122913120Y-195588040I250000J0D01*
G01*
G37*
%TD.AperFunction*%
%TO.P,C18,1*%
%TO.N,ESP_EN*%
%TA.AperFunction,SMDPad,CuDef*%
G36*
G01*
X122913120Y-193688040D02*
X123863120Y-193688040D01*
G75*
G02*
X124113120Y-193938040I0J-250000D01*
G01*
X124113120Y-194438040D01*
G75*
G02*
X123863120Y-194688040I-250000J0D01*
G01*
X122913120Y-194688040D01*
G75*
G02*
X122663120Y-194438040I0J250000D01*
G01*
X122663120Y-193938040D01*
G75*
G02*
X122913120Y-193688040I250000J0D01*
G01*
G37*
%TD.AperFunction*%
%TD*%
%TO.P,D1,1*%
%TO.N,Net-(D1-Pad1)*%
%TA.AperFunction,SMDPad,CuDef*%
G36*
G01*
X125788360Y-117672170D02*
X125788360Y-116759670D01*
G75*
G02*
X126032110Y-116515920I243750J0D01*
G01*
X126519610Y-116515920D01*
G75*
G02*
X126763360Y-116759670I0J-243750D01*
G01*
X126763360Y-117672170D01*
G75*
G02*
X126519610Y-117915920I-243750J0D01*
G01*
X126032110Y-117915920D01*
G75*
G02*
X125788360Y-117672170I0J243750D01*
G01*
G37*
%TD.AperFunction*%
%TO.P,D1,2*%
%TO.N,Net-(D1-Pad2)*%
%TA.AperFunction,SMDPad,CuDef*%
G36*
G01*
X127663360Y-117672170D02*
X127663360Y-116759670D01*
G75*
G02*
X127907110Y-116515920I243750J0D01*
G01*
X128394610Y-116515920D01*
G75*
G02*
X128638360Y-116759670I0J-243750D01*
G01*
X128638360Y-117672170D01*
G75*
G02*
X128394610Y-117915920I-243750J0D01*
G01*
X127907110Y-117915920D01*
G75*
G02*
X127663360Y-117672170I0J243750D01*
G01*
G37*
%TD.AperFunction*%
%TD*%
%TO.P,D2,2*%
%TO.N,Net-(D2-Pad2)*%
%TA.AperFunction,SMDPad,CuDef*%
G36*
G01*
X127665900Y-119823550D02*
X127665900Y-118911050D01*
G75*
G02*
X127909650Y-118667300I243750J0D01*
G01*
X128397150Y-118667300D01*
G75*
G02*
X128640900Y-118911050I0J-243750D01*
G01*
X128640900Y-119823550D01*
G75*
G02*
X128397150Y-120067300I-243750J0D01*
G01*
X127909650Y-120067300D01*
G75*
G02*
X127665900Y-119823550I0J243750D01*
G01*
G37*
%TD.AperFunction*%
%TO.P,D2,1*%
%TO.N,Net-(D2-Pad1)*%
%TA.AperFunction,SMDPad,CuDef*%
G36*
G01*
X125790900Y-119823550D02*
X125790900Y-118911050D01*
G75*
G02*
X126034650Y-118667300I243750J0D01*
G01*
X126522150Y-118667300D01*
G75*
G02*
X126765900Y-118911050I0J-243750D01*
G01*
X126765900Y-119823550D01*
G75*
G02*
X126522150Y-120067300I-243750J0D01*
G01*
X126034650Y-120067300D01*
G75*
G02*
X125790900Y-119823550I0J243750D01*
G01*
G37*
%TD.AperFunction*%
%TD*%
%TO.P,D4,1*%
%TO.N,GND*%
%TA.AperFunction,SMDPad,CuDef*%
G36*
G01*
X150575330Y-184139900D02*
X149662830Y-184139900D01*
G75*
G02*
X149419080Y-183896150I0J243750D01*
G01*
X149419080Y-183408650D01*
G75*
G02*
X149662830Y-183164900I243750J0D01*
G01*
X150575330Y-183164900D01*
G75*
G02*
X150819080Y-183408650I0J-243750D01*
G01*
X150819080Y-183896150D01*
G75*
G02*
X150575330Y-184139900I-243750J0D01*
G01*
G37*
%TD.AperFunction*%
%TO.P,D4,2*%
%TO.N,Net-(D4-Pad2)*%
%TA.AperFunction,SMDPad,CuDef*%
G36*
G01*
X150575330Y-182264900D02*
X149662830Y-182264900D01*
G75*
G02*
X149419080Y-182021150I0J243750D01*
G01*
X149419080Y-181533650D01*
G75*
G02*
X149662830Y-181289900I243750J0D01*
G01*
X150575330Y-181289900D01*
G75*
G02*
X150819080Y-181533650I0J-243750D01*
G01*
X150819080Y-182021150D01*
G75*
G02*
X150575330Y-182264900I-243750J0D01*
G01*
G37*
%TD.AperFunction*%
%TD*%
%TO.P,D5,1*%
%TO.N,GND*%
%TA.AperFunction,SMDPad,CuDef*%
G36*
G01*
X143847760Y-121218010D02*
X143847760Y-120305510D01*
G75*
G02*
X144091510Y-120061760I243750J0D01*
G01*
X144579010Y-120061760D01*
G75*
G02*
X144822760Y-120305510I0J-243750D01*
G01*
X144822760Y-121218010D01*
G75*
G02*
X144579010Y-121461760I-243750J0D01*
G01*
X144091510Y-121461760D01*
G75*
G02*
X143847760Y-121218010I0J243750D01*
G01*
G37*
%TD.AperFunction*%
%TO.P,D5,2*%
%TO.N,Net-(D5-Pad2)*%
%TA.AperFunction,SMDPad,CuDef*%
G36*
G01*
X145722760Y-121218010D02*
X145722760Y-120305510D01*
G75*
G02*
X145966510Y-120061760I243750J0D01*
G01*
X146454010Y-120061760D01*
G75*
G02*
X146697760Y-120305510I0J-243750D01*
G01*
X146697760Y-121218010D01*
G75*
G02*
X146454010Y-121461760I-243750J0D01*
G01*
X145966510Y-121461760D01*
G75*
G02*
X145722760Y-121218010I0J243750D01*
G01*
G37*
%TD.AperFunction*%
%TD*%
D15*
%TO.P,J8,3*%
%TO.N,PWM_SERVO*%
X122521980Y-158826200D03*
%TO.P,J8,2*%
%TO.N,+5V*%
X122521980Y-161366200D03*
D16*
%TO.P,J8,1*%
%TO.N,GND*%
X122521980Y-163906200D03*
%TD*%
D27*
%TO.P,J11,1*%
%TO.N,GND*%
X113797080Y-138046460D03*
D28*
%TO.P,J11,2*%
%TO.N,Net-(J11-Pad2)*%
X113797080Y-143126460D03*
%TD*%
D29*
%TO.P,Q1,1*%
%TO.N,Net-(Q1-Pad1)*%
X106509780Y-141063220D03*
%TO.P,Q1,2*%
%TO.N,GND*%
X108409780Y-141063220D03*
%TO.P,Q1,3*%
%TO.N,Net-(Q1-Pad3)*%
X107459780Y-139063220D03*
%TD*%
D30*
%TO.P,Q2,1*%
%TO.N,Net-(Q2-Pad1)*%
X130677160Y-191383960D03*
%TO.P,Q2,2*%
%TO.N,/DTR*%
X130677160Y-189483960D03*
%TO.P,Q2,3*%
%TO.N,ESP_IO0*%
X128677160Y-190433960D03*
%TD*%
%TO.P,Q3,3*%
%TO.N,ESP_EN*%
X128674620Y-194124580D03*
%TO.P,Q3,2*%
%TO.N,/RTS*%
X130674620Y-193174580D03*
%TO.P,Q3,1*%
%TO.N,Net-(Q3-Pad1)*%
X130674620Y-195074580D03*
%TD*%
%TO.P,R1,2*%
%TO.N,EN_3V3*%
%TA.AperFunction,SMDPad,CuDef*%
G36*
G01*
X116452600Y-110498041D02*
X116452600Y-109598039D01*
G75*
G02*
X116702599Y-109348040I249999J0D01*
G01*
X117227601Y-109348040D01*
G75*
G02*
X117477600Y-109598039I0J-249999D01*
G01*
X117477600Y-110498041D01*
G75*
G02*
X117227601Y-110748040I-249999J0D01*
G01*
X116702599Y-110748040D01*
G75*
G02*
X116452600Y-110498041I0J249999D01*
G01*
G37*
%TD.AperFunction*%
%TO.P,R1,1*%
%TO.N,+BATT*%
%TA.AperFunction,SMDPad,CuDef*%
G36*
G01*
X114627600Y-110498041D02*
X114627600Y-109598039D01*
G75*
G02*
X114877599Y-109348040I249999J0D01*
G01*
X115402601Y-109348040D01*
G75*
G02*
X115652600Y-109598039I0J-249999D01*
G01*
X115652600Y-110498041D01*
G75*
G02*
X115402601Y-110748040I-249999J0D01*
G01*
X114877599Y-110748040D01*
G75*
G02*
X114627600Y-110498041I0J249999D01*
G01*
G37*
%TD.AperFunction*%
%TD*%
%TO.P,R2,2*%
%TO.N,GND*%
%TA.AperFunction,SMDPad,CuDef*%
G36*
G01*
X112084699Y-108774180D02*
X112984701Y-108774180D01*
G75*
G02*
X113234700Y-109024179I0J-249999D01*
G01*
X113234700Y-109549181D01*
G75*
G02*
X112984701Y-109799180I-249999J0D01*
G01*
X112084699Y-109799180D01*
G75*
G02*
X111834700Y-109549181I0J249999D01*
G01*
X111834700Y-109024179D01*
G75*
G02*
X112084699Y-108774180I249999J0D01*
G01*
G37*
%TD.AperFunction*%
%TO.P,R2,1*%
%TO.N,Net-(R2-Pad1)*%
%TA.AperFunction,SMDPad,CuDef*%
G36*
G01*
X112084699Y-106949180D02*
X112984701Y-106949180D01*
G75*
G02*
X113234700Y-107199179I0J-249999D01*
G01*
X113234700Y-107724181D01*
G75*
G02*
X112984701Y-107974180I-249999J0D01*
G01*
X112084699Y-107974180D01*
G75*
G02*
X111834700Y-107724181I0J249999D01*
G01*
X111834700Y-107199179D01*
G75*
G02*
X112084699Y-106949180I249999J0D01*
G01*
G37*
%TD.AperFunction*%
%TD*%
%TO.P,R3,1*%
%TO.N,/5V_USB*%
%TA.AperFunction,SMDPad,CuDef*%
G36*
G01*
X119509480Y-126418761D02*
X119509480Y-125518759D01*
G75*
G02*
X119759479Y-125268760I249999J0D01*
G01*
X120284481Y-125268760D01*
G75*
G02*
X120534480Y-125518759I0J-249999D01*
G01*
X120534480Y-126418761D01*
G75*
G02*
X120284481Y-126668760I-249999J0D01*
G01*
X119759479Y-126668760D01*
G75*
G02*
X119509480Y-126418761I0J249999D01*
G01*
G37*
%TD.AperFunction*%
%TO.P,R3,2*%
%TO.N,Net-(D2-Pad2)*%
%TA.AperFunction,SMDPad,CuDef*%
G36*
G01*
X121334480Y-126418761D02*
X121334480Y-125518759D01*
G75*
G02*
X121584479Y-125268760I249999J0D01*
G01*
X122109481Y-125268760D01*
G75*
G02*
X122359480Y-125518759I0J-249999D01*
G01*
X122359480Y-126418761D01*
G75*
G02*
X122109481Y-126668760I-249999J0D01*
G01*
X121584479Y-126668760D01*
G75*
G02*
X121334480Y-126418761I0J249999D01*
G01*
G37*
%TD.AperFunction*%
%TD*%
%TO.P,R5,2*%
%TO.N,Net-(D1-Pad2)*%
%TA.AperFunction,SMDPad,CuDef*%
G36*
G01*
X123247999Y-117387320D02*
X124148001Y-117387320D01*
G75*
G02*
X124398000Y-117637319I0J-249999D01*
G01*
X124398000Y-118162321D01*
G75*
G02*
X124148001Y-118412320I-249999J0D01*
G01*
X123247999Y-118412320D01*
G75*
G02*
X122998000Y-118162321I0J249999D01*
G01*
X122998000Y-117637319D01*
G75*
G02*
X123247999Y-117387320I249999J0D01*
G01*
G37*
%TD.AperFunction*%
%TO.P,R5,1*%
%TO.N,/5V_USB*%
%TA.AperFunction,SMDPad,CuDef*%
G36*
G01*
X123247999Y-115562320D02*
X124148001Y-115562320D01*
G75*
G02*
X124398000Y-115812319I0J-249999D01*
G01*
X124398000Y-116337321D01*
G75*
G02*
X124148001Y-116587320I-249999J0D01*
G01*
X123247999Y-116587320D01*
G75*
G02*
X122998000Y-116337321I0J249999D01*
G01*
X122998000Y-115812319D01*
G75*
G02*
X123247999Y-115562320I249999J0D01*
G01*
G37*
%TD.AperFunction*%
%TD*%
%TO.P,R7,1*%
%TO.N,Net-(C5-Pad2)*%
%TA.AperFunction,SMDPad,CuDef*%
G36*
G01*
X138508319Y-106728200D02*
X139408321Y-106728200D01*
G75*
G02*
X139658320Y-106978199I0J-249999D01*
G01*
X139658320Y-107503201D01*
G75*
G02*
X139408321Y-107753200I-249999J0D01*
G01*
X138508319Y-107753200D01*
G75*
G02*
X138258320Y-107503201I0J249999D01*
G01*
X138258320Y-106978199D01*
G75*
G02*
X138508319Y-106728200I249999J0D01*
G01*
G37*
%TD.AperFunction*%
%TO.P,R7,2*%
%TO.N,Net-(C4-Pad2)*%
%TA.AperFunction,SMDPad,CuDef*%
G36*
G01*
X138508319Y-108553200D02*
X139408321Y-108553200D01*
G75*
G02*
X139658320Y-108803199I0J-249999D01*
G01*
X139658320Y-109328201D01*
G75*
G02*
X139408321Y-109578200I-249999J0D01*
G01*
X138508319Y-109578200D01*
G75*
G02*
X138258320Y-109328201I0J249999D01*
G01*
X138258320Y-108803199D01*
G75*
G02*
X138508319Y-108553200I249999J0D01*
G01*
G37*
%TD.AperFunction*%
%TD*%
%TO.P,R8,2*%
%TO.N,Net-(C4-Pad1)*%
%TA.AperFunction,SMDPad,CuDef*%
G36*
G01*
X139072199Y-114194540D02*
X139972201Y-114194540D01*
G75*
G02*
X140222200Y-114444539I0J-249999D01*
G01*
X140222200Y-114969541D01*
G75*
G02*
X139972201Y-115219540I-249999J0D01*
G01*
X139072199Y-115219540D01*
G75*
G02*
X138822200Y-114969541I0J249999D01*
G01*
X138822200Y-114444539D01*
G75*
G02*
X139072199Y-114194540I249999J0D01*
G01*
G37*
%TD.AperFunction*%
%TO.P,R8,1*%
%TO.N,+3V3*%
%TA.AperFunction,SMDPad,CuDef*%
G36*
G01*
X139072199Y-112369540D02*
X139972201Y-112369540D01*
G75*
G02*
X140222200Y-112619539I0J-249999D01*
G01*
X140222200Y-113144541D01*
G75*
G02*
X139972201Y-113394540I-249999J0D01*
G01*
X139072199Y-113394540D01*
G75*
G02*
X138822200Y-113144541I0J249999D01*
G01*
X138822200Y-112619539D01*
G75*
G02*
X139072199Y-112369540I249999J0D01*
G01*
G37*
%TD.AperFunction*%
%TD*%
%TO.P,R9,1*%
%TO.N,Net-(C4-Pad1)*%
%TA.AperFunction,SMDPad,CuDef*%
G36*
G01*
X139077279Y-115940780D02*
X139977281Y-115940780D01*
G75*
G02*
X140227280Y-116190779I0J-249999D01*
G01*
X140227280Y-116715781D01*
G75*
G02*
X139977281Y-116965780I-249999J0D01*
G01*
X139077279Y-116965780D01*
G75*
G02*
X138827280Y-116715781I0J249999D01*
G01*
X138827280Y-116190779D01*
G75*
G02*
X139077279Y-115940780I249999J0D01*
G01*
G37*
%TD.AperFunction*%
%TO.P,R9,2*%
%TO.N,GND*%
%TA.AperFunction,SMDPad,CuDef*%
G36*
G01*
X139077279Y-117765780D02*
X139977281Y-117765780D01*
G75*
G02*
X140227280Y-118015779I0J-249999D01*
G01*
X140227280Y-118540781D01*
G75*
G02*
X139977281Y-118790780I-249999J0D01*
G01*
X139077279Y-118790780D01*
G75*
G02*
X138827280Y-118540781I0J249999D01*
G01*
X138827280Y-118015779D01*
G75*
G02*
X139077279Y-117765780I249999J0D01*
G01*
G37*
%TD.AperFunction*%
%TD*%
%TO.P,R10,1*%
%TO.N,Net-(R10-Pad1)*%
%TA.AperFunction,SMDPad,CuDef*%
G36*
G01*
X117223740Y-118814001D02*
X117223740Y-117913999D01*
G75*
G02*
X117473739Y-117664000I249999J0D01*
G01*
X118173741Y-117664000D01*
G75*
G02*
X118423740Y-117913999I0J-249999D01*
G01*
X118423740Y-118814001D01*
G75*
G02*
X118173741Y-119064000I-249999J0D01*
G01*
X117473739Y-119064000D01*
G75*
G02*
X117223740Y-118814001I0J249999D01*
G01*
G37*
%TD.AperFunction*%
%TO.P,R10,2*%
%TO.N,GND*%
%TA.AperFunction,SMDPad,CuDef*%
G36*
G01*
X119223740Y-118814001D02*
X119223740Y-117913999D01*
G75*
G02*
X119473739Y-117664000I249999J0D01*
G01*
X120173741Y-117664000D01*
G75*
G02*
X120423740Y-117913999I0J-249999D01*
G01*
X120423740Y-118814001D01*
G75*
G02*
X120173741Y-119064000I-249999J0D01*
G01*
X119473739Y-119064000D01*
G75*
G02*
X119223740Y-118814001I0J249999D01*
G01*
G37*
%TD.AperFunction*%
%TD*%
%TO.P,R11,1*%
%TO.N,+3V3*%
%TA.AperFunction,SMDPad,CuDef*%
G36*
G01*
X141652839Y-112405100D02*
X142552841Y-112405100D01*
G75*
G02*
X142802840Y-112655099I0J-249999D01*
G01*
X142802840Y-113180101D01*
G75*
G02*
X142552841Y-113430100I-249999J0D01*
G01*
X141652839Y-113430100D01*
G75*
G02*
X141402840Y-113180101I0J249999D01*
G01*
X141402840Y-112655099D01*
G75*
G02*
X141652839Y-112405100I249999J0D01*
G01*
G37*
%TD.AperFunction*%
%TO.P,R11,2*%
%TO.N,Net-(C6-Pad1)*%
%TA.AperFunction,SMDPad,CuDef*%
G36*
G01*
X141652839Y-114230100D02*
X142552841Y-114230100D01*
G75*
G02*
X142802840Y-114480099I0J-249999D01*
G01*
X142802840Y-115005101D01*
G75*
G02*
X142552841Y-115255100I-249999J0D01*
G01*
X141652839Y-115255100D01*
G75*
G02*
X141402840Y-115005101I0J249999D01*
G01*
X141402840Y-114480099D01*
G75*
G02*
X141652839Y-114230100I249999J0D01*
G01*
G37*
%TD.AperFunction*%
%TD*%
%TO.P,R12,2*%
%TO.N,/D-*%
%TA.AperFunction,SMDPad,CuDef*%
G36*
G01*
X132418241Y-180127960D02*
X131518239Y-180127960D01*
G75*
G02*
X131268240Y-179877961I0J249999D01*
G01*
X131268240Y-179352959D01*
G75*
G02*
X131518239Y-179102960I249999J0D01*
G01*
X132418241Y-179102960D01*
G75*
G02*
X132668240Y-179352959I0J-249999D01*
G01*
X132668240Y-179877961D01*
G75*
G02*
X132418241Y-180127960I-249999J0D01*
G01*
G37*
%TD.AperFunction*%
%TO.P,R12,1*%
%TO.N,Net-(R12-Pad1)*%
%TA.AperFunction,SMDPad,CuDef*%
G36*
G01*
X132418241Y-181952960D02*
X131518239Y-181952960D01*
G75*
G02*
X131268240Y-181702961I0J249999D01*
G01*
X131268240Y-181177959D01*
G75*
G02*
X131518239Y-180927960I249999J0D01*
G01*
X132418241Y-180927960D01*
G75*
G02*
X132668240Y-181177959I0J-249999D01*
G01*
X132668240Y-181702961D01*
G75*
G02*
X132418241Y-181952960I-249999J0D01*
G01*
G37*
%TD.AperFunction*%
%TD*%
%TO.P,R13,1*%
%TO.N,Net-(R13-Pad1)*%
%TA.AperFunction,SMDPad,CuDef*%
G36*
G01*
X129794421Y-183955120D02*
X128894419Y-183955120D01*
G75*
G02*
X128644420Y-183705121I0J249999D01*
G01*
X128644420Y-183180119D01*
G75*
G02*
X128894419Y-182930120I249999J0D01*
G01*
X129794421Y-182930120D01*
G75*
G02*
X130044420Y-183180119I0J-249999D01*
G01*
X130044420Y-183705121D01*
G75*
G02*
X129794421Y-183955120I-249999J0D01*
G01*
G37*
%TD.AperFunction*%
%TO.P,R13,2*%
%TO.N,/D+*%
%TA.AperFunction,SMDPad,CuDef*%
G36*
G01*
X129794421Y-182130120D02*
X128894419Y-182130120D01*
G75*
G02*
X128644420Y-181880121I0J249999D01*
G01*
X128644420Y-181355119D01*
G75*
G02*
X128894419Y-181105120I249999J0D01*
G01*
X129794421Y-181105120D01*
G75*
G02*
X130044420Y-181355119I0J-249999D01*
G01*
X130044420Y-181880121D01*
G75*
G02*
X129794421Y-182130120I-249999J0D01*
G01*
G37*
%TD.AperFunction*%
%TD*%
%TO.P,R14,2*%
%TO.N,Net-(R14-Pad2)*%
%TA.AperFunction,SMDPad,CuDef*%
G36*
G01*
X141340160Y-191059221D02*
X141340160Y-190159219D01*
G75*
G02*
X141590159Y-189909220I249999J0D01*
G01*
X142115161Y-189909220D01*
G75*
G02*
X142365160Y-190159219I0J-249999D01*
G01*
X142365160Y-191059221D01*
G75*
G02*
X142115161Y-191309220I-249999J0D01*
G01*
X141590159Y-191309220D01*
G75*
G02*
X141340160Y-191059221I0J249999D01*
G01*
G37*
%TD.AperFunction*%
%TO.P,R14,1*%
%TO.N,/5V_USB*%
%TA.AperFunction,SMDPad,CuDef*%
G36*
G01*
X139515160Y-191059221D02*
X139515160Y-190159219D01*
G75*
G02*
X139765159Y-189909220I249999J0D01*
G01*
X140290161Y-189909220D01*
G75*
G02*
X140540160Y-190159219I0J-249999D01*
G01*
X140540160Y-191059221D01*
G75*
G02*
X140290161Y-191309220I-249999J0D01*
G01*
X139765159Y-191309220D01*
G75*
G02*
X139515160Y-191059221I0J249999D01*
G01*
G37*
%TD.AperFunction*%
%TD*%
%TO.P,R15,1*%
%TO.N,Net-(Q1-Pad1)*%
%TA.AperFunction,SMDPad,CuDef*%
G36*
G01*
X105986520Y-143891421D02*
X105986520Y-142991419D01*
G75*
G02*
X106236519Y-142741420I249999J0D01*
G01*
X106761521Y-142741420D01*
G75*
G02*
X107011520Y-142991419I0J-249999D01*
G01*
X107011520Y-143891421D01*
G75*
G02*
X106761521Y-144141420I-249999J0D01*
G01*
X106236519Y-144141420D01*
G75*
G02*
X105986520Y-143891421I0J249999D01*
G01*
G37*
%TD.AperFunction*%
%TO.P,R15,2*%
%TO.N,EN_5V*%
%TA.AperFunction,SMDPad,CuDef*%
G36*
G01*
X107811520Y-143891421D02*
X107811520Y-142991419D01*
G75*
G02*
X108061519Y-142741420I249999J0D01*
G01*
X108586521Y-142741420D01*
G75*
G02*
X108836520Y-142991419I0J-249999D01*
G01*
X108836520Y-143891421D01*
G75*
G02*
X108586521Y-144141420I-249999J0D01*
G01*
X108061519Y-144141420D01*
G75*
G02*
X107811520Y-143891421I0J249999D01*
G01*
G37*
%TD.AperFunction*%
%TD*%
%TO.P,R16,2*%
%TO.N,SDA*%
%TA.AperFunction,SMDPad,CuDef*%
G36*
G01*
X137252660Y-159342241D02*
X137252660Y-158442239D01*
G75*
G02*
X137502659Y-158192240I249999J0D01*
G01*
X138027661Y-158192240D01*
G75*
G02*
X138277660Y-158442239I0J-249999D01*
G01*
X138277660Y-159342241D01*
G75*
G02*
X138027661Y-159592240I-249999J0D01*
G01*
X137502659Y-159592240D01*
G75*
G02*
X137252660Y-159342241I0J249999D01*
G01*
G37*
%TD.AperFunction*%
%TO.P,R16,1*%
%TO.N,VDD*%
%TA.AperFunction,SMDPad,CuDef*%
G36*
G01*
X135427660Y-159342241D02*
X135427660Y-158442239D01*
G75*
G02*
X135677659Y-158192240I249999J0D01*
G01*
X136202661Y-158192240D01*
G75*
G02*
X136452660Y-158442239I0J-249999D01*
G01*
X136452660Y-159342241D01*
G75*
G02*
X136202661Y-159592240I-249999J0D01*
G01*
X135677659Y-159592240D01*
G75*
G02*
X135427660Y-159342241I0J249999D01*
G01*
G37*
%TD.AperFunction*%
%TD*%
%TO.P,R17,1*%
%TO.N,+BATT*%
%TA.AperFunction,SMDPad,CuDef*%
G36*
G01*
X105226699Y-134226240D02*
X106126701Y-134226240D01*
G75*
G02*
X106376700Y-134476239I0J-249999D01*
G01*
X106376700Y-135001241D01*
G75*
G02*
X106126701Y-135251240I-249999J0D01*
G01*
X105226699Y-135251240D01*
G75*
G02*
X104976700Y-135001241I0J249999D01*
G01*
X104976700Y-134476239D01*
G75*
G02*
X105226699Y-134226240I249999J0D01*
G01*
G37*
%TD.AperFunction*%
%TO.P,R17,2*%
%TO.N,Net-(Q1-Pad3)*%
%TA.AperFunction,SMDPad,CuDef*%
G36*
G01*
X105226699Y-136051240D02*
X106126701Y-136051240D01*
G75*
G02*
X106376700Y-136301239I0J-249999D01*
G01*
X106376700Y-136826241D01*
G75*
G02*
X106126701Y-137076240I-249999J0D01*
G01*
X105226699Y-137076240D01*
G75*
G02*
X104976700Y-136826241I0J249999D01*
G01*
X104976700Y-136301239D01*
G75*
G02*
X105226699Y-136051240I249999J0D01*
G01*
G37*
%TD.AperFunction*%
%TD*%
%TO.P,R18,1*%
%TO.N,VDD*%
%TA.AperFunction,SMDPad,CuDef*%
G36*
G01*
X143821840Y-158434619D02*
X143821840Y-159334621D01*
G75*
G02*
X143571841Y-159584620I-249999J0D01*
G01*
X143046839Y-159584620D01*
G75*
G02*
X142796840Y-159334621I0J249999D01*
G01*
X142796840Y-158434619D01*
G75*
G02*
X143046839Y-158184620I249999J0D01*
G01*
X143571841Y-158184620D01*
G75*
G02*
X143821840Y-158434619I0J-249999D01*
G01*
G37*
%TD.AperFunction*%
%TO.P,R18,2*%
%TO.N,SCL*%
%TA.AperFunction,SMDPad,CuDef*%
G36*
G01*
X141996840Y-158434619D02*
X141996840Y-159334621D01*
G75*
G02*
X141746841Y-159584620I-249999J0D01*
G01*
X141221839Y-159584620D01*
G75*
G02*
X140971840Y-159334621I0J249999D01*
G01*
X140971840Y-158434619D01*
G75*
G02*
X141221839Y-158184620I249999J0D01*
G01*
X141746841Y-158184620D01*
G75*
G02*
X141996840Y-158434619I0J-249999D01*
G01*
G37*
%TD.AperFunction*%
%TD*%
%TO.P,R19,2*%
%TO.N,Net-(R19-Pad2)*%
%TA.AperFunction,SMDPad,CuDef*%
G36*
G01*
X138867301Y-129439720D02*
X137967299Y-129439720D01*
G75*
G02*
X137717300Y-129189721I0J249999D01*
G01*
X137717300Y-128664719D01*
G75*
G02*
X137967299Y-128414720I249999J0D01*
G01*
X138867301Y-128414720D01*
G75*
G02*
X139117300Y-128664719I0J-249999D01*
G01*
X139117300Y-129189721D01*
G75*
G02*
X138867301Y-129439720I-249999J0D01*
G01*
G37*
%TD.AperFunction*%
%TO.P,R19,1*%
%TO.N,+BATT*%
%TA.AperFunction,SMDPad,CuDef*%
G36*
G01*
X138867301Y-131264720D02*
X137967299Y-131264720D01*
G75*
G02*
X137717300Y-131014721I0J249999D01*
G01*
X137717300Y-130489719D01*
G75*
G02*
X137967299Y-130239720I249999J0D01*
G01*
X138867301Y-130239720D01*
G75*
G02*
X139117300Y-130489719I0J-249999D01*
G01*
X139117300Y-131014721D01*
G75*
G02*
X138867301Y-131264720I-249999J0D01*
G01*
G37*
%TD.AperFunction*%
%TD*%
%TO.P,R20,2*%
%TO.N,GND*%
%TA.AperFunction,SMDPad,CuDef*%
G36*
G01*
X138895241Y-125830380D02*
X137995239Y-125830380D01*
G75*
G02*
X137745240Y-125580381I0J249999D01*
G01*
X137745240Y-125055379D01*
G75*
G02*
X137995239Y-124805380I249999J0D01*
G01*
X138895241Y-124805380D01*
G75*
G02*
X139145240Y-125055379I0J-249999D01*
G01*
X139145240Y-125580381D01*
G75*
G02*
X138895241Y-125830380I-249999J0D01*
G01*
G37*
%TD.AperFunction*%
%TO.P,R20,1*%
%TO.N,Net-(R19-Pad2)*%
%TA.AperFunction,SMDPad,CuDef*%
G36*
G01*
X138895241Y-127655380D02*
X137995239Y-127655380D01*
G75*
G02*
X137745240Y-127405381I0J249999D01*
G01*
X137745240Y-126880379D01*
G75*
G02*
X137995239Y-126630380I249999J0D01*
G01*
X138895241Y-126630380D01*
G75*
G02*
X139145240Y-126880379I0J-249999D01*
G01*
X139145240Y-127405381D01*
G75*
G02*
X138895241Y-127655380I-249999J0D01*
G01*
G37*
%TD.AperFunction*%
%TD*%
%TO.P,R21,1*%
%TO.N,+BATT*%
%TA.AperFunction,SMDPad,CuDef*%
G36*
G01*
X138048700Y-135948400D02*
X138048700Y-136898400D01*
G75*
G02*
X137798700Y-137148400I-250000J0D01*
G01*
X137298700Y-137148400D01*
G75*
G02*
X137048700Y-136898400I0J250000D01*
G01*
X137048700Y-135948400D01*
G75*
G02*
X137298700Y-135698400I250000J0D01*
G01*
X137798700Y-135698400D01*
G75*
G02*
X138048700Y-135948400I0J-250000D01*
G01*
G37*
%TD.AperFunction*%
%TO.P,R21,2*%
%TO.N,BATT_LEVEL*%
%TA.AperFunction,SMDPad,CuDef*%
G36*
G01*
X136148700Y-135948400D02*
X136148700Y-136898400D01*
G75*
G02*
X135898700Y-137148400I-250000J0D01*
G01*
X135398700Y-137148400D01*
G75*
G02*
X135148700Y-136898400I0J250000D01*
G01*
X135148700Y-135948400D01*
G75*
G02*
X135398700Y-135698400I250000J0D01*
G01*
X135898700Y-135698400D01*
G75*
G02*
X136148700Y-135948400I0J-250000D01*
G01*
G37*
%TD.AperFunction*%
%TD*%
%TO.P,R22,2*%
%TO.N,GND*%
%TA.AperFunction,SMDPad,CuDef*%
G36*
G01*
X132407240Y-135915380D02*
X132407240Y-136865380D01*
G75*
G02*
X132157240Y-137115380I-250000J0D01*
G01*
X131657240Y-137115380D01*
G75*
G02*
X131407240Y-136865380I0J250000D01*
G01*
X131407240Y-135915380D01*
G75*
G02*
X131657240Y-135665380I250000J0D01*
G01*
X132157240Y-135665380D01*
G75*
G02*
X132407240Y-135915380I0J-250000D01*
G01*
G37*
%TD.AperFunction*%
%TO.P,R22,1*%
%TO.N,BATT_LEVEL*%
%TA.AperFunction,SMDPad,CuDef*%
G36*
G01*
X134307240Y-135915380D02*
X134307240Y-136865380D01*
G75*
G02*
X134057240Y-137115380I-250000J0D01*
G01*
X133557240Y-137115380D01*
G75*
G02*
X133307240Y-136865380I0J250000D01*
G01*
X133307240Y-135915380D01*
G75*
G02*
X133557240Y-135665380I250000J0D01*
G01*
X134057240Y-135665380D01*
G75*
G02*
X134307240Y-135915380I0J-250000D01*
G01*
G37*
%TD.AperFunction*%
%TD*%
%TO.P,R23,2*%
%TO.N,/RTS*%
%TA.AperFunction,SMDPad,CuDef*%
G36*
G01*
X133988760Y-191833921D02*
X133988760Y-190933919D01*
G75*
G02*
X134238759Y-190683920I249999J0D01*
G01*
X134763761Y-190683920D01*
G75*
G02*
X135013760Y-190933919I0J-249999D01*
G01*
X135013760Y-191833921D01*
G75*
G02*
X134763761Y-192083920I-249999J0D01*
G01*
X134238759Y-192083920D01*
G75*
G02*
X133988760Y-191833921I0J249999D01*
G01*
G37*
%TD.AperFunction*%
%TO.P,R23,1*%
%TO.N,Net-(Q2-Pad1)*%
%TA.AperFunction,SMDPad,CuDef*%
G36*
G01*
X132163760Y-191833921D02*
X132163760Y-190933919D01*
G75*
G02*
X132413759Y-190683920I249999J0D01*
G01*
X132938761Y-190683920D01*
G75*
G02*
X133188760Y-190933919I0J-249999D01*
G01*
X133188760Y-191833921D01*
G75*
G02*
X132938761Y-192083920I-249999J0D01*
G01*
X132413759Y-192083920D01*
G75*
G02*
X132163760Y-191833921I0J249999D01*
G01*
G37*
%TD.AperFunction*%
%TD*%
%TO.P,R24,2*%
%TO.N,/DTR*%
%TA.AperFunction,SMDPad,CuDef*%
G36*
G01*
X133977960Y-195562641D02*
X133977960Y-194662639D01*
G75*
G02*
X134227959Y-194412640I249999J0D01*
G01*
X134752961Y-194412640D01*
G75*
G02*
X135002960Y-194662639I0J-249999D01*
G01*
X135002960Y-195562641D01*
G75*
G02*
X134752961Y-195812640I-249999J0D01*
G01*
X134227959Y-195812640D01*
G75*
G02*
X133977960Y-195562641I0J249999D01*
G01*
G37*
%TD.AperFunction*%
%TO.P,R24,1*%
%TO.N,Net-(Q3-Pad1)*%
%TA.AperFunction,SMDPad,CuDef*%
G36*
G01*
X132152960Y-195562641D02*
X132152960Y-194662639D01*
G75*
G02*
X132402959Y-194412640I249999J0D01*
G01*
X132927961Y-194412640D01*
G75*
G02*
X133177960Y-194662639I0J-249999D01*
G01*
X133177960Y-195562641D01*
G75*
G02*
X132927961Y-195812640I-249999J0D01*
G01*
X132402959Y-195812640D01*
G75*
G02*
X132152960Y-195562641I0J249999D01*
G01*
G37*
%TD.AperFunction*%
%TD*%
%TO.P,R26,2*%
%TO.N,Net-(R26-Pad2)*%
%TA.AperFunction,SMDPad,CuDef*%
G36*
G01*
X127973241Y-132106720D02*
X127073239Y-132106720D01*
G75*
G02*
X126823240Y-131856721I0J249999D01*
G01*
X126823240Y-131331719D01*
G75*
G02*
X127073239Y-131081720I249999J0D01*
G01*
X127973241Y-131081720D01*
G75*
G02*
X128223240Y-131331719I0J-249999D01*
G01*
X128223240Y-131856721D01*
G75*
G02*
X127973241Y-132106720I-249999J0D01*
G01*
G37*
%TD.AperFunction*%
%TO.P,R26,1*%
%TO.N,+5V*%
%TA.AperFunction,SMDPad,CuDef*%
G36*
G01*
X127973241Y-133931720D02*
X127073239Y-133931720D01*
G75*
G02*
X126823240Y-133681721I0J249999D01*
G01*
X126823240Y-133156719D01*
G75*
G02*
X127073239Y-132906720I249999J0D01*
G01*
X127973241Y-132906720D01*
G75*
G02*
X128223240Y-133156719I0J-249999D01*
G01*
X128223240Y-133681721D01*
G75*
G02*
X127973241Y-133931720I-249999J0D01*
G01*
G37*
%TD.AperFunction*%
%TD*%
%TO.P,R27,1*%
%TO.N,Net-(R26-Pad2)*%
%TA.AperFunction,SMDPad,CuDef*%
G36*
G01*
X128033200Y-128475319D02*
X128033200Y-129375321D01*
G75*
G02*
X127783201Y-129625320I-249999J0D01*
G01*
X127258199Y-129625320D01*
G75*
G02*
X127008200Y-129375321I0J249999D01*
G01*
X127008200Y-128475319D01*
G75*
G02*
X127258199Y-128225320I249999J0D01*
G01*
X127783201Y-128225320D01*
G75*
G02*
X128033200Y-128475319I0J-249999D01*
G01*
G37*
%TD.AperFunction*%
%TO.P,R27,2*%
%TO.N,GND*%
%TA.AperFunction,SMDPad,CuDef*%
G36*
G01*
X126208200Y-128475319D02*
X126208200Y-129375321D01*
G75*
G02*
X125958201Y-129625320I-249999J0D01*
G01*
X125433199Y-129625320D01*
G75*
G02*
X125183200Y-129375321I0J249999D01*
G01*
X125183200Y-128475319D01*
G75*
G02*
X125433199Y-128225320I249999J0D01*
G01*
X125958201Y-128225320D01*
G75*
G02*
X126208200Y-128475319I0J-249999D01*
G01*
G37*
%TD.AperFunction*%
%TD*%
%TO.P,R28,1*%
%TO.N,3V3_FTDI*%
%TA.AperFunction,SMDPad,CuDef*%
G36*
G01*
X120320221Y-195193340D02*
X119420219Y-195193340D01*
G75*
G02*
X119170220Y-194943341I0J249999D01*
G01*
X119170220Y-194418339D01*
G75*
G02*
X119420219Y-194168340I249999J0D01*
G01*
X120320221Y-194168340D01*
G75*
G02*
X120570220Y-194418339I0J-249999D01*
G01*
X120570220Y-194943341D01*
G75*
G02*
X120320221Y-195193340I-249999J0D01*
G01*
G37*
%TD.AperFunction*%
%TO.P,R28,2*%
%TO.N,ESP_IO0*%
%TA.AperFunction,SMDPad,CuDef*%
G36*
G01*
X120320221Y-193368340D02*
X119420219Y-193368340D01*
G75*
G02*
X119170220Y-193118341I0J249999D01*
G01*
X119170220Y-192593339D01*
G75*
G02*
X119420219Y-192343340I249999J0D01*
G01*
X120320221Y-192343340D01*
G75*
G02*
X120570220Y-192593339I0J-249999D01*
G01*
X120570220Y-193118341D01*
G75*
G02*
X120320221Y-193368340I-249999J0D01*
G01*
G37*
%TD.AperFunction*%
%TD*%
%TO.P,R29,2*%
%TO.N,ESP_EN*%
%TA.AperFunction,SMDPad,CuDef*%
G36*
G01*
X127109641Y-194722800D02*
X126209639Y-194722800D01*
G75*
G02*
X125959640Y-194472801I0J249999D01*
G01*
X125959640Y-193947799D01*
G75*
G02*
X126209639Y-193697800I249999J0D01*
G01*
X127109641Y-193697800D01*
G75*
G02*
X127359640Y-193947799I0J-249999D01*
G01*
X127359640Y-194472801D01*
G75*
G02*
X127109641Y-194722800I-249999J0D01*
G01*
G37*
%TD.AperFunction*%
%TO.P,R29,1*%
%TO.N,3V3_FTDI*%
%TA.AperFunction,SMDPad,CuDef*%
G36*
G01*
X127109641Y-196547800D02*
X126209639Y-196547800D01*
G75*
G02*
X125959640Y-196297801I0J249999D01*
G01*
X125959640Y-195772799D01*
G75*
G02*
X126209639Y-195522800I249999J0D01*
G01*
X127109641Y-195522800D01*
G75*
G02*
X127359640Y-195772799I0J-249999D01*
G01*
X127359640Y-196297801D01*
G75*
G02*
X127109641Y-196547800I-249999J0D01*
G01*
G37*
%TD.AperFunction*%
%TD*%
%TO.P,R30,1*%
%TO.N,Net-(R30-Pad1)*%
%TA.AperFunction,SMDPad,CuDef*%
G36*
G01*
X149658919Y-177576420D02*
X150558921Y-177576420D01*
G75*
G02*
X150808920Y-177826419I0J-249999D01*
G01*
X150808920Y-178351421D01*
G75*
G02*
X150558921Y-178601420I-249999J0D01*
G01*
X149658919Y-178601420D01*
G75*
G02*
X149408920Y-178351421I0J249999D01*
G01*
X149408920Y-177826419D01*
G75*
G02*
X149658919Y-177576420I249999J0D01*
G01*
G37*
%TD.AperFunction*%
%TO.P,R30,2*%
%TO.N,Net-(D4-Pad2)*%
%TA.AperFunction,SMDPad,CuDef*%
G36*
G01*
X149658919Y-179401420D02*
X150558921Y-179401420D01*
G75*
G02*
X150808920Y-179651419I0J-249999D01*
G01*
X150808920Y-180176421D01*
G75*
G02*
X150558921Y-180426420I-249999J0D01*
G01*
X149658919Y-180426420D01*
G75*
G02*
X149408920Y-180176421I0J249999D01*
G01*
X149408920Y-179651419D01*
G75*
G02*
X149658919Y-179401420I249999J0D01*
G01*
G37*
%TD.AperFunction*%
%TD*%
%TO.P,R31,1*%
%TO.N,VDD*%
%TA.AperFunction,SMDPad,CuDef*%
G36*
G01*
X150578880Y-120276199D02*
X150578880Y-121176201D01*
G75*
G02*
X150328881Y-121426200I-249999J0D01*
G01*
X149803879Y-121426200D01*
G75*
G02*
X149553880Y-121176201I0J249999D01*
G01*
X149553880Y-120276199D01*
G75*
G02*
X149803879Y-120026200I249999J0D01*
G01*
X150328881Y-120026200D01*
G75*
G02*
X150578880Y-120276199I0J-249999D01*
G01*
G37*
%TD.AperFunction*%
%TO.P,R31,2*%
%TO.N,Net-(D5-Pad2)*%
%TA.AperFunction,SMDPad,CuDef*%
G36*
G01*
X148753880Y-120276199D02*
X148753880Y-121176201D01*
G75*
G02*
X148503881Y-121426200I-249999J0D01*
G01*
X147978879Y-121426200D01*
G75*
G02*
X147728880Y-121176201I0J249999D01*
G01*
X147728880Y-120276199D01*
G75*
G02*
X147978879Y-120026200I249999J0D01*
G01*
X148503881Y-120026200D01*
G75*
G02*
X148753880Y-120276199I0J-249999D01*
G01*
G37*
%TD.AperFunction*%
%TD*%
%TO.P,U2,21*%
%TO.N,GND*%
%TA.AperFunction,SMDPad,CuDef*%
G36*
G01*
X117215180Y-108178862D02*
X117215180Y-102178858D01*
G75*
G02*
X117465178Y-101928860I249998J0D01*
G01*
X120365182Y-101928860D01*
G75*
G02*
X120615180Y-102178858I0J-249998D01*
G01*
X120615180Y-108178862D01*
G75*
G02*
X120365182Y-108428860I-249998J0D01*
G01*
X117465178Y-108428860D01*
G75*
G02*
X117215180Y-108178862I0J249998D01*
G01*
G37*
%TD.AperFunction*%
D31*
X117615180Y-102578860D03*
X118915180Y-102578860D03*
X120215180Y-102578860D03*
X117615180Y-103878860D03*
X118915180Y-103878860D03*
X120215180Y-103878860D03*
X117615180Y-105178860D03*
X118915180Y-105178860D03*
X120215180Y-105178860D03*
X117615180Y-106478860D03*
X118915180Y-106478860D03*
X120215180Y-106478860D03*
X117615180Y-107778860D03*
X118915180Y-107778860D03*
X120215180Y-107778860D03*
%TO.P,U2,1*%
%TA.AperFunction,SMDPad,CuDef*%
G36*
G01*
X115265180Y-102353860D02*
X115265180Y-102153860D01*
G75*
G02*
X115365180Y-102053860I100000J0D01*
G01*
X116740180Y-102053860D01*
G75*
G02*
X116840180Y-102153860I0J-100000D01*
G01*
X116840180Y-102353860D01*
G75*
G02*
X116740180Y-102453860I-100000J0D01*
G01*
X115365180Y-102453860D01*
G75*
G02*
X115265180Y-102353860I0J100000D01*
G01*
G37*
%TD.AperFunction*%
%TO.P,U2,2*%
%TO.N,+3V3*%
%TA.AperFunction,SMDPad,CuDef*%
G36*
G01*
X115265180Y-103003860D02*
X115265180Y-102803860D01*
G75*
G02*
X115365180Y-102703860I100000J0D01*
G01*
X116740180Y-102703860D01*
G75*
G02*
X116840180Y-102803860I0J-100000D01*
G01*
X116840180Y-103003860D01*
G75*
G02*
X116740180Y-103103860I-100000J0D01*
G01*
X115365180Y-103103860D01*
G75*
G02*
X115265180Y-103003860I0J100000D01*
G01*
G37*
%TD.AperFunction*%
%TO.P,U2,3*%
%TA.AperFunction,SMDPad,CuDef*%
G36*
G01*
X115265180Y-103653860D02*
X115265180Y-103453860D01*
G75*
G02*
X115365180Y-103353860I100000J0D01*
G01*
X116740180Y-103353860D01*
G75*
G02*
X116840180Y-103453860I0J-100000D01*
G01*
X116840180Y-103653860D01*
G75*
G02*
X116740180Y-103753860I-100000J0D01*
G01*
X115365180Y-103753860D01*
G75*
G02*
X115265180Y-103653860I0J100000D01*
G01*
G37*
%TD.AperFunction*%
%TO.P,U2,4*%
%TO.N,+BATT*%
%TA.AperFunction,SMDPad,CuDef*%
G36*
G01*
X115265180Y-104303860D02*
X115265180Y-104103860D01*
G75*
G02*
X115365180Y-104003860I100000J0D01*
G01*
X116740180Y-104003860D01*
G75*
G02*
X116840180Y-104103860I0J-100000D01*
G01*
X116840180Y-104303860D01*
G75*
G02*
X116740180Y-104403860I-100000J0D01*
G01*
X115365180Y-104403860D01*
G75*
G02*
X115265180Y-104303860I0J100000D01*
G01*
G37*
%TD.AperFunction*%
%TO.P,U2,5*%
%TA.AperFunction,SMDPad,CuDef*%
G36*
G01*
X115265180Y-104953860D02*
X115265180Y-104753860D01*
G75*
G02*
X115365180Y-104653860I100000J0D01*
G01*
X116740180Y-104653860D01*
G75*
G02*
X116840180Y-104753860I0J-100000D01*
G01*
X116840180Y-104953860D01*
G75*
G02*
X116740180Y-105053860I-100000J0D01*
G01*
X115365180Y-105053860D01*
G75*
G02*
X115265180Y-104953860I0J100000D01*
G01*
G37*
%TD.AperFunction*%
%TO.P,U2,6*%
%TA.AperFunction,SMDPad,CuDef*%
G36*
G01*
X115265180Y-105603860D02*
X115265180Y-105403860D01*
G75*
G02*
X115365180Y-105303860I100000J0D01*
G01*
X116740180Y-105303860D01*
G75*
G02*
X116840180Y-105403860I0J-100000D01*
G01*
X116840180Y-105603860D01*
G75*
G02*
X116740180Y-105703860I-100000J0D01*
G01*
X115365180Y-105703860D01*
G75*
G02*
X115265180Y-105603860I0J100000D01*
G01*
G37*
%TD.AperFunction*%
%TO.P,U2,7*%
%TO.N,GND*%
%TA.AperFunction,SMDPad,CuDef*%
G36*
G01*
X115265180Y-106253860D02*
X115265180Y-106053860D01*
G75*
G02*
X115365180Y-105953860I100000J0D01*
G01*
X116740180Y-105953860D01*
G75*
G02*
X116840180Y-106053860I0J-100000D01*
G01*
X116840180Y-106253860D01*
G75*
G02*
X116740180Y-106353860I-100000J0D01*
G01*
X115365180Y-106353860D01*
G75*
G02*
X115265180Y-106253860I0J100000D01*
G01*
G37*
%TD.AperFunction*%
%TO.P,U2,8*%
%TA.AperFunction,SMDPad,CuDef*%
G36*
G01*
X115265180Y-106903860D02*
X115265180Y-106703860D01*
G75*
G02*
X115365180Y-106603860I100000J0D01*
G01*
X116740180Y-106603860D01*
G75*
G02*
X116840180Y-106703860I0J-100000D01*
G01*
X116840180Y-106903860D01*
G75*
G02*
X116740180Y-107003860I-100000J0D01*
G01*
X115365180Y-107003860D01*
G75*
G02*
X115265180Y-106903860I0J100000D01*
G01*
G37*
%TD.AperFunction*%
%TO.P,U2,9*%
%TO.N,Net-(R2-Pad1)*%
%TA.AperFunction,SMDPad,CuDef*%
G36*
G01*
X115265180Y-107553860D02*
X115265180Y-107353860D01*
G75*
G02*
X115365180Y-107253860I100000J0D01*
G01*
X116740180Y-107253860D01*
G75*
G02*
X116840180Y-107353860I0J-100000D01*
G01*
X116840180Y-107553860D01*
G75*
G02*
X116740180Y-107653860I-100000J0D01*
G01*
X115365180Y-107653860D01*
G75*
G02*
X115265180Y-107553860I0J100000D01*
G01*
G37*
%TD.AperFunction*%
%TO.P,U2,10*%
%TO.N,GND*%
%TA.AperFunction,SMDPad,CuDef*%
G36*
G01*
X115265180Y-108203860D02*
X115265180Y-108003860D01*
G75*
G02*
X115365180Y-107903860I100000J0D01*
G01*
X116740180Y-107903860D01*
G75*
G02*
X116840180Y-108003860I0J-100000D01*
G01*
X116840180Y-108203860D01*
G75*
G02*
X116740180Y-108303860I-100000J0D01*
G01*
X115365180Y-108303860D01*
G75*
G02*
X115265180Y-108203860I0J100000D01*
G01*
G37*
%TD.AperFunction*%
%TO.P,U2,11*%
%TA.AperFunction,SMDPad,CuDef*%
G36*
G01*
X120990180Y-108203860D02*
X120990180Y-108003860D01*
G75*
G02*
X121090180Y-107903860I100000J0D01*
G01*
X122465180Y-107903860D01*
G75*
G02*
X122565180Y-108003860I0J-100000D01*
G01*
X122565180Y-108203860D01*
G75*
G02*
X122465180Y-108303860I-100000J0D01*
G01*
X121090180Y-108303860D01*
G75*
G02*
X120990180Y-108203860I0J100000D01*
G01*
G37*
%TD.AperFunction*%
%TO.P,U2,12*%
%TO.N,Net-(C4-Pad2)*%
%TA.AperFunction,SMDPad,CuDef*%
G36*
G01*
X120990180Y-107553860D02*
X120990180Y-107353860D01*
G75*
G02*
X121090180Y-107253860I100000J0D01*
G01*
X122465180Y-107253860D01*
G75*
G02*
X122565180Y-107353860I0J-100000D01*
G01*
X122565180Y-107553860D01*
G75*
G02*
X122465180Y-107653860I-100000J0D01*
G01*
X121090180Y-107653860D01*
G75*
G02*
X120990180Y-107553860I0J100000D01*
G01*
G37*
%TD.AperFunction*%
%TO.P,U2,13*%
%TO.N,Net-(C4-Pad1)*%
%TA.AperFunction,SMDPad,CuDef*%
G36*
G01*
X120990180Y-106903860D02*
X120990180Y-106703860D01*
G75*
G02*
X121090180Y-106603860I100000J0D01*
G01*
X122465180Y-106603860D01*
G75*
G02*
X122565180Y-106703860I0J-100000D01*
G01*
X122565180Y-106903860D01*
G75*
G02*
X122465180Y-107003860I-100000J0D01*
G01*
X121090180Y-107003860D01*
G75*
G02*
X120990180Y-106903860I0J100000D01*
G01*
G37*
%TD.AperFunction*%
%TO.P,U2,14*%
%TO.N,EN_3V3*%
%TA.AperFunction,SMDPad,CuDef*%
G36*
G01*
X120990180Y-106253860D02*
X120990180Y-106053860D01*
G75*
G02*
X121090180Y-105953860I100000J0D01*
G01*
X122465180Y-105953860D01*
G75*
G02*
X122565180Y-106053860I0J-100000D01*
G01*
X122565180Y-106253860D01*
G75*
G02*
X122465180Y-106353860I-100000J0D01*
G01*
X121090180Y-106353860D01*
G75*
G02*
X120990180Y-106253860I0J100000D01*
G01*
G37*
%TD.AperFunction*%
%TO.P,U2,15*%
%TO.N,Net-(L1-Pad1)*%
%TA.AperFunction,SMDPad,CuDef*%
G36*
G01*
X120990180Y-105603860D02*
X120990180Y-105403860D01*
G75*
G02*
X121090180Y-105303860I100000J0D01*
G01*
X122465180Y-105303860D01*
G75*
G02*
X122565180Y-105403860I0J-100000D01*
G01*
X122565180Y-105603860D01*
G75*
G02*
X122465180Y-105703860I-100000J0D01*
G01*
X121090180Y-105703860D01*
G75*
G02*
X120990180Y-105603860I0J100000D01*
G01*
G37*
%TD.AperFunction*%
%TO.P,U2,16*%
%TA.AperFunction,SMDPad,CuDef*%
G36*
G01*
X120990180Y-104953860D02*
X120990180Y-104753860D01*
G75*
G02*
X121090180Y-104653860I100000J0D01*
G01*
X122465180Y-104653860D01*
G75*
G02*
X122565180Y-104753860I0J-100000D01*
G01*
X122565180Y-104953860D01*
G75*
G02*
X122465180Y-105053860I-100000J0D01*
G01*
X121090180Y-105053860D01*
G75*
G02*
X120990180Y-104953860I0J100000D01*
G01*
G37*
%TD.AperFunction*%
%TO.P,U2,17*%
%TA.AperFunction,SMDPad,CuDef*%
G36*
G01*
X120990180Y-104303860D02*
X120990180Y-104103860D01*
G75*
G02*
X121090180Y-104003860I100000J0D01*
G01*
X122465180Y-104003860D01*
G75*
G02*
X122565180Y-104103860I0J-100000D01*
G01*
X122565180Y-104303860D01*
G75*
G02*
X122465180Y-104403860I-100000J0D01*
G01*
X121090180Y-104403860D01*
G75*
G02*
X120990180Y-104303860I0J100000D01*
G01*
G37*
%TD.AperFunction*%
%TO.P,U2,18*%
%TO.N,Net-(L1-Pad2)*%
%TA.AperFunction,SMDPad,CuDef*%
G36*
G01*
X120990180Y-103653860D02*
X120990180Y-103453860D01*
G75*
G02*
X121090180Y-103353860I100000J0D01*
G01*
X122465180Y-103353860D01*
G75*
G02*
X122565180Y-103453860I0J-100000D01*
G01*
X122565180Y-103653860D01*
G75*
G02*
X122465180Y-103753860I-100000J0D01*
G01*
X121090180Y-103753860D01*
G75*
G02*
X120990180Y-103653860I0J100000D01*
G01*
G37*
%TD.AperFunction*%
%TO.P,U2,19*%
%TA.AperFunction,SMDPad,CuDef*%
G36*
G01*
X120990180Y-103003860D02*
X120990180Y-102803860D01*
G75*
G02*
X121090180Y-102703860I100000J0D01*
G01*
X122465180Y-102703860D01*
G75*
G02*
X122565180Y-102803860I0J-100000D01*
G01*
X122565180Y-103003860D01*
G75*
G02*
X122465180Y-103103860I-100000J0D01*
G01*
X121090180Y-103103860D01*
G75*
G02*
X120990180Y-103003860I0J100000D01*
G01*
G37*
%TD.AperFunction*%
%TO.P,U2,20*%
%TO.N,GND*%
%TA.AperFunction,SMDPad,CuDef*%
G36*
G01*
X120990180Y-102353860D02*
X120990180Y-102153860D01*
G75*
G02*
X121090180Y-102053860I100000J0D01*
G01*
X122465180Y-102053860D01*
G75*
G02*
X122565180Y-102153860I0J-100000D01*
G01*
X122565180Y-102353860D01*
G75*
G02*
X122465180Y-102453860I-100000J0D01*
G01*
X121090180Y-102453860D01*
G75*
G02*
X120990180Y-102353860I0J100000D01*
G01*
G37*
%TD.AperFunction*%
%TD*%
D32*
%TO.P,U3,9*%
%TO.N,GND*%
X120561100Y-122344180D03*
D33*
%TO.P,U3,8*%
%TO.N,/5V_USB*%
X123273100Y-120439180D03*
%TO.P,U3,7*%
%TO.N,Net-(D1-Pad1)*%
X123273100Y-121709180D03*
%TO.P,U3,6*%
%TO.N,Net-(D2-Pad1)*%
X123273100Y-122979180D03*
%TO.P,U3,5*%
%TO.N,+BATT*%
X123273100Y-124249180D03*
%TO.P,U3,4*%
%TO.N,/5V_USB*%
X117849100Y-124249180D03*
%TO.P,U3,3*%
%TO.N,GND*%
X117849100Y-122979180D03*
%TO.P,U3,2*%
%TO.N,Net-(R10-Pad1)*%
X117849100Y-121709180D03*
%TO.P,U3,1*%
%TO.N,Net-(U3-Pad1)*%
X117849100Y-120439180D03*
%TD*%
%TO.P,U5,1*%
%TO.N,Net-(U5-Pad1)*%
%TA.AperFunction,SMDPad,CuDef*%
G36*
G01*
X147264940Y-187322500D02*
X147264940Y-187522500D01*
G75*
G02*
X147164940Y-187622500I-100000J0D01*
G01*
X145889940Y-187622500D01*
G75*
G02*
X145789940Y-187522500I0J100000D01*
G01*
X145789940Y-187322500D01*
G75*
G02*
X145889940Y-187222500I100000J0D01*
G01*
X147164940Y-187222500D01*
G75*
G02*
X147264940Y-187322500I0J-100000D01*
G01*
G37*
%TD.AperFunction*%
%TO.P,U5,2*%
%TO.N,Net-(R14-Pad2)*%
%TA.AperFunction,SMDPad,CuDef*%
G36*
G01*
X147264940Y-186672500D02*
X147264940Y-186872500D01*
G75*
G02*
X147164940Y-186972500I-100000J0D01*
G01*
X145889940Y-186972500D01*
G75*
G02*
X145789940Y-186872500I0J100000D01*
G01*
X145789940Y-186672500D01*
G75*
G02*
X145889940Y-186572500I100000J0D01*
G01*
X147164940Y-186572500D01*
G75*
G02*
X147264940Y-186672500I0J-100000D01*
G01*
G37*
%TD.AperFunction*%
%TO.P,U5,3*%
%TO.N,Net-(U5-Pad3)*%
%TA.AperFunction,SMDPad,CuDef*%
G36*
G01*
X147264940Y-186022500D02*
X147264940Y-186222500D01*
G75*
G02*
X147164940Y-186322500I-100000J0D01*
G01*
X145889940Y-186322500D01*
G75*
G02*
X145789940Y-186222500I0J100000D01*
G01*
X145789940Y-186022500D01*
G75*
G02*
X145889940Y-185922500I100000J0D01*
G01*
X147164940Y-185922500D01*
G75*
G02*
X147264940Y-186022500I0J-100000D01*
G01*
G37*
%TD.AperFunction*%
%TO.P,U5,4*%
%TO.N,Net-(U5-Pad4)*%
%TA.AperFunction,SMDPad,CuDef*%
G36*
G01*
X147264940Y-185372500D02*
X147264940Y-185572500D01*
G75*
G02*
X147164940Y-185672500I-100000J0D01*
G01*
X145889940Y-185672500D01*
G75*
G02*
X145789940Y-185572500I0J100000D01*
G01*
X145789940Y-185372500D01*
G75*
G02*
X145889940Y-185272500I100000J0D01*
G01*
X147164940Y-185272500D01*
G75*
G02*
X147264940Y-185372500I0J-100000D01*
G01*
G37*
%TD.AperFunction*%
%TO.P,U5,5*%
%TO.N,3V3_FTDI*%
%TA.AperFunction,SMDPad,CuDef*%
G36*
G01*
X147264940Y-184722500D02*
X147264940Y-184922500D01*
G75*
G02*
X147164940Y-185022500I-100000J0D01*
G01*
X145889940Y-185022500D01*
G75*
G02*
X145789940Y-184922500I0J100000D01*
G01*
X145789940Y-184722500D01*
G75*
G02*
X145889940Y-184622500I100000J0D01*
G01*
X147164940Y-184622500D01*
G75*
G02*
X147264940Y-184722500I0J-100000D01*
G01*
G37*
%TD.AperFunction*%
%TO.P,U5,6*%
%TA.AperFunction,SMDPad,CuDef*%
G36*
G01*
X147264940Y-184072500D02*
X147264940Y-184272500D01*
G75*
G02*
X147164940Y-184372500I-100000J0D01*
G01*
X145889940Y-184372500D01*
G75*
G02*
X145789940Y-184272500I0J100000D01*
G01*
X145789940Y-184072500D01*
G75*
G02*
X145889940Y-183972500I100000J0D01*
G01*
X147164940Y-183972500D01*
G75*
G02*
X147264940Y-184072500I0J-100000D01*
G01*
G37*
%TD.AperFunction*%
%TO.P,U5,7*%
%TA.AperFunction,SMDPad,CuDef*%
G36*
G01*
X147264940Y-183422500D02*
X147264940Y-183622500D01*
G75*
G02*
X147164940Y-183722500I-100000J0D01*
G01*
X145889940Y-183722500D01*
G75*
G02*
X145789940Y-183622500I0J100000D01*
G01*
X145789940Y-183422500D01*
G75*
G02*
X145889940Y-183322500I100000J0D01*
G01*
X147164940Y-183322500D01*
G75*
G02*
X147264940Y-183422500I0J-100000D01*
G01*
G37*
%TD.AperFunction*%
%TO.P,U5,8*%
%TO.N,GND*%
%TA.AperFunction,SMDPad,CuDef*%
G36*
G01*
X147264940Y-182772500D02*
X147264940Y-182972500D01*
G75*
G02*
X147164940Y-183072500I-100000J0D01*
G01*
X145889940Y-183072500D01*
G75*
G02*
X145789940Y-182972500I0J100000D01*
G01*
X145789940Y-182772500D01*
G75*
G02*
X145889940Y-182672500I100000J0D01*
G01*
X147164940Y-182672500D01*
G75*
G02*
X147264940Y-182772500I0J-100000D01*
G01*
G37*
%TD.AperFunction*%
%TO.P,U5,9*%
%TO.N,3V3_FTDI*%
%TA.AperFunction,SMDPad,CuDef*%
G36*
G01*
X147264940Y-182122500D02*
X147264940Y-182322500D01*
G75*
G02*
X147164940Y-182422500I-100000J0D01*
G01*
X145889940Y-182422500D01*
G75*
G02*
X145789940Y-182322500I0J100000D01*
G01*
X145789940Y-182122500D01*
G75*
G02*
X145889940Y-182022500I100000J0D01*
G01*
X147164940Y-182022500D01*
G75*
G02*
X147264940Y-182122500I0J-100000D01*
G01*
G37*
%TD.AperFunction*%
%TO.P,U5,10*%
%TA.AperFunction,SMDPad,CuDef*%
G36*
G01*
X147264940Y-181472500D02*
X147264940Y-181672500D01*
G75*
G02*
X147164940Y-181772500I-100000J0D01*
G01*
X145889940Y-181772500D01*
G75*
G02*
X145789940Y-181672500I0J100000D01*
G01*
X145789940Y-181472500D01*
G75*
G02*
X145889940Y-181372500I100000J0D01*
G01*
X147164940Y-181372500D01*
G75*
G02*
X147264940Y-181472500I0J-100000D01*
G01*
G37*
%TD.AperFunction*%
%TO.P,U5,11*%
%TO.N,Net-(R30-Pad1)*%
%TA.AperFunction,SMDPad,CuDef*%
G36*
G01*
X147264940Y-180822500D02*
X147264940Y-181022500D01*
G75*
G02*
X147164940Y-181122500I-100000J0D01*
G01*
X145889940Y-181122500D01*
G75*
G02*
X145789940Y-181022500I0J100000D01*
G01*
X145789940Y-180822500D01*
G75*
G02*
X145889940Y-180722500I100000J0D01*
G01*
X147164940Y-180722500D01*
G75*
G02*
X147264940Y-180822500I0J-100000D01*
G01*
G37*
%TD.AperFunction*%
%TO.P,U5,12*%
%TO.N,/RTS*%
%TA.AperFunction,SMDPad,CuDef*%
G36*
G01*
X147264940Y-180172500D02*
X147264940Y-180372500D01*
G75*
G02*
X147164940Y-180472500I-100000J0D01*
G01*
X145889940Y-180472500D01*
G75*
G02*
X145789940Y-180372500I0J100000D01*
G01*
X145789940Y-180172500D01*
G75*
G02*
X145889940Y-180072500I100000J0D01*
G01*
X147164940Y-180072500D01*
G75*
G02*
X147264940Y-180172500I0J-100000D01*
G01*
G37*
%TD.AperFunction*%
%TO.P,U5,13*%
%TO.N,Net-(U5-Pad13)*%
%TA.AperFunction,SMDPad,CuDef*%
G36*
G01*
X147264940Y-179522500D02*
X147264940Y-179722500D01*
G75*
G02*
X147164940Y-179822500I-100000J0D01*
G01*
X145889940Y-179822500D01*
G75*
G02*
X145789940Y-179722500I0J100000D01*
G01*
X145789940Y-179522500D01*
G75*
G02*
X145889940Y-179422500I100000J0D01*
G01*
X147164940Y-179422500D01*
G75*
G02*
X147264940Y-179522500I0J-100000D01*
G01*
G37*
%TD.AperFunction*%
%TO.P,U5,14*%
%TO.N,ESP_TX*%
%TA.AperFunction,SMDPad,CuDef*%
G36*
G01*
X147264940Y-178872500D02*
X147264940Y-179072500D01*
G75*
G02*
X147164940Y-179172500I-100000J0D01*
G01*
X145889940Y-179172500D01*
G75*
G02*
X145789940Y-179072500I0J100000D01*
G01*
X145789940Y-178872500D01*
G75*
G02*
X145889940Y-178772500I100000J0D01*
G01*
X147164940Y-178772500D01*
G75*
G02*
X147264940Y-178872500I0J-100000D01*
G01*
G37*
%TD.AperFunction*%
%TO.P,U5,15*%
%TO.N,ESP_RX*%
%TA.AperFunction,SMDPad,CuDef*%
G36*
G01*
X141539940Y-178872500D02*
X141539940Y-179072500D01*
G75*
G02*
X141439940Y-179172500I-100000J0D01*
G01*
X140164940Y-179172500D01*
G75*
G02*
X140064940Y-179072500I0J100000D01*
G01*
X140064940Y-178872500D01*
G75*
G02*
X140164940Y-178772500I100000J0D01*
G01*
X141439940Y-178772500D01*
G75*
G02*
X141539940Y-178872500I0J-100000D01*
G01*
G37*
%TD.AperFunction*%
%TO.P,U5,16*%
%TO.N,Net-(U5-Pad16)*%
%TA.AperFunction,SMDPad,CuDef*%
G36*
G01*
X141539940Y-179522500D02*
X141539940Y-179722500D01*
G75*
G02*
X141439940Y-179822500I-100000J0D01*
G01*
X140164940Y-179822500D01*
G75*
G02*
X140064940Y-179722500I0J100000D01*
G01*
X140064940Y-179522500D01*
G75*
G02*
X140164940Y-179422500I100000J0D01*
G01*
X141439940Y-179422500D01*
G75*
G02*
X141539940Y-179522500I0J-100000D01*
G01*
G37*
%TD.AperFunction*%
%TO.P,U5,17*%
%TO.N,Net-(U5-Pad17)*%
%TA.AperFunction,SMDPad,CuDef*%
G36*
G01*
X141539940Y-180172500D02*
X141539940Y-180372500D01*
G75*
G02*
X141439940Y-180472500I-100000J0D01*
G01*
X140164940Y-180472500D01*
G75*
G02*
X140064940Y-180372500I0J100000D01*
G01*
X140064940Y-180172500D01*
G75*
G02*
X140164940Y-180072500I100000J0D01*
G01*
X141439940Y-180072500D01*
G75*
G02*
X141539940Y-180172500I0J-100000D01*
G01*
G37*
%TD.AperFunction*%
%TO.P,U5,18*%
%TO.N,Net-(U5-Pad18)*%
%TA.AperFunction,SMDPad,CuDef*%
G36*
G01*
X141539940Y-180822500D02*
X141539940Y-181022500D01*
G75*
G02*
X141439940Y-181122500I-100000J0D01*
G01*
X140164940Y-181122500D01*
G75*
G02*
X140064940Y-181022500I0J100000D01*
G01*
X140064940Y-180822500D01*
G75*
G02*
X140164940Y-180722500I100000J0D01*
G01*
X141439940Y-180722500D01*
G75*
G02*
X141539940Y-180822500I0J-100000D01*
G01*
G37*
%TD.AperFunction*%
%TO.P,U5,19*%
%TO.N,Net-(U5-Pad19)*%
%TA.AperFunction,SMDPad,CuDef*%
G36*
G01*
X141539940Y-181472500D02*
X141539940Y-181672500D01*
G75*
G02*
X141439940Y-181772500I-100000J0D01*
G01*
X140164940Y-181772500D01*
G75*
G02*
X140064940Y-181672500I0J100000D01*
G01*
X140064940Y-181472500D01*
G75*
G02*
X140164940Y-181372500I100000J0D01*
G01*
X141439940Y-181372500D01*
G75*
G02*
X141539940Y-181472500I0J-100000D01*
G01*
G37*
%TD.AperFunction*%
%TO.P,U5,20*%
%TO.N,/DTR*%
%TA.AperFunction,SMDPad,CuDef*%
G36*
G01*
X141539940Y-182122500D02*
X141539940Y-182322500D01*
G75*
G02*
X141439940Y-182422500I-100000J0D01*
G01*
X140164940Y-182422500D01*
G75*
G02*
X140064940Y-182322500I0J100000D01*
G01*
X140064940Y-182122500D01*
G75*
G02*
X140164940Y-182022500I100000J0D01*
G01*
X141439940Y-182022500D01*
G75*
G02*
X141539940Y-182122500I0J-100000D01*
G01*
G37*
%TD.AperFunction*%
%TO.P,U5,21*%
%TO.N,Net-(U5-Pad21)*%
%TA.AperFunction,SMDPad,CuDef*%
G36*
G01*
X141539940Y-182772500D02*
X141539940Y-182972500D01*
G75*
G02*
X141439940Y-183072500I-100000J0D01*
G01*
X140164940Y-183072500D01*
G75*
G02*
X140064940Y-182972500I0J100000D01*
G01*
X140064940Y-182772500D01*
G75*
G02*
X140164940Y-182672500I100000J0D01*
G01*
X141439940Y-182672500D01*
G75*
G02*
X141539940Y-182772500I0J-100000D01*
G01*
G37*
%TD.AperFunction*%
%TO.P,U5,22*%
%TO.N,Net-(U5-Pad22)*%
%TA.AperFunction,SMDPad,CuDef*%
G36*
G01*
X141539940Y-183422500D02*
X141539940Y-183622500D01*
G75*
G02*
X141439940Y-183722500I-100000J0D01*
G01*
X140164940Y-183722500D01*
G75*
G02*
X140064940Y-183622500I0J100000D01*
G01*
X140064940Y-183422500D01*
G75*
G02*
X140164940Y-183322500I100000J0D01*
G01*
X141439940Y-183322500D01*
G75*
G02*
X141539940Y-183422500I0J-100000D01*
G01*
G37*
%TD.AperFunction*%
%TO.P,U5,23*%
%TO.N,GND*%
%TA.AperFunction,SMDPad,CuDef*%
G36*
G01*
X141539940Y-184072500D02*
X141539940Y-184272500D01*
G75*
G02*
X141439940Y-184372500I-100000J0D01*
G01*
X140164940Y-184372500D01*
G75*
G02*
X140064940Y-184272500I0J100000D01*
G01*
X140064940Y-184072500D01*
G75*
G02*
X140164940Y-183972500I100000J0D01*
G01*
X141439940Y-183972500D01*
G75*
G02*
X141539940Y-184072500I0J-100000D01*
G01*
G37*
%TD.AperFunction*%
%TO.P,U5,24*%
%TO.N,Net-(R12-Pad1)*%
%TA.AperFunction,SMDPad,CuDef*%
G36*
G01*
X141539940Y-184722500D02*
X141539940Y-184922500D01*
G75*
G02*
X141439940Y-185022500I-100000J0D01*
G01*
X140164940Y-185022500D01*
G75*
G02*
X140064940Y-184922500I0J100000D01*
G01*
X140064940Y-184722500D01*
G75*
G02*
X140164940Y-184622500I100000J0D01*
G01*
X141439940Y-184622500D01*
G75*
G02*
X141539940Y-184722500I0J-100000D01*
G01*
G37*
%TD.AperFunction*%
%TO.P,U5,25*%
%TO.N,Net-(R13-Pad1)*%
%TA.AperFunction,SMDPad,CuDef*%
G36*
G01*
X141539940Y-185372500D02*
X141539940Y-185572500D01*
G75*
G02*
X141439940Y-185672500I-100000J0D01*
G01*
X140164940Y-185672500D01*
G75*
G02*
X140064940Y-185572500I0J100000D01*
G01*
X140064940Y-185372500D01*
G75*
G02*
X140164940Y-185272500I100000J0D01*
G01*
X141439940Y-185272500D01*
G75*
G02*
X141539940Y-185372500I0J-100000D01*
G01*
G37*
%TD.AperFunction*%
%TO.P,U5,26*%
%TO.N,3V3_FTDI*%
%TA.AperFunction,SMDPad,CuDef*%
G36*
G01*
X141539940Y-186022500D02*
X141539940Y-186222500D01*
G75*
G02*
X141439940Y-186322500I-100000J0D01*
G01*
X140164940Y-186322500D01*
G75*
G02*
X140064940Y-186222500I0J100000D01*
G01*
X140064940Y-186022500D01*
G75*
G02*
X140164940Y-185922500I100000J0D01*
G01*
X141439940Y-185922500D01*
G75*
G02*
X141539940Y-186022500I0J-100000D01*
G01*
G37*
%TD.AperFunction*%
%TO.P,U5,27*%
%TO.N,/5V_USB*%
%TA.AperFunction,SMDPad,CuDef*%
G36*
G01*
X141539940Y-186672500D02*
X141539940Y-186872500D01*
G75*
G02*
X141439940Y-186972500I-100000J0D01*
G01*
X140164940Y-186972500D01*
G75*
G02*
X140064940Y-186872500I0J100000D01*
G01*
X140064940Y-186672500D01*
G75*
G02*
X140164940Y-186572500I100000J0D01*
G01*
X141439940Y-186572500D01*
G75*
G02*
X141539940Y-186672500I0J-100000D01*
G01*
G37*
%TD.AperFunction*%
%TO.P,U5,28*%
%TO.N,GND*%
%TA.AperFunction,SMDPad,CuDef*%
G36*
G01*
X141539940Y-187322500D02*
X141539940Y-187522500D01*
G75*
G02*
X141439940Y-187622500I-100000J0D01*
G01*
X140164940Y-187622500D01*
G75*
G02*
X140064940Y-187522500I0J100000D01*
G01*
X140064940Y-187322500D01*
G75*
G02*
X140164940Y-187222500I100000J0D01*
G01*
X141439940Y-187222500D01*
G75*
G02*
X141539940Y-187322500I0J-100000D01*
G01*
G37*
%TD.AperFunction*%
%TD*%
D34*
%TO.P,U6,1*%
%TO.N,Net-(L2-Pad2)*%
X135871000Y-133359320D03*
%TO.P,U6,2*%
X135871000Y-132709320D03*
%TO.P,U6,3*%
%TO.N,GND*%
X135871000Y-132059320D03*
%TO.P,U6,4*%
X135871000Y-131409320D03*
%TO.P,U6,5*%
X135871000Y-130759320D03*
%TO.P,U6,6*%
%TO.N,+BATT*%
X135871000Y-130109320D03*
%TO.P,U6,7*%
%TO.N,Net-(R19-Pad2)*%
X135871000Y-129459320D03*
%TO.P,U6,8*%
%TO.N,GND*%
X135871000Y-128809320D03*
%TO.P,U6,9*%
%TO.N,Net-(Q1-Pad3)*%
X130321000Y-128809320D03*
%TO.P,U6,10*%
%TO.N,Net-(U6-Pad10)*%
X130321000Y-129459320D03*
%TO.P,U6,11*%
%TO.N,GND*%
X130321000Y-130109320D03*
%TO.P,U6,12*%
%TO.N,Net-(R26-Pad2)*%
X130321000Y-130759320D03*
%TO.P,U6,13*%
%TO.N,+5V*%
X130321000Y-131409320D03*
%TO.P,U6,14*%
X130321000Y-132059320D03*
%TO.P,U6,15*%
X130321000Y-132709320D03*
%TO.P,U6,16*%
%TO.N,Net-(U6-Pad16)*%
X130321000Y-133359320D03*
D35*
%TO.P,U6,17*%
%TO.N,GND*%
X133096000Y-131084320D03*
D31*
X134196000Y-128884320D03*
X133096000Y-128884320D03*
X131996000Y-128884320D03*
X131996000Y-129984320D03*
X133096000Y-129984320D03*
X134196000Y-129984320D03*
X131996000Y-131084320D03*
X133096000Y-131084320D03*
X134196000Y-131084320D03*
X131996000Y-132184320D03*
X133096000Y-132184320D03*
X134196000Y-132184320D03*
X131996000Y-133284320D03*
X133096000Y-133284320D03*
X134196000Y-133284320D03*
%TD*%
D36*
%TO.P,U7,1*%
%TO.N,GND*%
X105156240Y-163379420D03*
%TO.P,U7,2*%
%TO.N,LORA_MISO*%
X107156240Y-163379420D03*
%TO.P,U7,3*%
%TO.N,LORA_MOSI*%
X109156240Y-163379420D03*
%TO.P,U7,4*%
%TO.N,LORA_SCK*%
X111156240Y-163379420D03*
%TO.P,U7,5*%
%TO.N,LORA_NSS*%
X113156240Y-163379420D03*
%TO.P,U7,6*%
%TO.N,LORA_RST*%
X115156240Y-163379420D03*
%TO.P,U7,7*%
%TO.N,Net-(U7-Pad7)*%
X117156240Y-163379420D03*
%TO.P,U7,8*%
%TO.N,GND*%
X119156240Y-163379420D03*
%TO.P,U7,9*%
%TO.N,Net-(J9-Pad3)*%
X119156240Y-147379420D03*
%TO.P,U7,10*%
%TO.N,GND*%
X117156240Y-147379420D03*
%TO.P,U7,11*%
%TO.N,Net-(U7-Pad11)*%
X115156240Y-147379420D03*
%TO.P,U7,12*%
%TO.N,Net-(U7-Pad12)*%
X113156240Y-147379420D03*
%TO.P,U7,13*%
%TO.N,VDD*%
X111156240Y-147379420D03*
%TO.P,U7,14*%
%TO.N,Net-(U7-Pad14)*%
X109156240Y-147379420D03*
%TO.P,U7,15*%
%TO.N,Net-(U7-Pad15)*%
X107156240Y-147379420D03*
%TO.P,U7,16*%
%TO.N,Net-(U7-Pad16)*%
X105156240Y-147379420D03*
%TD*%
D37*
%TO.N,+BATT*%
X125364240Y-124195840D03*
X142379700Y-107190540D03*
X112506760Y-102041960D03*
X139418060Y-136474200D03*
%TO.N,GND*%
X137749280Y-145572480D03*
X137500360Y-147561300D03*
X135387080Y-147436840D03*
X135305800Y-145531840D03*
X138965940Y-183194960D03*
X148099780Y-182864760D03*
X114195860Y-189108080D03*
X139527280Y-119773700D03*
X133504940Y-127541020D03*
X125679200Y-130535680D03*
X136541600Y-146530300D03*
X133240780Y-160383220D03*
X147185140Y-168290480D03*
X122085100Y-137162540D03*
X118127780Y-145061940D03*
X108752640Y-154967940D03*
X113596420Y-165366700D03*
X118473180Y-196088040D03*
%TO.N,BAT-CR2032*%
X135364220Y-163946840D03*
X117236240Y-169743120D03*
X134622540Y-169743120D03*
%TO.N,/5V_USB*%
X115575080Y-123802140D03*
X118752620Y-111102140D03*
X137820400Y-186697500D03*
%TO.N,Net-(C4-Pad1)*%
X123911360Y-108127800D03*
X136728200Y-102346760D03*
%TO.N,Net-(C4-Pad2)*%
X123019820Y-109245400D03*
X136768840Y-109245400D03*
%TO.N,+3V3*%
X121851420Y-100759260D03*
X138739880Y-111175800D03*
%TO.N,/D+*%
X129303780Y-180284120D03*
X102524560Y-114701320D03*
%TO.N,/D-*%
X131894580Y-178122580D03*
X103487220Y-110599220D03*
%TO.N,VDD*%
X144805400Y-158958280D03*
X142793720Y-141287500D03*
X134285140Y-160144040D03*
X133520180Y-168455340D03*
X114254280Y-161655760D03*
X111158020Y-149420580D03*
X150066380Y-123217300D03*
X149806660Y-110517940D03*
%TO.N,+5V*%
X123842780Y-128874520D03*
X120642380Y-131297680D03*
X120586500Y-139298680D03*
%TO.N,ESP_EN*%
X141571980Y-143073120D03*
X121406920Y-193664840D03*
%TO.N,Net-(D2-Pad2)*%
X127292100Y-125374400D03*
X129791460Y-121770140D03*
%TO.N,Net-(J1-PadA5)*%
X115920520Y-113708180D03*
%TO.N,PWM_SERVO*%
X130101340Y-141094460D03*
%TO.N,/RTS*%
X132420360Y-193126360D03*
X144211040Y-180273960D03*
%TO.N,EN_3V3*%
X112809020Y-153821300D03*
%TO.N,EN_5V*%
X135100060Y-141046200D03*
X111777780Y-140771880D03*
%TO.N,SDA*%
X137683240Y-153687780D03*
%TO.N,SCL*%
X141470380Y-153642060D03*
%TO.N,INT_RTC*%
X131335780Y-141124940D03*
%TO.N,BUTTON_INT*%
X137668000Y-141051280D03*
X116801900Y-156814520D03*
%TO.N,BUTTON_KILL*%
X112533260Y-157010100D03*
%TO.N,LORA_MOSI*%
X109712760Y-161315400D03*
X141541500Y-151267160D03*
%TO.N,LORA_MISO*%
X135107680Y-153835100D03*
X119529860Y-155308300D03*
%TO.N,LORA_SCK*%
X133880860Y-157848300D03*
X118457980Y-156065220D03*
%TO.N,LORA_NSS*%
X132600700Y-157772100D03*
X118521480Y-157894020D03*
%TO.N,LORA_RST*%
X128823720Y-141124940D03*
X119306340Y-160159700D03*
%TO.N,RST_RTC*%
X132626100Y-141137640D03*
%TO.N,Net-(J9-Pad3)*%
X111734600Y-151386540D03*
%TO.N,Net-(J4-Pad3)*%
X104523540Y-190200280D03*
X141003020Y-177779680D03*
X125702060Y-184873900D03*
%TO.N,/FB1*%
X115461172Y-119393326D03*
%TO.N,/FB2*%
X116385300Y-115554800D03*
%TD*%
D38*
%TO.N,+BATT*%
X125310900Y-124249180D02*
X125364240Y-124195840D01*
X123273100Y-124249180D02*
X125310900Y-124249180D01*
X112870100Y-104853860D02*
X112506760Y-104490520D01*
X112506760Y-101823520D02*
X112080040Y-101396800D01*
X112080040Y-101396800D02*
X110690660Y-101396800D01*
X110286800Y-101800660D02*
X110286800Y-103235720D01*
X110690660Y-101396800D02*
X110286800Y-101800660D01*
X116052680Y-104203860D02*
X114688260Y-104203860D01*
X114688260Y-104203860D02*
X114371000Y-104521120D01*
X114371000Y-104853860D02*
X112870100Y-104853860D01*
X114371000Y-104521120D02*
X114371000Y-104853860D01*
X116052680Y-104853860D02*
X114371000Y-104853860D01*
X116052680Y-105503860D02*
X114564040Y-105503860D01*
X114371000Y-105310820D02*
X114371000Y-104853860D01*
X114564040Y-105503860D02*
X114371000Y-105310820D01*
X112870100Y-104853860D02*
X111790360Y-104853860D01*
X111336810Y-105307410D02*
X111336810Y-108141490D01*
X111790360Y-104853860D02*
X111336810Y-105307410D01*
X111644490Y-108449170D02*
X113371690Y-108449170D01*
X111336810Y-108141490D02*
X111644490Y-108449170D01*
X113371690Y-108449170D02*
X113835180Y-108912660D01*
X113835180Y-108912660D02*
X113835180Y-109621320D01*
X114261900Y-110048040D02*
X115140100Y-110048040D01*
X113835180Y-109621320D02*
X114261900Y-110048040D01*
X142400020Y-107170220D02*
X142379700Y-107190540D01*
X138292840Y-121394180D02*
X141378900Y-121394180D01*
X141378900Y-121394180D02*
X141805660Y-121820940D01*
X138417300Y-130752220D02*
X141167480Y-130752220D01*
X141167480Y-130752220D02*
X141805660Y-130114040D01*
X141805660Y-123365260D02*
X141805660Y-123426220D01*
X141805660Y-121820940D02*
X141805660Y-123365260D01*
X141824600Y-124082700D02*
X141805660Y-124063760D01*
X145897600Y-124082700D02*
X141824600Y-124082700D01*
X141805660Y-124063760D02*
X141805660Y-123365260D01*
X141805660Y-130114040D02*
X141805660Y-124063760D01*
X135871000Y-130109320D02*
X136776820Y-130109320D01*
X136776820Y-130109320D02*
X137040620Y-130373120D01*
X137040620Y-130373120D02*
X137040620Y-130670300D01*
X137122540Y-130752220D02*
X138417300Y-130752220D01*
X137040620Y-130670300D02*
X137122540Y-130752220D01*
X129118320Y-124195840D02*
X129303780Y-124010380D01*
X125364240Y-124195840D02*
X129118320Y-124195840D01*
X131572000Y-124010380D02*
X131589780Y-123992600D01*
X129303780Y-124010380D02*
X131572000Y-124010380D01*
X105676700Y-134738740D02*
X105676700Y-130017520D01*
X106047540Y-129646680D02*
X109062520Y-129646680D01*
X105676700Y-130017520D02*
X106047540Y-129646680D01*
X112506760Y-102041960D02*
X112506760Y-101823520D01*
X112506760Y-104490520D02*
X112506760Y-102041960D01*
X137599500Y-136474200D02*
X137548700Y-136423400D01*
X139418060Y-136474200D02*
X137599500Y-136474200D01*
X138292840Y-119654320D02*
X138292840Y-120495060D01*
X137894060Y-119255540D02*
X138292840Y-119654320D01*
X138292840Y-120495060D02*
X138292840Y-121394180D01*
X132034280Y-119255540D02*
X137894060Y-119255540D01*
X131589780Y-119700040D02*
X132034280Y-119255540D01*
X131589780Y-123992600D02*
X131589780Y-119700040D01*
X141175740Y-104252400D02*
X141175740Y-106771440D01*
X141594840Y-107190540D02*
X142379700Y-107190540D01*
X141175740Y-106771440D02*
X141594840Y-107190540D01*
%TO.N,GND*%
X113464020Y-121070820D02*
X113164020Y-121370820D01*
X114314020Y-121070820D02*
X113464020Y-121070820D01*
X113464020Y-115570820D02*
X113164020Y-115270820D01*
X114314020Y-115570820D02*
X113464020Y-115570820D01*
X113164020Y-114620820D02*
X113964020Y-113820820D01*
X113164020Y-115270820D02*
X113164020Y-114620820D01*
X113964020Y-122170820D02*
X113964020Y-122820820D01*
X113164020Y-121370820D02*
X113964020Y-122170820D01*
X119926100Y-122979180D02*
X120561100Y-122344180D01*
X117849100Y-122979180D02*
X119926100Y-122979180D01*
X113964020Y-113820820D02*
X113964020Y-113033240D01*
X113964020Y-113033240D02*
X114300000Y-112697260D01*
X114300000Y-112697260D02*
X119313960Y-112697260D01*
X119966700Y-113350000D02*
X119966700Y-116057680D01*
X119313960Y-112697260D02*
X119966700Y-113350000D01*
X119823740Y-116200640D02*
X119966700Y-116057680D01*
X119823740Y-118364000D02*
X119823740Y-116200640D01*
X116840180Y-108103860D02*
X118915180Y-106028860D01*
X116052680Y-108103860D02*
X116840180Y-108103860D01*
X117290180Y-106803860D02*
X117615180Y-106478860D01*
X116052680Y-106803860D02*
X117290180Y-106803860D01*
X117290180Y-106153860D02*
X117615180Y-106478860D01*
X116052680Y-106153860D02*
X117290180Y-106153860D01*
X118915180Y-106028860D02*
X118915180Y-105178860D01*
X120540180Y-108103860D02*
X121777680Y-108103860D01*
X120215180Y-107778860D02*
X120540180Y-108103860D01*
X120540180Y-102253860D02*
X121777680Y-102253860D01*
X120215180Y-102578860D02*
X120540180Y-102253860D01*
X117290180Y-102253860D02*
X116052680Y-102253860D01*
X117615180Y-102578860D02*
X117290180Y-102253860D01*
X109904920Y-113820820D02*
X108364020Y-113820820D01*
X110286800Y-113438940D02*
X109904920Y-113820820D01*
X110369980Y-109286680D02*
X110286800Y-109369860D01*
X112534700Y-109286680D02*
X110369980Y-109286680D01*
X110286800Y-109369860D02*
X110286800Y-113438940D01*
X110286800Y-105135720D02*
X110286800Y-109369860D01*
X139527280Y-118278280D02*
X139527280Y-119773700D01*
X139527280Y-120385840D02*
X139903200Y-120761760D01*
X145232120Y-115866440D02*
X145232120Y-117454680D01*
X145232120Y-117454680D02*
X144940020Y-117746780D01*
X144940020Y-117746780D02*
X143766540Y-117746780D01*
X143428720Y-118084600D02*
X143428720Y-120761760D01*
X143766540Y-117746780D02*
X143428720Y-118084600D01*
X143428720Y-120761760D02*
X144335260Y-120761760D01*
X139903200Y-120761760D02*
X143428720Y-120761760D01*
X135113740Y-187422500D02*
X134975600Y-187284360D01*
X138788100Y-192869820D02*
X138821120Y-192836800D01*
X138788100Y-195117720D02*
X138788100Y-192869820D01*
X138821120Y-187436800D02*
X138835420Y-187422500D01*
X138821120Y-192836800D02*
X138821120Y-187436800D01*
X140802440Y-187422500D02*
X138835420Y-187422500D01*
X140802440Y-184172500D02*
X139420240Y-184172500D01*
X138965940Y-183718200D02*
X138965940Y-183194960D01*
X139420240Y-184172500D02*
X138965940Y-183718200D01*
X148092040Y-182872500D02*
X148099780Y-182864760D01*
X146527440Y-182872500D02*
X148092040Y-182872500D01*
X123388120Y-196088040D02*
X118473180Y-196088040D01*
X116365020Y-195628260D02*
X116365020Y-194815500D01*
X116824800Y-196088040D02*
X116365020Y-195628260D01*
X110322360Y-177492660D02*
X110322360Y-174205900D01*
X110322360Y-174205900D02*
X110992920Y-173535340D01*
X120172480Y-173535340D02*
X122521980Y-173535340D01*
X119898160Y-173535340D02*
X120172480Y-173535340D01*
X119489220Y-173436280D02*
X119390160Y-173535340D01*
X119489220Y-170840440D02*
X119489220Y-173436280D01*
X119390160Y-173535340D02*
X120172480Y-173535340D01*
X110992920Y-173535340D02*
X119390160Y-173535340D01*
X134071000Y-132059320D02*
X133096000Y-131084320D01*
X135871000Y-132059320D02*
X134071000Y-132059320D01*
X133096000Y-131084320D02*
X134424420Y-131084320D01*
X134749420Y-131409320D02*
X135871000Y-131409320D01*
X134424420Y-131084320D02*
X134749420Y-131409320D01*
X133421000Y-130759320D02*
X133096000Y-131084320D01*
X135871000Y-130759320D02*
X133421000Y-130759320D01*
X135096000Y-128809320D02*
X135871000Y-128809320D01*
X133096000Y-130809320D02*
X135096000Y-128809320D01*
X133096000Y-131084320D02*
X133096000Y-130809320D01*
X138445240Y-123446580D02*
X138292840Y-123294180D01*
X138445240Y-125317880D02*
X138445240Y-124315220D01*
X138445240Y-124315220D02*
X138445240Y-123446580D01*
X122521980Y-141602460D02*
X122521980Y-140040360D01*
X122521980Y-140040360D02*
X123035060Y-139527280D01*
X123035060Y-139527280D02*
X124792740Y-139527280D01*
X124792740Y-139527280D02*
X125115320Y-139204700D01*
X132071000Y-131084320D02*
X133096000Y-131084320D01*
X131096000Y-130109320D02*
X132071000Y-131084320D01*
X130321000Y-130109320D02*
X131096000Y-130109320D01*
X139527280Y-119773700D02*
X139527280Y-120385840D01*
X129303780Y-127208280D02*
X129303780Y-125910380D01*
X129636520Y-127541020D02*
X129303780Y-127208280D01*
X136535160Y-127208280D02*
X136202420Y-127541020D01*
X136979660Y-124315220D02*
X136535160Y-124759720D01*
X136535160Y-124759720D02*
X136535160Y-127208280D01*
X138445240Y-124315220D02*
X136979660Y-124315220D01*
X131589780Y-127467360D02*
X131516120Y-127541020D01*
X131589780Y-125892600D02*
X131589780Y-127467360D01*
X131516120Y-127541020D02*
X129636520Y-127541020D01*
X136202420Y-127541020D02*
X133504940Y-127541020D01*
X133504940Y-127541020D02*
X131516120Y-127541020D01*
X108409780Y-141063220D02*
X110353600Y-141063220D01*
X110353600Y-141063220D02*
X110695740Y-140721080D01*
X110695740Y-140721080D02*
X110695740Y-138610340D01*
X111259620Y-138046460D02*
X113797080Y-138046460D01*
X110695740Y-138610340D02*
X111259620Y-138046460D01*
X125695700Y-130519180D02*
X125679200Y-130535680D01*
X125695700Y-128925320D02*
X125695700Y-130519180D01*
X136541600Y-146530300D02*
X136541600Y-146530300D01*
X144041600Y-145795260D02*
X144041600Y-139030300D01*
X144041600Y-147170880D02*
X143353790Y-146483070D01*
X144041600Y-156030300D02*
X144041600Y-147170880D01*
X143353790Y-146483070D02*
X144041600Y-145795260D01*
X143306560Y-146530300D02*
X143353790Y-146483070D01*
X122734820Y-141815300D02*
X122521980Y-141602460D01*
X126531600Y-141815300D02*
X122734820Y-141815300D01*
X144985140Y-174314040D02*
X144985140Y-172761240D01*
X145432540Y-172313840D02*
X147185140Y-172313840D01*
X144985140Y-172761240D02*
X145432540Y-172313840D01*
X147185140Y-172313840D02*
X147185140Y-168290480D01*
X147185140Y-174314040D02*
X147185140Y-172313840D01*
X136541600Y-146530300D02*
X143306560Y-146530300D01*
X133185140Y-160438860D02*
X133240780Y-160383220D01*
X133185140Y-162114040D02*
X133185140Y-160438860D01*
X147185140Y-168290480D02*
X147185140Y-162114040D01*
X118127780Y-145061940D02*
X117551200Y-145061940D01*
X117156240Y-145456900D02*
X117156240Y-147379420D01*
X117551200Y-145061940D02*
X117156240Y-145456900D01*
X118473180Y-196088040D02*
X116824800Y-196088040D01*
X125948440Y-166850300D02*
X122893060Y-166850300D01*
X122893060Y-166850300D02*
X122521980Y-166479220D01*
X119156240Y-163379420D02*
X119156240Y-165503620D01*
X119573040Y-165920420D02*
X122521980Y-165920420D01*
X119156240Y-165503620D02*
X119573040Y-165920420D01*
X122521980Y-165920420D02*
X122521980Y-163906200D01*
X122521980Y-166479220D02*
X122521980Y-165920420D01*
X105156240Y-163379420D02*
X105156240Y-164785280D01*
X105156240Y-164785280D02*
X105552240Y-165181280D01*
X113411000Y-165181280D02*
X113596420Y-165366700D01*
X105552240Y-165181280D02*
X113411000Y-165181280D01*
X125122940Y-136390380D02*
X125115320Y-136382760D01*
X131907240Y-136390380D02*
X125122940Y-136390380D01*
X125115320Y-136382760D02*
X125115320Y-135328700D01*
X125115320Y-139204700D02*
X125115320Y-136382760D01*
X120561100Y-122344180D02*
X120561100Y-120731280D01*
X119823740Y-119993920D02*
X119823740Y-118364000D01*
X120561100Y-120731280D02*
X119823740Y-119993920D01*
X136212400Y-187436800D02*
X134975600Y-186200000D01*
X148099780Y-182864760D02*
X148513800Y-182864760D01*
X148513800Y-182864760D02*
X148648420Y-182999380D01*
X148648420Y-182999380D02*
X148648420Y-183469280D01*
X148831540Y-183652400D02*
X150119080Y-183652400D01*
X148648420Y-183469280D02*
X148831540Y-183652400D01*
X135698101Y-187422501D02*
X134975600Y-186700000D01*
X138123641Y-187422501D02*
X135698101Y-187422501D01*
X138137940Y-187436800D02*
X138123641Y-187422501D01*
X138821120Y-187436800D02*
X138137940Y-187436800D01*
%TO.N,BAT-CR2032*%
X118809800Y-167092660D02*
X111922360Y-167092660D01*
X135385140Y-163925920D02*
X135364220Y-163946840D01*
X135385140Y-162114040D02*
X135385140Y-163925920D01*
X117236240Y-169743120D02*
X117236240Y-169329100D01*
X117624900Y-168940440D02*
X119489220Y-168940440D01*
X117236240Y-169329100D02*
X117624900Y-168940440D01*
X120987820Y-167731440D02*
X120349040Y-167092660D01*
X123854461Y-169630341D02*
X121367801Y-169630341D01*
X124493020Y-170268900D02*
X123854461Y-169630341D01*
X124493020Y-181637940D02*
X124493020Y-170268900D01*
X120987820Y-169250360D02*
X120987820Y-167731440D01*
X123723400Y-182407560D02*
X124493020Y-181637940D01*
X121367801Y-169630341D02*
X120987820Y-169250360D01*
X119540020Y-182986680D02*
X120119140Y-182407560D01*
X119540020Y-186913520D02*
X119540020Y-182986680D01*
X120119140Y-182407560D02*
X123723400Y-182407560D01*
X118560880Y-187892660D02*
X119540020Y-186913520D01*
X111922360Y-187892660D02*
X118560880Y-187892660D01*
X119489220Y-167106600D02*
X119503160Y-167092660D01*
X119489220Y-168940440D02*
X119489220Y-167106600D01*
X119503160Y-167092660D02*
X118809800Y-167092660D01*
X120349040Y-167092660D02*
X119503160Y-167092660D01*
%TO.N,/5V_USB*%
X113214020Y-117070820D02*
X114314020Y-117070820D01*
X113164020Y-117120820D02*
X113214020Y-117070820D01*
X113214020Y-119570820D02*
X114314020Y-119570820D01*
X113164020Y-119520820D02*
X113214020Y-119570820D01*
X115575080Y-123802140D02*
X115575080Y-123946920D01*
X115575080Y-123946920D02*
X115877340Y-124249180D01*
X121883840Y-116074820D02*
X121866700Y-116057680D01*
X123698000Y-116074820D02*
X121883840Y-116074820D01*
X121866700Y-116057680D02*
X121866700Y-111724480D01*
X121244360Y-111102140D02*
X118752620Y-111102140D01*
X121866700Y-111724480D02*
X121244360Y-111102140D01*
X123273100Y-120439180D02*
X124119640Y-120439180D01*
X124119640Y-120439180D02*
X124442220Y-120116600D01*
X124442220Y-120116600D02*
X124442220Y-119562880D01*
X124442220Y-119562880D02*
X124129800Y-119250460D01*
X124129800Y-119250460D02*
X122346720Y-119250460D01*
X121866700Y-118770440D02*
X121866700Y-116057680D01*
X122346720Y-119250460D02*
X121866700Y-118770440D01*
X120021980Y-125968760D02*
X116702840Y-125968760D01*
X116349780Y-125615700D02*
X116349780Y-124249180D01*
X116702840Y-125968760D02*
X116349780Y-125615700D01*
X116349780Y-124249180D02*
X117849100Y-124249180D01*
X115877340Y-124249180D02*
X116349780Y-124249180D01*
X140688100Y-192869820D02*
X140721120Y-192836800D01*
X140688100Y-195117720D02*
X140688100Y-192869820D01*
X137895400Y-186772500D02*
X137820400Y-186697500D01*
X140802440Y-186772500D02*
X137895400Y-186772500D01*
X140721120Y-191302680D02*
X140027660Y-190609220D01*
X140721120Y-192836800D02*
X140721120Y-191302680D01*
X142220900Y-186772500D02*
X140802440Y-186772500D01*
X142692120Y-187243720D02*
X142220900Y-186772500D01*
X142692120Y-188391800D02*
X142692120Y-187243720D01*
X142364460Y-188719460D02*
X142692120Y-188391800D01*
X140403580Y-188719460D02*
X142364460Y-188719460D01*
X140027660Y-189095380D02*
X140403580Y-188719460D01*
X140027660Y-190609220D02*
X140027660Y-189095380D01*
%TO.N,Net-(C4-Pad1)*%
X121777680Y-106803860D02*
X123583100Y-106803860D01*
X123911360Y-107132120D02*
X123911360Y-108127800D01*
X123583100Y-106803860D02*
X123911360Y-107132120D01*
X138874540Y-102346760D02*
X138930380Y-102402600D01*
X136728200Y-102346760D02*
X138874540Y-102346760D01*
X136735820Y-102354380D02*
X136728200Y-102346760D01*
X136735820Y-104670820D02*
X136735820Y-102354380D01*
X139522200Y-116448200D02*
X139527280Y-116453280D01*
X139522200Y-114707040D02*
X139522200Y-116448200D01*
X139527280Y-116453280D02*
X140509620Y-116453280D01*
X140509620Y-116453280D02*
X140764260Y-116707920D01*
X140764260Y-116707920D02*
X140764260Y-118061740D01*
X140992900Y-118290380D02*
X142130780Y-118290380D01*
X140764260Y-118061740D02*
X140992900Y-118290380D01*
X137955660Y-114707040D02*
X139522200Y-114707040D01*
X137716260Y-114467640D02*
X137955660Y-114707040D01*
X136728200Y-102346760D02*
X135519160Y-102346760D01*
X135519160Y-102346760D02*
X134945120Y-102920800D01*
X134945120Y-102920800D02*
X134945120Y-109740700D01*
X134945120Y-109740700D02*
X135478520Y-110274100D01*
X135478520Y-110274100D02*
X137180320Y-110274100D01*
X137716260Y-110810040D02*
X137716260Y-114467640D01*
X137180320Y-110274100D02*
X137716260Y-110810040D01*
%TO.N,Net-(C4-Pad2)*%
X121777680Y-107453860D02*
X122818320Y-107453860D01*
X123019820Y-107655360D02*
X123019820Y-109245400D01*
X122818320Y-107453860D02*
X123019820Y-107655360D01*
X136735820Y-109212380D02*
X136768840Y-109245400D01*
X136735820Y-106570820D02*
X136735820Y-109212380D01*
X138778620Y-109245400D02*
X138958320Y-109065700D01*
X136768840Y-109245400D02*
X138778620Y-109245400D01*
%TO.N,Net-(C5-Pad2)*%
X138930380Y-107212760D02*
X138958320Y-107240700D01*
X138930380Y-104302600D02*
X138930380Y-107212760D01*
%TO.N,Net-(C6-Pad1)*%
X142130780Y-114770540D02*
X142102840Y-114742600D01*
X142130780Y-116390380D02*
X142130780Y-114770540D01*
%TO.N,+3V3*%
X142067280Y-112882040D02*
X142102840Y-112917600D01*
X139522200Y-112882040D02*
X142067280Y-112882040D01*
X145230960Y-112917600D02*
X145232120Y-112916440D01*
X142102840Y-112917600D02*
X145230960Y-112917600D01*
X145232120Y-112916440D02*
X147008320Y-112916440D01*
X147008320Y-112916440D02*
X147411440Y-113319560D01*
X147411440Y-113319560D02*
X147411440Y-114193320D01*
X147846420Y-114628300D02*
X149806660Y-114628300D01*
X147411440Y-114193320D02*
X147846420Y-114628300D01*
X116052680Y-103553860D02*
X114295520Y-103553860D01*
X114295520Y-103553860D02*
X114051080Y-103309420D01*
X114721640Y-100759260D02*
X121851420Y-100759260D01*
X114051080Y-101429820D02*
X114721640Y-100759260D01*
X138739880Y-112099720D02*
X139522200Y-112882040D01*
X138739880Y-111175800D02*
X138739880Y-112099720D01*
X114088340Y-102903860D02*
X114051080Y-102941120D01*
X116052680Y-102903860D02*
X114088340Y-102903860D01*
X114051080Y-102941120D02*
X114051080Y-101429820D01*
X114051080Y-103309420D02*
X114051080Y-102941120D01*
%TO.N,/D+*%
X129344420Y-180324760D02*
X129303780Y-180284120D01*
X129344420Y-181617620D02*
X129344420Y-180324760D01*
%TO.N,/D-*%
X131968240Y-178196240D02*
X131894580Y-178122580D01*
X131968240Y-179615460D02*
X131968240Y-178196240D01*
%TO.N,VDD*%
X149806660Y-111287560D02*
X149806660Y-112803300D01*
X134285140Y-162114040D02*
X134285140Y-160144040D01*
X134894320Y-158892240D02*
X135940160Y-158892240D01*
X134285140Y-159501420D02*
X134894320Y-158892240D01*
X144731740Y-158884620D02*
X144805400Y-158958280D01*
X143309340Y-158884620D02*
X144731740Y-158884620D01*
X142793720Y-139052420D02*
X142771600Y-139030300D01*
X142793720Y-141287500D02*
X142793720Y-139052420D01*
X134285140Y-160144040D02*
X134285140Y-159501420D01*
X111156240Y-149418800D02*
X111158020Y-149420580D01*
X111156240Y-147379420D02*
X111156240Y-149418800D01*
X142771600Y-135998480D02*
X142771600Y-139030300D01*
X143377920Y-135392160D02*
X142771600Y-135998480D01*
X149514560Y-135392160D02*
X143377920Y-135392160D01*
X150066380Y-134840340D02*
X149514560Y-135392160D01*
X150066380Y-120726200D02*
X150066380Y-123217300D01*
X150066380Y-123217300D02*
X150066380Y-134840340D01*
X149806660Y-110517940D02*
X149806660Y-111287560D01*
X141655800Y-101114860D02*
X141175740Y-101594920D01*
X141175740Y-101594920D02*
X141175740Y-102427400D01*
X149364700Y-101114860D02*
X141655800Y-101114860D01*
X149806660Y-101556820D02*
X149364700Y-101114860D01*
X149806660Y-110517940D02*
X149806660Y-101556820D01*
%TO.N,ESP_IO0*%
X119810560Y-192915500D02*
X119870220Y-192855840D01*
X116365020Y-192915500D02*
X119810560Y-192915500D01*
X119870220Y-192855840D02*
X126244360Y-192855840D01*
X126244360Y-192855840D02*
X126573280Y-192526920D01*
X126573280Y-192526920D02*
X126573280Y-190672720D01*
X126573280Y-190672720D02*
X126812040Y-190433960D01*
X127459311Y-190398829D02*
X127424180Y-190433960D01*
X127531600Y-156030300D02*
X127459311Y-156102589D01*
X127424180Y-190433960D02*
X128677160Y-190433960D01*
X127531600Y-156030300D02*
X127531600Y-157963340D01*
X127531600Y-157963340D02*
X127982980Y-158414720D01*
X127982980Y-158414720D02*
X128485900Y-158414720D01*
X128485900Y-158414720D02*
X128935480Y-158864300D01*
X128935480Y-158864300D02*
X128935480Y-179590700D01*
X128935480Y-179590700D02*
X128460500Y-180065680D01*
X128460500Y-180065680D02*
X127419100Y-180065680D01*
X127419100Y-180065680D02*
X126994920Y-180489860D01*
X126994920Y-190352680D02*
X127076200Y-190433960D01*
X126994920Y-180489860D02*
X126994920Y-190352680D01*
X127076200Y-190433960D02*
X127424180Y-190433960D01*
X126812040Y-190433960D02*
X127076200Y-190433960D01*
%TO.N,+5V*%
X127523240Y-133419220D02*
X128409060Y-133419220D01*
X128409060Y-133419220D02*
X128625600Y-133202680D01*
X128625600Y-133202680D02*
X128625600Y-132420360D01*
X128625600Y-132420360D02*
X128986640Y-132059320D01*
X130140040Y-132709320D02*
X130129280Y-132720080D01*
X130321000Y-132709320D02*
X130140040Y-132709320D01*
X130129280Y-132720080D02*
X129570480Y-132720080D01*
X129332080Y-132481680D02*
X129332080Y-132059320D01*
X129570480Y-132720080D02*
X129332080Y-132481680D01*
X129332080Y-132059320D02*
X130321000Y-132059320D01*
X128986640Y-132059320D02*
X129332080Y-132059320D01*
X130321000Y-131409320D02*
X129517260Y-131409320D01*
X129332080Y-131594500D02*
X129332080Y-132059320D01*
X129517260Y-131409320D02*
X129332080Y-131594500D01*
X125124800Y-133419220D02*
X125115320Y-133428700D01*
X127523240Y-133419220D02*
X125124800Y-133419220D01*
X125115320Y-133428700D02*
X124106900Y-133428700D01*
X123842780Y-133164580D02*
X123842780Y-128874520D01*
X124106900Y-133428700D02*
X123842780Y-133164580D01*
X120586500Y-139298680D02*
X120586500Y-131353560D01*
X120586500Y-131353560D02*
X120642380Y-131297680D01*
%TO.N,ESP_EN*%
X126745360Y-194124580D02*
X126659640Y-194210300D01*
X128674620Y-194124580D02*
X126745360Y-194124580D01*
X123410380Y-194210300D02*
X123388120Y-194188040D01*
X126659640Y-194210300D02*
X123410380Y-194210300D01*
X141501600Y-143002740D02*
X141571980Y-143073120D01*
X141501600Y-139030300D02*
X141501600Y-143002740D01*
X121406920Y-193664840D02*
X121886980Y-194144900D01*
X123344980Y-194144900D02*
X123388120Y-194188040D01*
X121886980Y-194144900D02*
X123344980Y-194144900D01*
%TO.N,Net-(D1-Pad1)*%
X123273100Y-121709180D02*
X124571760Y-121709180D01*
X124571760Y-121709180D02*
X125067060Y-121213880D01*
X125067060Y-121213880D02*
X125067060Y-117391180D01*
X125242320Y-117215920D02*
X126275860Y-117215920D01*
X125067060Y-117391180D02*
X125242320Y-117215920D01*
%TO.N,Net-(D1-Pad2)*%
X128150860Y-115844560D02*
X128150860Y-117215920D01*
X127929640Y-115623340D02*
X128150860Y-115844560D01*
X125122940Y-115623340D02*
X127929640Y-115623340D01*
X124723010Y-116023270D02*
X125122940Y-115623340D01*
X124723010Y-116874810D02*
X124723010Y-116023270D01*
X123698000Y-117899820D02*
X124723010Y-116874810D01*
%TO.N,Net-(D2-Pad2)*%
X126697740Y-125968760D02*
X127292100Y-125374400D01*
X121846980Y-125968760D02*
X126697740Y-125968760D01*
X129456180Y-119367300D02*
X128153400Y-119367300D01*
X129791460Y-119702580D02*
X129456180Y-119367300D01*
X129791460Y-121770140D02*
X129791460Y-119702580D01*
%TO.N,Net-(D2-Pad1)*%
X123273100Y-122979180D02*
X125785880Y-122979180D01*
X125785880Y-122979180D02*
X126369840Y-122395220D01*
X126369840Y-119458740D02*
X126278400Y-119367300D01*
X126369840Y-122395220D02*
X126369840Y-119458740D01*
%TO.N,Net-(D4-Pad2)*%
X150119080Y-181777400D02*
X150119080Y-179924080D01*
%TO.N,Net-(D5-Pad2)*%
X146245820Y-120726200D02*
X146210260Y-120761760D01*
X148241380Y-120726200D02*
X146245820Y-120726200D01*
%TO.N,Net-(D8-Pad2)*%
X126010120Y-164913620D02*
X125948440Y-164975300D01*
X126010120Y-161762520D02*
X126010120Y-164913620D01*
%TO.N,Net-(J1-PadA5)*%
X114314020Y-117570820D02*
X115009360Y-117570820D01*
X115009360Y-117570820D02*
X115470940Y-117109240D01*
X115470940Y-117109240D02*
X115470940Y-113934240D01*
X115697000Y-113708180D02*
X115920520Y-113708180D01*
X115470940Y-113934240D02*
X115697000Y-113708180D01*
%TO.N,PWM_SERVO*%
X130071600Y-141064720D02*
X130101340Y-141094460D01*
X130071600Y-139030300D02*
X130071600Y-141064720D01*
%TO.N,ESP_IO6*%
X125281600Y-148165300D02*
X124960380Y-147844080D01*
X126531600Y-148165300D02*
X125281600Y-148165300D01*
X124960380Y-147844080D02*
X124960380Y-144706340D01*
X124396500Y-144142460D02*
X122521980Y-144142460D01*
X124960380Y-144706340D02*
X124396500Y-144142460D01*
%TO.N,ESP_IO7*%
X126531600Y-149435300D02*
X124827780Y-149435300D01*
X124827780Y-149435300D02*
X124363480Y-148971000D01*
X124363480Y-148971000D02*
X124363480Y-147177760D01*
X123868180Y-146682460D02*
X122521980Y-146682460D01*
X124363480Y-147177760D02*
X123868180Y-146682460D01*
%TO.N,ESP_IO8*%
X125281600Y-150705300D02*
X125281080Y-150705820D01*
X126531600Y-150705300D02*
X125281600Y-150705300D01*
X125281080Y-150705820D02*
X123571000Y-150705820D01*
X122521980Y-149656800D02*
X122521980Y-149222460D01*
X123571000Y-150705820D02*
X122521980Y-149656800D01*
%TO.N,ESP_IO15*%
X122734820Y-151975300D02*
X122521980Y-151762460D01*
X126531600Y-151975300D02*
X122734820Y-151975300D01*
%TO.N,ESP_IO2*%
X122521980Y-154302460D02*
X122521980Y-153685240D01*
X122961920Y-153245300D02*
X126531600Y-153245300D01*
X122521980Y-153685240D02*
X122961920Y-153245300D01*
X122521980Y-154302460D02*
X122521980Y-156090620D01*
X122521980Y-156090620D02*
X122877580Y-156446220D01*
X122877580Y-156446220D02*
X125691900Y-156446220D01*
X126010120Y-156764440D02*
X125691900Y-156446220D01*
X126010120Y-159937520D02*
X126010120Y-156764440D01*
%TO.N,Net-(L1-Pad2)*%
X128847620Y-102903860D02*
X129113280Y-103169520D01*
X121777680Y-103553860D02*
X122767760Y-103553860D01*
X122987640Y-103333980D02*
X122987640Y-102903860D01*
X122767760Y-103553860D02*
X122987640Y-103333980D01*
X122987640Y-102903860D02*
X128847620Y-102903860D01*
X121777680Y-102903860D02*
X122987640Y-102903860D01*
%TO.N,Net-(L1-Pad1)*%
X121980840Y-105503860D02*
X122105830Y-105628850D01*
X121777680Y-105503860D02*
X121980840Y-105503860D01*
X125653800Y-105191560D02*
X125316100Y-104853860D01*
X125653800Y-111993680D02*
X125653800Y-105191560D01*
X126329640Y-112669520D02*
X125653800Y-111993680D01*
X129113280Y-112669520D02*
X126329640Y-112669520D01*
X123505080Y-104406820D02*
X123505080Y-104853860D01*
X123302120Y-104203860D02*
X123505080Y-104406820D01*
X121777680Y-104203860D02*
X123302120Y-104203860D01*
X123505080Y-104853860D02*
X121777680Y-104853860D01*
X125316100Y-104853860D02*
X123505080Y-104853860D01*
X121777680Y-105503860D02*
X123228220Y-105503860D01*
X123505080Y-105227000D02*
X123505080Y-104853860D01*
X123228220Y-105503860D02*
X123505080Y-105227000D01*
%TO.N,Net-(L2-Pad2)*%
X145670980Y-132709320D02*
X145897600Y-132482700D01*
X135871000Y-133359320D02*
X136858580Y-133359320D01*
X137003120Y-133214780D02*
X137003120Y-132709320D01*
X136858580Y-133359320D02*
X137003120Y-133214780D01*
X137003120Y-132709320D02*
X145670980Y-132709320D01*
X135871000Y-132709320D02*
X137003120Y-132709320D01*
%TO.N,Net-(Q1-Pad1)*%
X106509780Y-143430660D02*
X106499020Y-143441420D01*
X106509780Y-141063220D02*
X106509780Y-143430660D01*
%TO.N,Net-(Q1-Pad3)*%
X105676700Y-136563740D02*
X105676700Y-138640820D01*
X106099100Y-139063220D02*
X107459780Y-139063220D01*
X105676700Y-138640820D02*
X106099100Y-139063220D01*
X129035380Y-128809320D02*
X130321000Y-128809320D01*
X128793240Y-128567180D02*
X129035380Y-128809320D01*
X128793240Y-128107440D02*
X128793240Y-128567180D01*
X128313180Y-127627380D02*
X128793240Y-128107440D01*
X118584980Y-127627380D02*
X128313180Y-127627380D01*
X110068360Y-134940040D02*
X117221000Y-134940040D01*
X117221000Y-134940040D02*
X118120160Y-134040880D01*
X109392720Y-135615680D02*
X110068360Y-134940040D01*
X118120160Y-128092200D02*
X118584980Y-127627380D01*
X109392720Y-138376660D02*
X109392720Y-135615680D01*
X108706160Y-139063220D02*
X109392720Y-138376660D01*
X118120160Y-134040880D02*
X118120160Y-128092200D01*
X107459780Y-139063220D02*
X108706160Y-139063220D01*
%TO.N,Net-(Q2-Pad1)*%
X132676220Y-191383960D02*
X132676260Y-191383920D01*
X130677160Y-191383960D02*
X132676220Y-191383960D01*
%TO.N,/DTR*%
X140802440Y-182222500D02*
X133812640Y-182222500D01*
X133812640Y-182222500D02*
X133479540Y-181889400D01*
X133479540Y-181889400D02*
X133479540Y-180848000D01*
X133234490Y-180602950D02*
X131128710Y-180602950D01*
X133479540Y-180848000D02*
X133234490Y-180602950D01*
X131128710Y-180602950D02*
X130756660Y-180975000D01*
X130756660Y-180975000D02*
X130756660Y-182186580D01*
X130338130Y-182605110D02*
X128135950Y-182605110D01*
X130756660Y-182186580D02*
X130338130Y-182605110D01*
X128135950Y-182605110D02*
X127909320Y-182831740D01*
X127909320Y-182831740D02*
X127909320Y-186232800D01*
X127909320Y-186232800D02*
X128257300Y-186580780D01*
X128257300Y-186580780D02*
X130459480Y-186580780D01*
X130677160Y-186798460D02*
X130677160Y-189483960D01*
X130459480Y-186580780D02*
X130677160Y-186798460D01*
X130677160Y-189483960D02*
X130677160Y-189942980D01*
X130677160Y-189942980D02*
X130919220Y-190185040D01*
X130919220Y-190185040D02*
X133266180Y-190185040D01*
X133513770Y-190432630D02*
X133513770Y-192865950D01*
X133266180Y-190185040D02*
X133513770Y-190432630D01*
X133513770Y-192865950D02*
X133718300Y-193070480D01*
X133718300Y-193070480D02*
X134203440Y-193070480D01*
X134490460Y-193357500D02*
X134490460Y-195112640D01*
X134203440Y-193070480D02*
X134490460Y-193357500D01*
%TO.N,/RTS*%
X130674620Y-193174580D02*
X129926120Y-193174580D01*
X129926120Y-193174580D02*
X129631440Y-193469260D01*
X136204960Y-191383920D02*
X134501260Y-191383920D01*
X136552940Y-191731900D02*
X136204960Y-191383920D01*
X132372140Y-193174580D02*
X132420360Y-193126360D01*
X130674620Y-193174580D02*
X132372140Y-193174580D01*
X146525980Y-180273960D02*
X146527440Y-180272500D01*
X144211040Y-180273960D02*
X146525980Y-180273960D01*
X136552940Y-191731900D02*
X136552940Y-195803520D01*
X136552940Y-195803520D02*
X136108440Y-196248020D01*
X136108440Y-196248020D02*
X129865120Y-196248020D01*
X129631440Y-196014340D02*
X129631440Y-193469260D01*
X129865120Y-196248020D02*
X129631440Y-196014340D01*
%TO.N,Net-(Q3-Pad1)*%
X130712680Y-195112640D02*
X130674620Y-195074580D01*
X132665460Y-195112640D02*
X130712680Y-195112640D01*
%TO.N,EN_3V3*%
X116965100Y-110048040D02*
X124526040Y-110048040D01*
X124526040Y-110048040D02*
X124950220Y-109623860D01*
X124950220Y-109623860D02*
X124950220Y-106735880D01*
X124368200Y-106153860D02*
X121777680Y-106153860D01*
X124950220Y-106735880D02*
X124368200Y-106153860D01*
X116965100Y-110992280D02*
X116342160Y-111615220D01*
X116965100Y-110048040D02*
X116965100Y-110992280D01*
X116342160Y-111615220D02*
X111630460Y-111615220D01*
X111630460Y-111615220D02*
X111137700Y-112107980D01*
X111137700Y-112107980D02*
X111137700Y-115140740D01*
X111137700Y-115140740D02*
X110482380Y-115796060D01*
X110482380Y-115796060D02*
X104033320Y-115796060D01*
X104033320Y-115796060D02*
X103182420Y-116646960D01*
X103182420Y-116646960D02*
X103182420Y-153563320D01*
X103440400Y-153821300D02*
X112809020Y-153821300D01*
X103182420Y-153563320D02*
X103440400Y-153821300D01*
%TO.N,Net-(R2-Pad1)*%
X116044860Y-107461680D02*
X116052680Y-107453860D01*
X112534700Y-107461680D02*
X116044860Y-107461680D01*
%TO.N,Net-(R10-Pad1)*%
X117849100Y-121709180D02*
X116578380Y-121709180D01*
X116578380Y-121709180D02*
X116296440Y-121427240D01*
X116296440Y-121427240D02*
X116296440Y-118610380D01*
X116542820Y-118364000D02*
X117823740Y-118364000D01*
X116296440Y-118610380D02*
X116542820Y-118364000D01*
%TO.N,Net-(R12-Pad1)*%
X131968240Y-182486300D02*
X131968240Y-181440460D01*
X132189220Y-182707280D02*
X131968240Y-182486300D01*
X137774680Y-182707280D02*
X132189220Y-182707280D01*
X138033760Y-182966360D02*
X137774680Y-182707280D01*
X138033760Y-184167780D02*
X138033760Y-182966360D01*
X138688480Y-184822500D02*
X138033760Y-184167780D01*
X140802440Y-184822500D02*
X138688480Y-184822500D01*
%TO.N,Net-(R13-Pad1)*%
X140802440Y-185472500D02*
X137852580Y-185472500D01*
X137852580Y-185472500D02*
X137568940Y-185188860D01*
X137568940Y-185188860D02*
X137568940Y-183611520D01*
X137400040Y-183442620D02*
X129344420Y-183442620D01*
X137568940Y-183611520D02*
X137400040Y-183442620D01*
%TO.N,Net-(R14-Pad2)*%
X144174260Y-186772500D02*
X146527440Y-186772500D01*
X143756380Y-187190380D02*
X144174260Y-186772500D01*
X143756380Y-190273940D02*
X143756380Y-187190380D01*
X143421100Y-190609220D02*
X143756380Y-190273940D01*
X141852660Y-190609220D02*
X143421100Y-190609220D01*
%TO.N,EN_5V*%
X135151600Y-140994660D02*
X135100060Y-141046200D01*
X135151600Y-139030300D02*
X135151600Y-140994660D01*
X111777780Y-140771880D02*
X111345980Y-141203680D01*
X111345980Y-141203680D02*
X111345980Y-143002000D01*
X110906560Y-143441420D02*
X108324020Y-143441420D01*
X111345980Y-143002000D02*
X110906560Y-143441420D01*
%TO.N,SDA*%
X137765160Y-156103860D02*
X137691600Y-156030300D01*
X137765160Y-158892240D02*
X137765160Y-156103860D01*
X137691600Y-153696140D02*
X137683240Y-153687780D01*
X137691600Y-156030300D02*
X137691600Y-153696140D01*
%TO.N,SCL*%
X141501600Y-158867360D02*
X141484340Y-158884620D01*
X141501600Y-156030300D02*
X141501600Y-158867360D01*
X141501600Y-153673280D02*
X141470380Y-153642060D01*
X141501600Y-156030300D02*
X141501600Y-153673280D01*
%TO.N,Net-(R19-Pad2)*%
X138417300Y-127170820D02*
X138445240Y-127142880D01*
X135871000Y-129459320D02*
X136763160Y-129459320D01*
X136763160Y-129459320D02*
X136999980Y-129222500D01*
X136999980Y-129222500D02*
X136999980Y-128236980D01*
X138417300Y-128021080D02*
X138417300Y-127170820D01*
X137215880Y-128021080D02*
X138417300Y-128021080D01*
X136999980Y-128236980D02*
X137215880Y-128021080D01*
X138417300Y-128927220D02*
X138417300Y-128021080D01*
%TO.N,BATT_LEVEL*%
X135615680Y-136390380D02*
X135648700Y-136423400D01*
X133807240Y-136390380D02*
X135615680Y-136390380D01*
X133881600Y-136464740D02*
X133807240Y-136390380D01*
X133881600Y-139030300D02*
X133881600Y-136464740D01*
%TO.N,INT_RTC*%
X131341600Y-141119120D02*
X131335780Y-141124940D01*
X131341600Y-139030300D02*
X131341600Y-141119120D01*
%TO.N,Net-(R26-Pad2)*%
X130321000Y-130759320D02*
X127535820Y-130759320D01*
X127535820Y-130759320D02*
X127523240Y-130771900D01*
X127523240Y-131594220D02*
X127523240Y-130771900D01*
X127523240Y-128927860D02*
X127520700Y-128925320D01*
X127523240Y-130771900D02*
X127523240Y-128927860D01*
%TO.N,3V3_FTDI*%
X140802440Y-186122500D02*
X143287560Y-186122500D01*
X143287560Y-186122500D02*
X143690340Y-185719720D01*
X144058040Y-181572500D02*
X146527440Y-181572500D01*
X143690340Y-181940200D02*
X144058040Y-181572500D01*
X143697600Y-182222500D02*
X143690340Y-182229760D01*
X146527440Y-182222500D02*
X143697600Y-182222500D01*
X143690340Y-182229760D02*
X143690340Y-181940200D01*
X146527440Y-183522500D02*
X143776580Y-183522500D01*
X143776580Y-183522500D02*
X143690340Y-183436260D01*
X143690340Y-183436260D02*
X143690340Y-182229760D01*
X143707760Y-184172500D02*
X143690340Y-184155080D01*
X146527440Y-184172500D02*
X143707760Y-184172500D01*
X143690340Y-184155080D02*
X143690340Y-183436260D01*
X143781180Y-184822500D02*
X143690340Y-184731660D01*
X146527440Y-184822500D02*
X143781180Y-184822500D01*
X143690340Y-184731660D02*
X143690340Y-184155080D01*
X143690340Y-185719720D02*
X143690340Y-184731660D01*
X146527440Y-184172500D02*
X147728580Y-184172500D01*
X147728580Y-184172500D02*
X148191220Y-184635140D01*
X148191220Y-184635140D02*
X148191220Y-190220600D01*
X148191220Y-190220600D02*
X147853400Y-190558420D01*
X147853400Y-190558420D02*
X144416780Y-190558420D01*
X144416780Y-190558420D02*
X143997680Y-190977520D01*
X143997680Y-190977520D02*
X143997680Y-196209920D01*
X143997680Y-196209920D02*
X143362680Y-196844920D01*
X136382760Y-196844920D02*
X136370060Y-196832220D01*
X143362680Y-196844920D02*
X136382760Y-196844920D01*
X136370060Y-196832220D02*
X126824740Y-196832220D01*
X119870220Y-194680840D02*
X121206260Y-194680840D01*
X121206260Y-194680840D02*
X121742200Y-195216780D01*
X124055050Y-195216780D02*
X124072830Y-195199000D01*
X121742200Y-195216780D02*
X124055050Y-195216780D01*
X124072830Y-195199000D02*
X124673360Y-195199000D01*
X124673360Y-195199000D02*
X124927360Y-195453000D01*
X124927360Y-195453000D02*
X124927360Y-196418200D01*
X124927360Y-196418200D02*
X125341380Y-196832220D01*
X126659640Y-196794120D02*
X126621540Y-196832220D01*
X126659640Y-196035300D02*
X126659640Y-196794120D01*
X126621540Y-196832220D02*
X126824740Y-196832220D01*
X125341380Y-196832220D02*
X126621540Y-196832220D01*
%TO.N,Net-(R30-Pad1)*%
X146527440Y-180922500D02*
X148370720Y-180922500D01*
X148370720Y-180922500D02*
X148630640Y-180662580D01*
X148630640Y-180662580D02*
X148630640Y-178269900D01*
X148811620Y-178088920D02*
X150108920Y-178088920D01*
X148630640Y-178269900D02*
X148811620Y-178088920D01*
%TO.N,BUTTON_INT*%
X137691600Y-141027680D02*
X137668000Y-141051280D01*
X137691600Y-139030300D02*
X137691600Y-141027680D01*
%TO.N,BUTTON_KILL*%
X112533260Y-157010100D02*
X112533260Y-157623340D01*
X112533260Y-157623340D02*
X112862360Y-157952440D01*
X112862360Y-157952440D02*
X117289580Y-157952440D01*
X117289580Y-157952440D02*
X117624860Y-157617160D01*
X117624860Y-157617160D02*
X117624860Y-157220920D01*
X117624860Y-157220920D02*
X117800120Y-157045660D01*
X117800120Y-157045660D02*
X124244100Y-157045660D01*
X124244100Y-157045660D02*
X124617480Y-157419040D01*
X124617480Y-157419040D02*
X124617480Y-160342580D01*
X124617480Y-160342580D02*
X125069600Y-160794700D01*
X125069600Y-160794700D02*
X126809500Y-160794700D01*
X126809500Y-160794700D02*
X127220980Y-160383220D01*
X127220980Y-160383220D02*
X127220980Y-158920180D01*
X126460130Y-158159330D02*
X126460130Y-154842330D01*
X127220980Y-158920180D02*
X126460130Y-158159330D01*
X126460130Y-154842330D02*
X126911100Y-154391360D01*
X126911100Y-154391360D02*
X128485900Y-154391360D01*
X128801600Y-154707060D02*
X128801600Y-156030300D01*
X128485900Y-154391360D02*
X128801600Y-154707060D01*
%TO.N,LORA_MOSI*%
X109156240Y-161871920D02*
X109712760Y-161315400D01*
X109156240Y-163379420D02*
X109156240Y-161871920D01*
X142771600Y-156030300D02*
X142771600Y-151582860D01*
X142455900Y-151267160D02*
X141541500Y-151267160D01*
X142771600Y-151582860D02*
X142455900Y-151267160D01*
%TO.N,ESP_TX*%
X140231600Y-156030300D02*
X140231600Y-159835320D01*
X140231600Y-159835320D02*
X140489940Y-160093660D01*
X147049762Y-160093660D02*
X147059922Y-160103820D01*
X140489940Y-160093660D02*
X147049762Y-160093660D01*
X147059922Y-160103820D02*
X148590000Y-160103820D01*
X148590000Y-160103820D02*
X149557740Y-161071560D01*
X149557740Y-161071560D02*
X149557740Y-175381920D01*
X149557740Y-175381920D02*
X149359620Y-175580040D01*
X149359620Y-175580040D02*
X148592540Y-175580040D01*
X148592540Y-175580040D02*
X148079460Y-176093120D01*
X148079460Y-176093120D02*
X148079460Y-178622960D01*
X147729920Y-178972500D02*
X146527440Y-178972500D01*
X148079460Y-178622960D02*
X147729920Y-178972500D01*
%TO.N,ESP_RX*%
X139556780Y-178972500D02*
X140802440Y-178972500D01*
X139171680Y-177040540D02*
X139171680Y-178587400D01*
X139550140Y-176662080D02*
X139171680Y-177040540D01*
X141079220Y-176433480D02*
X140850620Y-176662080D01*
X141086840Y-175597820D02*
X141079220Y-175605440D01*
X141086840Y-160982660D02*
X141086840Y-175597820D01*
X139171680Y-178587400D02*
X139556780Y-178972500D01*
X140787120Y-160682940D02*
X141086840Y-160982660D01*
X140850620Y-176662080D02*
X139550140Y-176662080D01*
X139308840Y-160682940D02*
X140787120Y-160682940D01*
X138961600Y-160335700D02*
X139308840Y-160682940D01*
X141079220Y-175605440D02*
X141079220Y-176433480D01*
X138961600Y-156030300D02*
X138961600Y-160335700D01*
%TO.N,LORA_MISO*%
X135151600Y-153879020D02*
X135107680Y-153835100D01*
X135151600Y-156030300D02*
X135151600Y-153879020D01*
X107156240Y-156790400D02*
X107156240Y-163379420D01*
X107673140Y-156273500D02*
X107156240Y-156790400D01*
X109054900Y-156273500D02*
X107673140Y-156273500D01*
X109341920Y-155732480D02*
X109341920Y-155986480D01*
X109734181Y-155340219D02*
X109341920Y-155732480D01*
X119497941Y-155340219D02*
X109734181Y-155340219D01*
X109341920Y-155986480D02*
X109054900Y-156273500D01*
X119529860Y-155308300D02*
X119497941Y-155340219D01*
%TO.N,LORA_SCK*%
X133881600Y-157847560D02*
X133880860Y-157848300D01*
X133881600Y-156030300D02*
X133881600Y-157847560D01*
X111156240Y-163379420D02*
X111156240Y-156625800D01*
X118433681Y-156089519D02*
X118457980Y-156065220D01*
X111692521Y-156089519D02*
X118433681Y-156089519D01*
X111156240Y-156625800D02*
X111692521Y-156089519D01*
%TO.N,LORA_NSS*%
X132611600Y-156030300D02*
X132611600Y-157761200D01*
X132611600Y-157761200D02*
X132600700Y-157772100D01*
X113156240Y-163379420D02*
X113156240Y-160368740D01*
X113156240Y-160368740D02*
X114246660Y-159278320D01*
X114246660Y-159278320D02*
X118038880Y-159278320D01*
X118521480Y-158795720D02*
X118521480Y-157894020D01*
X118038880Y-159278320D02*
X118521480Y-158795720D01*
%TO.N,GPS_RX*%
X131341600Y-156030300D02*
X131341600Y-164407320D01*
X131341600Y-164407320D02*
X131612640Y-164678360D01*
X131612640Y-164678360D02*
X136105900Y-164678360D01*
X136485140Y-164299120D02*
X136485140Y-162114040D01*
X136105900Y-164678360D02*
X136485140Y-164299120D01*
%TO.N,GPS_TX*%
X130071600Y-156030300D02*
X130071600Y-164996600D01*
X130071600Y-164996600D02*
X130647440Y-165572440D01*
X130647440Y-165572440D02*
X136758680Y-165572440D01*
X137585140Y-164745980D02*
X137585140Y-162114040D01*
X136758680Y-165572440D02*
X137585140Y-164745980D01*
%TO.N,LORA_RST*%
X128801600Y-141102820D02*
X128823720Y-141124940D01*
X128801600Y-139030300D02*
X128801600Y-141102820D01*
X115156240Y-163379420D02*
X115156240Y-160730940D01*
X115727480Y-160159700D02*
X119306340Y-160159700D01*
X115156240Y-160730940D02*
X115727480Y-160159700D01*
%TO.N,RST_RTC*%
X132611600Y-141123140D02*
X132626100Y-141137640D01*
X132611600Y-139030300D02*
X132611600Y-141123140D01*
%TO.N,Net-(J9-Pad3)*%
X111734600Y-151386540D02*
X118320820Y-151386540D01*
X119156240Y-150551120D02*
X119156240Y-147379420D01*
X118320820Y-151386540D02*
X119156240Y-150551120D01*
%TO.N,Net-(J4-Pad3)*%
X104523540Y-190200280D02*
X124193300Y-190200280D01*
X124193300Y-190200280D02*
X125702060Y-188691520D01*
X146085140Y-175464040D02*
X146080480Y-175468700D01*
X146085140Y-174314040D02*
X146085140Y-175464040D01*
X146080480Y-175468700D02*
X146080480Y-176921160D01*
X145221960Y-177779680D02*
X141003020Y-177779680D01*
X146080480Y-176921160D02*
X145221960Y-177779680D01*
X125702060Y-188691520D02*
X125702060Y-184873900D01*
%TO.N,/FB1*%
X114924021Y-118570819D02*
X115143280Y-118790078D01*
X114314020Y-118570820D02*
X114924021Y-118570819D01*
X115143280Y-119075434D02*
X115461172Y-119393326D01*
X115143280Y-118790078D02*
X115143280Y-119075434D01*
%TO.N,/FB2*%
X114314020Y-118070820D02*
X115451700Y-118070820D01*
X115451700Y-118070820D02*
X115457860Y-118076980D01*
X115457860Y-118076980D02*
X115851940Y-118076980D01*
X116385300Y-117543620D02*
X116385300Y-115554800D01*
X115851940Y-118076980D02*
X116385300Y-117543620D01*
%TD*%
M02*
