%TF.GenerationSoftware,KiCad,Pcbnew,(5.1.10)-1*%
%TF.CreationDate,2021-09-02T16:56:43-04:00*%
%TF.ProjectId,buoy-c,62756f79-2d63-42e6-9b69-6361645f7063,1.0*%
%TF.SameCoordinates,Original*%
%TF.FileFunction,Copper,L3,Inr*%
%TF.FilePolarity,Positive*%
%FSLAX46Y46*%
G04 Gerber Fmt 4.6, Leading zero omitted, Abs format (unit mm)*
G04 Created by KiCad (PCBNEW (5.1.10)-1) date 2021-09-02 16:56:43*
%MOMM*%
%LPD*%
G01*
G04 APERTURE LIST*
%TA.AperFunction,Profile*%
%ADD10C,0.050000*%
%TD*%
%TA.AperFunction,ComponentPad*%
%ADD11C,3.500000*%
%TD*%
%TA.AperFunction,ComponentPad*%
%ADD12R,3.500000X3.500000*%
%TD*%
%TA.AperFunction,ComponentPad*%
%ADD13C,2.300000*%
%TD*%
%TA.AperFunction,ComponentPad*%
%ADD14O,1.700000X1.700000*%
%TD*%
%TA.AperFunction,ComponentPad*%
%ADD15R,1.700000X1.700000*%
%TD*%
%TA.AperFunction,ComponentPad*%
%ADD16C,0.650000*%
%TD*%
%TA.AperFunction,ComponentPad*%
%ADD17C,1.815000*%
%TD*%
%TA.AperFunction,ComponentPad*%
%ADD18C,2.085000*%
%TD*%
%TA.AperFunction,ComponentPad*%
%ADD19R,3.000000X3.000000*%
%TD*%
%TA.AperFunction,ComponentPad*%
%ADD20C,3.000000*%
%TD*%
%TA.AperFunction,ComponentPad*%
%ADD21C,0.600000*%
%TD*%
%TA.AperFunction,ViaPad*%
%ADD22C,0.800000*%
%TD*%
%TA.AperFunction,Conductor*%
%ADD23C,0.250000*%
%TD*%
G04 APERTURE END LIST*
D10*
X151750000Y-194500000D02*
G75*
G02*
X148750000Y-197500000I-3000000J0D01*
G01*
X148750000Y-100000000D02*
G75*
G02*
X151750000Y-103000000I0J-3000000D01*
G01*
X103550000Y-197500000D02*
G75*
G02*
X100550000Y-194500000I0J3000000D01*
G01*
X100550000Y-103000000D02*
G75*
G02*
X103550000Y-100000000I3000000J0D01*
G01*
X103550000Y-197500000D02*
X148750000Y-197500000D01*
X103550000Y-100000000D02*
X148750000Y-100000000D01*
X151750000Y-103000000D02*
X151750000Y-194500000D01*
X100550000Y-103000000D02*
X100550000Y-194500000D01*
D11*
%TO.N,+BATT*%
%TO.C,J5*%
X134975600Y-114700000D03*
D12*
%TO.N,GND*%
X134975600Y-186700000D03*
%TD*%
D13*
%TO.N,BAT-CR2032*%
%TO.C,J2*%
X108822360Y-187892660D03*
X111922360Y-187892660D03*
X111922360Y-167092660D03*
X108822360Y-167092660D03*
%TD*%
D14*
%TO.N,/5V_USB*%
%TO.C,J3*%
X114345720Y-129646680D03*
D15*
%TO.N,GND*%
X114345720Y-132186680D03*
%TD*%
D14*
%TO.N,ESP_IO2*%
%TO.C,J10*%
X122521980Y-154302460D03*
%TO.N,ESP_IO15*%
X122521980Y-151762460D03*
%TO.N,ESP_IO8*%
X122521980Y-149222460D03*
%TO.N,ESP_IO7*%
X122521980Y-146682460D03*
%TO.N,ESP_IO6*%
X122521980Y-144142460D03*
D15*
%TO.N,GND*%
X122521980Y-141602460D03*
%TD*%
D14*
%TO.N,+BATT*%
%TO.C,J7*%
X109062520Y-129646680D03*
D15*
%TO.N,GND*%
X109062520Y-132186680D03*
%TD*%
D14*
%TO.N,VDD*%
%TO.C,J14*%
X122521980Y-168455340D03*
%TO.N,Net-(J14-Pad8)*%
X122521980Y-170995340D03*
%TO.N,GND*%
X122521980Y-173535340D03*
%TO.N,SCL*%
X122521980Y-176075340D03*
%TO.N,SDA*%
X122521980Y-178615340D03*
%TO.N,Net-(J14-Pad4)*%
X122521980Y-181155340D03*
%TO.N,Net-(J14-Pad3)*%
X122521980Y-183695340D03*
%TO.N,Net-(J14-Pad2)*%
X122521980Y-186235340D03*
D15*
%TO.N,Net-(J14-Pad1)*%
X122521980Y-188775340D03*
%TD*%
D16*
%TO.N,GND*%
%TO.C,J1*%
X113164020Y-121370820D03*
%TO.N,Net-(J1-PadB2)*%
X112464020Y-120720820D03*
%TO.N,Net-(J1-PadB3)*%
X112464020Y-119920820D03*
%TO.N,/5V_USB*%
X113164020Y-119520820D03*
%TO.N,Net-(J1-PadB5)*%
X112464020Y-119120820D03*
%TO.N,/FB2*%
X113164020Y-118720820D03*
%TO.N,/FB1*%
X113164020Y-117920820D03*
%TO.N,Net-(J1-PadB8)*%
X112464020Y-117520820D03*
%TO.N,/5V_USB*%
X113164020Y-117120820D03*
%TO.N,Net-(J1-PadB10)*%
X112464020Y-116720820D03*
%TO.N,Net-(J1-PadB11)*%
X112464020Y-115920820D03*
%TO.N,GND*%
X113164020Y-115270820D03*
D17*
X113964020Y-113820820D03*
D18*
X108364020Y-113820820D03*
X108364020Y-122820820D03*
D17*
X113964020Y-122820820D03*
%TD*%
D14*
%TO.N,PWM_SERVO*%
%TO.C,J8*%
X122521980Y-158826200D03*
%TO.N,+5V*%
X122521980Y-161366200D03*
D15*
%TO.N,GND*%
X122521980Y-163906200D03*
%TD*%
D19*
%TO.N,GND*%
%TO.C,J11*%
X113797080Y-138046460D03*
D20*
%TO.N,Net-(J11-Pad2)*%
X113797080Y-143126460D03*
%TD*%
D21*
%TO.N,GND*%
%TO.C,U2*%
X117615180Y-102578860D03*
X118915180Y-102578860D03*
X120215180Y-102578860D03*
X117615180Y-103878860D03*
X118915180Y-103878860D03*
X120215180Y-103878860D03*
X117615180Y-105178860D03*
X118915180Y-105178860D03*
X120215180Y-105178860D03*
X117615180Y-106478860D03*
X118915180Y-106478860D03*
X120215180Y-106478860D03*
X117615180Y-107778860D03*
X118915180Y-107778860D03*
X120215180Y-107778860D03*
%TD*%
%TO.N,GND*%
%TO.C,U6*%
X134196000Y-128884320D03*
X133096000Y-128884320D03*
X131996000Y-128884320D03*
X131996000Y-129984320D03*
X133096000Y-129984320D03*
X134196000Y-129984320D03*
X131996000Y-131084320D03*
X133096000Y-131084320D03*
X134196000Y-131084320D03*
X131996000Y-132184320D03*
X133096000Y-132184320D03*
X134196000Y-132184320D03*
X131996000Y-133284320D03*
X133096000Y-133284320D03*
X134196000Y-133284320D03*
%TD*%
D22*
%TO.N,+BATT*%
X125364240Y-124195840D03*
X142379700Y-107190540D03*
X112506760Y-102041960D03*
X139418060Y-136474200D03*
%TO.N,GND*%
X137749280Y-145572480D03*
X137500360Y-147561300D03*
X135387080Y-147436840D03*
X135305800Y-145531840D03*
X138965940Y-183194960D03*
X148099780Y-182864760D03*
X114195860Y-189108080D03*
X139527280Y-119773700D03*
X133504940Y-127541020D03*
X125679200Y-130535680D03*
X136541600Y-146530300D03*
X133240780Y-160383220D03*
X147185140Y-168290480D03*
X122085100Y-137162540D03*
X118127780Y-145061940D03*
X108752640Y-154967940D03*
X113596420Y-165366700D03*
X118473180Y-196088040D03*
%TO.N,BAT-CR2032*%
X135364220Y-163946840D03*
X117236240Y-169743120D03*
X134622540Y-169743120D03*
%TO.N,/5V_USB*%
X115575080Y-123802140D03*
X118752620Y-111102140D03*
X137820400Y-186697500D03*
%TO.N,Net-(C4-Pad1)*%
X123911360Y-108127800D03*
X136728200Y-102346760D03*
%TO.N,Net-(C4-Pad2)*%
X123019820Y-109245400D03*
X136768840Y-109245400D03*
%TO.N,+3V3*%
X121851420Y-100759260D03*
X138739880Y-111175800D03*
%TO.N,/D+*%
X129303780Y-180284120D03*
X102524560Y-114701320D03*
%TO.N,/D-*%
X131894580Y-178122580D03*
X103487220Y-110599220D03*
%TO.N,VDD*%
X144805400Y-158958280D03*
X142793720Y-141287500D03*
X134285140Y-160144040D03*
X133520180Y-168455340D03*
X114254280Y-161655760D03*
X111158020Y-149420580D03*
X150066380Y-123217300D03*
X149806660Y-110517940D03*
%TO.N,+5V*%
X123842780Y-128874520D03*
X120642380Y-131297680D03*
X120586500Y-139298680D03*
%TO.N,ESP_EN*%
X141571980Y-143073120D03*
X121406920Y-193664840D03*
%TO.N,Net-(D2-Pad2)*%
X127292100Y-125374400D03*
X129791460Y-121770140D03*
%TO.N,Net-(J1-PadA5)*%
X115920520Y-113708180D03*
%TO.N,PWM_SERVO*%
X130101340Y-141094460D03*
%TO.N,/RTS*%
X132420360Y-193126360D03*
X144211040Y-180273960D03*
%TO.N,EN_3V3*%
X112809020Y-153821300D03*
%TO.N,EN_5V*%
X135100060Y-141046200D03*
X111777780Y-140771880D03*
%TO.N,SDA*%
X137683240Y-153687780D03*
%TO.N,SCL*%
X141470380Y-153642060D03*
%TO.N,INT_RTC*%
X131335780Y-141124940D03*
%TO.N,BUTTON_INT*%
X137668000Y-141051280D03*
X116801900Y-156814520D03*
%TO.N,BUTTON_KILL*%
X112533260Y-157010100D03*
%TO.N,LORA_MOSI*%
X109712760Y-161315400D03*
X141541500Y-151267160D03*
%TO.N,LORA_MISO*%
X135107680Y-153835100D03*
X119529860Y-155308300D03*
%TO.N,LORA_SCK*%
X133880860Y-157848300D03*
X118457980Y-156065220D03*
%TO.N,LORA_NSS*%
X132600700Y-157772100D03*
X118521480Y-157894020D03*
%TO.N,LORA_RST*%
X128823720Y-141124940D03*
X119306340Y-160159700D03*
%TO.N,RST_RTC*%
X132626100Y-141137640D03*
%TO.N,Net-(J9-Pad3)*%
X111734600Y-151386540D03*
%TO.N,Net-(J4-Pad3)*%
X104523540Y-190200280D03*
X141003020Y-177779680D03*
X125702060Y-184873900D03*
%TO.N,/FB1*%
X115461172Y-119393326D03*
%TO.N,/FB2*%
X116385300Y-115554800D03*
%TD*%
D23*
%TO.N,+BATT*%
X111897160Y-130487420D02*
X111056420Y-129646680D01*
X112801400Y-135384540D02*
X111897160Y-134480300D01*
X111897160Y-134480300D02*
X111897160Y-130487420D01*
X125255020Y-135384540D02*
X112801400Y-135384540D01*
X126400560Y-134239000D02*
X125255020Y-135384540D01*
X126400560Y-130887322D02*
X126400560Y-134239000D01*
X126404201Y-130883681D02*
X126400560Y-130887322D01*
X111056420Y-129646680D02*
X109062520Y-129646680D01*
X126404201Y-125235801D02*
X126404201Y-130883681D01*
X125364240Y-124195840D02*
X126404201Y-125235801D01*
X112594861Y-101953859D02*
X112506760Y-102041960D01*
X134275359Y-101953859D02*
X112594861Y-101953859D01*
X134975600Y-102654100D02*
X134275359Y-101953859D01*
X141843760Y-136474200D02*
X139418060Y-136474200D01*
X142379700Y-135938260D02*
X141843760Y-136474200D01*
X142379700Y-114091720D02*
X142379700Y-107190540D01*
X142379700Y-114630200D02*
X142379700Y-114091720D01*
X142274240Y-114700000D02*
X142379700Y-114805460D01*
X134975600Y-114700000D02*
X142274240Y-114700000D01*
X142379700Y-114805460D02*
X142379700Y-135938260D01*
X142379700Y-114630200D02*
X142379700Y-114805460D01*
X134975600Y-102654100D02*
X134975600Y-114700000D01*
%TO.N,BAT-CR2032*%
X117236240Y-169743120D02*
X134622540Y-169743120D01*
%TO.N,/5V_USB*%
X113164020Y-117120820D02*
X114375080Y-117120820D01*
X114375080Y-117120820D02*
X114579400Y-117325140D01*
X114579400Y-120901460D02*
X114881660Y-121203720D01*
X114881660Y-121203720D02*
X115354100Y-121203720D01*
X115575080Y-121424700D02*
X115575080Y-123802140D01*
X115354100Y-121203720D02*
X115575080Y-121424700D01*
X114545260Y-119520820D02*
X114579400Y-119486680D01*
X113164020Y-119520820D02*
X114545260Y-119520820D01*
X114579400Y-119486680D02*
X114579400Y-120901460D01*
X114579400Y-117325140D02*
X114579400Y-119486680D01*
X115354100Y-121203720D02*
X118163340Y-121203720D01*
X118752620Y-120614440D02*
X118752620Y-111102140D01*
X118163340Y-121203720D02*
X118752620Y-120614440D01*
X115575080Y-123802140D02*
X115575080Y-126911100D01*
X115575080Y-126911100D02*
X115204240Y-127281940D01*
X115204240Y-127281940D02*
X114721640Y-127281940D01*
X114345720Y-127657860D02*
X114345720Y-129646680D01*
X114721640Y-127281940D02*
X114345720Y-127657860D01*
%TO.N,/D+*%
X102524560Y-178208940D02*
X102524560Y-114701320D01*
X104105961Y-179790341D02*
X102524560Y-178208940D01*
X128810001Y-179790341D02*
X104105961Y-179790341D01*
X129303780Y-180284120D02*
X128810001Y-179790341D01*
X102524560Y-114701320D02*
X102524560Y-114642900D01*
%TO.N,/D-*%
X103487220Y-110599220D02*
X103487220Y-125854460D01*
X103487220Y-125854460D02*
X103510080Y-125877320D01*
X103510080Y-125877320D02*
X103510080Y-175696880D01*
X131212339Y-177440339D02*
X131894580Y-178122580D01*
X105253539Y-177440339D02*
X131212339Y-177440339D01*
X103510080Y-175696880D02*
X105253539Y-177440339D01*
%TO.N,VDD*%
X134285140Y-160144040D02*
X144374020Y-160144040D01*
X144805400Y-159712660D02*
X144805400Y-158958280D01*
X144374020Y-160144040D02*
X144805400Y-159712660D01*
X122521980Y-168455340D02*
X133520180Y-168455340D01*
X122409659Y-168567661D02*
X116368121Y-168567661D01*
X122521980Y-168455340D02*
X122409659Y-168567661D01*
X116368121Y-168567661D02*
X115671600Y-167871140D01*
X114957860Y-149420580D02*
X111158020Y-149420580D01*
X115671600Y-150134320D02*
X114957860Y-149420580D01*
X115600480Y-161655760D02*
X115671600Y-161726880D01*
X114254280Y-161655760D02*
X115600480Y-161655760D01*
X115671600Y-161726880D02*
X115671600Y-150134320D01*
X115671600Y-167871140D02*
X115671600Y-161726880D01*
%TO.N,Net-(D2-Pad2)*%
X127292100Y-125374400D02*
X127292100Y-123050300D01*
X127292100Y-123050300D02*
X127688340Y-122654060D01*
X128907540Y-122654060D02*
X129791460Y-121770140D01*
X127688340Y-122654060D02*
X128907540Y-122654060D01*
%TO.N,BUTTON_INT*%
X116801900Y-156814520D02*
X116801900Y-154010360D01*
X117684801Y-153127459D02*
X133016241Y-153127459D01*
X116801900Y-154010360D02*
X117684801Y-153127459D01*
X133016241Y-153127459D02*
X133548120Y-152595580D01*
X133548120Y-152595580D02*
X133548120Y-143799560D01*
X133548120Y-143799560D02*
X134246620Y-143101060D01*
X134246620Y-143101060D02*
X137419080Y-143101060D01*
X137668000Y-142852140D02*
X137668000Y-141051280D01*
X137419080Y-143101060D02*
X137668000Y-142852140D01*
%TO.N,LORA_MOSI*%
X110447359Y-162049999D02*
X110447359Y-173756859D01*
X109712760Y-161315400D02*
X110447359Y-162049999D01*
X110447359Y-173756859D02*
X111455200Y-174764700D01*
X111455200Y-174764700D02*
X141444980Y-174764700D01*
X141444980Y-174764700D02*
X141490700Y-174810420D01*
X141490700Y-174810420D02*
X144934940Y-174810420D01*
X146460139Y-173285221D02*
X146460139Y-157852039D01*
X144934940Y-174810420D02*
X146460139Y-173285221D01*
X146460139Y-157852039D02*
X145846800Y-157238700D01*
X145846800Y-157238700D02*
X144396460Y-157238700D01*
X144396460Y-157238700D02*
X144388840Y-157231080D01*
X144388840Y-157231080D02*
X143464280Y-157231080D01*
X143464280Y-157231080D02*
X142941040Y-156707840D01*
X142941040Y-156707840D02*
X142941040Y-151724360D01*
X142483840Y-151267160D02*
X141541500Y-151267160D01*
X142941040Y-151724360D02*
X142483840Y-151267160D01*
%TO.N,LORA_MISO*%
X121957979Y-155477461D02*
X134836919Y-155477461D01*
X121788818Y-155308300D02*
X121957979Y-155477461D01*
X119529860Y-155308300D02*
X121788818Y-155308300D01*
X135107680Y-155206700D02*
X135107680Y-153835100D01*
X134836919Y-155477461D02*
X135107680Y-155206700D01*
%TO.N,LORA_SCK*%
X118457980Y-156065220D02*
X133515100Y-156065220D01*
X133880860Y-156430980D02*
X133880860Y-157848300D01*
X133515100Y-156065220D02*
X133880860Y-156430980D01*
%TO.N,LORA_NSS*%
X119368821Y-157651199D02*
X132479799Y-157651199D01*
X119126000Y-157894020D02*
X119368821Y-157651199D01*
X132479799Y-157651199D02*
X132600700Y-157772100D01*
X118521480Y-157894020D02*
X119126000Y-157894020D01*
%TO.N,/FB1*%
X117202594Y-119393326D02*
X115461172Y-119393326D01*
X111178340Y-117937280D02*
X111178340Y-112692180D01*
X111411881Y-118170821D02*
X111178340Y-117937280D01*
X111498380Y-112372140D02*
X117398800Y-112372140D01*
X113164020Y-117920820D02*
X113164020Y-117981060D01*
X111178340Y-112692180D02*
X111498380Y-112372140D01*
X113164020Y-117981060D02*
X113074261Y-118070819D01*
X112776021Y-118170821D02*
X111411881Y-118170821D01*
X112876023Y-118070819D02*
X112776021Y-118170821D01*
X113074261Y-118070819D02*
X112876023Y-118070819D01*
X117685820Y-118910100D02*
X117202594Y-119393326D01*
X117398800Y-112372140D02*
X117685820Y-112659160D01*
X117685820Y-112659160D02*
X117685820Y-118910100D01*
%TD*%
M02*
