%TF.GenerationSoftware,KiCad,Pcbnew,(5.1.10)-1*%
%TF.CreationDate,2021-09-02T16:56:43-04:00*%
%TF.ProjectId,buoy-c,62756f79-2d63-42e6-9b69-6361645f7063,1.0*%
%TF.SameCoordinates,Original*%
%TF.FileFunction,Paste,Top*%
%TF.FilePolarity,Positive*%
%FSLAX46Y46*%
G04 Gerber Fmt 4.6, Leading zero omitted, Abs format (unit mm)*
G04 Created by KiCad (PCBNEW (5.1.10)-1) date 2021-09-02 16:56:43*
%MOMM*%
%LPD*%
G01*
G04 APERTURE LIST*
%TA.AperFunction,Profile*%
%ADD10C,0.050000*%
%TD*%
%ADD11C,17.800000*%
%ADD12R,0.800000X1.800000*%
%ADD13R,4.100000X4.100000*%
%ADD14R,3.050000X3.300000*%
%ADD15R,0.700000X0.350000*%
%ADD16R,0.900000X2.000000*%
%ADD17R,2.000000X0.900000*%
%ADD18R,5.000000X5.000000*%
%ADD19R,0.800000X0.900000*%
%ADD20R,0.900000X0.800000*%
%ADD21R,2.513000X3.402000*%
%ADD22R,1.525000X0.700000*%
%ADD23R,1.050000X0.450000*%
%ADD24R,0.850000X0.850000*%
%ADD25R,0.850000X0.800000*%
%ADD26R,0.800000X0.250000*%
%ADD27R,0.250000X0.800000*%
%ADD28R,1.000000X2.000000*%
G04 APERTURE END LIST*
D10*
X151750000Y-194500000D02*
G75*
G02*
X148750000Y-197500000I-3000000J0D01*
G01*
X148750000Y-100000000D02*
G75*
G02*
X151750000Y-103000000I0J-3000000D01*
G01*
X103550000Y-197500000D02*
G75*
G02*
X100550000Y-194500000I0J3000000D01*
G01*
X100550000Y-103000000D02*
G75*
G02*
X103550000Y-100000000I3000000J0D01*
G01*
X103550000Y-197500000D02*
X148750000Y-197500000D01*
X103550000Y-100000000D02*
X148750000Y-100000000D01*
X151750000Y-103000000D02*
X151750000Y-194500000D01*
X100550000Y-103000000D02*
X100550000Y-194500000D01*
%TO.C,C14*%
G36*
G01*
X128828780Y-123510380D02*
X129778780Y-123510380D01*
G75*
G02*
X130028780Y-123760380I0J-250000D01*
G01*
X130028780Y-124260380D01*
G75*
G02*
X129778780Y-124510380I-250000J0D01*
G01*
X128828780Y-124510380D01*
G75*
G02*
X128578780Y-124260380I0J250000D01*
G01*
X128578780Y-123760380D01*
G75*
G02*
X128828780Y-123510380I250000J0D01*
G01*
G37*
G36*
G01*
X128828780Y-125410380D02*
X129778780Y-125410380D01*
G75*
G02*
X130028780Y-125660380I0J-250000D01*
G01*
X130028780Y-126160380D01*
G75*
G02*
X129778780Y-126410380I-250000J0D01*
G01*
X128828780Y-126410380D01*
G75*
G02*
X128578780Y-126160380I0J250000D01*
G01*
X128578780Y-125660380D01*
G75*
G02*
X128828780Y-125410380I250000J0D01*
G01*
G37*
%TD*%
D11*
%TO.C,J2*%
X110322360Y-177492660D03*
%TD*%
%TO.C,R33*%
G36*
G01*
X141625741Y-102939900D02*
X140725739Y-102939900D01*
G75*
G02*
X140475740Y-102689901I0J249999D01*
G01*
X140475740Y-102164899D01*
G75*
G02*
X140725739Y-101914900I249999J0D01*
G01*
X141625741Y-101914900D01*
G75*
G02*
X141875740Y-102164899I0J-249999D01*
G01*
X141875740Y-102689901D01*
G75*
G02*
X141625741Y-102939900I-249999J0D01*
G01*
G37*
G36*
G01*
X141625741Y-104764900D02*
X140725739Y-104764900D01*
G75*
G02*
X140475740Y-104514901I0J249999D01*
G01*
X140475740Y-103989899D01*
G75*
G02*
X140725739Y-103739900I249999J0D01*
G01*
X141625741Y-103739900D01*
G75*
G02*
X141875740Y-103989899I0J-249999D01*
G01*
X141875740Y-104514901D01*
G75*
G02*
X141625741Y-104764900I-249999J0D01*
G01*
G37*
%TD*%
%TO.C,R32*%
G36*
G01*
X149356659Y-114115800D02*
X150256661Y-114115800D01*
G75*
G02*
X150506660Y-114365799I0J-249999D01*
G01*
X150506660Y-114890801D01*
G75*
G02*
X150256661Y-115140800I-249999J0D01*
G01*
X149356659Y-115140800D01*
G75*
G02*
X149106660Y-114890801I0J249999D01*
G01*
X149106660Y-114365799D01*
G75*
G02*
X149356659Y-114115800I249999J0D01*
G01*
G37*
G36*
G01*
X149356659Y-112290800D02*
X150256661Y-112290800D01*
G75*
G02*
X150506660Y-112540799I0J-249999D01*
G01*
X150506660Y-113065801D01*
G75*
G02*
X150256661Y-113315800I-249999J0D01*
G01*
X149356659Y-113315800D01*
G75*
G02*
X149106660Y-113065801I0J249999D01*
G01*
X149106660Y-112540799D01*
G75*
G02*
X149356659Y-112290800I249999J0D01*
G01*
G37*
%TD*%
%TO.C,R34*%
G36*
G01*
X125560119Y-161250020D02*
X126460121Y-161250020D01*
G75*
G02*
X126710120Y-161500019I0J-249999D01*
G01*
X126710120Y-162025021D01*
G75*
G02*
X126460121Y-162275020I-249999J0D01*
G01*
X125560119Y-162275020D01*
G75*
G02*
X125310120Y-162025021I0J249999D01*
G01*
X125310120Y-161500019D01*
G75*
G02*
X125560119Y-161250020I249999J0D01*
G01*
G37*
G36*
G01*
X125560119Y-159425020D02*
X126460121Y-159425020D01*
G75*
G02*
X126710120Y-159675019I0J-249999D01*
G01*
X126710120Y-160200021D01*
G75*
G02*
X126460121Y-160450020I-249999J0D01*
G01*
X125560119Y-160450020D01*
G75*
G02*
X125310120Y-160200021I0J249999D01*
G01*
X125310120Y-159675019D01*
G75*
G02*
X125560119Y-159425020I249999J0D01*
G01*
G37*
%TD*%
%TO.C,D8*%
G36*
G01*
X126404690Y-165462800D02*
X125492190Y-165462800D01*
G75*
G02*
X125248440Y-165219050I0J243750D01*
G01*
X125248440Y-164731550D01*
G75*
G02*
X125492190Y-164487800I243750J0D01*
G01*
X126404690Y-164487800D01*
G75*
G02*
X126648440Y-164731550I0J-243750D01*
G01*
X126648440Y-165219050D01*
G75*
G02*
X126404690Y-165462800I-243750J0D01*
G01*
G37*
G36*
G01*
X126404690Y-167337800D02*
X125492190Y-167337800D01*
G75*
G02*
X125248440Y-167094050I0J243750D01*
G01*
X125248440Y-166606550D01*
G75*
G02*
X125492190Y-166362800I243750J0D01*
G01*
X126404690Y-166362800D01*
G75*
G02*
X126648440Y-166606550I0J-243750D01*
G01*
X126648440Y-167094050D01*
G75*
G02*
X126404690Y-167337800I-243750J0D01*
G01*
G37*
%TD*%
D12*
%TO.C,U1*%
X133185140Y-174314040D03*
X134285140Y-174314040D03*
X135385140Y-174314040D03*
X136485140Y-174314040D03*
X137585140Y-174314040D03*
X138685140Y-174314040D03*
X139785140Y-174314040D03*
X142785140Y-174314040D03*
X143885140Y-174314040D03*
X144985140Y-174314040D03*
X146085140Y-174314040D03*
X147185140Y-174314040D03*
X147185140Y-162114040D03*
X146085140Y-162114040D03*
X144985140Y-162114040D03*
X143885140Y-162114040D03*
X142785140Y-162114040D03*
X139785140Y-162114040D03*
X138685140Y-162114040D03*
X137585140Y-162114040D03*
X136485140Y-162114040D03*
X135385140Y-162114040D03*
X134285140Y-162114040D03*
X133185140Y-162114040D03*
%TD*%
D13*
%TO.C,L1*%
X129113280Y-112669520D03*
X129113280Y-103169520D03*
%TD*%
D14*
%TO.C,L2*%
X145897600Y-124082700D03*
X145897600Y-132482700D03*
%TD*%
D15*
%TO.C,J1*%
X114314020Y-115570820D03*
X114314020Y-116070820D03*
X114314020Y-116570820D03*
X114314020Y-117070820D03*
X114314020Y-117570820D03*
X114314020Y-118070820D03*
X114314020Y-118570820D03*
X114314020Y-119070820D03*
X114314020Y-119570820D03*
X114314020Y-120070820D03*
X114314020Y-120570820D03*
X114314020Y-121070820D03*
%TD*%
D16*
%TO.C,U4*%
X144041600Y-139030300D03*
X142771600Y-139030300D03*
X141501600Y-139030300D03*
X140231600Y-139030300D03*
X138961600Y-139030300D03*
X137691600Y-139030300D03*
X136421600Y-139030300D03*
X135151600Y-139030300D03*
X133881600Y-139030300D03*
X132611600Y-139030300D03*
X131341600Y-139030300D03*
X130071600Y-139030300D03*
X128801600Y-139030300D03*
X127531600Y-139030300D03*
D17*
X126531600Y-141815300D03*
X126531600Y-143085300D03*
X126531600Y-144355300D03*
X126531600Y-145625300D03*
X126531600Y-146895300D03*
X126531600Y-148165300D03*
X126531600Y-149435300D03*
X126531600Y-150705300D03*
X126531600Y-151975300D03*
X126531600Y-153245300D03*
D16*
X127531600Y-156030300D03*
X128801600Y-156030300D03*
X130071600Y-156030300D03*
X131341600Y-156030300D03*
X132611600Y-156030300D03*
X133881600Y-156030300D03*
X135151600Y-156030300D03*
X136421600Y-156030300D03*
X137691600Y-156030300D03*
X138961600Y-156030300D03*
X140231600Y-156030300D03*
X141501600Y-156030300D03*
X142771600Y-156030300D03*
X144041600Y-156030300D03*
D18*
X136541600Y-146530300D03*
%TD*%
%TO.C,C1*%
G36*
G01*
X109811800Y-102735720D02*
X110761800Y-102735720D01*
G75*
G02*
X111011800Y-102985720I0J-250000D01*
G01*
X111011800Y-103485720D01*
G75*
G02*
X110761800Y-103735720I-250000J0D01*
G01*
X109811800Y-103735720D01*
G75*
G02*
X109561800Y-103485720I0J250000D01*
G01*
X109561800Y-102985720D01*
G75*
G02*
X109811800Y-102735720I250000J0D01*
G01*
G37*
G36*
G01*
X109811800Y-104635720D02*
X110761800Y-104635720D01*
G75*
G02*
X111011800Y-104885720I0J-250000D01*
G01*
X111011800Y-105385720D01*
G75*
G02*
X110761800Y-105635720I-250000J0D01*
G01*
X109811800Y-105635720D01*
G75*
G02*
X109561800Y-105385720I0J250000D01*
G01*
X109561800Y-104885720D01*
G75*
G02*
X109811800Y-104635720I250000J0D01*
G01*
G37*
%TD*%
%TO.C,C2*%
G36*
G01*
X119014220Y-168440440D02*
X119964220Y-168440440D01*
G75*
G02*
X120214220Y-168690440I0J-250000D01*
G01*
X120214220Y-169190440D01*
G75*
G02*
X119964220Y-169440440I-250000J0D01*
G01*
X119014220Y-169440440D01*
G75*
G02*
X118764220Y-169190440I0J250000D01*
G01*
X118764220Y-168690440D01*
G75*
G02*
X119014220Y-168440440I250000J0D01*
G01*
G37*
G36*
G01*
X119014220Y-170340440D02*
X119964220Y-170340440D01*
G75*
G02*
X120214220Y-170590440I0J-250000D01*
G01*
X120214220Y-171090440D01*
G75*
G02*
X119964220Y-171340440I-250000J0D01*
G01*
X119014220Y-171340440D01*
G75*
G02*
X118764220Y-171090440I0J250000D01*
G01*
X118764220Y-170590440D01*
G75*
G02*
X119014220Y-170340440I250000J0D01*
G01*
G37*
%TD*%
%TO.C,C3*%
G36*
G01*
X122366700Y-115582680D02*
X122366700Y-116532680D01*
G75*
G02*
X122116700Y-116782680I-250000J0D01*
G01*
X121616700Y-116782680D01*
G75*
G02*
X121366700Y-116532680I0J250000D01*
G01*
X121366700Y-115582680D01*
G75*
G02*
X121616700Y-115332680I250000J0D01*
G01*
X122116700Y-115332680D01*
G75*
G02*
X122366700Y-115582680I0J-250000D01*
G01*
G37*
G36*
G01*
X120466700Y-115582680D02*
X120466700Y-116532680D01*
G75*
G02*
X120216700Y-116782680I-250000J0D01*
G01*
X119716700Y-116782680D01*
G75*
G02*
X119466700Y-116532680I0J250000D01*
G01*
X119466700Y-115582680D01*
G75*
G02*
X119716700Y-115332680I250000J0D01*
G01*
X120216700Y-115332680D01*
G75*
G02*
X120466700Y-115582680I0J-250000D01*
G01*
G37*
%TD*%
%TO.C,C4*%
G36*
G01*
X136260820Y-104170820D02*
X137210820Y-104170820D01*
G75*
G02*
X137460820Y-104420820I0J-250000D01*
G01*
X137460820Y-104920820D01*
G75*
G02*
X137210820Y-105170820I-250000J0D01*
G01*
X136260820Y-105170820D01*
G75*
G02*
X136010820Y-104920820I0J250000D01*
G01*
X136010820Y-104420820D01*
G75*
G02*
X136260820Y-104170820I250000J0D01*
G01*
G37*
G36*
G01*
X136260820Y-106070820D02*
X137210820Y-106070820D01*
G75*
G02*
X137460820Y-106320820I0J-250000D01*
G01*
X137460820Y-106820820D01*
G75*
G02*
X137210820Y-107070820I-250000J0D01*
G01*
X136260820Y-107070820D01*
G75*
G02*
X136010820Y-106820820I0J250000D01*
G01*
X136010820Y-106320820D01*
G75*
G02*
X136260820Y-106070820I250000J0D01*
G01*
G37*
%TD*%
%TO.C,C5*%
G36*
G01*
X138455380Y-103802600D02*
X139405380Y-103802600D01*
G75*
G02*
X139655380Y-104052600I0J-250000D01*
G01*
X139655380Y-104552600D01*
G75*
G02*
X139405380Y-104802600I-250000J0D01*
G01*
X138455380Y-104802600D01*
G75*
G02*
X138205380Y-104552600I0J250000D01*
G01*
X138205380Y-104052600D01*
G75*
G02*
X138455380Y-103802600I250000J0D01*
G01*
G37*
G36*
G01*
X138455380Y-101902600D02*
X139405380Y-101902600D01*
G75*
G02*
X139655380Y-102152600I0J-250000D01*
G01*
X139655380Y-102652600D01*
G75*
G02*
X139405380Y-102902600I-250000J0D01*
G01*
X138455380Y-102902600D01*
G75*
G02*
X138205380Y-102652600I0J250000D01*
G01*
X138205380Y-102152600D01*
G75*
G02*
X138455380Y-101902600I250000J0D01*
G01*
G37*
%TD*%
%TO.C,C6*%
G36*
G01*
X141655780Y-117790380D02*
X142605780Y-117790380D01*
G75*
G02*
X142855780Y-118040380I0J-250000D01*
G01*
X142855780Y-118540380D01*
G75*
G02*
X142605780Y-118790380I-250000J0D01*
G01*
X141655780Y-118790380D01*
G75*
G02*
X141405780Y-118540380I0J250000D01*
G01*
X141405780Y-118040380D01*
G75*
G02*
X141655780Y-117790380I250000J0D01*
G01*
G37*
G36*
G01*
X141655780Y-115890380D02*
X142605780Y-115890380D01*
G75*
G02*
X142855780Y-116140380I0J-250000D01*
G01*
X142855780Y-116640380D01*
G75*
G02*
X142605780Y-116890380I-250000J0D01*
G01*
X141655780Y-116890380D01*
G75*
G02*
X141405780Y-116640380I0J250000D01*
G01*
X141405780Y-116140380D01*
G75*
G02*
X141655780Y-115890380I250000J0D01*
G01*
G37*
%TD*%
%TO.C,C7*%
G36*
G01*
X137817840Y-120894180D02*
X138767840Y-120894180D01*
G75*
G02*
X139017840Y-121144180I0J-250000D01*
G01*
X139017840Y-121644180D01*
G75*
G02*
X138767840Y-121894180I-250000J0D01*
G01*
X137817840Y-121894180D01*
G75*
G02*
X137567840Y-121644180I0J250000D01*
G01*
X137567840Y-121144180D01*
G75*
G02*
X137817840Y-120894180I250000J0D01*
G01*
G37*
G36*
G01*
X137817840Y-122794180D02*
X138767840Y-122794180D01*
G75*
G02*
X139017840Y-123044180I0J-250000D01*
G01*
X139017840Y-123544180D01*
G75*
G02*
X138767840Y-123794180I-250000J0D01*
G01*
X137817840Y-123794180D01*
G75*
G02*
X137567840Y-123544180I0J250000D01*
G01*
X137567840Y-123044180D01*
G75*
G02*
X137817840Y-122794180I250000J0D01*
G01*
G37*
%TD*%
%TO.C,C8*%
G36*
G01*
X144132119Y-112341440D02*
X146332121Y-112341440D01*
G75*
G02*
X146582120Y-112591439I0J-249999D01*
G01*
X146582120Y-113241441D01*
G75*
G02*
X146332121Y-113491440I-249999J0D01*
G01*
X144132119Y-113491440D01*
G75*
G02*
X143882120Y-113241441I0J249999D01*
G01*
X143882120Y-112591439D01*
G75*
G02*
X144132119Y-112341440I249999J0D01*
G01*
G37*
G36*
G01*
X144132119Y-115291440D02*
X146332121Y-115291440D01*
G75*
G02*
X146582120Y-115541439I0J-249999D01*
G01*
X146582120Y-116191441D01*
G75*
G02*
X146332121Y-116441440I-249999J0D01*
G01*
X144132119Y-116441440D01*
G75*
G02*
X143882120Y-116191441I0J249999D01*
G01*
X143882120Y-115541439D01*
G75*
G02*
X144132119Y-115291440I249999J0D01*
G01*
G37*
%TD*%
%TO.C,C9*%
G36*
G01*
X139288100Y-194642720D02*
X139288100Y-195592720D01*
G75*
G02*
X139038100Y-195842720I-250000J0D01*
G01*
X138538100Y-195842720D01*
G75*
G02*
X138288100Y-195592720I0J250000D01*
G01*
X138288100Y-194642720D01*
G75*
G02*
X138538100Y-194392720I250000J0D01*
G01*
X139038100Y-194392720D01*
G75*
G02*
X139288100Y-194642720I0J-250000D01*
G01*
G37*
G36*
G01*
X141188100Y-194642720D02*
X141188100Y-195592720D01*
G75*
G02*
X140938100Y-195842720I-250000J0D01*
G01*
X140438100Y-195842720D01*
G75*
G02*
X140188100Y-195592720I0J250000D01*
G01*
X140188100Y-194642720D01*
G75*
G02*
X140438100Y-194392720I250000J0D01*
G01*
X140938100Y-194392720D01*
G75*
G02*
X141188100Y-194642720I0J-250000D01*
G01*
G37*
%TD*%
%TO.C,C11*%
G36*
G01*
X141221120Y-192361800D02*
X141221120Y-193311800D01*
G75*
G02*
X140971120Y-193561800I-250000J0D01*
G01*
X140471120Y-193561800D01*
G75*
G02*
X140221120Y-193311800I0J250000D01*
G01*
X140221120Y-192361800D01*
G75*
G02*
X140471120Y-192111800I250000J0D01*
G01*
X140971120Y-192111800D01*
G75*
G02*
X141221120Y-192361800I0J-250000D01*
G01*
G37*
G36*
G01*
X139321120Y-192361800D02*
X139321120Y-193311800D01*
G75*
G02*
X139071120Y-193561800I-250000J0D01*
G01*
X138571120Y-193561800D01*
G75*
G02*
X138321120Y-193311800I0J250000D01*
G01*
X138321120Y-192361800D01*
G75*
G02*
X138571120Y-192111800I250000J0D01*
G01*
X139071120Y-192111800D01*
G75*
G02*
X139321120Y-192361800I0J-250000D01*
G01*
G37*
%TD*%
%TO.C,C13*%
G36*
G01*
X131114780Y-125392600D02*
X132064780Y-125392600D01*
G75*
G02*
X132314780Y-125642600I0J-250000D01*
G01*
X132314780Y-126142600D01*
G75*
G02*
X132064780Y-126392600I-250000J0D01*
G01*
X131114780Y-126392600D01*
G75*
G02*
X130864780Y-126142600I0J250000D01*
G01*
X130864780Y-125642600D01*
G75*
G02*
X131114780Y-125392600I250000J0D01*
G01*
G37*
G36*
G01*
X131114780Y-123492600D02*
X132064780Y-123492600D01*
G75*
G02*
X132314780Y-123742600I0J-250000D01*
G01*
X132314780Y-124242600D01*
G75*
G02*
X132064780Y-124492600I-250000J0D01*
G01*
X131114780Y-124492600D01*
G75*
G02*
X130864780Y-124242600I0J250000D01*
G01*
X130864780Y-123742600D01*
G75*
G02*
X131114780Y-123492600I250000J0D01*
G01*
G37*
%TD*%
%TO.C,C16*%
G36*
G01*
X115890020Y-192415500D02*
X116840020Y-192415500D01*
G75*
G02*
X117090020Y-192665500I0J-250000D01*
G01*
X117090020Y-193165500D01*
G75*
G02*
X116840020Y-193415500I-250000J0D01*
G01*
X115890020Y-193415500D01*
G75*
G02*
X115640020Y-193165500I0J250000D01*
G01*
X115640020Y-192665500D01*
G75*
G02*
X115890020Y-192415500I250000J0D01*
G01*
G37*
G36*
G01*
X115890020Y-194315500D02*
X116840020Y-194315500D01*
G75*
G02*
X117090020Y-194565500I0J-250000D01*
G01*
X117090020Y-195065500D01*
G75*
G02*
X116840020Y-195315500I-250000J0D01*
G01*
X115890020Y-195315500D01*
G75*
G02*
X115640020Y-195065500I0J250000D01*
G01*
X115640020Y-194565500D01*
G75*
G02*
X115890020Y-194315500I250000J0D01*
G01*
G37*
%TD*%
%TO.C,C17*%
G36*
G01*
X124640320Y-134828700D02*
X125590320Y-134828700D01*
G75*
G02*
X125840320Y-135078700I0J-250000D01*
G01*
X125840320Y-135578700D01*
G75*
G02*
X125590320Y-135828700I-250000J0D01*
G01*
X124640320Y-135828700D01*
G75*
G02*
X124390320Y-135578700I0J250000D01*
G01*
X124390320Y-135078700D01*
G75*
G02*
X124640320Y-134828700I250000J0D01*
G01*
G37*
G36*
G01*
X124640320Y-132928700D02*
X125590320Y-132928700D01*
G75*
G02*
X125840320Y-133178700I0J-250000D01*
G01*
X125840320Y-133678700D01*
G75*
G02*
X125590320Y-133928700I-250000J0D01*
G01*
X124640320Y-133928700D01*
G75*
G02*
X124390320Y-133678700I0J250000D01*
G01*
X124390320Y-133178700D01*
G75*
G02*
X124640320Y-132928700I250000J0D01*
G01*
G37*
%TD*%
%TO.C,C18*%
G36*
G01*
X122913120Y-195588040D02*
X123863120Y-195588040D01*
G75*
G02*
X124113120Y-195838040I0J-250000D01*
G01*
X124113120Y-196338040D01*
G75*
G02*
X123863120Y-196588040I-250000J0D01*
G01*
X122913120Y-196588040D01*
G75*
G02*
X122663120Y-196338040I0J250000D01*
G01*
X122663120Y-195838040D01*
G75*
G02*
X122913120Y-195588040I250000J0D01*
G01*
G37*
G36*
G01*
X122913120Y-193688040D02*
X123863120Y-193688040D01*
G75*
G02*
X124113120Y-193938040I0J-250000D01*
G01*
X124113120Y-194438040D01*
G75*
G02*
X123863120Y-194688040I-250000J0D01*
G01*
X122913120Y-194688040D01*
G75*
G02*
X122663120Y-194438040I0J250000D01*
G01*
X122663120Y-193938040D01*
G75*
G02*
X122913120Y-193688040I250000J0D01*
G01*
G37*
%TD*%
%TO.C,D1*%
G36*
G01*
X125788360Y-117672170D02*
X125788360Y-116759670D01*
G75*
G02*
X126032110Y-116515920I243750J0D01*
G01*
X126519610Y-116515920D01*
G75*
G02*
X126763360Y-116759670I0J-243750D01*
G01*
X126763360Y-117672170D01*
G75*
G02*
X126519610Y-117915920I-243750J0D01*
G01*
X126032110Y-117915920D01*
G75*
G02*
X125788360Y-117672170I0J243750D01*
G01*
G37*
G36*
G01*
X127663360Y-117672170D02*
X127663360Y-116759670D01*
G75*
G02*
X127907110Y-116515920I243750J0D01*
G01*
X128394610Y-116515920D01*
G75*
G02*
X128638360Y-116759670I0J-243750D01*
G01*
X128638360Y-117672170D01*
G75*
G02*
X128394610Y-117915920I-243750J0D01*
G01*
X127907110Y-117915920D01*
G75*
G02*
X127663360Y-117672170I0J243750D01*
G01*
G37*
%TD*%
%TO.C,D2*%
G36*
G01*
X127665900Y-119823550D02*
X127665900Y-118911050D01*
G75*
G02*
X127909650Y-118667300I243750J0D01*
G01*
X128397150Y-118667300D01*
G75*
G02*
X128640900Y-118911050I0J-243750D01*
G01*
X128640900Y-119823550D01*
G75*
G02*
X128397150Y-120067300I-243750J0D01*
G01*
X127909650Y-120067300D01*
G75*
G02*
X127665900Y-119823550I0J243750D01*
G01*
G37*
G36*
G01*
X125790900Y-119823550D02*
X125790900Y-118911050D01*
G75*
G02*
X126034650Y-118667300I243750J0D01*
G01*
X126522150Y-118667300D01*
G75*
G02*
X126765900Y-118911050I0J-243750D01*
G01*
X126765900Y-119823550D01*
G75*
G02*
X126522150Y-120067300I-243750J0D01*
G01*
X126034650Y-120067300D01*
G75*
G02*
X125790900Y-119823550I0J243750D01*
G01*
G37*
%TD*%
%TO.C,D4*%
G36*
G01*
X150575330Y-184139900D02*
X149662830Y-184139900D01*
G75*
G02*
X149419080Y-183896150I0J243750D01*
G01*
X149419080Y-183408650D01*
G75*
G02*
X149662830Y-183164900I243750J0D01*
G01*
X150575330Y-183164900D01*
G75*
G02*
X150819080Y-183408650I0J-243750D01*
G01*
X150819080Y-183896150D01*
G75*
G02*
X150575330Y-184139900I-243750J0D01*
G01*
G37*
G36*
G01*
X150575330Y-182264900D02*
X149662830Y-182264900D01*
G75*
G02*
X149419080Y-182021150I0J243750D01*
G01*
X149419080Y-181533650D01*
G75*
G02*
X149662830Y-181289900I243750J0D01*
G01*
X150575330Y-181289900D01*
G75*
G02*
X150819080Y-181533650I0J-243750D01*
G01*
X150819080Y-182021150D01*
G75*
G02*
X150575330Y-182264900I-243750J0D01*
G01*
G37*
%TD*%
%TO.C,D5*%
G36*
G01*
X143847760Y-121218010D02*
X143847760Y-120305510D01*
G75*
G02*
X144091510Y-120061760I243750J0D01*
G01*
X144579010Y-120061760D01*
G75*
G02*
X144822760Y-120305510I0J-243750D01*
G01*
X144822760Y-121218010D01*
G75*
G02*
X144579010Y-121461760I-243750J0D01*
G01*
X144091510Y-121461760D01*
G75*
G02*
X143847760Y-121218010I0J243750D01*
G01*
G37*
G36*
G01*
X145722760Y-121218010D02*
X145722760Y-120305510D01*
G75*
G02*
X145966510Y-120061760I243750J0D01*
G01*
X146454010Y-120061760D01*
G75*
G02*
X146697760Y-120305510I0J-243750D01*
G01*
X146697760Y-121218010D01*
G75*
G02*
X146454010Y-121461760I-243750J0D01*
G01*
X145966510Y-121461760D01*
G75*
G02*
X145722760Y-121218010I0J243750D01*
G01*
G37*
%TD*%
D19*
%TO.C,Q1*%
X106509780Y-141063220D03*
X108409780Y-141063220D03*
X107459780Y-139063220D03*
%TD*%
D20*
%TO.C,Q2*%
X130677160Y-191383960D03*
X130677160Y-189483960D03*
X128677160Y-190433960D03*
%TD*%
%TO.C,Q3*%
X128674620Y-194124580D03*
X130674620Y-193174580D03*
X130674620Y-195074580D03*
%TD*%
%TO.C,R1*%
G36*
G01*
X116452600Y-110498041D02*
X116452600Y-109598039D01*
G75*
G02*
X116702599Y-109348040I249999J0D01*
G01*
X117227601Y-109348040D01*
G75*
G02*
X117477600Y-109598039I0J-249999D01*
G01*
X117477600Y-110498041D01*
G75*
G02*
X117227601Y-110748040I-249999J0D01*
G01*
X116702599Y-110748040D01*
G75*
G02*
X116452600Y-110498041I0J249999D01*
G01*
G37*
G36*
G01*
X114627600Y-110498041D02*
X114627600Y-109598039D01*
G75*
G02*
X114877599Y-109348040I249999J0D01*
G01*
X115402601Y-109348040D01*
G75*
G02*
X115652600Y-109598039I0J-249999D01*
G01*
X115652600Y-110498041D01*
G75*
G02*
X115402601Y-110748040I-249999J0D01*
G01*
X114877599Y-110748040D01*
G75*
G02*
X114627600Y-110498041I0J249999D01*
G01*
G37*
%TD*%
%TO.C,R2*%
G36*
G01*
X112084699Y-108774180D02*
X112984701Y-108774180D01*
G75*
G02*
X113234700Y-109024179I0J-249999D01*
G01*
X113234700Y-109549181D01*
G75*
G02*
X112984701Y-109799180I-249999J0D01*
G01*
X112084699Y-109799180D01*
G75*
G02*
X111834700Y-109549181I0J249999D01*
G01*
X111834700Y-109024179D01*
G75*
G02*
X112084699Y-108774180I249999J0D01*
G01*
G37*
G36*
G01*
X112084699Y-106949180D02*
X112984701Y-106949180D01*
G75*
G02*
X113234700Y-107199179I0J-249999D01*
G01*
X113234700Y-107724181D01*
G75*
G02*
X112984701Y-107974180I-249999J0D01*
G01*
X112084699Y-107974180D01*
G75*
G02*
X111834700Y-107724181I0J249999D01*
G01*
X111834700Y-107199179D01*
G75*
G02*
X112084699Y-106949180I249999J0D01*
G01*
G37*
%TD*%
%TO.C,R3*%
G36*
G01*
X119509480Y-126418761D02*
X119509480Y-125518759D01*
G75*
G02*
X119759479Y-125268760I249999J0D01*
G01*
X120284481Y-125268760D01*
G75*
G02*
X120534480Y-125518759I0J-249999D01*
G01*
X120534480Y-126418761D01*
G75*
G02*
X120284481Y-126668760I-249999J0D01*
G01*
X119759479Y-126668760D01*
G75*
G02*
X119509480Y-126418761I0J249999D01*
G01*
G37*
G36*
G01*
X121334480Y-126418761D02*
X121334480Y-125518759D01*
G75*
G02*
X121584479Y-125268760I249999J0D01*
G01*
X122109481Y-125268760D01*
G75*
G02*
X122359480Y-125518759I0J-249999D01*
G01*
X122359480Y-126418761D01*
G75*
G02*
X122109481Y-126668760I-249999J0D01*
G01*
X121584479Y-126668760D01*
G75*
G02*
X121334480Y-126418761I0J249999D01*
G01*
G37*
%TD*%
%TO.C,R5*%
G36*
G01*
X123247999Y-117387320D02*
X124148001Y-117387320D01*
G75*
G02*
X124398000Y-117637319I0J-249999D01*
G01*
X124398000Y-118162321D01*
G75*
G02*
X124148001Y-118412320I-249999J0D01*
G01*
X123247999Y-118412320D01*
G75*
G02*
X122998000Y-118162321I0J249999D01*
G01*
X122998000Y-117637319D01*
G75*
G02*
X123247999Y-117387320I249999J0D01*
G01*
G37*
G36*
G01*
X123247999Y-115562320D02*
X124148001Y-115562320D01*
G75*
G02*
X124398000Y-115812319I0J-249999D01*
G01*
X124398000Y-116337321D01*
G75*
G02*
X124148001Y-116587320I-249999J0D01*
G01*
X123247999Y-116587320D01*
G75*
G02*
X122998000Y-116337321I0J249999D01*
G01*
X122998000Y-115812319D01*
G75*
G02*
X123247999Y-115562320I249999J0D01*
G01*
G37*
%TD*%
%TO.C,R7*%
G36*
G01*
X138508319Y-106728200D02*
X139408321Y-106728200D01*
G75*
G02*
X139658320Y-106978199I0J-249999D01*
G01*
X139658320Y-107503201D01*
G75*
G02*
X139408321Y-107753200I-249999J0D01*
G01*
X138508319Y-107753200D01*
G75*
G02*
X138258320Y-107503201I0J249999D01*
G01*
X138258320Y-106978199D01*
G75*
G02*
X138508319Y-106728200I249999J0D01*
G01*
G37*
G36*
G01*
X138508319Y-108553200D02*
X139408321Y-108553200D01*
G75*
G02*
X139658320Y-108803199I0J-249999D01*
G01*
X139658320Y-109328201D01*
G75*
G02*
X139408321Y-109578200I-249999J0D01*
G01*
X138508319Y-109578200D01*
G75*
G02*
X138258320Y-109328201I0J249999D01*
G01*
X138258320Y-108803199D01*
G75*
G02*
X138508319Y-108553200I249999J0D01*
G01*
G37*
%TD*%
%TO.C,R8*%
G36*
G01*
X139072199Y-114194540D02*
X139972201Y-114194540D01*
G75*
G02*
X140222200Y-114444539I0J-249999D01*
G01*
X140222200Y-114969541D01*
G75*
G02*
X139972201Y-115219540I-249999J0D01*
G01*
X139072199Y-115219540D01*
G75*
G02*
X138822200Y-114969541I0J249999D01*
G01*
X138822200Y-114444539D01*
G75*
G02*
X139072199Y-114194540I249999J0D01*
G01*
G37*
G36*
G01*
X139072199Y-112369540D02*
X139972201Y-112369540D01*
G75*
G02*
X140222200Y-112619539I0J-249999D01*
G01*
X140222200Y-113144541D01*
G75*
G02*
X139972201Y-113394540I-249999J0D01*
G01*
X139072199Y-113394540D01*
G75*
G02*
X138822200Y-113144541I0J249999D01*
G01*
X138822200Y-112619539D01*
G75*
G02*
X139072199Y-112369540I249999J0D01*
G01*
G37*
%TD*%
%TO.C,R9*%
G36*
G01*
X139077279Y-115940780D02*
X139977281Y-115940780D01*
G75*
G02*
X140227280Y-116190779I0J-249999D01*
G01*
X140227280Y-116715781D01*
G75*
G02*
X139977281Y-116965780I-249999J0D01*
G01*
X139077279Y-116965780D01*
G75*
G02*
X138827280Y-116715781I0J249999D01*
G01*
X138827280Y-116190779D01*
G75*
G02*
X139077279Y-115940780I249999J0D01*
G01*
G37*
G36*
G01*
X139077279Y-117765780D02*
X139977281Y-117765780D01*
G75*
G02*
X140227280Y-118015779I0J-249999D01*
G01*
X140227280Y-118540781D01*
G75*
G02*
X139977281Y-118790780I-249999J0D01*
G01*
X139077279Y-118790780D01*
G75*
G02*
X138827280Y-118540781I0J249999D01*
G01*
X138827280Y-118015779D01*
G75*
G02*
X139077279Y-117765780I249999J0D01*
G01*
G37*
%TD*%
%TO.C,R10*%
G36*
G01*
X117223740Y-118814001D02*
X117223740Y-117913999D01*
G75*
G02*
X117473739Y-117664000I249999J0D01*
G01*
X118173741Y-117664000D01*
G75*
G02*
X118423740Y-117913999I0J-249999D01*
G01*
X118423740Y-118814001D01*
G75*
G02*
X118173741Y-119064000I-249999J0D01*
G01*
X117473739Y-119064000D01*
G75*
G02*
X117223740Y-118814001I0J249999D01*
G01*
G37*
G36*
G01*
X119223740Y-118814001D02*
X119223740Y-117913999D01*
G75*
G02*
X119473739Y-117664000I249999J0D01*
G01*
X120173741Y-117664000D01*
G75*
G02*
X120423740Y-117913999I0J-249999D01*
G01*
X120423740Y-118814001D01*
G75*
G02*
X120173741Y-119064000I-249999J0D01*
G01*
X119473739Y-119064000D01*
G75*
G02*
X119223740Y-118814001I0J249999D01*
G01*
G37*
%TD*%
%TO.C,R11*%
G36*
G01*
X141652839Y-112405100D02*
X142552841Y-112405100D01*
G75*
G02*
X142802840Y-112655099I0J-249999D01*
G01*
X142802840Y-113180101D01*
G75*
G02*
X142552841Y-113430100I-249999J0D01*
G01*
X141652839Y-113430100D01*
G75*
G02*
X141402840Y-113180101I0J249999D01*
G01*
X141402840Y-112655099D01*
G75*
G02*
X141652839Y-112405100I249999J0D01*
G01*
G37*
G36*
G01*
X141652839Y-114230100D02*
X142552841Y-114230100D01*
G75*
G02*
X142802840Y-114480099I0J-249999D01*
G01*
X142802840Y-115005101D01*
G75*
G02*
X142552841Y-115255100I-249999J0D01*
G01*
X141652839Y-115255100D01*
G75*
G02*
X141402840Y-115005101I0J249999D01*
G01*
X141402840Y-114480099D01*
G75*
G02*
X141652839Y-114230100I249999J0D01*
G01*
G37*
%TD*%
%TO.C,R12*%
G36*
G01*
X132418241Y-180127960D02*
X131518239Y-180127960D01*
G75*
G02*
X131268240Y-179877961I0J249999D01*
G01*
X131268240Y-179352959D01*
G75*
G02*
X131518239Y-179102960I249999J0D01*
G01*
X132418241Y-179102960D01*
G75*
G02*
X132668240Y-179352959I0J-249999D01*
G01*
X132668240Y-179877961D01*
G75*
G02*
X132418241Y-180127960I-249999J0D01*
G01*
G37*
G36*
G01*
X132418241Y-181952960D02*
X131518239Y-181952960D01*
G75*
G02*
X131268240Y-181702961I0J249999D01*
G01*
X131268240Y-181177959D01*
G75*
G02*
X131518239Y-180927960I249999J0D01*
G01*
X132418241Y-180927960D01*
G75*
G02*
X132668240Y-181177959I0J-249999D01*
G01*
X132668240Y-181702961D01*
G75*
G02*
X132418241Y-181952960I-249999J0D01*
G01*
G37*
%TD*%
%TO.C,R13*%
G36*
G01*
X129794421Y-183955120D02*
X128894419Y-183955120D01*
G75*
G02*
X128644420Y-183705121I0J249999D01*
G01*
X128644420Y-183180119D01*
G75*
G02*
X128894419Y-182930120I249999J0D01*
G01*
X129794421Y-182930120D01*
G75*
G02*
X130044420Y-183180119I0J-249999D01*
G01*
X130044420Y-183705121D01*
G75*
G02*
X129794421Y-183955120I-249999J0D01*
G01*
G37*
G36*
G01*
X129794421Y-182130120D02*
X128894419Y-182130120D01*
G75*
G02*
X128644420Y-181880121I0J249999D01*
G01*
X128644420Y-181355119D01*
G75*
G02*
X128894419Y-181105120I249999J0D01*
G01*
X129794421Y-181105120D01*
G75*
G02*
X130044420Y-181355119I0J-249999D01*
G01*
X130044420Y-181880121D01*
G75*
G02*
X129794421Y-182130120I-249999J0D01*
G01*
G37*
%TD*%
%TO.C,R14*%
G36*
G01*
X141340160Y-191059221D02*
X141340160Y-190159219D01*
G75*
G02*
X141590159Y-189909220I249999J0D01*
G01*
X142115161Y-189909220D01*
G75*
G02*
X142365160Y-190159219I0J-249999D01*
G01*
X142365160Y-191059221D01*
G75*
G02*
X142115161Y-191309220I-249999J0D01*
G01*
X141590159Y-191309220D01*
G75*
G02*
X141340160Y-191059221I0J249999D01*
G01*
G37*
G36*
G01*
X139515160Y-191059221D02*
X139515160Y-190159219D01*
G75*
G02*
X139765159Y-189909220I249999J0D01*
G01*
X140290161Y-189909220D01*
G75*
G02*
X140540160Y-190159219I0J-249999D01*
G01*
X140540160Y-191059221D01*
G75*
G02*
X140290161Y-191309220I-249999J0D01*
G01*
X139765159Y-191309220D01*
G75*
G02*
X139515160Y-191059221I0J249999D01*
G01*
G37*
%TD*%
%TO.C,R15*%
G36*
G01*
X105986520Y-143891421D02*
X105986520Y-142991419D01*
G75*
G02*
X106236519Y-142741420I249999J0D01*
G01*
X106761521Y-142741420D01*
G75*
G02*
X107011520Y-142991419I0J-249999D01*
G01*
X107011520Y-143891421D01*
G75*
G02*
X106761521Y-144141420I-249999J0D01*
G01*
X106236519Y-144141420D01*
G75*
G02*
X105986520Y-143891421I0J249999D01*
G01*
G37*
G36*
G01*
X107811520Y-143891421D02*
X107811520Y-142991419D01*
G75*
G02*
X108061519Y-142741420I249999J0D01*
G01*
X108586521Y-142741420D01*
G75*
G02*
X108836520Y-142991419I0J-249999D01*
G01*
X108836520Y-143891421D01*
G75*
G02*
X108586521Y-144141420I-249999J0D01*
G01*
X108061519Y-144141420D01*
G75*
G02*
X107811520Y-143891421I0J249999D01*
G01*
G37*
%TD*%
%TO.C,R16*%
G36*
G01*
X137252660Y-159342241D02*
X137252660Y-158442239D01*
G75*
G02*
X137502659Y-158192240I249999J0D01*
G01*
X138027661Y-158192240D01*
G75*
G02*
X138277660Y-158442239I0J-249999D01*
G01*
X138277660Y-159342241D01*
G75*
G02*
X138027661Y-159592240I-249999J0D01*
G01*
X137502659Y-159592240D01*
G75*
G02*
X137252660Y-159342241I0J249999D01*
G01*
G37*
G36*
G01*
X135427660Y-159342241D02*
X135427660Y-158442239D01*
G75*
G02*
X135677659Y-158192240I249999J0D01*
G01*
X136202661Y-158192240D01*
G75*
G02*
X136452660Y-158442239I0J-249999D01*
G01*
X136452660Y-159342241D01*
G75*
G02*
X136202661Y-159592240I-249999J0D01*
G01*
X135677659Y-159592240D01*
G75*
G02*
X135427660Y-159342241I0J249999D01*
G01*
G37*
%TD*%
%TO.C,R17*%
G36*
G01*
X105226699Y-134226240D02*
X106126701Y-134226240D01*
G75*
G02*
X106376700Y-134476239I0J-249999D01*
G01*
X106376700Y-135001241D01*
G75*
G02*
X106126701Y-135251240I-249999J0D01*
G01*
X105226699Y-135251240D01*
G75*
G02*
X104976700Y-135001241I0J249999D01*
G01*
X104976700Y-134476239D01*
G75*
G02*
X105226699Y-134226240I249999J0D01*
G01*
G37*
G36*
G01*
X105226699Y-136051240D02*
X106126701Y-136051240D01*
G75*
G02*
X106376700Y-136301239I0J-249999D01*
G01*
X106376700Y-136826241D01*
G75*
G02*
X106126701Y-137076240I-249999J0D01*
G01*
X105226699Y-137076240D01*
G75*
G02*
X104976700Y-136826241I0J249999D01*
G01*
X104976700Y-136301239D01*
G75*
G02*
X105226699Y-136051240I249999J0D01*
G01*
G37*
%TD*%
%TO.C,R18*%
G36*
G01*
X143821840Y-158434619D02*
X143821840Y-159334621D01*
G75*
G02*
X143571841Y-159584620I-249999J0D01*
G01*
X143046839Y-159584620D01*
G75*
G02*
X142796840Y-159334621I0J249999D01*
G01*
X142796840Y-158434619D01*
G75*
G02*
X143046839Y-158184620I249999J0D01*
G01*
X143571841Y-158184620D01*
G75*
G02*
X143821840Y-158434619I0J-249999D01*
G01*
G37*
G36*
G01*
X141996840Y-158434619D02*
X141996840Y-159334621D01*
G75*
G02*
X141746841Y-159584620I-249999J0D01*
G01*
X141221839Y-159584620D01*
G75*
G02*
X140971840Y-159334621I0J249999D01*
G01*
X140971840Y-158434619D01*
G75*
G02*
X141221839Y-158184620I249999J0D01*
G01*
X141746841Y-158184620D01*
G75*
G02*
X141996840Y-158434619I0J-249999D01*
G01*
G37*
%TD*%
%TO.C,R19*%
G36*
G01*
X138867301Y-129439720D02*
X137967299Y-129439720D01*
G75*
G02*
X137717300Y-129189721I0J249999D01*
G01*
X137717300Y-128664719D01*
G75*
G02*
X137967299Y-128414720I249999J0D01*
G01*
X138867301Y-128414720D01*
G75*
G02*
X139117300Y-128664719I0J-249999D01*
G01*
X139117300Y-129189721D01*
G75*
G02*
X138867301Y-129439720I-249999J0D01*
G01*
G37*
G36*
G01*
X138867301Y-131264720D02*
X137967299Y-131264720D01*
G75*
G02*
X137717300Y-131014721I0J249999D01*
G01*
X137717300Y-130489719D01*
G75*
G02*
X137967299Y-130239720I249999J0D01*
G01*
X138867301Y-130239720D01*
G75*
G02*
X139117300Y-130489719I0J-249999D01*
G01*
X139117300Y-131014721D01*
G75*
G02*
X138867301Y-131264720I-249999J0D01*
G01*
G37*
%TD*%
%TO.C,R20*%
G36*
G01*
X138895241Y-125830380D02*
X137995239Y-125830380D01*
G75*
G02*
X137745240Y-125580381I0J249999D01*
G01*
X137745240Y-125055379D01*
G75*
G02*
X137995239Y-124805380I249999J0D01*
G01*
X138895241Y-124805380D01*
G75*
G02*
X139145240Y-125055379I0J-249999D01*
G01*
X139145240Y-125580381D01*
G75*
G02*
X138895241Y-125830380I-249999J0D01*
G01*
G37*
G36*
G01*
X138895241Y-127655380D02*
X137995239Y-127655380D01*
G75*
G02*
X137745240Y-127405381I0J249999D01*
G01*
X137745240Y-126880379D01*
G75*
G02*
X137995239Y-126630380I249999J0D01*
G01*
X138895241Y-126630380D01*
G75*
G02*
X139145240Y-126880379I0J-249999D01*
G01*
X139145240Y-127405381D01*
G75*
G02*
X138895241Y-127655380I-249999J0D01*
G01*
G37*
%TD*%
%TO.C,R21*%
G36*
G01*
X138048700Y-135948400D02*
X138048700Y-136898400D01*
G75*
G02*
X137798700Y-137148400I-250000J0D01*
G01*
X137298700Y-137148400D01*
G75*
G02*
X137048700Y-136898400I0J250000D01*
G01*
X137048700Y-135948400D01*
G75*
G02*
X137298700Y-135698400I250000J0D01*
G01*
X137798700Y-135698400D01*
G75*
G02*
X138048700Y-135948400I0J-250000D01*
G01*
G37*
G36*
G01*
X136148700Y-135948400D02*
X136148700Y-136898400D01*
G75*
G02*
X135898700Y-137148400I-250000J0D01*
G01*
X135398700Y-137148400D01*
G75*
G02*
X135148700Y-136898400I0J250000D01*
G01*
X135148700Y-135948400D01*
G75*
G02*
X135398700Y-135698400I250000J0D01*
G01*
X135898700Y-135698400D01*
G75*
G02*
X136148700Y-135948400I0J-250000D01*
G01*
G37*
%TD*%
%TO.C,R22*%
G36*
G01*
X132407240Y-135915380D02*
X132407240Y-136865380D01*
G75*
G02*
X132157240Y-137115380I-250000J0D01*
G01*
X131657240Y-137115380D01*
G75*
G02*
X131407240Y-136865380I0J250000D01*
G01*
X131407240Y-135915380D01*
G75*
G02*
X131657240Y-135665380I250000J0D01*
G01*
X132157240Y-135665380D01*
G75*
G02*
X132407240Y-135915380I0J-250000D01*
G01*
G37*
G36*
G01*
X134307240Y-135915380D02*
X134307240Y-136865380D01*
G75*
G02*
X134057240Y-137115380I-250000J0D01*
G01*
X133557240Y-137115380D01*
G75*
G02*
X133307240Y-136865380I0J250000D01*
G01*
X133307240Y-135915380D01*
G75*
G02*
X133557240Y-135665380I250000J0D01*
G01*
X134057240Y-135665380D01*
G75*
G02*
X134307240Y-135915380I0J-250000D01*
G01*
G37*
%TD*%
%TO.C,R23*%
G36*
G01*
X133988760Y-191833921D02*
X133988760Y-190933919D01*
G75*
G02*
X134238759Y-190683920I249999J0D01*
G01*
X134763761Y-190683920D01*
G75*
G02*
X135013760Y-190933919I0J-249999D01*
G01*
X135013760Y-191833921D01*
G75*
G02*
X134763761Y-192083920I-249999J0D01*
G01*
X134238759Y-192083920D01*
G75*
G02*
X133988760Y-191833921I0J249999D01*
G01*
G37*
G36*
G01*
X132163760Y-191833921D02*
X132163760Y-190933919D01*
G75*
G02*
X132413759Y-190683920I249999J0D01*
G01*
X132938761Y-190683920D01*
G75*
G02*
X133188760Y-190933919I0J-249999D01*
G01*
X133188760Y-191833921D01*
G75*
G02*
X132938761Y-192083920I-249999J0D01*
G01*
X132413759Y-192083920D01*
G75*
G02*
X132163760Y-191833921I0J249999D01*
G01*
G37*
%TD*%
%TO.C,R24*%
G36*
G01*
X133977960Y-195562641D02*
X133977960Y-194662639D01*
G75*
G02*
X134227959Y-194412640I249999J0D01*
G01*
X134752961Y-194412640D01*
G75*
G02*
X135002960Y-194662639I0J-249999D01*
G01*
X135002960Y-195562641D01*
G75*
G02*
X134752961Y-195812640I-249999J0D01*
G01*
X134227959Y-195812640D01*
G75*
G02*
X133977960Y-195562641I0J249999D01*
G01*
G37*
G36*
G01*
X132152960Y-195562641D02*
X132152960Y-194662639D01*
G75*
G02*
X132402959Y-194412640I249999J0D01*
G01*
X132927961Y-194412640D01*
G75*
G02*
X133177960Y-194662639I0J-249999D01*
G01*
X133177960Y-195562641D01*
G75*
G02*
X132927961Y-195812640I-249999J0D01*
G01*
X132402959Y-195812640D01*
G75*
G02*
X132152960Y-195562641I0J249999D01*
G01*
G37*
%TD*%
%TO.C,R26*%
G36*
G01*
X127973241Y-132106720D02*
X127073239Y-132106720D01*
G75*
G02*
X126823240Y-131856721I0J249999D01*
G01*
X126823240Y-131331719D01*
G75*
G02*
X127073239Y-131081720I249999J0D01*
G01*
X127973241Y-131081720D01*
G75*
G02*
X128223240Y-131331719I0J-249999D01*
G01*
X128223240Y-131856721D01*
G75*
G02*
X127973241Y-132106720I-249999J0D01*
G01*
G37*
G36*
G01*
X127973241Y-133931720D02*
X127073239Y-133931720D01*
G75*
G02*
X126823240Y-133681721I0J249999D01*
G01*
X126823240Y-133156719D01*
G75*
G02*
X127073239Y-132906720I249999J0D01*
G01*
X127973241Y-132906720D01*
G75*
G02*
X128223240Y-133156719I0J-249999D01*
G01*
X128223240Y-133681721D01*
G75*
G02*
X127973241Y-133931720I-249999J0D01*
G01*
G37*
%TD*%
%TO.C,R27*%
G36*
G01*
X128033200Y-128475319D02*
X128033200Y-129375321D01*
G75*
G02*
X127783201Y-129625320I-249999J0D01*
G01*
X127258199Y-129625320D01*
G75*
G02*
X127008200Y-129375321I0J249999D01*
G01*
X127008200Y-128475319D01*
G75*
G02*
X127258199Y-128225320I249999J0D01*
G01*
X127783201Y-128225320D01*
G75*
G02*
X128033200Y-128475319I0J-249999D01*
G01*
G37*
G36*
G01*
X126208200Y-128475319D02*
X126208200Y-129375321D01*
G75*
G02*
X125958201Y-129625320I-249999J0D01*
G01*
X125433199Y-129625320D01*
G75*
G02*
X125183200Y-129375321I0J249999D01*
G01*
X125183200Y-128475319D01*
G75*
G02*
X125433199Y-128225320I249999J0D01*
G01*
X125958201Y-128225320D01*
G75*
G02*
X126208200Y-128475319I0J-249999D01*
G01*
G37*
%TD*%
%TO.C,R28*%
G36*
G01*
X120320221Y-195193340D02*
X119420219Y-195193340D01*
G75*
G02*
X119170220Y-194943341I0J249999D01*
G01*
X119170220Y-194418339D01*
G75*
G02*
X119420219Y-194168340I249999J0D01*
G01*
X120320221Y-194168340D01*
G75*
G02*
X120570220Y-194418339I0J-249999D01*
G01*
X120570220Y-194943341D01*
G75*
G02*
X120320221Y-195193340I-249999J0D01*
G01*
G37*
G36*
G01*
X120320221Y-193368340D02*
X119420219Y-193368340D01*
G75*
G02*
X119170220Y-193118341I0J249999D01*
G01*
X119170220Y-192593339D01*
G75*
G02*
X119420219Y-192343340I249999J0D01*
G01*
X120320221Y-192343340D01*
G75*
G02*
X120570220Y-192593339I0J-249999D01*
G01*
X120570220Y-193118341D01*
G75*
G02*
X120320221Y-193368340I-249999J0D01*
G01*
G37*
%TD*%
%TO.C,R29*%
G36*
G01*
X127109641Y-194722800D02*
X126209639Y-194722800D01*
G75*
G02*
X125959640Y-194472801I0J249999D01*
G01*
X125959640Y-193947799D01*
G75*
G02*
X126209639Y-193697800I249999J0D01*
G01*
X127109641Y-193697800D01*
G75*
G02*
X127359640Y-193947799I0J-249999D01*
G01*
X127359640Y-194472801D01*
G75*
G02*
X127109641Y-194722800I-249999J0D01*
G01*
G37*
G36*
G01*
X127109641Y-196547800D02*
X126209639Y-196547800D01*
G75*
G02*
X125959640Y-196297801I0J249999D01*
G01*
X125959640Y-195772799D01*
G75*
G02*
X126209639Y-195522800I249999J0D01*
G01*
X127109641Y-195522800D01*
G75*
G02*
X127359640Y-195772799I0J-249999D01*
G01*
X127359640Y-196297801D01*
G75*
G02*
X127109641Y-196547800I-249999J0D01*
G01*
G37*
%TD*%
%TO.C,R30*%
G36*
G01*
X149658919Y-177576420D02*
X150558921Y-177576420D01*
G75*
G02*
X150808920Y-177826419I0J-249999D01*
G01*
X150808920Y-178351421D01*
G75*
G02*
X150558921Y-178601420I-249999J0D01*
G01*
X149658919Y-178601420D01*
G75*
G02*
X149408920Y-178351421I0J249999D01*
G01*
X149408920Y-177826419D01*
G75*
G02*
X149658919Y-177576420I249999J0D01*
G01*
G37*
G36*
G01*
X149658919Y-179401420D02*
X150558921Y-179401420D01*
G75*
G02*
X150808920Y-179651419I0J-249999D01*
G01*
X150808920Y-180176421D01*
G75*
G02*
X150558921Y-180426420I-249999J0D01*
G01*
X149658919Y-180426420D01*
G75*
G02*
X149408920Y-180176421I0J249999D01*
G01*
X149408920Y-179651419D01*
G75*
G02*
X149658919Y-179401420I249999J0D01*
G01*
G37*
%TD*%
%TO.C,R31*%
G36*
G01*
X150578880Y-120276199D02*
X150578880Y-121176201D01*
G75*
G02*
X150328881Y-121426200I-249999J0D01*
G01*
X149803879Y-121426200D01*
G75*
G02*
X149553880Y-121176201I0J249999D01*
G01*
X149553880Y-120276199D01*
G75*
G02*
X149803879Y-120026200I249999J0D01*
G01*
X150328881Y-120026200D01*
G75*
G02*
X150578880Y-120276199I0J-249999D01*
G01*
G37*
G36*
G01*
X148753880Y-120276199D02*
X148753880Y-121176201D01*
G75*
G02*
X148503881Y-121426200I-249999J0D01*
G01*
X147978879Y-121426200D01*
G75*
G02*
X147728880Y-121176201I0J249999D01*
G01*
X147728880Y-120276199D01*
G75*
G02*
X147978879Y-120026200I249999J0D01*
G01*
X148503881Y-120026200D01*
G75*
G02*
X148753880Y-120276199I0J-249999D01*
G01*
G37*
%TD*%
%TO.C,U2*%
G36*
G01*
X117670180Y-104758861D02*
X117670180Y-103878859D01*
G75*
G02*
X117920179Y-103628860I249999J0D01*
G01*
X118530181Y-103628860D01*
G75*
G02*
X118780180Y-103878859I0J-249999D01*
G01*
X118780180Y-104758861D01*
G75*
G02*
X118530181Y-105008860I-249999J0D01*
G01*
X117920179Y-105008860D01*
G75*
G02*
X117670180Y-104758861I0J249999D01*
G01*
G37*
G36*
G01*
X117670180Y-106478861D02*
X117670180Y-105598859D01*
G75*
G02*
X117920179Y-105348860I249999J0D01*
G01*
X118530181Y-105348860D01*
G75*
G02*
X118780180Y-105598859I0J-249999D01*
G01*
X118780180Y-106478861D01*
G75*
G02*
X118530181Y-106728860I-249999J0D01*
G01*
X117920179Y-106728860D01*
G75*
G02*
X117670180Y-106478861I0J249999D01*
G01*
G37*
G36*
G01*
X119050180Y-104758861D02*
X119050180Y-103878859D01*
G75*
G02*
X119300179Y-103628860I249999J0D01*
G01*
X119910181Y-103628860D01*
G75*
G02*
X120160180Y-103878859I0J-249999D01*
G01*
X120160180Y-104758861D01*
G75*
G02*
X119910181Y-105008860I-249999J0D01*
G01*
X119300179Y-105008860D01*
G75*
G02*
X119050180Y-104758861I0J249999D01*
G01*
G37*
G36*
G01*
X119050180Y-106478861D02*
X119050180Y-105598859D01*
G75*
G02*
X119300179Y-105348860I249999J0D01*
G01*
X119910181Y-105348860D01*
G75*
G02*
X120160180Y-105598859I0J-249999D01*
G01*
X120160180Y-106478861D01*
G75*
G02*
X119910181Y-106728860I-249999J0D01*
G01*
X119300179Y-106728860D01*
G75*
G02*
X119050180Y-106478861I0J249999D01*
G01*
G37*
G36*
G01*
X115265180Y-102353860D02*
X115265180Y-102153860D01*
G75*
G02*
X115365180Y-102053860I100000J0D01*
G01*
X116740180Y-102053860D01*
G75*
G02*
X116840180Y-102153860I0J-100000D01*
G01*
X116840180Y-102353860D01*
G75*
G02*
X116740180Y-102453860I-100000J0D01*
G01*
X115365180Y-102453860D01*
G75*
G02*
X115265180Y-102353860I0J100000D01*
G01*
G37*
G36*
G01*
X115265180Y-103003860D02*
X115265180Y-102803860D01*
G75*
G02*
X115365180Y-102703860I100000J0D01*
G01*
X116740180Y-102703860D01*
G75*
G02*
X116840180Y-102803860I0J-100000D01*
G01*
X116840180Y-103003860D01*
G75*
G02*
X116740180Y-103103860I-100000J0D01*
G01*
X115365180Y-103103860D01*
G75*
G02*
X115265180Y-103003860I0J100000D01*
G01*
G37*
G36*
G01*
X115265180Y-103653860D02*
X115265180Y-103453860D01*
G75*
G02*
X115365180Y-103353860I100000J0D01*
G01*
X116740180Y-103353860D01*
G75*
G02*
X116840180Y-103453860I0J-100000D01*
G01*
X116840180Y-103653860D01*
G75*
G02*
X116740180Y-103753860I-100000J0D01*
G01*
X115365180Y-103753860D01*
G75*
G02*
X115265180Y-103653860I0J100000D01*
G01*
G37*
G36*
G01*
X115265180Y-104303860D02*
X115265180Y-104103860D01*
G75*
G02*
X115365180Y-104003860I100000J0D01*
G01*
X116740180Y-104003860D01*
G75*
G02*
X116840180Y-104103860I0J-100000D01*
G01*
X116840180Y-104303860D01*
G75*
G02*
X116740180Y-104403860I-100000J0D01*
G01*
X115365180Y-104403860D01*
G75*
G02*
X115265180Y-104303860I0J100000D01*
G01*
G37*
G36*
G01*
X115265180Y-104953860D02*
X115265180Y-104753860D01*
G75*
G02*
X115365180Y-104653860I100000J0D01*
G01*
X116740180Y-104653860D01*
G75*
G02*
X116840180Y-104753860I0J-100000D01*
G01*
X116840180Y-104953860D01*
G75*
G02*
X116740180Y-105053860I-100000J0D01*
G01*
X115365180Y-105053860D01*
G75*
G02*
X115265180Y-104953860I0J100000D01*
G01*
G37*
G36*
G01*
X115265180Y-105603860D02*
X115265180Y-105403860D01*
G75*
G02*
X115365180Y-105303860I100000J0D01*
G01*
X116740180Y-105303860D01*
G75*
G02*
X116840180Y-105403860I0J-100000D01*
G01*
X116840180Y-105603860D01*
G75*
G02*
X116740180Y-105703860I-100000J0D01*
G01*
X115365180Y-105703860D01*
G75*
G02*
X115265180Y-105603860I0J100000D01*
G01*
G37*
G36*
G01*
X115265180Y-106253860D02*
X115265180Y-106053860D01*
G75*
G02*
X115365180Y-105953860I100000J0D01*
G01*
X116740180Y-105953860D01*
G75*
G02*
X116840180Y-106053860I0J-100000D01*
G01*
X116840180Y-106253860D01*
G75*
G02*
X116740180Y-106353860I-100000J0D01*
G01*
X115365180Y-106353860D01*
G75*
G02*
X115265180Y-106253860I0J100000D01*
G01*
G37*
G36*
G01*
X115265180Y-106903860D02*
X115265180Y-106703860D01*
G75*
G02*
X115365180Y-106603860I100000J0D01*
G01*
X116740180Y-106603860D01*
G75*
G02*
X116840180Y-106703860I0J-100000D01*
G01*
X116840180Y-106903860D01*
G75*
G02*
X116740180Y-107003860I-100000J0D01*
G01*
X115365180Y-107003860D01*
G75*
G02*
X115265180Y-106903860I0J100000D01*
G01*
G37*
G36*
G01*
X115265180Y-107553860D02*
X115265180Y-107353860D01*
G75*
G02*
X115365180Y-107253860I100000J0D01*
G01*
X116740180Y-107253860D01*
G75*
G02*
X116840180Y-107353860I0J-100000D01*
G01*
X116840180Y-107553860D01*
G75*
G02*
X116740180Y-107653860I-100000J0D01*
G01*
X115365180Y-107653860D01*
G75*
G02*
X115265180Y-107553860I0J100000D01*
G01*
G37*
G36*
G01*
X115265180Y-108203860D02*
X115265180Y-108003860D01*
G75*
G02*
X115365180Y-107903860I100000J0D01*
G01*
X116740180Y-107903860D01*
G75*
G02*
X116840180Y-108003860I0J-100000D01*
G01*
X116840180Y-108203860D01*
G75*
G02*
X116740180Y-108303860I-100000J0D01*
G01*
X115365180Y-108303860D01*
G75*
G02*
X115265180Y-108203860I0J100000D01*
G01*
G37*
G36*
G01*
X120990180Y-108203860D02*
X120990180Y-108003860D01*
G75*
G02*
X121090180Y-107903860I100000J0D01*
G01*
X122465180Y-107903860D01*
G75*
G02*
X122565180Y-108003860I0J-100000D01*
G01*
X122565180Y-108203860D01*
G75*
G02*
X122465180Y-108303860I-100000J0D01*
G01*
X121090180Y-108303860D01*
G75*
G02*
X120990180Y-108203860I0J100000D01*
G01*
G37*
G36*
G01*
X120990180Y-107553860D02*
X120990180Y-107353860D01*
G75*
G02*
X121090180Y-107253860I100000J0D01*
G01*
X122465180Y-107253860D01*
G75*
G02*
X122565180Y-107353860I0J-100000D01*
G01*
X122565180Y-107553860D01*
G75*
G02*
X122465180Y-107653860I-100000J0D01*
G01*
X121090180Y-107653860D01*
G75*
G02*
X120990180Y-107553860I0J100000D01*
G01*
G37*
G36*
G01*
X120990180Y-106903860D02*
X120990180Y-106703860D01*
G75*
G02*
X121090180Y-106603860I100000J0D01*
G01*
X122465180Y-106603860D01*
G75*
G02*
X122565180Y-106703860I0J-100000D01*
G01*
X122565180Y-106903860D01*
G75*
G02*
X122465180Y-107003860I-100000J0D01*
G01*
X121090180Y-107003860D01*
G75*
G02*
X120990180Y-106903860I0J100000D01*
G01*
G37*
G36*
G01*
X120990180Y-106253860D02*
X120990180Y-106053860D01*
G75*
G02*
X121090180Y-105953860I100000J0D01*
G01*
X122465180Y-105953860D01*
G75*
G02*
X122565180Y-106053860I0J-100000D01*
G01*
X122565180Y-106253860D01*
G75*
G02*
X122465180Y-106353860I-100000J0D01*
G01*
X121090180Y-106353860D01*
G75*
G02*
X120990180Y-106253860I0J100000D01*
G01*
G37*
G36*
G01*
X120990180Y-105603860D02*
X120990180Y-105403860D01*
G75*
G02*
X121090180Y-105303860I100000J0D01*
G01*
X122465180Y-105303860D01*
G75*
G02*
X122565180Y-105403860I0J-100000D01*
G01*
X122565180Y-105603860D01*
G75*
G02*
X122465180Y-105703860I-100000J0D01*
G01*
X121090180Y-105703860D01*
G75*
G02*
X120990180Y-105603860I0J100000D01*
G01*
G37*
G36*
G01*
X120990180Y-104953860D02*
X120990180Y-104753860D01*
G75*
G02*
X121090180Y-104653860I100000J0D01*
G01*
X122465180Y-104653860D01*
G75*
G02*
X122565180Y-104753860I0J-100000D01*
G01*
X122565180Y-104953860D01*
G75*
G02*
X122465180Y-105053860I-100000J0D01*
G01*
X121090180Y-105053860D01*
G75*
G02*
X120990180Y-104953860I0J100000D01*
G01*
G37*
G36*
G01*
X120990180Y-104303860D02*
X120990180Y-104103860D01*
G75*
G02*
X121090180Y-104003860I100000J0D01*
G01*
X122465180Y-104003860D01*
G75*
G02*
X122565180Y-104103860I0J-100000D01*
G01*
X122565180Y-104303860D01*
G75*
G02*
X122465180Y-104403860I-100000J0D01*
G01*
X121090180Y-104403860D01*
G75*
G02*
X120990180Y-104303860I0J100000D01*
G01*
G37*
G36*
G01*
X120990180Y-103653860D02*
X120990180Y-103453860D01*
G75*
G02*
X121090180Y-103353860I100000J0D01*
G01*
X122465180Y-103353860D01*
G75*
G02*
X122565180Y-103453860I0J-100000D01*
G01*
X122565180Y-103653860D01*
G75*
G02*
X122465180Y-103753860I-100000J0D01*
G01*
X121090180Y-103753860D01*
G75*
G02*
X120990180Y-103653860I0J100000D01*
G01*
G37*
G36*
G01*
X120990180Y-103003860D02*
X120990180Y-102803860D01*
G75*
G02*
X121090180Y-102703860I100000J0D01*
G01*
X122465180Y-102703860D01*
G75*
G02*
X122565180Y-102803860I0J-100000D01*
G01*
X122565180Y-103003860D01*
G75*
G02*
X122465180Y-103103860I-100000J0D01*
G01*
X121090180Y-103103860D01*
G75*
G02*
X120990180Y-103003860I0J100000D01*
G01*
G37*
G36*
G01*
X120990180Y-102353860D02*
X120990180Y-102153860D01*
G75*
G02*
X121090180Y-102053860I100000J0D01*
G01*
X122465180Y-102053860D01*
G75*
G02*
X122565180Y-102153860I0J-100000D01*
G01*
X122565180Y-102353860D01*
G75*
G02*
X122465180Y-102453860I-100000J0D01*
G01*
X121090180Y-102453860D01*
G75*
G02*
X120990180Y-102353860I0J100000D01*
G01*
G37*
%TD*%
D21*
%TO.C,U3*%
X120561100Y-122344180D03*
D22*
X123273100Y-120439180D03*
X123273100Y-121709180D03*
X123273100Y-122979180D03*
X123273100Y-124249180D03*
X117849100Y-124249180D03*
X117849100Y-122979180D03*
X117849100Y-121709180D03*
X117849100Y-120439180D03*
%TD*%
%TO.C,U5*%
G36*
G01*
X147264940Y-187322500D02*
X147264940Y-187522500D01*
G75*
G02*
X147164940Y-187622500I-100000J0D01*
G01*
X145889940Y-187622500D01*
G75*
G02*
X145789940Y-187522500I0J100000D01*
G01*
X145789940Y-187322500D01*
G75*
G02*
X145889940Y-187222500I100000J0D01*
G01*
X147164940Y-187222500D01*
G75*
G02*
X147264940Y-187322500I0J-100000D01*
G01*
G37*
G36*
G01*
X147264940Y-186672500D02*
X147264940Y-186872500D01*
G75*
G02*
X147164940Y-186972500I-100000J0D01*
G01*
X145889940Y-186972500D01*
G75*
G02*
X145789940Y-186872500I0J100000D01*
G01*
X145789940Y-186672500D01*
G75*
G02*
X145889940Y-186572500I100000J0D01*
G01*
X147164940Y-186572500D01*
G75*
G02*
X147264940Y-186672500I0J-100000D01*
G01*
G37*
G36*
G01*
X147264940Y-186022500D02*
X147264940Y-186222500D01*
G75*
G02*
X147164940Y-186322500I-100000J0D01*
G01*
X145889940Y-186322500D01*
G75*
G02*
X145789940Y-186222500I0J100000D01*
G01*
X145789940Y-186022500D01*
G75*
G02*
X145889940Y-185922500I100000J0D01*
G01*
X147164940Y-185922500D01*
G75*
G02*
X147264940Y-186022500I0J-100000D01*
G01*
G37*
G36*
G01*
X147264940Y-185372500D02*
X147264940Y-185572500D01*
G75*
G02*
X147164940Y-185672500I-100000J0D01*
G01*
X145889940Y-185672500D01*
G75*
G02*
X145789940Y-185572500I0J100000D01*
G01*
X145789940Y-185372500D01*
G75*
G02*
X145889940Y-185272500I100000J0D01*
G01*
X147164940Y-185272500D01*
G75*
G02*
X147264940Y-185372500I0J-100000D01*
G01*
G37*
G36*
G01*
X147264940Y-184722500D02*
X147264940Y-184922500D01*
G75*
G02*
X147164940Y-185022500I-100000J0D01*
G01*
X145889940Y-185022500D01*
G75*
G02*
X145789940Y-184922500I0J100000D01*
G01*
X145789940Y-184722500D01*
G75*
G02*
X145889940Y-184622500I100000J0D01*
G01*
X147164940Y-184622500D01*
G75*
G02*
X147264940Y-184722500I0J-100000D01*
G01*
G37*
G36*
G01*
X147264940Y-184072500D02*
X147264940Y-184272500D01*
G75*
G02*
X147164940Y-184372500I-100000J0D01*
G01*
X145889940Y-184372500D01*
G75*
G02*
X145789940Y-184272500I0J100000D01*
G01*
X145789940Y-184072500D01*
G75*
G02*
X145889940Y-183972500I100000J0D01*
G01*
X147164940Y-183972500D01*
G75*
G02*
X147264940Y-184072500I0J-100000D01*
G01*
G37*
G36*
G01*
X147264940Y-183422500D02*
X147264940Y-183622500D01*
G75*
G02*
X147164940Y-183722500I-100000J0D01*
G01*
X145889940Y-183722500D01*
G75*
G02*
X145789940Y-183622500I0J100000D01*
G01*
X145789940Y-183422500D01*
G75*
G02*
X145889940Y-183322500I100000J0D01*
G01*
X147164940Y-183322500D01*
G75*
G02*
X147264940Y-183422500I0J-100000D01*
G01*
G37*
G36*
G01*
X147264940Y-182772500D02*
X147264940Y-182972500D01*
G75*
G02*
X147164940Y-183072500I-100000J0D01*
G01*
X145889940Y-183072500D01*
G75*
G02*
X145789940Y-182972500I0J100000D01*
G01*
X145789940Y-182772500D01*
G75*
G02*
X145889940Y-182672500I100000J0D01*
G01*
X147164940Y-182672500D01*
G75*
G02*
X147264940Y-182772500I0J-100000D01*
G01*
G37*
G36*
G01*
X147264940Y-182122500D02*
X147264940Y-182322500D01*
G75*
G02*
X147164940Y-182422500I-100000J0D01*
G01*
X145889940Y-182422500D01*
G75*
G02*
X145789940Y-182322500I0J100000D01*
G01*
X145789940Y-182122500D01*
G75*
G02*
X145889940Y-182022500I100000J0D01*
G01*
X147164940Y-182022500D01*
G75*
G02*
X147264940Y-182122500I0J-100000D01*
G01*
G37*
G36*
G01*
X147264940Y-181472500D02*
X147264940Y-181672500D01*
G75*
G02*
X147164940Y-181772500I-100000J0D01*
G01*
X145889940Y-181772500D01*
G75*
G02*
X145789940Y-181672500I0J100000D01*
G01*
X145789940Y-181472500D01*
G75*
G02*
X145889940Y-181372500I100000J0D01*
G01*
X147164940Y-181372500D01*
G75*
G02*
X147264940Y-181472500I0J-100000D01*
G01*
G37*
G36*
G01*
X147264940Y-180822500D02*
X147264940Y-181022500D01*
G75*
G02*
X147164940Y-181122500I-100000J0D01*
G01*
X145889940Y-181122500D01*
G75*
G02*
X145789940Y-181022500I0J100000D01*
G01*
X145789940Y-180822500D01*
G75*
G02*
X145889940Y-180722500I100000J0D01*
G01*
X147164940Y-180722500D01*
G75*
G02*
X147264940Y-180822500I0J-100000D01*
G01*
G37*
G36*
G01*
X147264940Y-180172500D02*
X147264940Y-180372500D01*
G75*
G02*
X147164940Y-180472500I-100000J0D01*
G01*
X145889940Y-180472500D01*
G75*
G02*
X145789940Y-180372500I0J100000D01*
G01*
X145789940Y-180172500D01*
G75*
G02*
X145889940Y-180072500I100000J0D01*
G01*
X147164940Y-180072500D01*
G75*
G02*
X147264940Y-180172500I0J-100000D01*
G01*
G37*
G36*
G01*
X147264940Y-179522500D02*
X147264940Y-179722500D01*
G75*
G02*
X147164940Y-179822500I-100000J0D01*
G01*
X145889940Y-179822500D01*
G75*
G02*
X145789940Y-179722500I0J100000D01*
G01*
X145789940Y-179522500D01*
G75*
G02*
X145889940Y-179422500I100000J0D01*
G01*
X147164940Y-179422500D01*
G75*
G02*
X147264940Y-179522500I0J-100000D01*
G01*
G37*
G36*
G01*
X147264940Y-178872500D02*
X147264940Y-179072500D01*
G75*
G02*
X147164940Y-179172500I-100000J0D01*
G01*
X145889940Y-179172500D01*
G75*
G02*
X145789940Y-179072500I0J100000D01*
G01*
X145789940Y-178872500D01*
G75*
G02*
X145889940Y-178772500I100000J0D01*
G01*
X147164940Y-178772500D01*
G75*
G02*
X147264940Y-178872500I0J-100000D01*
G01*
G37*
G36*
G01*
X141539940Y-178872500D02*
X141539940Y-179072500D01*
G75*
G02*
X141439940Y-179172500I-100000J0D01*
G01*
X140164940Y-179172500D01*
G75*
G02*
X140064940Y-179072500I0J100000D01*
G01*
X140064940Y-178872500D01*
G75*
G02*
X140164940Y-178772500I100000J0D01*
G01*
X141439940Y-178772500D01*
G75*
G02*
X141539940Y-178872500I0J-100000D01*
G01*
G37*
G36*
G01*
X141539940Y-179522500D02*
X141539940Y-179722500D01*
G75*
G02*
X141439940Y-179822500I-100000J0D01*
G01*
X140164940Y-179822500D01*
G75*
G02*
X140064940Y-179722500I0J100000D01*
G01*
X140064940Y-179522500D01*
G75*
G02*
X140164940Y-179422500I100000J0D01*
G01*
X141439940Y-179422500D01*
G75*
G02*
X141539940Y-179522500I0J-100000D01*
G01*
G37*
G36*
G01*
X141539940Y-180172500D02*
X141539940Y-180372500D01*
G75*
G02*
X141439940Y-180472500I-100000J0D01*
G01*
X140164940Y-180472500D01*
G75*
G02*
X140064940Y-180372500I0J100000D01*
G01*
X140064940Y-180172500D01*
G75*
G02*
X140164940Y-180072500I100000J0D01*
G01*
X141439940Y-180072500D01*
G75*
G02*
X141539940Y-180172500I0J-100000D01*
G01*
G37*
G36*
G01*
X141539940Y-180822500D02*
X141539940Y-181022500D01*
G75*
G02*
X141439940Y-181122500I-100000J0D01*
G01*
X140164940Y-181122500D01*
G75*
G02*
X140064940Y-181022500I0J100000D01*
G01*
X140064940Y-180822500D01*
G75*
G02*
X140164940Y-180722500I100000J0D01*
G01*
X141439940Y-180722500D01*
G75*
G02*
X141539940Y-180822500I0J-100000D01*
G01*
G37*
G36*
G01*
X141539940Y-181472500D02*
X141539940Y-181672500D01*
G75*
G02*
X141439940Y-181772500I-100000J0D01*
G01*
X140164940Y-181772500D01*
G75*
G02*
X140064940Y-181672500I0J100000D01*
G01*
X140064940Y-181472500D01*
G75*
G02*
X140164940Y-181372500I100000J0D01*
G01*
X141439940Y-181372500D01*
G75*
G02*
X141539940Y-181472500I0J-100000D01*
G01*
G37*
G36*
G01*
X141539940Y-182122500D02*
X141539940Y-182322500D01*
G75*
G02*
X141439940Y-182422500I-100000J0D01*
G01*
X140164940Y-182422500D01*
G75*
G02*
X140064940Y-182322500I0J100000D01*
G01*
X140064940Y-182122500D01*
G75*
G02*
X140164940Y-182022500I100000J0D01*
G01*
X141439940Y-182022500D01*
G75*
G02*
X141539940Y-182122500I0J-100000D01*
G01*
G37*
G36*
G01*
X141539940Y-182772500D02*
X141539940Y-182972500D01*
G75*
G02*
X141439940Y-183072500I-100000J0D01*
G01*
X140164940Y-183072500D01*
G75*
G02*
X140064940Y-182972500I0J100000D01*
G01*
X140064940Y-182772500D01*
G75*
G02*
X140164940Y-182672500I100000J0D01*
G01*
X141439940Y-182672500D01*
G75*
G02*
X141539940Y-182772500I0J-100000D01*
G01*
G37*
G36*
G01*
X141539940Y-183422500D02*
X141539940Y-183622500D01*
G75*
G02*
X141439940Y-183722500I-100000J0D01*
G01*
X140164940Y-183722500D01*
G75*
G02*
X140064940Y-183622500I0J100000D01*
G01*
X140064940Y-183422500D01*
G75*
G02*
X140164940Y-183322500I100000J0D01*
G01*
X141439940Y-183322500D01*
G75*
G02*
X141539940Y-183422500I0J-100000D01*
G01*
G37*
G36*
G01*
X141539940Y-184072500D02*
X141539940Y-184272500D01*
G75*
G02*
X141439940Y-184372500I-100000J0D01*
G01*
X140164940Y-184372500D01*
G75*
G02*
X140064940Y-184272500I0J100000D01*
G01*
X140064940Y-184072500D01*
G75*
G02*
X140164940Y-183972500I100000J0D01*
G01*
X141439940Y-183972500D01*
G75*
G02*
X141539940Y-184072500I0J-100000D01*
G01*
G37*
G36*
G01*
X141539940Y-184722500D02*
X141539940Y-184922500D01*
G75*
G02*
X141439940Y-185022500I-100000J0D01*
G01*
X140164940Y-185022500D01*
G75*
G02*
X140064940Y-184922500I0J100000D01*
G01*
X140064940Y-184722500D01*
G75*
G02*
X140164940Y-184622500I100000J0D01*
G01*
X141439940Y-184622500D01*
G75*
G02*
X141539940Y-184722500I0J-100000D01*
G01*
G37*
G36*
G01*
X141539940Y-185372500D02*
X141539940Y-185572500D01*
G75*
G02*
X141439940Y-185672500I-100000J0D01*
G01*
X140164940Y-185672500D01*
G75*
G02*
X140064940Y-185572500I0J100000D01*
G01*
X140064940Y-185372500D01*
G75*
G02*
X140164940Y-185272500I100000J0D01*
G01*
X141439940Y-185272500D01*
G75*
G02*
X141539940Y-185372500I0J-100000D01*
G01*
G37*
G36*
G01*
X141539940Y-186022500D02*
X141539940Y-186222500D01*
G75*
G02*
X141439940Y-186322500I-100000J0D01*
G01*
X140164940Y-186322500D01*
G75*
G02*
X140064940Y-186222500I0J100000D01*
G01*
X140064940Y-186022500D01*
G75*
G02*
X140164940Y-185922500I100000J0D01*
G01*
X141439940Y-185922500D01*
G75*
G02*
X141539940Y-186022500I0J-100000D01*
G01*
G37*
G36*
G01*
X141539940Y-186672500D02*
X141539940Y-186872500D01*
G75*
G02*
X141439940Y-186972500I-100000J0D01*
G01*
X140164940Y-186972500D01*
G75*
G02*
X140064940Y-186872500I0J100000D01*
G01*
X140064940Y-186672500D01*
G75*
G02*
X140164940Y-186572500I100000J0D01*
G01*
X141439940Y-186572500D01*
G75*
G02*
X141539940Y-186672500I0J-100000D01*
G01*
G37*
G36*
G01*
X141539940Y-187322500D02*
X141539940Y-187522500D01*
G75*
G02*
X141439940Y-187622500I-100000J0D01*
G01*
X140164940Y-187622500D01*
G75*
G02*
X140064940Y-187522500I0J100000D01*
G01*
X140064940Y-187322500D01*
G75*
G02*
X140164940Y-187222500I100000J0D01*
G01*
X141439940Y-187222500D01*
G75*
G02*
X141539940Y-187322500I0J-100000D01*
G01*
G37*
%TD*%
D23*
%TO.C,U6*%
X135871000Y-133359320D03*
X135871000Y-132709320D03*
X135871000Y-132059320D03*
X135871000Y-131409320D03*
X135871000Y-130759320D03*
X135871000Y-130109320D03*
X135871000Y-129459320D03*
X135871000Y-128809320D03*
X130321000Y-128809320D03*
X130321000Y-129459320D03*
X130321000Y-130109320D03*
X130321000Y-130759320D03*
X130321000Y-131409320D03*
X130321000Y-132059320D03*
X130321000Y-132709320D03*
X130321000Y-133359320D03*
D24*
X133646000Y-130534320D03*
X132546000Y-130534320D03*
X132546000Y-131634320D03*
D25*
X133646000Y-131634320D03*
D26*
X133646000Y-132409320D03*
X132546000Y-132409320D03*
X132546000Y-129759320D03*
X133646000Y-129759320D03*
D27*
X134421000Y-131634320D03*
X131771000Y-131634320D03*
X131771000Y-130534320D03*
X134421000Y-130534320D03*
%TD*%
D28*
%TO.C,U7*%
X105156240Y-163379420D03*
X107156240Y-163379420D03*
X109156240Y-163379420D03*
X111156240Y-163379420D03*
X113156240Y-163379420D03*
X115156240Y-163379420D03*
X117156240Y-163379420D03*
X119156240Y-163379420D03*
X119156240Y-147379420D03*
X117156240Y-147379420D03*
X115156240Y-147379420D03*
X113156240Y-147379420D03*
X111156240Y-147379420D03*
X109156240Y-147379420D03*
X107156240Y-147379420D03*
X105156240Y-147379420D03*
%TD*%
M02*
