M48
; DRILL file {KiCad (5.1.10)-1} date 09/02/21 16:56:19
; FORMAT={-:-/ absolute / inch / decimal}
; #@! TF.CreationDate,2021-09-02T16:56:19-04:00
; #@! TF.GenerationSoftware,Kicad,Pcbnew,(5.1.10)-1
FMAT,2
INCH
T1C0.0118
T2C0.0157
T3C0.0394
T4C0.0480
T5C0.0548
T6C0.0598
T7C0.0787
T8C0.0256
T9C0.0453
T10C0.1260
T11C0.1378
%
G90
G05
T1
X4.6305Y-4.0385
X4.6305Y-4.0897
X4.6305Y-4.1409
X4.6305Y-4.1921
X4.6305Y-4.2433
X4.6817Y-4.0385
X4.6817Y-4.0897
X4.6817Y-4.1409
X4.6817Y-4.1921
X4.6817Y-4.2433
X4.7329Y-4.0385
X4.7329Y-4.0897
X4.7329Y-4.1409
X4.7329Y-4.1921
X4.7329Y-4.2433
X5.1967Y-5.0742
X5.1967Y-5.1175
X5.1967Y-5.1608
X5.1967Y-5.2041
X5.1967Y-5.2474
X5.24Y-5.0742
X5.24Y-5.1175
X5.24Y-5.1608
X5.24Y-5.2041
X5.24Y-5.2474
X5.2833Y-5.0742
X5.2833Y-5.1175
X5.2833Y-5.1608
X5.2833Y-5.2041
X5.2833Y-5.2474
T2
X4.0364Y-4.5158
X4.0743Y-4.3543
X4.1151Y-7.4882
X4.2816Y-6.1011
X4.3194Y-6.351
X4.3763Y-5.8827
X4.399Y-5.9601
X4.4007Y-5.5422
X4.4277Y-4.5638
X4.4277Y-4.5953
X4.4277Y-4.6268
X4.4277Y-4.6898
X4.4277Y-4.7213
X4.4277Y-4.7528
X4.4294Y-4.0174
X4.4304Y-6.1815
X4.4413Y-6.056
X4.4553Y-4.5382
X4.4553Y-4.6111
X4.4553Y-4.6426
X4.4553Y-4.674
X4.4553Y-4.7055
X4.4553Y-4.7784
X4.4723Y-6.5105
X4.4959Y-7.4452
X4.4982Y-6.3644
X4.5457Y-4.7005
X4.5502Y-4.8741
X4.5638Y-4.4767
X4.5821Y-4.5494
X4.5985Y-6.1738
X4.6156Y-6.6828
X4.6507Y-5.7111
X4.6637Y-6.1443
X4.6643Y-7.72
X4.6662Y-6.2163
X4.6753Y-4.3741
X4.6971Y-6.3055
X4.7059Y-6.1145
X4.7475Y-5.4842
X4.7497Y-5.1692
X4.7798Y-7.6246
X4.7973Y-3.9669
X4.8065Y-5.4001
X4.8433Y-4.301
X4.8757Y-5.0738
X4.8784Y-4.257
X4.9356Y-4.8896
X4.948Y-5.1392
X4.9489Y-7.2785
X5.0115Y-4.936
X5.0718Y-5.5561
X5.0907Y-7.0978
X5.1099Y-4.7941
X5.1221Y-5.5549
X5.1707Y-5.5561
X5.1927Y-7.0127
X5.2134Y-7.6034
X5.2205Y-6.2115
X5.2215Y-5.5566
X5.2457Y-6.3143
X5.2561Y-5.0213
X5.2567Y-6.6321
X5.2709Y-6.2145
X5.2868Y-6.3049
X5.3001Y-6.6828
X5.3189Y-5.553
X5.3192Y-6.0565
X5.327Y-5.7296
X5.3293Y-6.4546
X5.3302Y-5.8046
X5.3757Y-5.7689
X5.383Y-4.0294
X5.3846Y-4.301
X5.4134Y-5.8095
X5.42Y-5.5532
X5.4206Y-6.0507
X5.4232Y-5.7312
X5.426Y-7.3503
X5.4622Y-4.377
X5.4711Y-7.2124
X5.4889Y-5.373
X5.4932Y-4.7155
X5.5513Y-6.9992
X5.5697Y-6.0489
X5.5725Y-5.9554
X5.5737Y-5.6328
X5.6055Y-4.2201
X5.6218Y-5.5625
X5.6776Y-7.0974
X5.701Y-6.2582
X5.7947Y-6.6256
X5.8307Y-7.1994
X5.8979Y-4.3511
X5.9081Y-4.8511
T3
X4.2843Y-6.5785
X4.2843Y-7.3973
X4.2938Y-5.1042
X4.2938Y-5.2042
X4.4064Y-6.5785
X4.4064Y-7.3973
X4.5018Y-5.1042
X4.5018Y-5.2042
X4.8237Y-5.5749
X4.8237Y-5.6749
X4.8237Y-5.7749
X4.8237Y-5.8749
X4.8237Y-5.9749
X4.8237Y-6.0749
X4.8237Y-6.253
X4.8237Y-6.353
X4.8237Y-6.453
X4.8237Y-6.6321
X4.8237Y-6.7321
X4.8237Y-6.8321
X4.8237Y-6.9321
X4.8237Y-7.0321
X4.8237Y-7.1321
X4.8237Y-7.2321
X4.8237Y-7.3321
X4.8237Y-7.4321
T4
X4.4868Y-4.4811
X4.4868Y-4.8355
T5
X4.2663Y-4.4811
X4.2663Y-4.8355
T6
X4.4802Y-5.4349
X4.4802Y-5.6349
T7
X5.314Y-4.5157
X5.314Y-7.3504
T8
X4.4277Y-4.5116
T9
X4.4277Y-4.805
T10
X5.314Y-4.8207
X5.314Y-7.01
T11
X4.1457Y-4.2323
X4.1457Y-7.6181
X5.7874Y-4.2323
X5.7874Y-7.6181
T0
M30
