%TF.GenerationSoftware,KiCad,Pcbnew,(5.1.10)-1*%
%TF.CreationDate,2021-09-02T16:56:43-04:00*%
%TF.ProjectId,buoy-c,62756f79-2d63-42e6-9b69-6361645f7063,1.0*%
%TF.SameCoordinates,Original*%
%TF.FileFunction,Legend,Top*%
%TF.FilePolarity,Positive*%
%FSLAX46Y46*%
G04 Gerber Fmt 4.6, Leading zero omitted, Abs format (unit mm)*
G04 Created by KiCad (PCBNEW (5.1.10)-1) date 2021-09-02 16:56:43*
%MOMM*%
%LPD*%
G01*
G04 APERTURE LIST*
%ADD10C,0.300000*%
%ADD11C,0.250000*%
%ADD12C,0.375000*%
%TA.AperFunction,Profile*%
%ADD13C,0.050000*%
%TD*%
%ADD14C,0.120000*%
%ADD15C,0.100000*%
%ADD16C,0.200000*%
%ADD17C,0.150000*%
%ADD18C,0.254000*%
G04 APERTURE END LIST*
D10*
X148305662Y-185431771D02*
X149162805Y-185431771D01*
X148734234Y-186931771D02*
X148734234Y-185431771D01*
X149519948Y-185431771D02*
X150519948Y-186931771D01*
X150519948Y-185431771D02*
X149519948Y-186931771D01*
X147769948Y-189053200D02*
X148484234Y-189053200D01*
X147627091Y-189481771D02*
X148127091Y-187981771D01*
X148627091Y-189481771D01*
X149984234Y-189338914D02*
X149912805Y-189410342D01*
X149698520Y-189481771D01*
X149555662Y-189481771D01*
X149341377Y-189410342D01*
X149198520Y-189267485D01*
X149127091Y-189124628D01*
X149055662Y-188838914D01*
X149055662Y-188624628D01*
X149127091Y-188338914D01*
X149198520Y-188196057D01*
X149341377Y-188053200D01*
X149555662Y-187981771D01*
X149698520Y-187981771D01*
X149912805Y-188053200D01*
X149984234Y-188124628D01*
X150412805Y-187981771D02*
X151269948Y-187981771D01*
X150841377Y-189481771D02*
X150841377Y-187981771D01*
D11*
X143742090Y-118248180D02*
X143932566Y-118248180D01*
X144027804Y-118295800D01*
X144123042Y-118391038D01*
X144170661Y-118581514D01*
X144170661Y-118914847D01*
X144123042Y-119105323D01*
X144027804Y-119200561D01*
X143932566Y-119248180D01*
X143742090Y-119248180D01*
X143646852Y-119200561D01*
X143551614Y-119105323D01*
X143503995Y-118914847D01*
X143503995Y-118581514D01*
X143551614Y-118391038D01*
X143646852Y-118295800D01*
X143742090Y-118248180D01*
X144599233Y-119248180D02*
X144599233Y-118248180D01*
X145170661Y-119248180D01*
X145170661Y-118248180D01*
X146361138Y-118200561D02*
X145503995Y-119486276D01*
X146884947Y-118248180D02*
X147075423Y-118248180D01*
X147170661Y-118295800D01*
X147265900Y-118391038D01*
X147313519Y-118581514D01*
X147313519Y-118914847D01*
X147265900Y-119105323D01*
X147170661Y-119200561D01*
X147075423Y-119248180D01*
X146884947Y-119248180D01*
X146789709Y-119200561D01*
X146694471Y-119105323D01*
X146646852Y-118914847D01*
X146646852Y-118581514D01*
X146694471Y-118391038D01*
X146789709Y-118295800D01*
X146884947Y-118248180D01*
X148075423Y-118724371D02*
X147742090Y-118724371D01*
X147742090Y-119248180D02*
X147742090Y-118248180D01*
X148218280Y-118248180D01*
X148932566Y-118724371D02*
X148599233Y-118724371D01*
X148599233Y-119248180D02*
X148599233Y-118248180D01*
X149075423Y-118248180D01*
D10*
X130118871Y-118183434D02*
X130047442Y-118254862D01*
X129833157Y-118326291D01*
X129690300Y-118326291D01*
X129476014Y-118254862D01*
X129333157Y-118112005D01*
X129261728Y-117969148D01*
X129190300Y-117683434D01*
X129190300Y-117469148D01*
X129261728Y-117183434D01*
X129333157Y-117040577D01*
X129476014Y-116897720D01*
X129690300Y-116826291D01*
X129833157Y-116826291D01*
X130047442Y-116897720D01*
X130118871Y-116969148D01*
X130761728Y-118326291D02*
X130761728Y-116826291D01*
X130761728Y-117540577D02*
X131618871Y-117540577D01*
X131618871Y-118326291D02*
X131618871Y-116826291D01*
X133190300Y-118326291D02*
X132690300Y-117612005D01*
X132333157Y-118326291D02*
X132333157Y-116826291D01*
X132904585Y-116826291D01*
X133047442Y-116897720D01*
X133118871Y-116969148D01*
X133190300Y-117112005D01*
X133190300Y-117326291D01*
X133118871Y-117469148D01*
X133047442Y-117540577D01*
X132904585Y-117612005D01*
X132333157Y-117612005D01*
X134618871Y-116897720D02*
X134476014Y-116826291D01*
X134261728Y-116826291D01*
X134047442Y-116897720D01*
X133904585Y-117040577D01*
X133833157Y-117183434D01*
X133761728Y-117469148D01*
X133761728Y-117683434D01*
X133833157Y-117969148D01*
X133904585Y-118112005D01*
X134047442Y-118254862D01*
X134261728Y-118326291D01*
X134404585Y-118326291D01*
X134618871Y-118254862D01*
X134690300Y-118183434D01*
X134690300Y-117683434D01*
X134404585Y-117683434D01*
X129183522Y-120246222D02*
X129397808Y-120317651D01*
X129754951Y-120317651D01*
X129897808Y-120246222D01*
X129969237Y-120174794D01*
X130040665Y-120031937D01*
X130040665Y-119889080D01*
X129969237Y-119746222D01*
X129897808Y-119674794D01*
X129754951Y-119603365D01*
X129469237Y-119531937D01*
X129326380Y-119460508D01*
X129254951Y-119389080D01*
X129183522Y-119246222D01*
X129183522Y-119103365D01*
X129254951Y-118960508D01*
X129326380Y-118889080D01*
X129469237Y-118817651D01*
X129826380Y-118817651D01*
X130040665Y-118889080D01*
X130469237Y-118817651D02*
X131326380Y-118817651D01*
X130897808Y-120317651D02*
X130897808Y-118817651D01*
X131826380Y-120317651D02*
X131826380Y-118817651D01*
X132183522Y-118817651D01*
X132397808Y-118889080D01*
X132540665Y-119031937D01*
X132612094Y-119174794D01*
X132683522Y-119460508D01*
X132683522Y-119674794D01*
X132612094Y-119960508D01*
X132540665Y-120103365D01*
X132397808Y-120246222D01*
X132183522Y-120317651D01*
X131826380Y-120317651D01*
X133826380Y-119531937D02*
X134040665Y-119603365D01*
X134112094Y-119674794D01*
X134183522Y-119817651D01*
X134183522Y-120031937D01*
X134112094Y-120174794D01*
X134040665Y-120246222D01*
X133897808Y-120317651D01*
X133326380Y-120317651D01*
X133326380Y-118817651D01*
X133826380Y-118817651D01*
X133969237Y-118889080D01*
X134040665Y-118960508D01*
X134112094Y-119103365D01*
X134112094Y-119246222D01*
X134040665Y-119389080D01*
X133969237Y-119460508D01*
X133826380Y-119531937D01*
X133326380Y-119531937D01*
X135112094Y-119603365D02*
X135112094Y-120317651D01*
X134612094Y-118817651D02*
X135112094Y-119603365D01*
X135612094Y-118817651D01*
X102027017Y-129944251D02*
X101312731Y-129944251D01*
X101312731Y-128444251D01*
X102527017Y-129801394D02*
X102598445Y-129872822D01*
X102527017Y-129944251D01*
X102455588Y-129872822D01*
X102527017Y-129801394D01*
X102527017Y-129944251D01*
X103098445Y-128444251D02*
X103455588Y-129944251D01*
X103741302Y-128872822D01*
X104027017Y-129944251D01*
X104384160Y-128444251D01*
X104955588Y-129801394D02*
X105027017Y-129872822D01*
X104955588Y-129944251D01*
X104884160Y-129872822D01*
X104955588Y-129801394D01*
X104955588Y-129944251D01*
D12*
X101347617Y-126450742D02*
X102014283Y-126450742D01*
X102299998Y-127498361D02*
X101347617Y-127498361D01*
X101347617Y-125498361D01*
X102299998Y-125498361D01*
X103728569Y-125498361D02*
X103728569Y-126926933D01*
X103633331Y-127212647D01*
X103442855Y-127403123D01*
X103157140Y-127498361D01*
X102966664Y-127498361D01*
X104585712Y-126926933D02*
X105538093Y-126926933D01*
X104395236Y-127498361D02*
X105061902Y-125498361D01*
X105728569Y-127498361D01*
X107919045Y-127498361D02*
X107919045Y-125498361D01*
X108585712Y-126926933D01*
X109252379Y-125498361D01*
X109252379Y-127498361D01*
X111538093Y-126165028D02*
X112014283Y-127498361D01*
X112490474Y-126165028D01*
X114299998Y-127498361D02*
X113157140Y-127498361D01*
X113728569Y-127498361D02*
X113728569Y-125498361D01*
X113538093Y-125784076D01*
X113347617Y-125974552D01*
X113157140Y-126069790D01*
X115157140Y-127307885D02*
X115252379Y-127403123D01*
X115157140Y-127498361D01*
X115061902Y-127403123D01*
X115157140Y-127307885D01*
X115157140Y-127498361D01*
X116490474Y-125498361D02*
X116680950Y-125498361D01*
X116871426Y-125593600D01*
X116966664Y-125688838D01*
X117061902Y-125879314D01*
X117157140Y-126260266D01*
X117157140Y-126736457D01*
X117061902Y-127117409D01*
X116966664Y-127307885D01*
X116871426Y-127403123D01*
X116680950Y-127498361D01*
X116490474Y-127498361D01*
X116299998Y-127403123D01*
X116204760Y-127307885D01*
X116109521Y-127117409D01*
X116014283Y-126736457D01*
X116014283Y-126260266D01*
X116109521Y-125879314D01*
X116204760Y-125688838D01*
X116299998Y-125593600D01*
X116490474Y-125498361D01*
D13*
X151750000Y-194500000D02*
G75*
G02*
X148750000Y-197500000I-3000000J0D01*
G01*
X148750000Y-100000000D02*
G75*
G02*
X151750000Y-103000000I0J-3000000D01*
G01*
X103550000Y-197500000D02*
G75*
G02*
X100550000Y-194500000I0J3000000D01*
G01*
X100550000Y-103000000D02*
G75*
G02*
X103550000Y-100000000I3000000J0D01*
G01*
X103550000Y-197500000D02*
X148750000Y-197500000D01*
X103550000Y-100000000D02*
X148750000Y-100000000D01*
X151750000Y-103000000D02*
X151750000Y-194500000D01*
X100550000Y-103000000D02*
X100550000Y-194500000D01*
D14*
%TO.C,C14*%
X128568780Y-124699128D02*
X128568780Y-125221632D01*
X130038780Y-124699128D02*
X130038780Y-125221632D01*
D15*
%TO.C,J2*%
X102572360Y-172492660D02*
X102572360Y-166987660D01*
X102572360Y-166987660D02*
X106822360Y-166942660D01*
X113822360Y-166942660D02*
X118072360Y-166942660D01*
X118072360Y-166942660D02*
X118072360Y-171992660D01*
X102572360Y-182492660D02*
X102572360Y-188042660D01*
X102572360Y-188042660D02*
X106822360Y-188042660D01*
X113822360Y-188042660D02*
X118072360Y-188042660D01*
X118072360Y-188042660D02*
X118072360Y-182992660D01*
D14*
%TO.C,R33*%
X141910740Y-103566964D02*
X141910740Y-103112836D01*
X140440740Y-103566964D02*
X140440740Y-103112836D01*
%TO.C,R32*%
X149071660Y-113488736D02*
X149071660Y-113942864D01*
X150541660Y-113488736D02*
X150541660Y-113942864D01*
%TO.C,R34*%
X125275120Y-160622956D02*
X125275120Y-161077084D01*
X126745120Y-160622956D02*
X126745120Y-161077084D01*
%TO.C,D8*%
X126908440Y-167597800D02*
X126908440Y-164912800D01*
X124988440Y-167597800D02*
X126908440Y-167597800D01*
X124988440Y-164912800D02*
X124988440Y-167597800D01*
D16*
%TO.C,U1*%
X133185140Y-176014040D02*
X133185140Y-176014040D01*
X133185140Y-176114040D02*
X133185140Y-176114040D01*
X133185140Y-176014040D02*
X133185140Y-176014040D01*
D15*
X132185140Y-162214040D02*
X132185140Y-162214040D01*
X132185140Y-174314040D02*
X132185140Y-162214040D01*
X132185140Y-174314040D02*
X132185140Y-174314040D01*
X132185140Y-162214040D02*
X132185140Y-174314040D01*
X140685140Y-162114040D02*
X141685140Y-162114040D01*
X140685140Y-162114040D02*
X140685140Y-162114040D01*
X141685140Y-162114040D02*
X140685140Y-162114040D01*
X141685140Y-162114040D02*
X141685140Y-162114040D01*
X140685140Y-174314040D02*
X141685140Y-174314040D01*
X140685140Y-174314040D02*
X140685140Y-174314040D01*
X141685140Y-174314040D02*
X140685140Y-174314040D01*
X141685140Y-174314040D02*
X141685140Y-174314040D01*
X148185140Y-162214040D02*
X148185140Y-162214040D01*
X148185140Y-174214040D02*
X148185140Y-162214040D01*
X148185140Y-174214040D02*
X148185140Y-174214040D01*
X148185140Y-162214040D02*
X148185140Y-174214040D01*
D16*
X133185140Y-176114040D02*
G75*
G02*
X133185140Y-176014040I0J50000D01*
G01*
X133185140Y-176014040D02*
G75*
G02*
X133185140Y-176114040I0J-50000D01*
G01*
X133185140Y-176114040D02*
G75*
G02*
X133185140Y-176014040I0J50000D01*
G01*
%TO.C,L1*%
X128913280Y-115719520D02*
X128913280Y-115719520D01*
X129013280Y-115719520D02*
X129013280Y-115719520D01*
X128913280Y-115719520D02*
X128913280Y-115719520D01*
D15*
X131863280Y-113669520D02*
X134113280Y-113669520D01*
X131863280Y-113669520D02*
X131863280Y-113669520D01*
X134113280Y-113669520D02*
X131863280Y-113669520D01*
X134113280Y-113669520D02*
X134113280Y-113669520D01*
X134113280Y-102169520D02*
X134113280Y-102169520D01*
X134113280Y-113669520D02*
X134113280Y-102169520D01*
X134113280Y-113669520D02*
X134113280Y-113669520D01*
X134113280Y-102169520D02*
X134113280Y-113669520D01*
X134113280Y-102169520D02*
X131613280Y-102169520D01*
X134113280Y-102169520D02*
X134113280Y-102169520D01*
X131613280Y-102169520D02*
X134113280Y-102169520D01*
X131613280Y-102169520D02*
X131613280Y-102169520D01*
X126613280Y-102169520D02*
X124113280Y-102169520D01*
X126613280Y-102169520D02*
X126613280Y-102169520D01*
X124113280Y-102169520D02*
X126613280Y-102169520D01*
X124113280Y-102169520D02*
X124113280Y-102169520D01*
X124113280Y-113669520D02*
X124113280Y-113669520D01*
X124113280Y-102169520D02*
X124113280Y-113669520D01*
X124113280Y-102169520D02*
X124113280Y-102169520D01*
X124113280Y-113669520D02*
X124113280Y-102169520D01*
X124113280Y-113669520D02*
X126613280Y-113669520D01*
X124113280Y-113669520D02*
X124113280Y-113669520D01*
X126613280Y-113669520D02*
X124113280Y-113669520D01*
X126613280Y-113669520D02*
X126613280Y-113669520D01*
D16*
X129013280Y-115719520D02*
G75*
G02*
X128913280Y-115719520I-50000J0D01*
G01*
X128913280Y-115719520D02*
G75*
G02*
X129013280Y-115719520I50000J0D01*
G01*
X129013280Y-115719520D02*
G75*
G02*
X128913280Y-115719520I-50000J0D01*
G01*
%TO.C,L2*%
X140797600Y-123032700D02*
X140797600Y-133532700D01*
X150997600Y-133532700D02*
X150997600Y-123032700D01*
D15*
%TO.C,J1*%
X115214020Y-115570820D02*
X115214020Y-115570820D01*
X115114020Y-115570820D02*
X115114020Y-115570820D01*
X112464020Y-123145820D02*
X109714020Y-123145820D01*
X112714020Y-113495820D02*
X109714020Y-113495820D01*
X104714020Y-123145820D02*
X107114020Y-123145820D01*
X104714020Y-113495820D02*
X104714020Y-123145820D01*
X107114020Y-113495820D02*
X104714020Y-113495820D01*
X115214020Y-115570820D02*
G75*
G02*
X115114020Y-115570820I-50000J0D01*
G01*
X115114020Y-115570820D02*
G75*
G02*
X115214020Y-115570820I50000J0D01*
G01*
D16*
%TO.C,U4*%
X143981600Y-137430300D02*
X143981600Y-137430300D01*
X144181600Y-137430300D02*
X144181600Y-137430300D01*
D15*
X151531600Y-156530300D02*
X145281600Y-156530300D01*
X151531600Y-138530300D02*
X151531600Y-156530300D01*
X145281600Y-138530300D02*
X151531600Y-138530300D01*
X126031600Y-156530300D02*
X126531600Y-156530300D01*
X126031600Y-154530300D02*
X126031600Y-156530300D01*
X126031600Y-138530300D02*
X126031600Y-140530300D01*
X126531600Y-138530300D02*
X126031600Y-138530300D01*
D16*
X143981600Y-137430300D02*
G75*
G03*
X144181600Y-137430300I100000J0D01*
G01*
X144181600Y-137430300D02*
G75*
G03*
X143981600Y-137430300I-100000J0D01*
G01*
D14*
%TO.C,C1*%
X109551800Y-103924468D02*
X109551800Y-104446972D01*
X111021800Y-103924468D02*
X111021800Y-104446972D01*
%TO.C,C2*%
X118754220Y-169629188D02*
X118754220Y-170151692D01*
X120224220Y-169629188D02*
X120224220Y-170151692D01*
%TO.C,C3*%
X121177952Y-115322680D02*
X120655448Y-115322680D01*
X121177952Y-116792680D02*
X120655448Y-116792680D01*
%TO.C,C4*%
X136000820Y-105359568D02*
X136000820Y-105882072D01*
X137470820Y-105359568D02*
X137470820Y-105882072D01*
%TO.C,C5*%
X139665380Y-103091348D02*
X139665380Y-103613852D01*
X138195380Y-103091348D02*
X138195380Y-103613852D01*
%TO.C,C6*%
X142865780Y-117079128D02*
X142865780Y-117601632D01*
X141395780Y-117079128D02*
X141395780Y-117601632D01*
%TO.C,C7*%
X137557840Y-122082928D02*
X137557840Y-122605432D01*
X139027840Y-122082928D02*
X139027840Y-122605432D01*
%TO.C,C8*%
X143872120Y-113680188D02*
X143872120Y-115102692D01*
X146592120Y-113680188D02*
X146592120Y-115102692D01*
%TO.C,C9*%
X139999352Y-195852720D02*
X139476848Y-195852720D01*
X139999352Y-194382720D02*
X139476848Y-194382720D01*
%TO.C,C11*%
X140032372Y-192101800D02*
X139509868Y-192101800D01*
X140032372Y-193571800D02*
X139509868Y-193571800D01*
%TO.C,C13*%
X132324780Y-124681348D02*
X132324780Y-125203852D01*
X130854780Y-124681348D02*
X130854780Y-125203852D01*
%TO.C,C16*%
X115630020Y-193604248D02*
X115630020Y-194126752D01*
X117100020Y-193604248D02*
X117100020Y-194126752D01*
%TO.C,C17*%
X125850320Y-134117448D02*
X125850320Y-134639952D01*
X124380320Y-134117448D02*
X124380320Y-134639952D01*
%TO.C,C18*%
X124123120Y-194876788D02*
X124123120Y-195399292D01*
X122653120Y-194876788D02*
X122653120Y-195399292D01*
%TO.C,D1*%
X125528360Y-118175920D02*
X128213360Y-118175920D01*
X125528360Y-116255920D02*
X125528360Y-118175920D01*
X128213360Y-116255920D02*
X125528360Y-116255920D01*
%TO.C,D2*%
X128215900Y-118407300D02*
X125530900Y-118407300D01*
X125530900Y-118407300D02*
X125530900Y-120327300D01*
X125530900Y-120327300D02*
X128215900Y-120327300D01*
%TO.C,D4*%
X151079080Y-184399900D02*
X151079080Y-181714900D01*
X149159080Y-184399900D02*
X151079080Y-184399900D01*
X149159080Y-181714900D02*
X149159080Y-184399900D01*
%TO.C,D5*%
X143587760Y-121721760D02*
X146272760Y-121721760D01*
X143587760Y-119801760D02*
X143587760Y-121721760D01*
X146272760Y-119801760D02*
X143587760Y-119801760D01*
%TO.C,Q1*%
X109039780Y-139303220D02*
X109039780Y-140763220D01*
X105879780Y-139303220D02*
X105879780Y-141463220D01*
X105879780Y-139303220D02*
X106809780Y-139303220D01*
X109039780Y-139303220D02*
X108109780Y-139303220D01*
%TO.C,Q2*%
X128917160Y-188853960D02*
X130377160Y-188853960D01*
X128917160Y-192013960D02*
X131077160Y-192013960D01*
X128917160Y-192013960D02*
X128917160Y-191083960D01*
X128917160Y-188853960D02*
X128917160Y-189783960D01*
%TO.C,Q3*%
X128914620Y-192544580D02*
X128914620Y-193474580D01*
X128914620Y-195704580D02*
X128914620Y-194774580D01*
X128914620Y-195704580D02*
X131074620Y-195704580D01*
X128914620Y-192544580D02*
X130374620Y-192544580D01*
%TO.C,R1*%
X115825536Y-109313040D02*
X116279664Y-109313040D01*
X115825536Y-110783040D02*
X116279664Y-110783040D01*
%TO.C,R2*%
X113269700Y-108147116D02*
X113269700Y-108601244D01*
X111799700Y-108147116D02*
X111799700Y-108601244D01*
%TO.C,R3*%
X120707416Y-126703760D02*
X121161544Y-126703760D01*
X120707416Y-125233760D02*
X121161544Y-125233760D01*
%TO.C,R5*%
X124433000Y-116760256D02*
X124433000Y-117214384D01*
X122963000Y-116760256D02*
X122963000Y-117214384D01*
%TO.C,R7*%
X138223320Y-107926136D02*
X138223320Y-108380264D01*
X139693320Y-107926136D02*
X139693320Y-108380264D01*
%TO.C,R8*%
X140257200Y-113567476D02*
X140257200Y-114021604D01*
X138787200Y-113567476D02*
X138787200Y-114021604D01*
%TO.C,R9*%
X138792280Y-117138716D02*
X138792280Y-117592844D01*
X140262280Y-117138716D02*
X140262280Y-117592844D01*
%TO.C,R10*%
X118596676Y-119099000D02*
X119050804Y-119099000D01*
X118596676Y-117629000D02*
X119050804Y-117629000D01*
%TO.C,R11*%
X141367840Y-113603036D02*
X141367840Y-114057164D01*
X142837840Y-113603036D02*
X142837840Y-114057164D01*
%TO.C,R12*%
X131233240Y-180755024D02*
X131233240Y-180300896D01*
X132703240Y-180755024D02*
X132703240Y-180300896D01*
%TO.C,R13*%
X130079420Y-182757184D02*
X130079420Y-182303056D01*
X128609420Y-182757184D02*
X128609420Y-182303056D01*
%TO.C,R14*%
X140713096Y-189874220D02*
X141167224Y-189874220D01*
X140713096Y-191344220D02*
X141167224Y-191344220D01*
%TO.C,R15*%
X107184456Y-144176420D02*
X107638584Y-144176420D01*
X107184456Y-142706420D02*
X107638584Y-142706420D01*
%TO.C,R16*%
X136625596Y-158157240D02*
X137079724Y-158157240D01*
X136625596Y-159627240D02*
X137079724Y-159627240D01*
%TO.C,R17*%
X104941700Y-135424176D02*
X104941700Y-135878304D01*
X106411700Y-135424176D02*
X106411700Y-135878304D01*
%TO.C,R18*%
X142623904Y-158149620D02*
X142169776Y-158149620D01*
X142623904Y-159619620D02*
X142169776Y-159619620D01*
%TO.C,R19*%
X137682300Y-130066784D02*
X137682300Y-129612656D01*
X139152300Y-130066784D02*
X139152300Y-129612656D01*
%TO.C,R20*%
X137710240Y-126457444D02*
X137710240Y-126003316D01*
X139180240Y-126457444D02*
X139180240Y-126003316D01*
%TO.C,R21*%
X136859952Y-135688400D02*
X136337448Y-135688400D01*
X136859952Y-137158400D02*
X136337448Y-137158400D01*
%TO.C,R22*%
X133118492Y-137125380D02*
X132595988Y-137125380D01*
X133118492Y-135655380D02*
X132595988Y-135655380D01*
%TO.C,R23*%
X133361696Y-190648920D02*
X133815824Y-190648920D01*
X133361696Y-192118920D02*
X133815824Y-192118920D01*
%TO.C,R24*%
X133350896Y-194377640D02*
X133805024Y-194377640D01*
X133350896Y-195847640D02*
X133805024Y-195847640D01*
%TO.C,R26*%
X126788240Y-132733784D02*
X126788240Y-132279656D01*
X128258240Y-132733784D02*
X128258240Y-132279656D01*
%TO.C,R27*%
X126835264Y-128190320D02*
X126381136Y-128190320D01*
X126835264Y-129660320D02*
X126381136Y-129660320D01*
%TO.C,R28*%
X120605220Y-193995404D02*
X120605220Y-193541276D01*
X119135220Y-193995404D02*
X119135220Y-193541276D01*
%TO.C,R29*%
X125924640Y-195349864D02*
X125924640Y-194895736D01*
X127394640Y-195349864D02*
X127394640Y-194895736D01*
%TO.C,R30*%
X149373920Y-178774356D02*
X149373920Y-179228484D01*
X150843920Y-178774356D02*
X150843920Y-179228484D01*
%TO.C,R31*%
X149380944Y-119991200D02*
X148926816Y-119991200D01*
X149380944Y-121461200D02*
X148926816Y-121461200D01*
%TO.C,U2*%
X118915180Y-101668860D02*
X115265180Y-101668860D01*
X118915180Y-101668860D02*
X121115180Y-101668860D01*
X118915180Y-108688860D02*
X116715180Y-108688860D01*
X118915180Y-108688860D02*
X121115180Y-108688860D01*
D16*
%TO.C,U3*%
X117086100Y-119739180D02*
X118611100Y-119739180D01*
D14*
%TO.C,U5*%
X145974940Y-187882500D02*
X147264940Y-187882500D01*
X145974940Y-188157500D02*
X145974940Y-187882500D01*
X143664940Y-188157500D02*
X145974940Y-188157500D01*
X141354940Y-188157500D02*
X141354940Y-187882500D01*
X143664940Y-188157500D02*
X141354940Y-188157500D01*
X145974940Y-178237500D02*
X145974940Y-178512500D01*
X143664940Y-178237500D02*
X145974940Y-178237500D01*
X141354940Y-178237500D02*
X141354940Y-178512500D01*
X143664940Y-178237500D02*
X141354940Y-178237500D01*
D17*
%TO.C,U6*%
X136471000Y-133909320D02*
X130846000Y-133909320D01*
X135346000Y-128359320D02*
X130846000Y-128359320D01*
D14*
%TO.C,U7*%
X104406240Y-163479420D02*
X104406240Y-164379420D01*
X104056240Y-163479420D02*
X104406240Y-163479420D01*
X120256240Y-147279420D02*
X119856240Y-147279420D01*
X120256240Y-163479420D02*
X120256240Y-147279420D01*
X119856240Y-163479420D02*
X120256240Y-163479420D01*
X104056240Y-147279420D02*
X104456240Y-147279420D01*
X104056240Y-163479420D02*
X104056240Y-147279420D01*
%TD*%
%TO.C,C14*%
D17*
X128611694Y-123056614D02*
X128573599Y-123094709D01*
X128459313Y-123132804D01*
X128383122Y-123132804D01*
X128268837Y-123094709D01*
X128192646Y-123018519D01*
X128154551Y-122942328D01*
X128116456Y-122789947D01*
X128116456Y-122675661D01*
X128154551Y-122523280D01*
X128192646Y-122447090D01*
X128268837Y-122370900D01*
X128383122Y-122332804D01*
X128459313Y-122332804D01*
X128573599Y-122370900D01*
X128611694Y-122408995D01*
X129373599Y-123132804D02*
X128916456Y-123132804D01*
X129145027Y-123132804D02*
X129145027Y-122332804D01*
X129068837Y-122447090D01*
X128992646Y-122523280D01*
X128916456Y-122561376D01*
X130059313Y-122599471D02*
X130059313Y-123132804D01*
X129868837Y-122294709D02*
X129678360Y-122866138D01*
X130173599Y-122866138D01*
%TO.C,J2*%
X100685633Y-170884904D02*
X100685633Y-171456333D01*
X100647538Y-171570619D01*
X100571347Y-171646809D01*
X100457061Y-171684904D01*
X100380871Y-171684904D01*
X101028490Y-170961095D02*
X101066585Y-170923000D01*
X101142776Y-170884904D01*
X101333252Y-170884904D01*
X101409442Y-170923000D01*
X101447538Y-170961095D01*
X101485633Y-171037285D01*
X101485633Y-171113476D01*
X101447538Y-171227761D01*
X100990395Y-171684904D01*
X101485633Y-171684904D01*
%TO.C,R33*%
X140735114Y-101345244D02*
X140468447Y-100964292D01*
X140277971Y-101345244D02*
X140277971Y-100545244D01*
X140582733Y-100545244D01*
X140658923Y-100583340D01*
X140697019Y-100621435D01*
X140735114Y-100697625D01*
X140735114Y-100811911D01*
X140697019Y-100888101D01*
X140658923Y-100926197D01*
X140582733Y-100964292D01*
X140277971Y-100964292D01*
X141001780Y-100545244D02*
X141497019Y-100545244D01*
X141230352Y-100850006D01*
X141344638Y-100850006D01*
X141420828Y-100888101D01*
X141458923Y-100926197D01*
X141497019Y-101002387D01*
X141497019Y-101192863D01*
X141458923Y-101269054D01*
X141420828Y-101307149D01*
X141344638Y-101345244D01*
X141116066Y-101345244D01*
X141039876Y-101307149D01*
X141001780Y-101269054D01*
X141763685Y-100545244D02*
X142258923Y-100545244D01*
X141992257Y-100850006D01*
X142106542Y-100850006D01*
X142182733Y-100888101D01*
X142220828Y-100926197D01*
X142258923Y-101002387D01*
X142258923Y-101192863D01*
X142220828Y-101269054D01*
X142182733Y-101307149D01*
X142106542Y-101345244D01*
X141877971Y-101345244D01*
X141801780Y-101307149D01*
X141763685Y-101269054D01*
%TO.C,R32*%
X149266974Y-116528804D02*
X149000307Y-116147852D01*
X148809831Y-116528804D02*
X148809831Y-115728804D01*
X149114593Y-115728804D01*
X149190783Y-115766900D01*
X149228879Y-115804995D01*
X149266974Y-115881185D01*
X149266974Y-115995471D01*
X149228879Y-116071661D01*
X149190783Y-116109757D01*
X149114593Y-116147852D01*
X148809831Y-116147852D01*
X149533640Y-115728804D02*
X150028879Y-115728804D01*
X149762212Y-116033566D01*
X149876498Y-116033566D01*
X149952688Y-116071661D01*
X149990783Y-116109757D01*
X150028879Y-116185947D01*
X150028879Y-116376423D01*
X149990783Y-116452614D01*
X149952688Y-116490709D01*
X149876498Y-116528804D01*
X149647926Y-116528804D01*
X149571736Y-116490709D01*
X149533640Y-116452614D01*
X150333640Y-115804995D02*
X150371736Y-115766900D01*
X150447926Y-115728804D01*
X150638402Y-115728804D01*
X150714593Y-115766900D01*
X150752688Y-115804995D01*
X150790783Y-115881185D01*
X150790783Y-115957376D01*
X150752688Y-116071661D01*
X150295545Y-116528804D01*
X150790783Y-116528804D01*
%TO.C,R34*%
X125520514Y-158936644D02*
X125253847Y-158555692D01*
X125063371Y-158936644D02*
X125063371Y-158136644D01*
X125368133Y-158136644D01*
X125444323Y-158174740D01*
X125482419Y-158212835D01*
X125520514Y-158289025D01*
X125520514Y-158403311D01*
X125482419Y-158479501D01*
X125444323Y-158517597D01*
X125368133Y-158555692D01*
X125063371Y-158555692D01*
X125787180Y-158136644D02*
X126282419Y-158136644D01*
X126015752Y-158441406D01*
X126130038Y-158441406D01*
X126206228Y-158479501D01*
X126244323Y-158517597D01*
X126282419Y-158593787D01*
X126282419Y-158784263D01*
X126244323Y-158860454D01*
X126206228Y-158898549D01*
X126130038Y-158936644D01*
X125901466Y-158936644D01*
X125825276Y-158898549D01*
X125787180Y-158860454D01*
X126968133Y-158403311D02*
X126968133Y-158936644D01*
X126777657Y-158098549D02*
X126587180Y-158669978D01*
X127082419Y-158669978D01*
%TO.C,D8*%
X125289383Y-163823604D02*
X125289383Y-163023604D01*
X125479860Y-163023604D01*
X125594145Y-163061700D01*
X125670336Y-163137890D01*
X125708431Y-163214080D01*
X125746526Y-163366461D01*
X125746526Y-163480747D01*
X125708431Y-163633128D01*
X125670336Y-163709319D01*
X125594145Y-163785509D01*
X125479860Y-163823604D01*
X125289383Y-163823604D01*
X126203669Y-163366461D02*
X126127479Y-163328366D01*
X126089383Y-163290271D01*
X126051288Y-163214080D01*
X126051288Y-163175985D01*
X126089383Y-163099795D01*
X126127479Y-163061700D01*
X126203669Y-163023604D01*
X126356050Y-163023604D01*
X126432240Y-163061700D01*
X126470336Y-163099795D01*
X126508431Y-163175985D01*
X126508431Y-163214080D01*
X126470336Y-163290271D01*
X126432240Y-163328366D01*
X126356050Y-163366461D01*
X126203669Y-163366461D01*
X126127479Y-163404557D01*
X126089383Y-163442652D01*
X126051288Y-163518842D01*
X126051288Y-163671223D01*
X126089383Y-163747414D01*
X126127479Y-163785509D01*
X126203669Y-163823604D01*
X126356050Y-163823604D01*
X126432240Y-163785509D01*
X126470336Y-163747414D01*
X126508431Y-163671223D01*
X126508431Y-163518842D01*
X126470336Y-163442652D01*
X126432240Y-163404557D01*
X126356050Y-163366461D01*
%TO.C,U1*%
D18*
X139489663Y-169631659D02*
X140517759Y-169631659D01*
X140638711Y-169571182D01*
X140699187Y-169510706D01*
X140759663Y-169389754D01*
X140759663Y-169147849D01*
X140699187Y-169026897D01*
X140638711Y-168966420D01*
X140517759Y-168905944D01*
X139489663Y-168905944D01*
X140759663Y-167635944D02*
X140759663Y-168361659D01*
X140759663Y-167998801D02*
X139489663Y-167998801D01*
X139671092Y-168119754D01*
X139792044Y-168240706D01*
X139852520Y-168361659D01*
%TO.C,L1*%
X129776703Y-108390266D02*
X129776703Y-108995028D01*
X128506703Y-108995028D01*
X129776703Y-107301695D02*
X129776703Y-108027409D01*
X129776703Y-107664552D02*
X128506703Y-107664552D01*
X128688132Y-107785504D01*
X128809084Y-107906457D01*
X128869560Y-108027409D01*
%TO.C,L2*%
D17*
X139038346Y-133859224D02*
X138657394Y-133859224D01*
X138657394Y-133059224D01*
X139266918Y-133135415D02*
X139305013Y-133097320D01*
X139381203Y-133059224D01*
X139571680Y-133059224D01*
X139647870Y-133097320D01*
X139685965Y-133135415D01*
X139724060Y-133211605D01*
X139724060Y-133287796D01*
X139685965Y-133402081D01*
X139228822Y-133859224D01*
X139724060Y-133859224D01*
%TO.C,J1*%
D16*
X111846393Y-110722464D02*
X111846393Y-111293893D01*
X111808298Y-111408179D01*
X111732107Y-111484369D01*
X111617821Y-111522464D01*
X111541631Y-111522464D01*
X112646393Y-111522464D02*
X112189250Y-111522464D01*
X112417821Y-111522464D02*
X112417821Y-110722464D01*
X112341631Y-110836750D01*
X112265440Y-110912940D01*
X112189250Y-110951036D01*
%TO.C,U4*%
D17*
X149961676Y-135609384D02*
X149961676Y-136257003D01*
X149999771Y-136333194D01*
X150037866Y-136371289D01*
X150114057Y-136409384D01*
X150266438Y-136409384D01*
X150342628Y-136371289D01*
X150380723Y-136333194D01*
X150418819Y-136257003D01*
X150418819Y-135609384D01*
X151142628Y-135876051D02*
X151142628Y-136409384D01*
X150952152Y-135571289D02*
X150761676Y-136142718D01*
X151256914Y-136142718D01*
%TO.C,C1*%
X110224586Y-102124434D02*
X110186491Y-102162529D01*
X110072205Y-102200624D01*
X109996015Y-102200624D01*
X109881729Y-102162529D01*
X109805539Y-102086339D01*
X109767443Y-102010148D01*
X109729348Y-101857767D01*
X109729348Y-101743481D01*
X109767443Y-101591100D01*
X109805539Y-101514910D01*
X109881729Y-101438720D01*
X109996015Y-101400624D01*
X110072205Y-101400624D01*
X110186491Y-101438720D01*
X110224586Y-101476815D01*
X110986491Y-102200624D02*
X110529348Y-102200624D01*
X110757920Y-102200624D02*
X110757920Y-101400624D01*
X110681729Y-101514910D01*
X110605539Y-101591100D01*
X110529348Y-101629196D01*
%TO.C,C2*%
X119310166Y-167719974D02*
X119272071Y-167758069D01*
X119157785Y-167796164D01*
X119081595Y-167796164D01*
X118967309Y-167758069D01*
X118891119Y-167681879D01*
X118853023Y-167605688D01*
X118814928Y-167453307D01*
X118814928Y-167339021D01*
X118853023Y-167186640D01*
X118891119Y-167110450D01*
X118967309Y-167034260D01*
X119081595Y-166996164D01*
X119157785Y-166996164D01*
X119272071Y-167034260D01*
X119310166Y-167072355D01*
X119614928Y-167072355D02*
X119653023Y-167034260D01*
X119729214Y-166996164D01*
X119919690Y-166996164D01*
X119995880Y-167034260D01*
X120033976Y-167072355D01*
X120072071Y-167148545D01*
X120072071Y-167224736D01*
X120033976Y-167339021D01*
X119576833Y-167796164D01*
X120072071Y-167796164D01*
%TO.C,C3*%
X119886746Y-114705094D02*
X119848651Y-114743189D01*
X119734365Y-114781284D01*
X119658175Y-114781284D01*
X119543889Y-114743189D01*
X119467699Y-114666999D01*
X119429603Y-114590808D01*
X119391508Y-114438427D01*
X119391508Y-114324141D01*
X119429603Y-114171760D01*
X119467699Y-114095570D01*
X119543889Y-114019380D01*
X119658175Y-113981284D01*
X119734365Y-113981284D01*
X119848651Y-114019380D01*
X119886746Y-114057475D01*
X120153413Y-113981284D02*
X120648651Y-113981284D01*
X120381984Y-114286046D01*
X120496270Y-114286046D01*
X120572460Y-114324141D01*
X120610556Y-114362237D01*
X120648651Y-114438427D01*
X120648651Y-114628903D01*
X120610556Y-114705094D01*
X120572460Y-114743189D01*
X120496270Y-114781284D01*
X120267699Y-114781284D01*
X120191508Y-114743189D01*
X120153413Y-114705094D01*
%TO.C,C4*%
X136577086Y-103602754D02*
X136538991Y-103640849D01*
X136424705Y-103678944D01*
X136348515Y-103678944D01*
X136234229Y-103640849D01*
X136158039Y-103564659D01*
X136119943Y-103488468D01*
X136081848Y-103336087D01*
X136081848Y-103221801D01*
X136119943Y-103069420D01*
X136158039Y-102993230D01*
X136234229Y-102917040D01*
X136348515Y-102878944D01*
X136424705Y-102878944D01*
X136538991Y-102917040D01*
X136577086Y-102955135D01*
X137262800Y-103145611D02*
X137262800Y-103678944D01*
X137072324Y-102840849D02*
X136881848Y-103412278D01*
X137377086Y-103412278D01*
%TO.C,C5*%
X138697986Y-101359934D02*
X138659891Y-101398029D01*
X138545605Y-101436124D01*
X138469415Y-101436124D01*
X138355129Y-101398029D01*
X138278939Y-101321839D01*
X138240843Y-101245648D01*
X138202748Y-101093267D01*
X138202748Y-100978981D01*
X138240843Y-100826600D01*
X138278939Y-100750410D01*
X138355129Y-100674220D01*
X138469415Y-100636124D01*
X138545605Y-100636124D01*
X138659891Y-100674220D01*
X138697986Y-100712315D01*
X139421796Y-100636124D02*
X139040843Y-100636124D01*
X139002748Y-101017077D01*
X139040843Y-100978981D01*
X139117034Y-100940886D01*
X139307510Y-100940886D01*
X139383700Y-100978981D01*
X139421796Y-101017077D01*
X139459891Y-101093267D01*
X139459891Y-101283743D01*
X139421796Y-101359934D01*
X139383700Y-101398029D01*
X139307510Y-101436124D01*
X139117034Y-101436124D01*
X139040843Y-101398029D01*
X139002748Y-101359934D01*
%TO.C,C6*%
X141860286Y-120120374D02*
X141822191Y-120158469D01*
X141707905Y-120196564D01*
X141631715Y-120196564D01*
X141517429Y-120158469D01*
X141441239Y-120082279D01*
X141403143Y-120006088D01*
X141365048Y-119853707D01*
X141365048Y-119739421D01*
X141403143Y-119587040D01*
X141441239Y-119510850D01*
X141517429Y-119434660D01*
X141631715Y-119396564D01*
X141707905Y-119396564D01*
X141822191Y-119434660D01*
X141860286Y-119472755D01*
X142546000Y-119396564D02*
X142393620Y-119396564D01*
X142317429Y-119434660D01*
X142279334Y-119472755D01*
X142203143Y-119587040D01*
X142165048Y-119739421D01*
X142165048Y-120044183D01*
X142203143Y-120120374D01*
X142241239Y-120158469D01*
X142317429Y-120196564D01*
X142469810Y-120196564D01*
X142546000Y-120158469D01*
X142584096Y-120120374D01*
X142622191Y-120044183D01*
X142622191Y-119853707D01*
X142584096Y-119777517D01*
X142546000Y-119739421D01*
X142469810Y-119701326D01*
X142317429Y-119701326D01*
X142241239Y-119739421D01*
X142203143Y-119777517D01*
X142165048Y-119853707D01*
%TO.C,C7*%
X140258554Y-122477513D02*
X140296649Y-122515608D01*
X140334744Y-122629894D01*
X140334744Y-122706084D01*
X140296649Y-122820370D01*
X140220459Y-122896560D01*
X140144268Y-122934656D01*
X139991887Y-122972751D01*
X139877601Y-122972751D01*
X139725220Y-122934656D01*
X139649030Y-122896560D01*
X139572840Y-122820370D01*
X139534744Y-122706084D01*
X139534744Y-122629894D01*
X139572840Y-122515608D01*
X139610935Y-122477513D01*
X139534744Y-122210846D02*
X139534744Y-121677513D01*
X140334744Y-122020370D01*
%TO.C,C8*%
X144192006Y-111794254D02*
X144153911Y-111832349D01*
X144039625Y-111870444D01*
X143963435Y-111870444D01*
X143849149Y-111832349D01*
X143772959Y-111756159D01*
X143734863Y-111679968D01*
X143696768Y-111527587D01*
X143696768Y-111413301D01*
X143734863Y-111260920D01*
X143772959Y-111184730D01*
X143849149Y-111108540D01*
X143963435Y-111070444D01*
X144039625Y-111070444D01*
X144153911Y-111108540D01*
X144192006Y-111146635D01*
X144649149Y-111413301D02*
X144572959Y-111375206D01*
X144534863Y-111337111D01*
X144496768Y-111260920D01*
X144496768Y-111222825D01*
X144534863Y-111146635D01*
X144572959Y-111108540D01*
X144649149Y-111070444D01*
X144801530Y-111070444D01*
X144877720Y-111108540D01*
X144915816Y-111146635D01*
X144953911Y-111222825D01*
X144953911Y-111260920D01*
X144915816Y-111337111D01*
X144877720Y-111375206D01*
X144801530Y-111413301D01*
X144649149Y-111413301D01*
X144572959Y-111451397D01*
X144534863Y-111489492D01*
X144496768Y-111565682D01*
X144496768Y-111718063D01*
X144534863Y-111794254D01*
X144572959Y-111832349D01*
X144649149Y-111870444D01*
X144801530Y-111870444D01*
X144877720Y-111832349D01*
X144915816Y-111794254D01*
X144953911Y-111718063D01*
X144953911Y-111565682D01*
X144915816Y-111489492D01*
X144877720Y-111451397D01*
X144801530Y-111413301D01*
%TO.C,C9*%
X142477454Y-195314553D02*
X142515549Y-195352648D01*
X142553644Y-195466934D01*
X142553644Y-195543124D01*
X142515549Y-195657410D01*
X142439359Y-195733600D01*
X142363168Y-195771696D01*
X142210787Y-195809791D01*
X142096501Y-195809791D01*
X141944120Y-195771696D01*
X141867930Y-195733600D01*
X141791740Y-195657410D01*
X141753644Y-195543124D01*
X141753644Y-195466934D01*
X141791740Y-195352648D01*
X141829835Y-195314553D01*
X142553644Y-194933600D02*
X142553644Y-194781220D01*
X142515549Y-194705029D01*
X142477454Y-194666934D01*
X142363168Y-194590743D01*
X142210787Y-194552648D01*
X141906025Y-194552648D01*
X141829835Y-194590743D01*
X141791740Y-194628839D01*
X141753644Y-194705029D01*
X141753644Y-194857410D01*
X141791740Y-194933600D01*
X141829835Y-194971696D01*
X141906025Y-195009791D01*
X142096501Y-195009791D01*
X142172692Y-194971696D01*
X142210787Y-194933600D01*
X142248882Y-194857410D01*
X142248882Y-194705029D01*
X142210787Y-194628839D01*
X142172692Y-194590743D01*
X142096501Y-194552648D01*
%TO.C,C11*%
X142698742Y-193224085D02*
X142746361Y-193262180D01*
X142793980Y-193376466D01*
X142793980Y-193452657D01*
X142746361Y-193566942D01*
X142651123Y-193643133D01*
X142555885Y-193681228D01*
X142365409Y-193719323D01*
X142222552Y-193719323D01*
X142032076Y-193681228D01*
X141936838Y-193643133D01*
X141841600Y-193566942D01*
X141793980Y-193452657D01*
X141793980Y-193376466D01*
X141841600Y-193262180D01*
X141889219Y-193224085D01*
X142793980Y-192462180D02*
X142793980Y-192919323D01*
X142793980Y-192690752D02*
X141793980Y-192690752D01*
X141936838Y-192766942D01*
X142032076Y-192843133D01*
X142079695Y-192919323D01*
X142793980Y-191700276D02*
X142793980Y-192157419D01*
X142793980Y-191928847D02*
X141793980Y-191928847D01*
X141936838Y-192005038D01*
X142032076Y-192081228D01*
X142079695Y-192157419D01*
%TO.C,C13*%
X131192334Y-122891514D02*
X131154239Y-122929609D01*
X131039953Y-122967704D01*
X130963762Y-122967704D01*
X130849477Y-122929609D01*
X130773286Y-122853419D01*
X130735191Y-122777228D01*
X130697096Y-122624847D01*
X130697096Y-122510561D01*
X130735191Y-122358180D01*
X130773286Y-122281990D01*
X130849477Y-122205800D01*
X130963762Y-122167704D01*
X131039953Y-122167704D01*
X131154239Y-122205800D01*
X131192334Y-122243895D01*
X131954239Y-122967704D02*
X131497096Y-122967704D01*
X131725667Y-122967704D02*
X131725667Y-122167704D01*
X131649477Y-122281990D01*
X131573286Y-122358180D01*
X131497096Y-122396276D01*
X132220905Y-122167704D02*
X132716143Y-122167704D01*
X132449477Y-122472466D01*
X132563762Y-122472466D01*
X132639953Y-122510561D01*
X132678048Y-122548657D01*
X132716143Y-122624847D01*
X132716143Y-122815323D01*
X132678048Y-122891514D01*
X132639953Y-122929609D01*
X132563762Y-122967704D01*
X132335191Y-122967704D01*
X132259000Y-122929609D01*
X132220905Y-122891514D01*
%TO.C,C16*%
X115855814Y-191814414D02*
X115817719Y-191852509D01*
X115703433Y-191890604D01*
X115627242Y-191890604D01*
X115512957Y-191852509D01*
X115436766Y-191776319D01*
X115398671Y-191700128D01*
X115360576Y-191547747D01*
X115360576Y-191433461D01*
X115398671Y-191281080D01*
X115436766Y-191204890D01*
X115512957Y-191128700D01*
X115627242Y-191090604D01*
X115703433Y-191090604D01*
X115817719Y-191128700D01*
X115855814Y-191166795D01*
X116617719Y-191890604D02*
X116160576Y-191890604D01*
X116389147Y-191890604D02*
X116389147Y-191090604D01*
X116312957Y-191204890D01*
X116236766Y-191281080D01*
X116160576Y-191319176D01*
X117303433Y-191090604D02*
X117151052Y-191090604D01*
X117074861Y-191128700D01*
X117036766Y-191166795D01*
X116960576Y-191281080D01*
X116922480Y-191433461D01*
X116922480Y-191738223D01*
X116960576Y-191814414D01*
X116998671Y-191852509D01*
X117074861Y-191890604D01*
X117227242Y-191890604D01*
X117303433Y-191852509D01*
X117341528Y-191814414D01*
X117379623Y-191738223D01*
X117379623Y-191547747D01*
X117341528Y-191471557D01*
X117303433Y-191433461D01*
X117227242Y-191395366D01*
X117074861Y-191395366D01*
X116998671Y-191433461D01*
X116960576Y-191471557D01*
X116922480Y-191547747D01*
%TO.C,C17*%
X124410534Y-132218394D02*
X124372439Y-132256489D01*
X124258153Y-132294584D01*
X124181962Y-132294584D01*
X124067677Y-132256489D01*
X123991486Y-132180299D01*
X123953391Y-132104108D01*
X123915296Y-131951727D01*
X123915296Y-131837441D01*
X123953391Y-131685060D01*
X123991486Y-131608870D01*
X124067677Y-131532680D01*
X124181962Y-131494584D01*
X124258153Y-131494584D01*
X124372439Y-131532680D01*
X124410534Y-131570775D01*
X125172439Y-132294584D02*
X124715296Y-132294584D01*
X124943867Y-132294584D02*
X124943867Y-131494584D01*
X124867677Y-131608870D01*
X124791486Y-131685060D01*
X124715296Y-131723156D01*
X125439105Y-131494584D02*
X125972439Y-131494584D01*
X125629581Y-132294584D01*
%TO.C,C18*%
X122858594Y-193112354D02*
X122820499Y-193150449D01*
X122706213Y-193188544D01*
X122630022Y-193188544D01*
X122515737Y-193150449D01*
X122439546Y-193074259D01*
X122401451Y-192998068D01*
X122363356Y-192845687D01*
X122363356Y-192731401D01*
X122401451Y-192579020D01*
X122439546Y-192502830D01*
X122515737Y-192426640D01*
X122630022Y-192388544D01*
X122706213Y-192388544D01*
X122820499Y-192426640D01*
X122858594Y-192464735D01*
X123620499Y-193188544D02*
X123163356Y-193188544D01*
X123391927Y-193188544D02*
X123391927Y-192388544D01*
X123315737Y-192502830D01*
X123239546Y-192579020D01*
X123163356Y-192617116D01*
X124077641Y-192731401D02*
X124001451Y-192693306D01*
X123963356Y-192655211D01*
X123925260Y-192579020D01*
X123925260Y-192540925D01*
X123963356Y-192464735D01*
X124001451Y-192426640D01*
X124077641Y-192388544D01*
X124230022Y-192388544D01*
X124306213Y-192426640D01*
X124344308Y-192464735D01*
X124382403Y-192540925D01*
X124382403Y-192579020D01*
X124344308Y-192655211D01*
X124306213Y-192693306D01*
X124230022Y-192731401D01*
X124077641Y-192731401D01*
X124001451Y-192769497D01*
X123963356Y-192807592D01*
X123925260Y-192883782D01*
X123925260Y-193036163D01*
X123963356Y-193112354D01*
X124001451Y-193150449D01*
X124077641Y-193188544D01*
X124230022Y-193188544D01*
X124306213Y-193150449D01*
X124344308Y-193112354D01*
X124382403Y-193036163D01*
X124382403Y-192883782D01*
X124344308Y-192807592D01*
X124306213Y-192769497D01*
X124230022Y-192731401D01*
%TO.C,D1*%
X126622883Y-115927824D02*
X126622883Y-115127824D01*
X126813360Y-115127824D01*
X126927645Y-115165920D01*
X127003836Y-115242110D01*
X127041931Y-115318300D01*
X127080026Y-115470681D01*
X127080026Y-115584967D01*
X127041931Y-115737348D01*
X127003836Y-115813539D01*
X126927645Y-115889729D01*
X126813360Y-115927824D01*
X126622883Y-115927824D01*
X127841931Y-115927824D02*
X127384788Y-115927824D01*
X127613360Y-115927824D02*
X127613360Y-115127824D01*
X127537169Y-115242110D01*
X127460979Y-115318300D01*
X127384788Y-115356396D01*
%TO.C,D2*%
X126531443Y-121464024D02*
X126531443Y-120664024D01*
X126721920Y-120664024D01*
X126836205Y-120702120D01*
X126912396Y-120778310D01*
X126950491Y-120854500D01*
X126988586Y-121006881D01*
X126988586Y-121121167D01*
X126950491Y-121273548D01*
X126912396Y-121349739D01*
X126836205Y-121425929D01*
X126721920Y-121464024D01*
X126531443Y-121464024D01*
X127293348Y-120740215D02*
X127331443Y-120702120D01*
X127407634Y-120664024D01*
X127598110Y-120664024D01*
X127674300Y-120702120D01*
X127712396Y-120740215D01*
X127750491Y-120816405D01*
X127750491Y-120892596D01*
X127712396Y-121006881D01*
X127255253Y-121464024D01*
X127750491Y-121464024D01*
%TO.C,D4*%
X148906184Y-182136976D02*
X148106184Y-182136976D01*
X148106184Y-181946500D01*
X148144280Y-181832214D01*
X148220470Y-181756023D01*
X148296660Y-181717928D01*
X148449041Y-181679833D01*
X148563327Y-181679833D01*
X148715708Y-181717928D01*
X148791899Y-181756023D01*
X148868089Y-181832214D01*
X148906184Y-181946500D01*
X148906184Y-182136976D01*
X148372851Y-180994119D02*
X148906184Y-180994119D01*
X148068089Y-181184595D02*
X148639518Y-181375071D01*
X148639518Y-180879833D01*
%TO.C,D5*%
X141951783Y-121558004D02*
X141951783Y-120758004D01*
X142142260Y-120758004D01*
X142256545Y-120796100D01*
X142332736Y-120872290D01*
X142370831Y-120948480D01*
X142408926Y-121100861D01*
X142408926Y-121215147D01*
X142370831Y-121367528D01*
X142332736Y-121443719D01*
X142256545Y-121519909D01*
X142142260Y-121558004D01*
X141951783Y-121558004D01*
X143132736Y-120758004D02*
X142751783Y-120758004D01*
X142713688Y-121138957D01*
X142751783Y-121100861D01*
X142827974Y-121062766D01*
X143018450Y-121062766D01*
X143094640Y-121100861D01*
X143132736Y-121138957D01*
X143170831Y-121215147D01*
X143170831Y-121405623D01*
X143132736Y-121481814D01*
X143094640Y-121519909D01*
X143018450Y-121558004D01*
X142827974Y-121558004D01*
X142751783Y-121519909D01*
X142713688Y-121481814D01*
%TO.C,Q1*%
X109164129Y-138530275D02*
X109087939Y-138492180D01*
X109011748Y-138415989D01*
X108897462Y-138301703D01*
X108821272Y-138263608D01*
X108745081Y-138263608D01*
X108783177Y-138454084D02*
X108706986Y-138415989D01*
X108630796Y-138339799D01*
X108592700Y-138187418D01*
X108592700Y-137920751D01*
X108630796Y-137768370D01*
X108706986Y-137692180D01*
X108783177Y-137654084D01*
X108935558Y-137654084D01*
X109011748Y-137692180D01*
X109087939Y-137768370D01*
X109126034Y-137920751D01*
X109126034Y-138187418D01*
X109087939Y-138339799D01*
X109011748Y-138415989D01*
X108935558Y-138454084D01*
X108783177Y-138454084D01*
X109887939Y-138454084D02*
X109430796Y-138454084D01*
X109659367Y-138454084D02*
X109659367Y-137654084D01*
X109583177Y-137768370D01*
X109506986Y-137844560D01*
X109430796Y-137882656D01*
%TO.C,Q2*%
X129618749Y-188431115D02*
X129542559Y-188393020D01*
X129466368Y-188316829D01*
X129352082Y-188202543D01*
X129275892Y-188164448D01*
X129199701Y-188164448D01*
X129237797Y-188354924D02*
X129161606Y-188316829D01*
X129085416Y-188240639D01*
X129047320Y-188088258D01*
X129047320Y-187821591D01*
X129085416Y-187669210D01*
X129161606Y-187593020D01*
X129237797Y-187554924D01*
X129390178Y-187554924D01*
X129466368Y-187593020D01*
X129542559Y-187669210D01*
X129580654Y-187821591D01*
X129580654Y-188088258D01*
X129542559Y-188240639D01*
X129466368Y-188316829D01*
X129390178Y-188354924D01*
X129237797Y-188354924D01*
X129885416Y-187631115D02*
X129923511Y-187593020D01*
X129999701Y-187554924D01*
X130190178Y-187554924D01*
X130266368Y-187593020D01*
X130304463Y-187631115D01*
X130342559Y-187707305D01*
X130342559Y-187783496D01*
X130304463Y-187897781D01*
X129847320Y-188354924D01*
X130342559Y-188354924D01*
%TO.C,Q3*%
X129579381Y-197172199D02*
X129484143Y-197124580D01*
X129388905Y-197029341D01*
X129246048Y-196886484D01*
X129150810Y-196838865D01*
X129055572Y-196838865D01*
X129103191Y-197076960D02*
X129007953Y-197029341D01*
X128912715Y-196934103D01*
X128865096Y-196743627D01*
X128865096Y-196410294D01*
X128912715Y-196219818D01*
X129007953Y-196124580D01*
X129103191Y-196076960D01*
X129293667Y-196076960D01*
X129388905Y-196124580D01*
X129484143Y-196219818D01*
X129531762Y-196410294D01*
X129531762Y-196743627D01*
X129484143Y-196934103D01*
X129388905Y-197029341D01*
X129293667Y-197076960D01*
X129103191Y-197076960D01*
X129865096Y-196076960D02*
X130484143Y-196076960D01*
X130150810Y-196457913D01*
X130293667Y-196457913D01*
X130388905Y-196505532D01*
X130436524Y-196553151D01*
X130484143Y-196648389D01*
X130484143Y-196886484D01*
X130436524Y-196981722D01*
X130388905Y-197029341D01*
X130293667Y-197076960D01*
X130007953Y-197076960D01*
X129912715Y-197029341D01*
X129865096Y-196981722D01*
%TO.C,R1*%
X118431326Y-110481064D02*
X118164660Y-110100112D01*
X117974183Y-110481064D02*
X117974183Y-109681064D01*
X118278945Y-109681064D01*
X118355136Y-109719160D01*
X118393231Y-109757255D01*
X118431326Y-109833445D01*
X118431326Y-109947731D01*
X118393231Y-110023921D01*
X118355136Y-110062017D01*
X118278945Y-110100112D01*
X117974183Y-110100112D01*
X119193231Y-110481064D02*
X118736088Y-110481064D01*
X118964660Y-110481064D02*
X118964660Y-109681064D01*
X118888469Y-109795350D01*
X118812279Y-109871540D01*
X118736088Y-109909636D01*
%TO.C,R2*%
X112345486Y-106544064D02*
X112078820Y-106163112D01*
X111888343Y-106544064D02*
X111888343Y-105744064D01*
X112193105Y-105744064D01*
X112269296Y-105782160D01*
X112307391Y-105820255D01*
X112345486Y-105896445D01*
X112345486Y-106010731D01*
X112307391Y-106086921D01*
X112269296Y-106125017D01*
X112193105Y-106163112D01*
X111888343Y-106163112D01*
X112650248Y-105820255D02*
X112688343Y-105782160D01*
X112764534Y-105744064D01*
X112955010Y-105744064D01*
X113031200Y-105782160D01*
X113069296Y-105820255D01*
X113107391Y-105896445D01*
X113107391Y-105972636D01*
X113069296Y-106086921D01*
X112612153Y-106544064D01*
X113107391Y-106544064D01*
%TO.C,R3*%
X120989106Y-127966424D02*
X120722440Y-127585472D01*
X120531963Y-127966424D02*
X120531963Y-127166424D01*
X120836725Y-127166424D01*
X120912916Y-127204520D01*
X120951011Y-127242615D01*
X120989106Y-127318805D01*
X120989106Y-127433091D01*
X120951011Y-127509281D01*
X120912916Y-127547377D01*
X120836725Y-127585472D01*
X120531963Y-127585472D01*
X121255773Y-127166424D02*
X121751011Y-127166424D01*
X121484344Y-127471186D01*
X121598630Y-127471186D01*
X121674820Y-127509281D01*
X121712916Y-127547377D01*
X121751011Y-127623567D01*
X121751011Y-127814043D01*
X121712916Y-127890234D01*
X121674820Y-127928329D01*
X121598630Y-127966424D01*
X121370059Y-127966424D01*
X121293868Y-127928329D01*
X121255773Y-127890234D01*
%TO.C,R5*%
X123595146Y-115136884D02*
X123328480Y-114755932D01*
X123138003Y-115136884D02*
X123138003Y-114336884D01*
X123442765Y-114336884D01*
X123518956Y-114374980D01*
X123557051Y-114413075D01*
X123595146Y-114489265D01*
X123595146Y-114603551D01*
X123557051Y-114679741D01*
X123518956Y-114717837D01*
X123442765Y-114755932D01*
X123138003Y-114755932D01*
X124318956Y-114336884D02*
X123938003Y-114336884D01*
X123899908Y-114717837D01*
X123938003Y-114679741D01*
X124014194Y-114641646D01*
X124204670Y-114641646D01*
X124280860Y-114679741D01*
X124318956Y-114717837D01*
X124357051Y-114794027D01*
X124357051Y-114984503D01*
X124318956Y-115060694D01*
X124280860Y-115098789D01*
X124204670Y-115136884D01*
X124014194Y-115136884D01*
X123938003Y-115098789D01*
X123899908Y-115060694D01*
%TO.C,R7*%
X138824986Y-106373884D02*
X138558320Y-105992932D01*
X138367843Y-106373884D02*
X138367843Y-105573884D01*
X138672605Y-105573884D01*
X138748796Y-105611980D01*
X138786891Y-105650075D01*
X138824986Y-105726265D01*
X138824986Y-105840551D01*
X138786891Y-105916741D01*
X138748796Y-105954837D01*
X138672605Y-105992932D01*
X138367843Y-105992932D01*
X139091653Y-105573884D02*
X139624986Y-105573884D01*
X139282129Y-106373884D01*
%TO.C,R8*%
X139739386Y-111949184D02*
X139472720Y-111568232D01*
X139282243Y-111949184D02*
X139282243Y-111149184D01*
X139587005Y-111149184D01*
X139663196Y-111187280D01*
X139701291Y-111225375D01*
X139739386Y-111301565D01*
X139739386Y-111415851D01*
X139701291Y-111492041D01*
X139663196Y-111530137D01*
X139587005Y-111568232D01*
X139282243Y-111568232D01*
X140196529Y-111492041D02*
X140120339Y-111453946D01*
X140082243Y-111415851D01*
X140044148Y-111339660D01*
X140044148Y-111301565D01*
X140082243Y-111225375D01*
X140120339Y-111187280D01*
X140196529Y-111149184D01*
X140348910Y-111149184D01*
X140425100Y-111187280D01*
X140463196Y-111225375D01*
X140501291Y-111301565D01*
X140501291Y-111339660D01*
X140463196Y-111415851D01*
X140425100Y-111453946D01*
X140348910Y-111492041D01*
X140196529Y-111492041D01*
X140120339Y-111530137D01*
X140082243Y-111568232D01*
X140044148Y-111644422D01*
X140044148Y-111796803D01*
X140082243Y-111872994D01*
X140120339Y-111911089D01*
X140196529Y-111949184D01*
X140348910Y-111949184D01*
X140425100Y-111911089D01*
X140463196Y-111872994D01*
X140501291Y-111796803D01*
X140501291Y-111644422D01*
X140463196Y-111568232D01*
X140425100Y-111530137D01*
X140348910Y-111492041D01*
%TO.C,R9*%
X137562606Y-118487144D02*
X137295940Y-118106192D01*
X137105463Y-118487144D02*
X137105463Y-117687144D01*
X137410225Y-117687144D01*
X137486416Y-117725240D01*
X137524511Y-117763335D01*
X137562606Y-117839525D01*
X137562606Y-117953811D01*
X137524511Y-118030001D01*
X137486416Y-118068097D01*
X137410225Y-118106192D01*
X137105463Y-118106192D01*
X137943559Y-118487144D02*
X138095940Y-118487144D01*
X138172130Y-118449049D01*
X138210225Y-118410954D01*
X138286416Y-118296668D01*
X138324511Y-118144287D01*
X138324511Y-117839525D01*
X138286416Y-117763335D01*
X138248320Y-117725240D01*
X138172130Y-117687144D01*
X138019749Y-117687144D01*
X137943559Y-117725240D01*
X137905463Y-117763335D01*
X137867368Y-117839525D01*
X137867368Y-118030001D01*
X137905463Y-118106192D01*
X137943559Y-118144287D01*
X138019749Y-118182382D01*
X138172130Y-118182382D01*
X138248320Y-118144287D01*
X138286416Y-118106192D01*
X138324511Y-118030001D01*
%TO.C,R10*%
X116965794Y-117163804D02*
X116699127Y-116782852D01*
X116508651Y-117163804D02*
X116508651Y-116363804D01*
X116813413Y-116363804D01*
X116889603Y-116401900D01*
X116927699Y-116439995D01*
X116965794Y-116516185D01*
X116965794Y-116630471D01*
X116927699Y-116706661D01*
X116889603Y-116744757D01*
X116813413Y-116782852D01*
X116508651Y-116782852D01*
X117727699Y-117163804D02*
X117270556Y-117163804D01*
X117499127Y-117163804D02*
X117499127Y-116363804D01*
X117422937Y-116478090D01*
X117346746Y-116554280D01*
X117270556Y-116592376D01*
X118222937Y-116363804D02*
X118299127Y-116363804D01*
X118375318Y-116401900D01*
X118413413Y-116439995D01*
X118451508Y-116516185D01*
X118489603Y-116668566D01*
X118489603Y-116859042D01*
X118451508Y-117011423D01*
X118413413Y-117087614D01*
X118375318Y-117125709D01*
X118299127Y-117163804D01*
X118222937Y-117163804D01*
X118146746Y-117125709D01*
X118108651Y-117087614D01*
X118070556Y-117011423D01*
X118032460Y-116859042D01*
X118032460Y-116668566D01*
X118070556Y-116516185D01*
X118108651Y-116439995D01*
X118146746Y-116401900D01*
X118222937Y-116363804D01*
%TO.C,R11*%
X141611414Y-111923784D02*
X141344747Y-111542832D01*
X141154271Y-111923784D02*
X141154271Y-111123784D01*
X141459033Y-111123784D01*
X141535223Y-111161880D01*
X141573319Y-111199975D01*
X141611414Y-111276165D01*
X141611414Y-111390451D01*
X141573319Y-111466641D01*
X141535223Y-111504737D01*
X141459033Y-111542832D01*
X141154271Y-111542832D01*
X142373319Y-111923784D02*
X141916176Y-111923784D01*
X142144747Y-111923784D02*
X142144747Y-111123784D01*
X142068557Y-111238070D01*
X141992366Y-111314260D01*
X141916176Y-111352356D01*
X143135223Y-111923784D02*
X142678080Y-111923784D01*
X142906652Y-111923784D02*
X142906652Y-111123784D01*
X142830461Y-111238070D01*
X142754271Y-111314260D01*
X142678080Y-111352356D01*
%TO.C,R12*%
X133656134Y-181697584D02*
X133389467Y-181316632D01*
X133198991Y-181697584D02*
X133198991Y-180897584D01*
X133503753Y-180897584D01*
X133579943Y-180935680D01*
X133618039Y-180973775D01*
X133656134Y-181049965D01*
X133656134Y-181164251D01*
X133618039Y-181240441D01*
X133579943Y-181278537D01*
X133503753Y-181316632D01*
X133198991Y-181316632D01*
X134418039Y-181697584D02*
X133960896Y-181697584D01*
X134189467Y-181697584D02*
X134189467Y-180897584D01*
X134113277Y-181011870D01*
X134037086Y-181088060D01*
X133960896Y-181126156D01*
X134722800Y-180973775D02*
X134760896Y-180935680D01*
X134837086Y-180897584D01*
X135027562Y-180897584D01*
X135103753Y-180935680D01*
X135141848Y-180973775D01*
X135179943Y-181049965D01*
X135179943Y-181126156D01*
X135141848Y-181240441D01*
X134684705Y-181697584D01*
X135179943Y-181697584D01*
%TO.C,R13*%
X126714314Y-182807564D02*
X126447647Y-182426612D01*
X126257171Y-182807564D02*
X126257171Y-182007564D01*
X126561933Y-182007564D01*
X126638123Y-182045660D01*
X126676219Y-182083755D01*
X126714314Y-182159945D01*
X126714314Y-182274231D01*
X126676219Y-182350421D01*
X126638123Y-182388517D01*
X126561933Y-182426612D01*
X126257171Y-182426612D01*
X127476219Y-182807564D02*
X127019076Y-182807564D01*
X127247647Y-182807564D02*
X127247647Y-182007564D01*
X127171457Y-182121850D01*
X127095266Y-182198040D01*
X127019076Y-182236136D01*
X127742885Y-182007564D02*
X128238123Y-182007564D01*
X127971457Y-182312326D01*
X128085742Y-182312326D01*
X128161933Y-182350421D01*
X128200028Y-182388517D01*
X128238123Y-182464707D01*
X128238123Y-182655183D01*
X128200028Y-182731374D01*
X128161933Y-182769469D01*
X128085742Y-182807564D01*
X127857171Y-182807564D01*
X127780980Y-182769469D01*
X127742885Y-182731374D01*
%TO.C,R14*%
X138993204Y-191032065D02*
X138612252Y-191298732D01*
X138993204Y-191489208D02*
X138193204Y-191489208D01*
X138193204Y-191184446D01*
X138231300Y-191108256D01*
X138269395Y-191070160D01*
X138345585Y-191032065D01*
X138459871Y-191032065D01*
X138536061Y-191070160D01*
X138574157Y-191108256D01*
X138612252Y-191184446D01*
X138612252Y-191489208D01*
X138993204Y-190270160D02*
X138993204Y-190727303D01*
X138993204Y-190498732D02*
X138193204Y-190498732D01*
X138307490Y-190574922D01*
X138383680Y-190651113D01*
X138421776Y-190727303D01*
X138459871Y-189584446D02*
X138993204Y-189584446D01*
X138155109Y-189774922D02*
X138726538Y-189965399D01*
X138726538Y-189470160D01*
%TO.C,R15*%
X103706994Y-143757604D02*
X103440327Y-143376652D01*
X103249851Y-143757604D02*
X103249851Y-142957604D01*
X103554613Y-142957604D01*
X103630803Y-142995700D01*
X103668899Y-143033795D01*
X103706994Y-143109985D01*
X103706994Y-143224271D01*
X103668899Y-143300461D01*
X103630803Y-143338557D01*
X103554613Y-143376652D01*
X103249851Y-143376652D01*
X104468899Y-143757604D02*
X104011756Y-143757604D01*
X104240327Y-143757604D02*
X104240327Y-142957604D01*
X104164137Y-143071890D01*
X104087946Y-143148080D01*
X104011756Y-143186176D01*
X105192708Y-142957604D02*
X104811756Y-142957604D01*
X104773660Y-143338557D01*
X104811756Y-143300461D01*
X104887946Y-143262366D01*
X105078422Y-143262366D01*
X105154613Y-143300461D01*
X105192708Y-143338557D01*
X105230803Y-143414747D01*
X105230803Y-143605223D01*
X105192708Y-143681414D01*
X105154613Y-143719509D01*
X105078422Y-143757604D01*
X104887946Y-143757604D01*
X104811756Y-143719509D01*
X104773660Y-143681414D01*
%TO.C,R16*%
X133325934Y-159398924D02*
X133059267Y-159017972D01*
X132868791Y-159398924D02*
X132868791Y-158598924D01*
X133173553Y-158598924D01*
X133249743Y-158637020D01*
X133287839Y-158675115D01*
X133325934Y-158751305D01*
X133325934Y-158865591D01*
X133287839Y-158941781D01*
X133249743Y-158979877D01*
X133173553Y-159017972D01*
X132868791Y-159017972D01*
X134087839Y-159398924D02*
X133630696Y-159398924D01*
X133859267Y-159398924D02*
X133859267Y-158598924D01*
X133783077Y-158713210D01*
X133706886Y-158789400D01*
X133630696Y-158827496D01*
X134773553Y-158598924D02*
X134621172Y-158598924D01*
X134544981Y-158637020D01*
X134506886Y-158675115D01*
X134430696Y-158789400D01*
X134392600Y-158941781D01*
X134392600Y-159246543D01*
X134430696Y-159322734D01*
X134468791Y-159360829D01*
X134544981Y-159398924D01*
X134697362Y-159398924D01*
X134773553Y-159360829D01*
X134811648Y-159322734D01*
X134849743Y-159246543D01*
X134849743Y-159056067D01*
X134811648Y-158979877D01*
X134773553Y-158941781D01*
X134697362Y-158903686D01*
X134544981Y-158903686D01*
X134468791Y-158941781D01*
X134430696Y-158979877D01*
X134392600Y-159056067D01*
%TO.C,R17*%
X105256394Y-133805884D02*
X104989727Y-133424932D01*
X104799251Y-133805884D02*
X104799251Y-133005884D01*
X105104013Y-133005884D01*
X105180203Y-133043980D01*
X105218299Y-133082075D01*
X105256394Y-133158265D01*
X105256394Y-133272551D01*
X105218299Y-133348741D01*
X105180203Y-133386837D01*
X105104013Y-133424932D01*
X104799251Y-133424932D01*
X106018299Y-133805884D02*
X105561156Y-133805884D01*
X105789727Y-133805884D02*
X105789727Y-133005884D01*
X105713537Y-133120170D01*
X105637346Y-133196360D01*
X105561156Y-133234456D01*
X106284965Y-133005884D02*
X106818299Y-133005884D01*
X106475441Y-133805884D01*
%TO.C,R18*%
X144788954Y-158233064D02*
X144522287Y-157852112D01*
X144331811Y-158233064D02*
X144331811Y-157433064D01*
X144636573Y-157433064D01*
X144712763Y-157471160D01*
X144750859Y-157509255D01*
X144788954Y-157585445D01*
X144788954Y-157699731D01*
X144750859Y-157775921D01*
X144712763Y-157814017D01*
X144636573Y-157852112D01*
X144331811Y-157852112D01*
X145550859Y-158233064D02*
X145093716Y-158233064D01*
X145322287Y-158233064D02*
X145322287Y-157433064D01*
X145246097Y-157547350D01*
X145169906Y-157623540D01*
X145093716Y-157661636D01*
X146008001Y-157775921D02*
X145931811Y-157737826D01*
X145893716Y-157699731D01*
X145855620Y-157623540D01*
X145855620Y-157585445D01*
X145893716Y-157509255D01*
X145931811Y-157471160D01*
X146008001Y-157433064D01*
X146160382Y-157433064D01*
X146236573Y-157471160D01*
X146274668Y-157509255D01*
X146312763Y-157585445D01*
X146312763Y-157623540D01*
X146274668Y-157699731D01*
X146236573Y-157737826D01*
X146160382Y-157775921D01*
X146008001Y-157775921D01*
X145931811Y-157814017D01*
X145893716Y-157852112D01*
X145855620Y-157928302D01*
X145855620Y-158080683D01*
X145893716Y-158156874D01*
X145931811Y-158194969D01*
X146008001Y-158233064D01*
X146160382Y-158233064D01*
X146236573Y-158194969D01*
X146274668Y-158156874D01*
X146312763Y-158080683D01*
X146312763Y-157928302D01*
X146274668Y-157852112D01*
X146236573Y-157814017D01*
X146160382Y-157775921D01*
%TO.C,R19*%
X138012234Y-132543504D02*
X137745567Y-132162552D01*
X137555091Y-132543504D02*
X137555091Y-131743504D01*
X137859853Y-131743504D01*
X137936043Y-131781600D01*
X137974139Y-131819695D01*
X138012234Y-131895885D01*
X138012234Y-132010171D01*
X137974139Y-132086361D01*
X137936043Y-132124457D01*
X137859853Y-132162552D01*
X137555091Y-132162552D01*
X138774139Y-132543504D02*
X138316996Y-132543504D01*
X138545567Y-132543504D02*
X138545567Y-131743504D01*
X138469377Y-131857790D01*
X138393186Y-131933980D01*
X138316996Y-131972076D01*
X139155091Y-132543504D02*
X139307472Y-132543504D01*
X139383662Y-132505409D01*
X139421758Y-132467314D01*
X139497948Y-132353028D01*
X139536043Y-132200647D01*
X139536043Y-131895885D01*
X139497948Y-131819695D01*
X139459853Y-131781600D01*
X139383662Y-131743504D01*
X139231281Y-131743504D01*
X139155091Y-131781600D01*
X139116996Y-131819695D01*
X139078900Y-131895885D01*
X139078900Y-132086361D01*
X139116996Y-132162552D01*
X139155091Y-132200647D01*
X139231281Y-132238742D01*
X139383662Y-132238742D01*
X139459853Y-132200647D01*
X139497948Y-132162552D01*
X139536043Y-132086361D01*
%TO.C,R20*%
X135500174Y-126701504D02*
X135233507Y-126320552D01*
X135043031Y-126701504D02*
X135043031Y-125901504D01*
X135347793Y-125901504D01*
X135423983Y-125939600D01*
X135462079Y-125977695D01*
X135500174Y-126053885D01*
X135500174Y-126168171D01*
X135462079Y-126244361D01*
X135423983Y-126282457D01*
X135347793Y-126320552D01*
X135043031Y-126320552D01*
X135804936Y-125977695D02*
X135843031Y-125939600D01*
X135919221Y-125901504D01*
X136109698Y-125901504D01*
X136185888Y-125939600D01*
X136223983Y-125977695D01*
X136262079Y-126053885D01*
X136262079Y-126130076D01*
X136223983Y-126244361D01*
X135766840Y-126701504D01*
X136262079Y-126701504D01*
X136757317Y-125901504D02*
X136833507Y-125901504D01*
X136909698Y-125939600D01*
X136947793Y-125977695D01*
X136985888Y-126053885D01*
X137023983Y-126206266D01*
X137023983Y-126396742D01*
X136985888Y-126549123D01*
X136947793Y-126625314D01*
X136909698Y-126663409D01*
X136833507Y-126701504D01*
X136757317Y-126701504D01*
X136681126Y-126663409D01*
X136643031Y-126625314D01*
X136604936Y-126549123D01*
X136566840Y-126396742D01*
X136566840Y-126206266D01*
X136604936Y-126053885D01*
X136643031Y-125977695D01*
X136681126Y-125939600D01*
X136757317Y-125901504D01*
%TO.C,R21*%
X136379014Y-135230824D02*
X136112347Y-134849872D01*
X135921871Y-135230824D02*
X135921871Y-134430824D01*
X136226633Y-134430824D01*
X136302823Y-134468920D01*
X136340919Y-134507015D01*
X136379014Y-134583205D01*
X136379014Y-134697491D01*
X136340919Y-134773681D01*
X136302823Y-134811777D01*
X136226633Y-134849872D01*
X135921871Y-134849872D01*
X136683776Y-134507015D02*
X136721871Y-134468920D01*
X136798061Y-134430824D01*
X136988538Y-134430824D01*
X137064728Y-134468920D01*
X137102823Y-134507015D01*
X137140919Y-134583205D01*
X137140919Y-134659396D01*
X137102823Y-134773681D01*
X136645680Y-135230824D01*
X137140919Y-135230824D01*
X137902823Y-135230824D02*
X137445680Y-135230824D01*
X137674252Y-135230824D02*
X137674252Y-134430824D01*
X137598061Y-134545110D01*
X137521871Y-134621300D01*
X137445680Y-134659396D01*
%TO.C,R22*%
X129221294Y-136673544D02*
X128954627Y-136292592D01*
X128764151Y-136673544D02*
X128764151Y-135873544D01*
X129068913Y-135873544D01*
X129145103Y-135911640D01*
X129183199Y-135949735D01*
X129221294Y-136025925D01*
X129221294Y-136140211D01*
X129183199Y-136216401D01*
X129145103Y-136254497D01*
X129068913Y-136292592D01*
X128764151Y-136292592D01*
X129526056Y-135949735D02*
X129564151Y-135911640D01*
X129640341Y-135873544D01*
X129830818Y-135873544D01*
X129907008Y-135911640D01*
X129945103Y-135949735D01*
X129983199Y-136025925D01*
X129983199Y-136102116D01*
X129945103Y-136216401D01*
X129487960Y-136673544D01*
X129983199Y-136673544D01*
X130287960Y-135949735D02*
X130326056Y-135911640D01*
X130402246Y-135873544D01*
X130592722Y-135873544D01*
X130668913Y-135911640D01*
X130707008Y-135949735D01*
X130745103Y-136025925D01*
X130745103Y-136102116D01*
X130707008Y-136216401D01*
X130249865Y-136673544D01*
X130745103Y-136673544D01*
%TO.C,R23*%
X136005634Y-191997284D02*
X135738967Y-191616332D01*
X135548491Y-191997284D02*
X135548491Y-191197284D01*
X135853253Y-191197284D01*
X135929443Y-191235380D01*
X135967539Y-191273475D01*
X136005634Y-191349665D01*
X136005634Y-191463951D01*
X135967539Y-191540141D01*
X135929443Y-191578237D01*
X135853253Y-191616332D01*
X135548491Y-191616332D01*
X136310396Y-191273475D02*
X136348491Y-191235380D01*
X136424681Y-191197284D01*
X136615158Y-191197284D01*
X136691348Y-191235380D01*
X136729443Y-191273475D01*
X136767539Y-191349665D01*
X136767539Y-191425856D01*
X136729443Y-191540141D01*
X136272300Y-191997284D01*
X136767539Y-191997284D01*
X137034205Y-191197284D02*
X137529443Y-191197284D01*
X137262777Y-191502046D01*
X137377062Y-191502046D01*
X137453253Y-191540141D01*
X137491348Y-191578237D01*
X137529443Y-191654427D01*
X137529443Y-191844903D01*
X137491348Y-191921094D01*
X137453253Y-191959189D01*
X137377062Y-191997284D01*
X137148491Y-191997284D01*
X137072300Y-191959189D01*
X137034205Y-191921094D01*
%TO.C,R24*%
X136005634Y-195477084D02*
X135738967Y-195096132D01*
X135548491Y-195477084D02*
X135548491Y-194677084D01*
X135853253Y-194677084D01*
X135929443Y-194715180D01*
X135967539Y-194753275D01*
X136005634Y-194829465D01*
X136005634Y-194943751D01*
X135967539Y-195019941D01*
X135929443Y-195058037D01*
X135853253Y-195096132D01*
X135548491Y-195096132D01*
X136310396Y-194753275D02*
X136348491Y-194715180D01*
X136424681Y-194677084D01*
X136615158Y-194677084D01*
X136691348Y-194715180D01*
X136729443Y-194753275D01*
X136767539Y-194829465D01*
X136767539Y-194905656D01*
X136729443Y-195019941D01*
X136272300Y-195477084D01*
X136767539Y-195477084D01*
X137453253Y-194943751D02*
X137453253Y-195477084D01*
X137262777Y-194638989D02*
X137072300Y-195210418D01*
X137567539Y-195210418D01*
%TO.C,R26*%
X127064834Y-135281624D02*
X126798167Y-134900672D01*
X126607691Y-135281624D02*
X126607691Y-134481624D01*
X126912453Y-134481624D01*
X126988643Y-134519720D01*
X127026739Y-134557815D01*
X127064834Y-134634005D01*
X127064834Y-134748291D01*
X127026739Y-134824481D01*
X126988643Y-134862577D01*
X126912453Y-134900672D01*
X126607691Y-134900672D01*
X127369596Y-134557815D02*
X127407691Y-134519720D01*
X127483881Y-134481624D01*
X127674358Y-134481624D01*
X127750548Y-134519720D01*
X127788643Y-134557815D01*
X127826739Y-134634005D01*
X127826739Y-134710196D01*
X127788643Y-134824481D01*
X127331500Y-135281624D01*
X127826739Y-135281624D01*
X128512453Y-134481624D02*
X128360072Y-134481624D01*
X128283881Y-134519720D01*
X128245786Y-134557815D01*
X128169596Y-134672100D01*
X128131500Y-134824481D01*
X128131500Y-135129243D01*
X128169596Y-135205434D01*
X128207691Y-135243529D01*
X128283881Y-135281624D01*
X128436262Y-135281624D01*
X128512453Y-135243529D01*
X128550548Y-135205434D01*
X128588643Y-135129243D01*
X128588643Y-134938767D01*
X128550548Y-134862577D01*
X128512453Y-134824481D01*
X128436262Y-134786386D01*
X128283881Y-134786386D01*
X128207691Y-134824481D01*
X128169596Y-134862577D01*
X128131500Y-134938767D01*
%TO.C,R27*%
X126178374Y-127778464D02*
X125911707Y-127397512D01*
X125721231Y-127778464D02*
X125721231Y-126978464D01*
X126025993Y-126978464D01*
X126102183Y-127016560D01*
X126140279Y-127054655D01*
X126178374Y-127130845D01*
X126178374Y-127245131D01*
X126140279Y-127321321D01*
X126102183Y-127359417D01*
X126025993Y-127397512D01*
X125721231Y-127397512D01*
X126483136Y-127054655D02*
X126521231Y-127016560D01*
X126597421Y-126978464D01*
X126787898Y-126978464D01*
X126864088Y-127016560D01*
X126902183Y-127054655D01*
X126940279Y-127130845D01*
X126940279Y-127207036D01*
X126902183Y-127321321D01*
X126445040Y-127778464D01*
X126940279Y-127778464D01*
X127206945Y-126978464D02*
X127740279Y-126978464D01*
X127397421Y-127778464D01*
%TO.C,R28*%
X119427054Y-191804244D02*
X119160387Y-191423292D01*
X118969911Y-191804244D02*
X118969911Y-191004244D01*
X119274673Y-191004244D01*
X119350863Y-191042340D01*
X119388959Y-191080435D01*
X119427054Y-191156625D01*
X119427054Y-191270911D01*
X119388959Y-191347101D01*
X119350863Y-191385197D01*
X119274673Y-191423292D01*
X118969911Y-191423292D01*
X119731816Y-191080435D02*
X119769911Y-191042340D01*
X119846101Y-191004244D01*
X120036578Y-191004244D01*
X120112768Y-191042340D01*
X120150863Y-191080435D01*
X120188959Y-191156625D01*
X120188959Y-191232816D01*
X120150863Y-191347101D01*
X119693720Y-191804244D01*
X120188959Y-191804244D01*
X120646101Y-191347101D02*
X120569911Y-191309006D01*
X120531816Y-191270911D01*
X120493720Y-191194720D01*
X120493720Y-191156625D01*
X120531816Y-191080435D01*
X120569911Y-191042340D01*
X120646101Y-191004244D01*
X120798482Y-191004244D01*
X120874673Y-191042340D01*
X120912768Y-191080435D01*
X120950863Y-191156625D01*
X120950863Y-191194720D01*
X120912768Y-191270911D01*
X120874673Y-191309006D01*
X120798482Y-191347101D01*
X120646101Y-191347101D01*
X120569911Y-191385197D01*
X120531816Y-191423292D01*
X120493720Y-191499482D01*
X120493720Y-191651863D01*
X120531816Y-191728054D01*
X120569911Y-191766149D01*
X120646101Y-191804244D01*
X120798482Y-191804244D01*
X120874673Y-191766149D01*
X120912768Y-191728054D01*
X120950863Y-191651863D01*
X120950863Y-191499482D01*
X120912768Y-191423292D01*
X120874673Y-191385197D01*
X120798482Y-191347101D01*
%TO.C,R29*%
X126140274Y-193252044D02*
X125873607Y-192871092D01*
X125683131Y-193252044D02*
X125683131Y-192452044D01*
X125987893Y-192452044D01*
X126064083Y-192490140D01*
X126102179Y-192528235D01*
X126140274Y-192604425D01*
X126140274Y-192718711D01*
X126102179Y-192794901D01*
X126064083Y-192832997D01*
X125987893Y-192871092D01*
X125683131Y-192871092D01*
X126445036Y-192528235D02*
X126483131Y-192490140D01*
X126559321Y-192452044D01*
X126749798Y-192452044D01*
X126825988Y-192490140D01*
X126864083Y-192528235D01*
X126902179Y-192604425D01*
X126902179Y-192680616D01*
X126864083Y-192794901D01*
X126406940Y-193252044D01*
X126902179Y-193252044D01*
X127283131Y-193252044D02*
X127435512Y-193252044D01*
X127511702Y-193213949D01*
X127549798Y-193175854D01*
X127625988Y-193061568D01*
X127664083Y-192909187D01*
X127664083Y-192604425D01*
X127625988Y-192528235D01*
X127587893Y-192490140D01*
X127511702Y-192452044D01*
X127359321Y-192452044D01*
X127283131Y-192490140D01*
X127245036Y-192528235D01*
X127206940Y-192604425D01*
X127206940Y-192794901D01*
X127245036Y-192871092D01*
X127283131Y-192909187D01*
X127359321Y-192947282D01*
X127511702Y-192947282D01*
X127587893Y-192909187D01*
X127625988Y-192871092D01*
X127664083Y-192794901D01*
%TO.C,R30*%
X149259354Y-177107804D02*
X148992687Y-176726852D01*
X148802211Y-177107804D02*
X148802211Y-176307804D01*
X149106973Y-176307804D01*
X149183163Y-176345900D01*
X149221259Y-176383995D01*
X149259354Y-176460185D01*
X149259354Y-176574471D01*
X149221259Y-176650661D01*
X149183163Y-176688757D01*
X149106973Y-176726852D01*
X148802211Y-176726852D01*
X149526020Y-176307804D02*
X150021259Y-176307804D01*
X149754592Y-176612566D01*
X149868878Y-176612566D01*
X149945068Y-176650661D01*
X149983163Y-176688757D01*
X150021259Y-176764947D01*
X150021259Y-176955423D01*
X149983163Y-177031614D01*
X149945068Y-177069709D01*
X149868878Y-177107804D01*
X149640306Y-177107804D01*
X149564116Y-177069709D01*
X149526020Y-177031614D01*
X150516497Y-176307804D02*
X150592687Y-176307804D01*
X150668878Y-176345900D01*
X150706973Y-176383995D01*
X150745068Y-176460185D01*
X150783163Y-176612566D01*
X150783163Y-176803042D01*
X150745068Y-176955423D01*
X150706973Y-177031614D01*
X150668878Y-177069709D01*
X150592687Y-177107804D01*
X150516497Y-177107804D01*
X150440306Y-177069709D01*
X150402211Y-177031614D01*
X150364116Y-176955423D01*
X150326020Y-176803042D01*
X150326020Y-176612566D01*
X150364116Y-176460185D01*
X150402211Y-176383995D01*
X150440306Y-176345900D01*
X150516497Y-176307804D01*
%TO.C,R31*%
X150823884Y-118957025D02*
X150442932Y-119223692D01*
X150823884Y-119414168D02*
X150023884Y-119414168D01*
X150023884Y-119109406D01*
X150061980Y-119033216D01*
X150100075Y-118995120D01*
X150176265Y-118957025D01*
X150290551Y-118957025D01*
X150366741Y-118995120D01*
X150404837Y-119033216D01*
X150442932Y-119109406D01*
X150442932Y-119414168D01*
X150023884Y-118690359D02*
X150023884Y-118195120D01*
X150328646Y-118461787D01*
X150328646Y-118347501D01*
X150366741Y-118271311D01*
X150404837Y-118233216D01*
X150481027Y-118195120D01*
X150671503Y-118195120D01*
X150747694Y-118233216D01*
X150785789Y-118271311D01*
X150823884Y-118347501D01*
X150823884Y-118576073D01*
X150785789Y-118652263D01*
X150747694Y-118690359D01*
X150823884Y-117433216D02*
X150823884Y-117890359D01*
X150823884Y-117661787D02*
X150023884Y-117661787D01*
X150138170Y-117737978D01*
X150214360Y-117814168D01*
X150252456Y-117890359D01*
%TO.C,U2*%
X118305656Y-100540764D02*
X118305656Y-101188383D01*
X118343751Y-101264574D01*
X118381846Y-101302669D01*
X118458037Y-101340764D01*
X118610418Y-101340764D01*
X118686608Y-101302669D01*
X118724703Y-101264574D01*
X118762799Y-101188383D01*
X118762799Y-100540764D01*
X119105656Y-100616955D02*
X119143751Y-100578860D01*
X119219941Y-100540764D01*
X119410418Y-100540764D01*
X119486608Y-100578860D01*
X119524703Y-100616955D01*
X119562799Y-100693145D01*
X119562799Y-100769336D01*
X119524703Y-100883621D01*
X119067560Y-101340764D01*
X119562799Y-101340764D01*
%TO.C,U3*%
D16*
X123771736Y-125083624D02*
X123771736Y-125731243D01*
X123809831Y-125807434D01*
X123847926Y-125845529D01*
X123924117Y-125883624D01*
X124076498Y-125883624D01*
X124152688Y-125845529D01*
X124190783Y-125807434D01*
X124228879Y-125731243D01*
X124228879Y-125083624D01*
X124533640Y-125083624D02*
X125028879Y-125083624D01*
X124762212Y-125388386D01*
X124876498Y-125388386D01*
X124952688Y-125426481D01*
X124990783Y-125464577D01*
X125028879Y-125540767D01*
X125028879Y-125731243D01*
X124990783Y-125807434D01*
X124952688Y-125845529D01*
X124876498Y-125883624D01*
X124647926Y-125883624D01*
X124571736Y-125845529D01*
X124533640Y-125807434D01*
%TO.C,U5*%
D17*
X144366056Y-188667444D02*
X144366056Y-189315063D01*
X144404151Y-189391254D01*
X144442246Y-189429349D01*
X144518437Y-189467444D01*
X144670818Y-189467444D01*
X144747008Y-189429349D01*
X144785103Y-189391254D01*
X144823199Y-189315063D01*
X144823199Y-188667444D01*
X145585103Y-188667444D02*
X145204151Y-188667444D01*
X145166056Y-189048397D01*
X145204151Y-189010301D01*
X145280341Y-188972206D01*
X145470818Y-188972206D01*
X145547008Y-189010301D01*
X145585103Y-189048397D01*
X145623199Y-189124587D01*
X145623199Y-189315063D01*
X145585103Y-189391254D01*
X145547008Y-189429349D01*
X145470818Y-189467444D01*
X145280341Y-189467444D01*
X145204151Y-189429349D01*
X145166056Y-189391254D01*
%TO.C,U6*%
X132486476Y-134196224D02*
X132486476Y-134843843D01*
X132524571Y-134920034D01*
X132562666Y-134958129D01*
X132638857Y-134996224D01*
X132791238Y-134996224D01*
X132867428Y-134958129D01*
X132905523Y-134920034D01*
X132943619Y-134843843D01*
X132943619Y-134196224D01*
X133667428Y-134196224D02*
X133515047Y-134196224D01*
X133438857Y-134234320D01*
X133400761Y-134272415D01*
X133324571Y-134386700D01*
X133286476Y-134539081D01*
X133286476Y-134843843D01*
X133324571Y-134920034D01*
X133362666Y-134958129D01*
X133438857Y-134996224D01*
X133591238Y-134996224D01*
X133667428Y-134958129D01*
X133705523Y-134920034D01*
X133743619Y-134843843D01*
X133743619Y-134653367D01*
X133705523Y-134577177D01*
X133667428Y-134539081D01*
X133591238Y-134500986D01*
X133438857Y-134500986D01*
X133362666Y-134539081D01*
X133324571Y-134577177D01*
X133286476Y-134653367D01*
%TO.C,U7*%
X102408620Y-156141324D02*
X103218144Y-156141324D01*
X103313382Y-156093705D01*
X103361001Y-156046086D01*
X103408620Y-155950848D01*
X103408620Y-155760372D01*
X103361001Y-155665134D01*
X103313382Y-155617515D01*
X103218144Y-155569896D01*
X102408620Y-155569896D01*
X102408620Y-155188943D02*
X102408620Y-154522277D01*
X103408620Y-154950848D01*
%TD*%
M02*
