%TF.GenerationSoftware,KiCad,Pcbnew,(5.1.10)-1*%
%TF.CreationDate,2021-09-02T16:56:43-04:00*%
%TF.ProjectId,buoy-c,62756f79-2d63-42e6-9b69-6361645f7063,1.0*%
%TF.SameCoordinates,Original*%
%TF.FileFunction,Copper,L4,Bot*%
%TF.FilePolarity,Positive*%
%FSLAX46Y46*%
G04 Gerber Fmt 4.6, Leading zero omitted, Abs format (unit mm)*
G04 Created by KiCad (PCBNEW (5.1.10)-1) date 2021-09-02 16:56:43*
%MOMM*%
%LPD*%
G01*
G04 APERTURE LIST*
%TA.AperFunction,Profile*%
%ADD10C,0.050000*%
%TD*%
%TA.AperFunction,ComponentPad*%
%ADD11C,3.500000*%
%TD*%
%TA.AperFunction,ComponentPad*%
%ADD12R,3.500000X3.500000*%
%TD*%
%TA.AperFunction,ComponentPad*%
%ADD13C,2.300000*%
%TD*%
%TA.AperFunction,ComponentPad*%
%ADD14O,1.700000X1.700000*%
%TD*%
%TA.AperFunction,ComponentPad*%
%ADD15R,1.700000X1.700000*%
%TD*%
%TA.AperFunction,SMDPad,CuDef*%
%ADD16R,2.200000X1.050000*%
%TD*%
%TA.AperFunction,SMDPad,CuDef*%
%ADD17R,1.050000X1.050000*%
%TD*%
%TA.AperFunction,ComponentPad*%
%ADD18C,0.650000*%
%TD*%
%TA.AperFunction,ComponentPad*%
%ADD19C,1.815000*%
%TD*%
%TA.AperFunction,ComponentPad*%
%ADD20C,2.085000*%
%TD*%
%TA.AperFunction,SMDPad,CuDef*%
%ADD21R,2.800000X2.400000*%
%TD*%
%TA.AperFunction,SMDPad,CuDef*%
%ADD22R,0.650000X1.560000*%
%TD*%
%TA.AperFunction,ComponentPad*%
%ADD23R,3.000000X3.000000*%
%TD*%
%TA.AperFunction,ComponentPad*%
%ADD24C,3.000000*%
%TD*%
%TA.AperFunction,ComponentPad*%
%ADD25C,0.600000*%
%TD*%
%TA.AperFunction,SMDPad,CuDef*%
%ADD26R,3.400000X5.000000*%
%TD*%
%TA.AperFunction,SMDPad,CuDef*%
%ADD27R,0.400000X2.000000*%
%TD*%
%TA.AperFunction,ViaPad*%
%ADD28C,0.800000*%
%TD*%
%TA.AperFunction,Conductor*%
%ADD29C,0.250000*%
%TD*%
G04 APERTURE END LIST*
D10*
X151750000Y-194500000D02*
G75*
G02*
X148750000Y-197500000I-3000000J0D01*
G01*
X148750000Y-100000000D02*
G75*
G02*
X151750000Y-103000000I0J-3000000D01*
G01*
X103550000Y-197500000D02*
G75*
G02*
X100550000Y-194500000I0J3000000D01*
G01*
X100550000Y-103000000D02*
G75*
G02*
X103550000Y-100000000I3000000J0D01*
G01*
X103550000Y-197500000D02*
X148750000Y-197500000D01*
X103550000Y-100000000D02*
X148750000Y-100000000D01*
X151750000Y-103000000D02*
X151750000Y-194500000D01*
X100550000Y-103000000D02*
X100550000Y-194500000D01*
D11*
%TO.P,J5,2*%
%TO.N,+BATT*%
X134975600Y-114700000D03*
D12*
%TO.P,J5,1*%
%TO.N,GND*%
X134975600Y-186700000D03*
%TD*%
D13*
%TO.P,J2,2*%
%TO.N,BAT-CR2032*%
X108822360Y-187892660D03*
X111922360Y-187892660D03*
X111922360Y-167092660D03*
X108822360Y-167092660D03*
%TD*%
D14*
%TO.P,J3,2*%
%TO.N,/5V_USB*%
X114345720Y-129646680D03*
D15*
%TO.P,J3,1*%
%TO.N,GND*%
X114345720Y-132186680D03*
%TD*%
D14*
%TO.P,J10,6*%
%TO.N,ESP_IO2*%
X122521980Y-154302460D03*
%TO.P,J10,5*%
%TO.N,ESP_IO15*%
X122521980Y-151762460D03*
%TO.P,J10,4*%
%TO.N,ESP_IO8*%
X122521980Y-149222460D03*
%TO.P,J10,3*%
%TO.N,ESP_IO7*%
X122521980Y-146682460D03*
%TO.P,J10,2*%
%TO.N,ESP_IO6*%
X122521980Y-144142460D03*
D15*
%TO.P,J10,1*%
%TO.N,GND*%
X122521980Y-141602460D03*
%TD*%
D14*
%TO.P,J7,2*%
%TO.N,+BATT*%
X109062520Y-129646680D03*
D15*
%TO.P,J7,1*%
%TO.N,GND*%
X109062520Y-132186680D03*
%TD*%
D14*
%TO.P,J14,9*%
%TO.N,VDD*%
X122521980Y-168455340D03*
%TO.P,J14,8*%
%TO.N,Net-(J14-Pad8)*%
X122521980Y-170995340D03*
%TO.P,J14,7*%
%TO.N,GND*%
X122521980Y-173535340D03*
%TO.P,J14,6*%
%TO.N,SCL*%
X122521980Y-176075340D03*
%TO.P,J14,5*%
%TO.N,SDA*%
X122521980Y-178615340D03*
%TO.P,J14,4*%
%TO.N,Net-(J14-Pad4)*%
X122521980Y-181155340D03*
%TO.P,J14,3*%
%TO.N,Net-(J14-Pad3)*%
X122521980Y-183695340D03*
%TO.P,J14,2*%
%TO.N,Net-(J14-Pad2)*%
X122521980Y-186235340D03*
D15*
%TO.P,J14,1*%
%TO.N,Net-(J14-Pad1)*%
X122521980Y-188775340D03*
%TD*%
D16*
%TO.P,J9,1*%
%TO.N,GND*%
X108752640Y-152841220D03*
%TO.P,J9,2*%
X108752640Y-149891220D03*
D17*
%TO.P,J9,3*%
%TO.N,Net-(J9-Pad3)*%
X110277640Y-151366220D03*
%TD*%
D16*
%TO.P,J4,1*%
%TO.N,GND*%
X108752640Y-159986980D03*
%TO.P,J4,2*%
X108752640Y-157036980D03*
D17*
%TO.P,J4,3*%
%TO.N,Net-(J4-Pad3)*%
X110277640Y-158511980D03*
%TD*%
D18*
%TO.P,J1,B1*%
%TO.N,GND*%
X113164020Y-121370820D03*
%TO.P,J1,B2*%
%TO.N,Net-(J1-PadB2)*%
X112464020Y-120720820D03*
%TO.P,J1,B3*%
%TO.N,Net-(J1-PadB3)*%
X112464020Y-119920820D03*
%TO.P,J1,B4*%
%TO.N,/5V_USB*%
X113164020Y-119520820D03*
%TO.P,J1,B5*%
%TO.N,Net-(J1-PadB5)*%
X112464020Y-119120820D03*
%TO.P,J1,B6*%
%TO.N,/FB2*%
X113164020Y-118720820D03*
%TO.P,J1,B7*%
%TO.N,/FB1*%
X113164020Y-117920820D03*
%TO.P,J1,B8*%
%TO.N,Net-(J1-PadB8)*%
X112464020Y-117520820D03*
%TO.P,J1,B9*%
%TO.N,/5V_USB*%
X113164020Y-117120820D03*
%TO.P,J1,B10*%
%TO.N,Net-(J1-PadB10)*%
X112464020Y-116720820D03*
%TO.P,J1,B11*%
%TO.N,Net-(J1-PadB11)*%
X112464020Y-115920820D03*
%TO.P,J1,B12*%
%TO.N,GND*%
X113164020Y-115270820D03*
D19*
%TO.P,J1,S1*%
X113964020Y-113820820D03*
D20*
%TO.P,J1,S2*%
X108364020Y-113820820D03*
%TO.P,J1,S3*%
X108364020Y-122820820D03*
D19*
%TO.P,J1,S4*%
X113964020Y-122820820D03*
%TD*%
%TO.P,C10,2*%
%TO.N,GND*%
%TA.AperFunction,SMDPad,CuDef*%
G36*
G01*
X123520220Y-112607980D02*
X122570220Y-112607980D01*
G75*
G02*
X122320220Y-112357980I0J250000D01*
G01*
X122320220Y-111857980D01*
G75*
G02*
X122570220Y-111607980I250000J0D01*
G01*
X123520220Y-111607980D01*
G75*
G02*
X123770220Y-111857980I0J-250000D01*
G01*
X123770220Y-112357980D01*
G75*
G02*
X123520220Y-112607980I-250000J0D01*
G01*
G37*
%TD.AperFunction*%
%TO.P,C10,1*%
%TO.N,/D+*%
%TA.AperFunction,SMDPad,CuDef*%
G36*
G01*
X123520220Y-114507980D02*
X122570220Y-114507980D01*
G75*
G02*
X122320220Y-114257980I0J250000D01*
G01*
X122320220Y-113757980D01*
G75*
G02*
X122570220Y-113507980I250000J0D01*
G01*
X123520220Y-113507980D01*
G75*
G02*
X123770220Y-113757980I0J-250000D01*
G01*
X123770220Y-114257980D01*
G75*
G02*
X123520220Y-114507980I-250000J0D01*
G01*
G37*
%TD.AperFunction*%
%TD*%
%TO.P,C12,1*%
%TO.N,/D-*%
%TA.AperFunction,SMDPad,CuDef*%
G36*
G01*
X122753100Y-118897740D02*
X123703100Y-118897740D01*
G75*
G02*
X123953100Y-119147740I0J-250000D01*
G01*
X123953100Y-119647740D01*
G75*
G02*
X123703100Y-119897740I-250000J0D01*
G01*
X122753100Y-119897740D01*
G75*
G02*
X122503100Y-119647740I0J250000D01*
G01*
X122503100Y-119147740D01*
G75*
G02*
X122753100Y-118897740I250000J0D01*
G01*
G37*
%TD.AperFunction*%
%TO.P,C12,2*%
%TO.N,GND*%
%TA.AperFunction,SMDPad,CuDef*%
G36*
G01*
X122753100Y-120797740D02*
X123703100Y-120797740D01*
G75*
G02*
X123953100Y-121047740I0J-250000D01*
G01*
X123953100Y-121547740D01*
G75*
G02*
X123703100Y-121797740I-250000J0D01*
G01*
X122753100Y-121797740D01*
G75*
G02*
X122503100Y-121547740I0J250000D01*
G01*
X122503100Y-121047740D01*
G75*
G02*
X122753100Y-120797740I250000J0D01*
G01*
G37*
%TD.AperFunction*%
%TD*%
%TO.P,C15,1*%
%TO.N,VDD*%
%TA.AperFunction,SMDPad,CuDef*%
G36*
G01*
X112549600Y-169603400D02*
X112549600Y-170553400D01*
G75*
G02*
X112299600Y-170803400I-250000J0D01*
G01*
X111799600Y-170803400D01*
G75*
G02*
X111549600Y-170553400I0J250000D01*
G01*
X111549600Y-169603400D01*
G75*
G02*
X111799600Y-169353400I250000J0D01*
G01*
X112299600Y-169353400D01*
G75*
G02*
X112549600Y-169603400I0J-250000D01*
G01*
G37*
%TD.AperFunction*%
%TO.P,C15,2*%
%TO.N,GND*%
%TA.AperFunction,SMDPad,CuDef*%
G36*
G01*
X110649600Y-169603400D02*
X110649600Y-170553400D01*
G75*
G02*
X110399600Y-170803400I-250000J0D01*
G01*
X109899600Y-170803400D01*
G75*
G02*
X109649600Y-170553400I0J250000D01*
G01*
X109649600Y-169603400D01*
G75*
G02*
X109899600Y-169353400I250000J0D01*
G01*
X110399600Y-169353400D01*
G75*
G02*
X110649600Y-169603400I0J-250000D01*
G01*
G37*
%TD.AperFunction*%
%TD*%
D21*
%TO.P,C19,2*%
%TO.N,GND*%
X120947180Y-135506060D03*
%TO.P,C19,1*%
%TO.N,+5V*%
X120947180Y-129106060D03*
%TD*%
%TO.P,C20,2*%
%TO.N,GND*%
%TA.AperFunction,SMDPad,CuDef*%
G36*
G01*
X114874460Y-148661140D02*
X114874460Y-147711140D01*
G75*
G02*
X115124460Y-147461140I250000J0D01*
G01*
X115624460Y-147461140D01*
G75*
G02*
X115874460Y-147711140I0J-250000D01*
G01*
X115874460Y-148661140D01*
G75*
G02*
X115624460Y-148911140I-250000J0D01*
G01*
X115124460Y-148911140D01*
G75*
G02*
X114874460Y-148661140I0J250000D01*
G01*
G37*
%TD.AperFunction*%
%TO.P,C20,1*%
%TO.N,+BATT*%
%TA.AperFunction,SMDPad,CuDef*%
G36*
G01*
X112974460Y-148661140D02*
X112974460Y-147711140D01*
G75*
G02*
X113224460Y-147461140I250000J0D01*
G01*
X113724460Y-147461140D01*
G75*
G02*
X113974460Y-147711140I0J-250000D01*
G01*
X113974460Y-148661140D01*
G75*
G02*
X113724460Y-148911140I-250000J0D01*
G01*
X113224460Y-148911140D01*
G75*
G02*
X112974460Y-148661140I0J250000D01*
G01*
G37*
%TD.AperFunction*%
%TD*%
%TO.P,C21,2*%
%TO.N,GND*%
%TA.AperFunction,SMDPad,CuDef*%
G36*
G01*
X114721220Y-163558200D02*
X114721220Y-164508200D01*
G75*
G02*
X114471220Y-164758200I-250000J0D01*
G01*
X113971220Y-164758200D01*
G75*
G02*
X113721220Y-164508200I0J250000D01*
G01*
X113721220Y-163558200D01*
G75*
G02*
X113971220Y-163308200I250000J0D01*
G01*
X114471220Y-163308200D01*
G75*
G02*
X114721220Y-163558200I0J-250000D01*
G01*
G37*
%TD.AperFunction*%
%TO.P,C21,1*%
%TO.N,Net-(C21-Pad1)*%
%TA.AperFunction,SMDPad,CuDef*%
G36*
G01*
X116621220Y-163558200D02*
X116621220Y-164508200D01*
G75*
G02*
X116371220Y-164758200I-250000J0D01*
G01*
X115871220Y-164758200D01*
G75*
G02*
X115621220Y-164508200I0J250000D01*
G01*
X115621220Y-163558200D01*
G75*
G02*
X115871220Y-163308200I250000J0D01*
G01*
X116371220Y-163308200D01*
G75*
G02*
X116621220Y-163558200I0J-250000D01*
G01*
G37*
%TD.AperFunction*%
%TD*%
%TO.P,C22,2*%
%TO.N,GND*%
%TA.AperFunction,SMDPad,CuDef*%
G36*
G01*
X109242400Y-163586140D02*
X109242400Y-164536140D01*
G75*
G02*
X108992400Y-164786140I-250000J0D01*
G01*
X108492400Y-164786140D01*
G75*
G02*
X108242400Y-164536140I0J250000D01*
G01*
X108242400Y-163586140D01*
G75*
G02*
X108492400Y-163336140I250000J0D01*
G01*
X108992400Y-163336140D01*
G75*
G02*
X109242400Y-163586140I0J-250000D01*
G01*
G37*
%TD.AperFunction*%
%TO.P,C22,1*%
%TO.N,Net-(C22-Pad1)*%
%TA.AperFunction,SMDPad,CuDef*%
G36*
G01*
X111142400Y-163586140D02*
X111142400Y-164536140D01*
G75*
G02*
X110892400Y-164786140I-250000J0D01*
G01*
X110392400Y-164786140D01*
G75*
G02*
X110142400Y-164536140I0J250000D01*
G01*
X110142400Y-163586140D01*
G75*
G02*
X110392400Y-163336140I250000J0D01*
G01*
X110892400Y-163336140D01*
G75*
G02*
X111142400Y-163586140I0J-250000D01*
G01*
G37*
%TD.AperFunction*%
%TD*%
D22*
%TO.P,D3,1*%
%TO.N,/5V_USB*%
X118285300Y-120773180D03*
%TO.P,D3,2*%
%TO.N,GND*%
X117335300Y-120773180D03*
%TO.P,D3,3*%
%TO.N,/FB1*%
X116385300Y-120773180D03*
%TO.P,D3,4*%
%TO.N,/FB2*%
X116385300Y-118073180D03*
%TO.P,D3,6*%
%TO.N,Net-(D3-Pad6)*%
X118285300Y-118073180D03*
%TO.P,D3,5*%
%TO.N,GND*%
X117335300Y-118073180D03*
%TD*%
%TO.P,FB1,2*%
%TO.N,/FB1*%
%TA.AperFunction,SMDPad,CuDef*%
G36*
G01*
X120163000Y-119128119D02*
X120163000Y-120028121D01*
G75*
G02*
X119913001Y-120278120I-249999J0D01*
G01*
X119387999Y-120278120D01*
G75*
G02*
X119138000Y-120028121I0J249999D01*
G01*
X119138000Y-119128119D01*
G75*
G02*
X119387999Y-118878120I249999J0D01*
G01*
X119913001Y-118878120D01*
G75*
G02*
X120163000Y-119128119I0J-249999D01*
G01*
G37*
%TD.AperFunction*%
%TO.P,FB1,1*%
%TO.N,/D-*%
%TA.AperFunction,SMDPad,CuDef*%
G36*
G01*
X121988000Y-119128119D02*
X121988000Y-120028121D01*
G75*
G02*
X121738001Y-120278120I-249999J0D01*
G01*
X121212999Y-120278120D01*
G75*
G02*
X120963000Y-120028121I0J249999D01*
G01*
X120963000Y-119128119D01*
G75*
G02*
X121212999Y-118878120I249999J0D01*
G01*
X121738001Y-118878120D01*
G75*
G02*
X121988000Y-119128119I0J-249999D01*
G01*
G37*
%TD.AperFunction*%
%TD*%
%TO.P,FB2,1*%
%TO.N,/D+*%
%TA.AperFunction,SMDPad,CuDef*%
G36*
G01*
X122311220Y-115051419D02*
X122311220Y-115951421D01*
G75*
G02*
X122061221Y-116201420I-249999J0D01*
G01*
X121536219Y-116201420D01*
G75*
G02*
X121286220Y-115951421I0J249999D01*
G01*
X121286220Y-115051419D01*
G75*
G02*
X121536219Y-114801420I249999J0D01*
G01*
X122061221Y-114801420D01*
G75*
G02*
X122311220Y-115051419I0J-249999D01*
G01*
G37*
%TD.AperFunction*%
%TO.P,FB2,2*%
%TO.N,/FB2*%
%TA.AperFunction,SMDPad,CuDef*%
G36*
G01*
X120486220Y-115051419D02*
X120486220Y-115951421D01*
G75*
G02*
X120236221Y-116201420I-249999J0D01*
G01*
X119711219Y-116201420D01*
G75*
G02*
X119461220Y-115951421I0J249999D01*
G01*
X119461220Y-115051419D01*
G75*
G02*
X119711219Y-114801420I249999J0D01*
G01*
X120236221Y-114801420D01*
G75*
G02*
X120486220Y-115051419I0J-249999D01*
G01*
G37*
%TD.AperFunction*%
%TD*%
D14*
%TO.P,J8,3*%
%TO.N,PWM_SERVO*%
X122521980Y-158826200D03*
%TO.P,J8,2*%
%TO.N,+5V*%
X122521980Y-161366200D03*
D15*
%TO.P,J8,1*%
%TO.N,GND*%
X122521980Y-163906200D03*
%TD*%
D23*
%TO.P,J11,1*%
%TO.N,GND*%
X113797080Y-138046460D03*
D24*
%TO.P,J11,2*%
%TO.N,Net-(J11-Pad2)*%
X113797080Y-143126460D03*
%TD*%
%TO.P,R4,2*%
%TO.N,GND*%
%TA.AperFunction,SMDPad,CuDef*%
G36*
G01*
X120678361Y-123454840D02*
X119778359Y-123454840D01*
G75*
G02*
X119528360Y-123204841I0J249999D01*
G01*
X119528360Y-122679839D01*
G75*
G02*
X119778359Y-122429840I249999J0D01*
G01*
X120678361Y-122429840D01*
G75*
G02*
X120928360Y-122679839I0J-249999D01*
G01*
X120928360Y-123204841D01*
G75*
G02*
X120678361Y-123454840I-249999J0D01*
G01*
G37*
%TD.AperFunction*%
%TO.P,R4,1*%
%TO.N,Net-(J1-PadB5)*%
%TA.AperFunction,SMDPad,CuDef*%
G36*
G01*
X120678361Y-125279840D02*
X119778359Y-125279840D01*
G75*
G02*
X119528360Y-125029841I0J249999D01*
G01*
X119528360Y-124504839D01*
G75*
G02*
X119778359Y-124254840I249999J0D01*
G01*
X120678361Y-124254840D01*
G75*
G02*
X120928360Y-124504839I0J-249999D01*
G01*
X120928360Y-125029841D01*
G75*
G02*
X120678361Y-125279840I-249999J0D01*
G01*
G37*
%TD.AperFunction*%
%TD*%
%TO.P,R6,1*%
%TO.N,Net-(J1-PadA5)*%
%TA.AperFunction,SMDPad,CuDef*%
G36*
G01*
X116768820Y-114115001D02*
X116768820Y-113214999D01*
G75*
G02*
X117018819Y-112965000I249999J0D01*
G01*
X117543821Y-112965000D01*
G75*
G02*
X117793820Y-113214999I0J-249999D01*
G01*
X117793820Y-114115001D01*
G75*
G02*
X117543821Y-114365000I-249999J0D01*
G01*
X117018819Y-114365000D01*
G75*
G02*
X116768820Y-114115001I0J249999D01*
G01*
G37*
%TD.AperFunction*%
%TO.P,R6,2*%
%TO.N,GND*%
%TA.AperFunction,SMDPad,CuDef*%
G36*
G01*
X118593820Y-114115001D02*
X118593820Y-113214999D01*
G75*
G02*
X118843819Y-112965000I249999J0D01*
G01*
X119368821Y-112965000D01*
G75*
G02*
X119618820Y-113214999I0J-249999D01*
G01*
X119618820Y-114115001D01*
G75*
G02*
X119368821Y-114365000I-249999J0D01*
G01*
X118843819Y-114365000D01*
G75*
G02*
X118593820Y-114115001I0J249999D01*
G01*
G37*
%TD.AperFunction*%
%TD*%
%TO.P,R25,1*%
%TO.N,VDD*%
%TA.AperFunction,SMDPad,CuDef*%
G36*
G01*
X111503400Y-172547701D02*
X111503400Y-171647699D01*
G75*
G02*
X111753399Y-171397700I249999J0D01*
G01*
X112278401Y-171397700D01*
G75*
G02*
X112528400Y-171647699I0J-249999D01*
G01*
X112528400Y-172547701D01*
G75*
G02*
X112278401Y-172797700I-249999J0D01*
G01*
X111753399Y-172797700D01*
G75*
G02*
X111503400Y-172547701I0J249999D01*
G01*
G37*
%TD.AperFunction*%
%TO.P,R25,2*%
%TO.N,INT_RTC*%
%TA.AperFunction,SMDPad,CuDef*%
G36*
G01*
X113328400Y-172547701D02*
X113328400Y-171647699D01*
G75*
G02*
X113578399Y-171397700I249999J0D01*
G01*
X114103401Y-171397700D01*
G75*
G02*
X114353400Y-171647699I0J-249999D01*
G01*
X114353400Y-172547701D01*
G75*
G02*
X114103401Y-172797700I-249999J0D01*
G01*
X113578399Y-172797700D01*
G75*
G02*
X113328400Y-172547701I0J249999D01*
G01*
G37*
%TD.AperFunction*%
%TD*%
%TO.P,R36,1*%
%TO.N,VDD*%
%TA.AperFunction,SMDPad,CuDef*%
G36*
G01*
X116266381Y-160802380D02*
X115366379Y-160802380D01*
G75*
G02*
X115116380Y-160552381I0J249999D01*
G01*
X115116380Y-160027379D01*
G75*
G02*
X115366379Y-159777380I249999J0D01*
G01*
X116266381Y-159777380D01*
G75*
G02*
X116516380Y-160027379I0J-249999D01*
G01*
X116516380Y-160552381D01*
G75*
G02*
X116266381Y-160802380I-249999J0D01*
G01*
G37*
%TD.AperFunction*%
%TO.P,R36,2*%
%TO.N,BUTTON_INT*%
%TA.AperFunction,SMDPad,CuDef*%
G36*
G01*
X116266381Y-158977380D02*
X115366379Y-158977380D01*
G75*
G02*
X115116380Y-158727381I0J249999D01*
G01*
X115116380Y-158202379D01*
G75*
G02*
X115366379Y-157952380I249999J0D01*
G01*
X116266381Y-157952380D01*
G75*
G02*
X116516380Y-158202379I0J-249999D01*
G01*
X116516380Y-158727381D01*
G75*
G02*
X116266381Y-158977380I-249999J0D01*
G01*
G37*
%TD.AperFunction*%
%TD*%
%TO.P,R37,2*%
%TO.N,BUTTON_KILL*%
%TA.AperFunction,SMDPad,CuDef*%
G36*
G01*
X113838141Y-158901180D02*
X112938139Y-158901180D01*
G75*
G02*
X112688140Y-158651181I0J249999D01*
G01*
X112688140Y-158126179D01*
G75*
G02*
X112938139Y-157876180I249999J0D01*
G01*
X113838141Y-157876180D01*
G75*
G02*
X114088140Y-158126179I0J-249999D01*
G01*
X114088140Y-158651181D01*
G75*
G02*
X113838141Y-158901180I-249999J0D01*
G01*
G37*
%TD.AperFunction*%
%TO.P,R37,1*%
%TO.N,VDD*%
%TA.AperFunction,SMDPad,CuDef*%
G36*
G01*
X113838141Y-160726180D02*
X112938139Y-160726180D01*
G75*
G02*
X112688140Y-160476181I0J249999D01*
G01*
X112688140Y-159951179D01*
G75*
G02*
X112938139Y-159701180I249999J0D01*
G01*
X113838141Y-159701180D01*
G75*
G02*
X114088140Y-159951179I0J-249999D01*
G01*
X114088140Y-160476181D01*
G75*
G02*
X113838141Y-160726180I-249999J0D01*
G01*
G37*
%TD.AperFunction*%
%TD*%
D25*
%TO.P,U2,21*%
%TO.N,GND*%
X117615180Y-102578860D03*
X118915180Y-102578860D03*
X120215180Y-102578860D03*
X117615180Y-103878860D03*
X118915180Y-103878860D03*
X120215180Y-103878860D03*
X117615180Y-105178860D03*
X118915180Y-105178860D03*
X120215180Y-105178860D03*
X117615180Y-106478860D03*
X118915180Y-106478860D03*
X120215180Y-106478860D03*
X117615180Y-107778860D03*
X118915180Y-107778860D03*
X120215180Y-107778860D03*
%TA.AperFunction,SMDPad,CuDef*%
G36*
G01*
X117315180Y-107828860D02*
X117315180Y-102528860D01*
G75*
G02*
X117565180Y-102278860I250000J0D01*
G01*
X120265180Y-102278860D01*
G75*
G02*
X120515180Y-102528860I0J-250000D01*
G01*
X120515180Y-107828860D01*
G75*
G02*
X120265180Y-108078860I-250000J0D01*
G01*
X117565180Y-108078860D01*
G75*
G02*
X117315180Y-107828860I0J250000D01*
G01*
G37*
%TD.AperFunction*%
%TD*%
D26*
%TO.P,U6,17*%
%TO.N,GND*%
X133096000Y-131084320D03*
D25*
X134196000Y-128884320D03*
X133096000Y-128884320D03*
X131996000Y-128884320D03*
X131996000Y-129984320D03*
X133096000Y-129984320D03*
X134196000Y-129984320D03*
X131996000Y-131084320D03*
X133096000Y-131084320D03*
X134196000Y-131084320D03*
X131996000Y-132184320D03*
X133096000Y-132184320D03*
X134196000Y-132184320D03*
X131996000Y-133284320D03*
X133096000Y-133284320D03*
X134196000Y-133284320D03*
%TD*%
%TO.P,U8,1*%
%TO.N,Net-(U8-Pad1)*%
%TA.AperFunction,SMDPad,CuDef*%
G36*
G01*
X108142900Y-174314480D02*
X108442900Y-174314480D01*
G75*
G02*
X108592900Y-174464480I0J-150000D01*
G01*
X108592900Y-176214480D01*
G75*
G02*
X108442900Y-176364480I-150000J0D01*
G01*
X108142900Y-176364480D01*
G75*
G02*
X107992900Y-176214480I0J150000D01*
G01*
X107992900Y-174464480D01*
G75*
G02*
X108142900Y-174314480I150000J0D01*
G01*
G37*
%TD.AperFunction*%
%TO.P,U8,2*%
%TO.N,VDD*%
%TA.AperFunction,SMDPad,CuDef*%
G36*
G01*
X109412900Y-174314480D02*
X109712900Y-174314480D01*
G75*
G02*
X109862900Y-174464480I0J-150000D01*
G01*
X109862900Y-176214480D01*
G75*
G02*
X109712900Y-176364480I-150000J0D01*
G01*
X109412900Y-176364480D01*
G75*
G02*
X109262900Y-176214480I0J150000D01*
G01*
X109262900Y-174464480D01*
G75*
G02*
X109412900Y-174314480I150000J0D01*
G01*
G37*
%TD.AperFunction*%
%TO.P,U8,3*%
%TO.N,INT_RTC*%
%TA.AperFunction,SMDPad,CuDef*%
G36*
G01*
X110682900Y-174314480D02*
X110982900Y-174314480D01*
G75*
G02*
X111132900Y-174464480I0J-150000D01*
G01*
X111132900Y-176214480D01*
G75*
G02*
X110982900Y-176364480I-150000J0D01*
G01*
X110682900Y-176364480D01*
G75*
G02*
X110532900Y-176214480I0J150000D01*
G01*
X110532900Y-174464480D01*
G75*
G02*
X110682900Y-174314480I150000J0D01*
G01*
G37*
%TD.AperFunction*%
%TO.P,U8,4*%
%TO.N,RST_RTC*%
%TA.AperFunction,SMDPad,CuDef*%
G36*
G01*
X111952900Y-174314480D02*
X112252900Y-174314480D01*
G75*
G02*
X112402900Y-174464480I0J-150000D01*
G01*
X112402900Y-176214480D01*
G75*
G02*
X112252900Y-176364480I-150000J0D01*
G01*
X111952900Y-176364480D01*
G75*
G02*
X111802900Y-176214480I0J150000D01*
G01*
X111802900Y-174464480D01*
G75*
G02*
X111952900Y-174314480I150000J0D01*
G01*
G37*
%TD.AperFunction*%
%TO.P,U8,5*%
%TO.N,Net-(U8-Pad5)*%
%TA.AperFunction,SMDPad,CuDef*%
G36*
G01*
X113222900Y-174314480D02*
X113522900Y-174314480D01*
G75*
G02*
X113672900Y-174464480I0J-150000D01*
G01*
X113672900Y-176214480D01*
G75*
G02*
X113522900Y-176364480I-150000J0D01*
G01*
X113222900Y-176364480D01*
G75*
G02*
X113072900Y-176214480I0J150000D01*
G01*
X113072900Y-174464480D01*
G75*
G02*
X113222900Y-174314480I150000J0D01*
G01*
G37*
%TD.AperFunction*%
%TO.P,U8,6*%
%TO.N,Net-(U8-Pad6)*%
%TA.AperFunction,SMDPad,CuDef*%
G36*
G01*
X114492900Y-174314480D02*
X114792900Y-174314480D01*
G75*
G02*
X114942900Y-174464480I0J-150000D01*
G01*
X114942900Y-176214480D01*
G75*
G02*
X114792900Y-176364480I-150000J0D01*
G01*
X114492900Y-176364480D01*
G75*
G02*
X114342900Y-176214480I0J150000D01*
G01*
X114342900Y-174464480D01*
G75*
G02*
X114492900Y-174314480I150000J0D01*
G01*
G37*
%TD.AperFunction*%
%TO.P,U8,7*%
%TO.N,Net-(U8-Pad7)*%
%TA.AperFunction,SMDPad,CuDef*%
G36*
G01*
X115762900Y-174314480D02*
X116062900Y-174314480D01*
G75*
G02*
X116212900Y-174464480I0J-150000D01*
G01*
X116212900Y-176214480D01*
G75*
G02*
X116062900Y-176364480I-150000J0D01*
G01*
X115762900Y-176364480D01*
G75*
G02*
X115612900Y-176214480I0J150000D01*
G01*
X115612900Y-174464480D01*
G75*
G02*
X115762900Y-174314480I150000J0D01*
G01*
G37*
%TD.AperFunction*%
%TO.P,U8,8*%
%TO.N,Net-(U8-Pad8)*%
%TA.AperFunction,SMDPad,CuDef*%
G36*
G01*
X117032900Y-174314480D02*
X117332900Y-174314480D01*
G75*
G02*
X117482900Y-174464480I0J-150000D01*
G01*
X117482900Y-176214480D01*
G75*
G02*
X117332900Y-176364480I-150000J0D01*
G01*
X117032900Y-176364480D01*
G75*
G02*
X116882900Y-176214480I0J150000D01*
G01*
X116882900Y-174464480D01*
G75*
G02*
X117032900Y-174314480I150000J0D01*
G01*
G37*
%TD.AperFunction*%
%TO.P,U8,9*%
%TO.N,Net-(U8-Pad9)*%
%TA.AperFunction,SMDPad,CuDef*%
G36*
G01*
X117032900Y-183614480D02*
X117332900Y-183614480D01*
G75*
G02*
X117482900Y-183764480I0J-150000D01*
G01*
X117482900Y-185514480D01*
G75*
G02*
X117332900Y-185664480I-150000J0D01*
G01*
X117032900Y-185664480D01*
G75*
G02*
X116882900Y-185514480I0J150000D01*
G01*
X116882900Y-183764480D01*
G75*
G02*
X117032900Y-183614480I150000J0D01*
G01*
G37*
%TD.AperFunction*%
%TO.P,U8,10*%
%TO.N,Net-(U8-Pad10)*%
%TA.AperFunction,SMDPad,CuDef*%
G36*
G01*
X115762900Y-183614480D02*
X116062900Y-183614480D01*
G75*
G02*
X116212900Y-183764480I0J-150000D01*
G01*
X116212900Y-185514480D01*
G75*
G02*
X116062900Y-185664480I-150000J0D01*
G01*
X115762900Y-185664480D01*
G75*
G02*
X115612900Y-185514480I0J150000D01*
G01*
X115612900Y-183764480D01*
G75*
G02*
X115762900Y-183614480I150000J0D01*
G01*
G37*
%TD.AperFunction*%
%TO.P,U8,11*%
%TO.N,Net-(U8-Pad11)*%
%TA.AperFunction,SMDPad,CuDef*%
G36*
G01*
X114492900Y-183614480D02*
X114792900Y-183614480D01*
G75*
G02*
X114942900Y-183764480I0J-150000D01*
G01*
X114942900Y-185514480D01*
G75*
G02*
X114792900Y-185664480I-150000J0D01*
G01*
X114492900Y-185664480D01*
G75*
G02*
X114342900Y-185514480I0J150000D01*
G01*
X114342900Y-183764480D01*
G75*
G02*
X114492900Y-183614480I150000J0D01*
G01*
G37*
%TD.AperFunction*%
%TO.P,U8,12*%
%TO.N,Net-(U8-Pad12)*%
%TA.AperFunction,SMDPad,CuDef*%
G36*
G01*
X113222900Y-183614480D02*
X113522900Y-183614480D01*
G75*
G02*
X113672900Y-183764480I0J-150000D01*
G01*
X113672900Y-185514480D01*
G75*
G02*
X113522900Y-185664480I-150000J0D01*
G01*
X113222900Y-185664480D01*
G75*
G02*
X113072900Y-185514480I0J150000D01*
G01*
X113072900Y-183764480D01*
G75*
G02*
X113222900Y-183614480I150000J0D01*
G01*
G37*
%TD.AperFunction*%
%TO.P,U8,13*%
%TO.N,GND*%
%TA.AperFunction,SMDPad,CuDef*%
G36*
G01*
X111952900Y-183614480D02*
X112252900Y-183614480D01*
G75*
G02*
X112402900Y-183764480I0J-150000D01*
G01*
X112402900Y-185514480D01*
G75*
G02*
X112252900Y-185664480I-150000J0D01*
G01*
X111952900Y-185664480D01*
G75*
G02*
X111802900Y-185514480I0J150000D01*
G01*
X111802900Y-183764480D01*
G75*
G02*
X111952900Y-183614480I150000J0D01*
G01*
G37*
%TD.AperFunction*%
%TO.P,U8,14*%
%TO.N,BAT-CR2032*%
%TA.AperFunction,SMDPad,CuDef*%
G36*
G01*
X110682900Y-183614480D02*
X110982900Y-183614480D01*
G75*
G02*
X111132900Y-183764480I0J-150000D01*
G01*
X111132900Y-185514480D01*
G75*
G02*
X110982900Y-185664480I-150000J0D01*
G01*
X110682900Y-185664480D01*
G75*
G02*
X110532900Y-185514480I0J150000D01*
G01*
X110532900Y-183764480D01*
G75*
G02*
X110682900Y-183614480I150000J0D01*
G01*
G37*
%TD.AperFunction*%
%TO.P,U8,15*%
%TO.N,SDA*%
%TA.AperFunction,SMDPad,CuDef*%
G36*
G01*
X109412900Y-183614480D02*
X109712900Y-183614480D01*
G75*
G02*
X109862900Y-183764480I0J-150000D01*
G01*
X109862900Y-185514480D01*
G75*
G02*
X109712900Y-185664480I-150000J0D01*
G01*
X109412900Y-185664480D01*
G75*
G02*
X109262900Y-185514480I0J150000D01*
G01*
X109262900Y-183764480D01*
G75*
G02*
X109412900Y-183614480I150000J0D01*
G01*
G37*
%TD.AperFunction*%
%TO.P,U8,16*%
%TO.N,SCL*%
%TA.AperFunction,SMDPad,CuDef*%
G36*
G01*
X108142900Y-183614480D02*
X108442900Y-183614480D01*
G75*
G02*
X108592900Y-183764480I0J-150000D01*
G01*
X108592900Y-185514480D01*
G75*
G02*
X108442900Y-185664480I-150000J0D01*
G01*
X108142900Y-185664480D01*
G75*
G02*
X107992900Y-185514480I0J150000D01*
G01*
X107992900Y-183764480D01*
G75*
G02*
X108142900Y-183614480I150000J0D01*
G01*
G37*
%TD.AperFunction*%
%TD*%
D27*
%TO.P,U10,1*%
%TO.N,+BATT*%
X113789740Y-152625480D03*
%TO.P,U10,2*%
%TO.N,Net-(J11-Pad2)*%
X114429740Y-152625480D03*
%TO.P,U10,3*%
%TO.N,Net-(C21-Pad1)*%
X115089740Y-152625480D03*
%TO.P,U10,4*%
%TO.N,GND*%
X115729740Y-152625480D03*
%TO.P,U10,5*%
%TO.N,BUTTON_INT*%
X115729740Y-156045480D03*
%TO.P,U10,6*%
%TO.N,EN_3V3*%
X115089740Y-156045480D03*
%TO.P,U10,7*%
%TO.N,Net-(C22-Pad1)*%
X114429740Y-156045480D03*
%TO.P,U10,8*%
%TO.N,BUTTON_KILL*%
X113789740Y-156045480D03*
%TD*%
D28*
%TO.N,+BATT*%
X125364240Y-124195840D03*
X142379700Y-107190540D03*
X112506760Y-102041960D03*
X139418060Y-136474200D03*
%TO.N,GND*%
X137749280Y-145572480D03*
X137500360Y-147561300D03*
X135387080Y-147436840D03*
X135305800Y-145531840D03*
X138965940Y-183194960D03*
X148099780Y-182864760D03*
X114195860Y-189108080D03*
X139527280Y-119773700D03*
X133504940Y-127541020D03*
X125679200Y-130535680D03*
X136541600Y-146530300D03*
X133240780Y-160383220D03*
X147185140Y-168290480D03*
X122085100Y-137162540D03*
X118127780Y-145061940D03*
X108752640Y-154967940D03*
X113596420Y-165366700D03*
X118473180Y-196088040D03*
%TO.N,BAT-CR2032*%
X135364220Y-163946840D03*
X117236240Y-169743120D03*
X134622540Y-169743120D03*
%TO.N,/5V_USB*%
X115575080Y-123802140D03*
X118752620Y-111102140D03*
X137820400Y-186697500D03*
%TO.N,Net-(C4-Pad1)*%
X123911360Y-108127800D03*
X136728200Y-102346760D03*
%TO.N,Net-(C4-Pad2)*%
X123019820Y-109245400D03*
X136768840Y-109245400D03*
%TO.N,+3V3*%
X121851420Y-100759260D03*
X138739880Y-111175800D03*
%TO.N,/D+*%
X129303780Y-180284120D03*
X102524560Y-114701320D03*
%TO.N,/D-*%
X131894580Y-178122580D03*
X103487220Y-110599220D03*
%TO.N,VDD*%
X144805400Y-158958280D03*
X142793720Y-141287500D03*
X134285140Y-160144040D03*
X133520180Y-168455340D03*
X114254280Y-161655760D03*
X111158020Y-149420580D03*
X150066380Y-123217300D03*
X149806660Y-110517940D03*
%TO.N,+5V*%
X123842780Y-128874520D03*
X120642380Y-131297680D03*
X120586500Y-139298680D03*
%TO.N,ESP_EN*%
X141571980Y-143073120D03*
X121406920Y-193664840D03*
%TO.N,Net-(D2-Pad2)*%
X127292100Y-125374400D03*
X129791460Y-121770140D03*
%TO.N,Net-(J1-PadA5)*%
X115920520Y-113708180D03*
%TO.N,PWM_SERVO*%
X130101340Y-141094460D03*
%TO.N,/RTS*%
X132420360Y-193126360D03*
X144211040Y-180273960D03*
%TO.N,EN_3V3*%
X112809020Y-153821300D03*
%TO.N,EN_5V*%
X135100060Y-141046200D03*
X111777780Y-140771880D03*
%TO.N,SDA*%
X137683240Y-153687780D03*
%TO.N,SCL*%
X141470380Y-153642060D03*
%TO.N,INT_RTC*%
X131335780Y-141124940D03*
%TO.N,BUTTON_INT*%
X137668000Y-141051280D03*
X116801900Y-156814520D03*
%TO.N,BUTTON_KILL*%
X112533260Y-157010100D03*
%TO.N,LORA_MOSI*%
X109712760Y-161315400D03*
X141541500Y-151267160D03*
%TO.N,LORA_MISO*%
X135107680Y-153835100D03*
X119529860Y-155308300D03*
%TO.N,LORA_SCK*%
X133880860Y-157848300D03*
X118457980Y-156065220D03*
%TO.N,LORA_NSS*%
X132600700Y-157772100D03*
X118521480Y-157894020D03*
%TO.N,LORA_RST*%
X128823720Y-141124940D03*
X119306340Y-160159700D03*
%TO.N,RST_RTC*%
X132626100Y-141137640D03*
%TO.N,Net-(J9-Pad3)*%
X111734600Y-151386540D03*
%TO.N,Net-(J4-Pad3)*%
X104523540Y-190200280D03*
X141003020Y-177779680D03*
X125702060Y-184873900D03*
%TO.N,/FB1*%
X115461172Y-119393326D03*
%TO.N,/FB2*%
X116385300Y-115554800D03*
%TD*%
D29*
%TO.N,+BATT*%
X113789740Y-152625480D02*
X113789740Y-150154920D01*
X113474460Y-149839640D02*
X113474460Y-148186140D01*
X113789740Y-150154920D02*
X113474460Y-149839640D01*
X113474460Y-148186140D02*
X111328200Y-148186140D01*
X111328200Y-148186140D02*
X110731300Y-147589240D01*
X110731300Y-147589240D02*
X110731300Y-130162300D01*
X110215680Y-129646680D02*
X109062520Y-129646680D01*
X110731300Y-130162300D02*
X110215680Y-129646680D01*
X125364240Y-124195840D02*
X130779520Y-124195840D01*
X131124960Y-123850400D02*
X131124960Y-115349020D01*
X130779520Y-124195840D02*
X131124960Y-123850400D01*
X131124960Y-123850400D02*
X131221480Y-123753880D01*
X131773980Y-114700000D02*
X134975600Y-114700000D01*
X131124960Y-115349020D02*
X131773980Y-114700000D01*
%TO.N,GND*%
X120106840Y-122820820D02*
X120228360Y-122942340D01*
X123228100Y-121297740D02*
X123228100Y-122582940D01*
X122868700Y-122942340D02*
X120228360Y-122942340D01*
X123228100Y-122582940D02*
X122868700Y-122942340D01*
X117335300Y-122768360D02*
X117282840Y-122820820D01*
X117335300Y-120773180D02*
X117335300Y-122768360D01*
X117282840Y-122820820D02*
X120106840Y-122820820D01*
X113964020Y-122820820D02*
X117282840Y-122820820D01*
X113964020Y-112720820D02*
X113964020Y-113820820D01*
X114152720Y-112532120D02*
X113964020Y-112720820D01*
X119106320Y-112555580D02*
X119082860Y-112532120D01*
X119082860Y-112532120D02*
X114152720Y-112532120D01*
X119106320Y-113665000D02*
X119106320Y-112555580D01*
X120811230Y-112574050D02*
X120853160Y-112532120D01*
X120811230Y-116384130D02*
X120811230Y-112574050D01*
X120543320Y-116652040D02*
X120811230Y-116384130D01*
X117673120Y-116652040D02*
X120543320Y-116652040D01*
X117335300Y-116989860D02*
X117673120Y-116652040D01*
X117335300Y-118073180D02*
X117335300Y-116989860D01*
X120853160Y-112532120D02*
X119082860Y-112532120D01*
X112102900Y-184639480D02*
X112102900Y-186032140D01*
X112102900Y-186032140D02*
X112301020Y-186230260D01*
X112301020Y-186230260D02*
X113962180Y-186230260D01*
X114195860Y-186463940D02*
X114195860Y-189108080D01*
X113962180Y-186230260D02*
X114195860Y-186463940D01*
X110149600Y-170078400D02*
X107190540Y-170078400D01*
X107190540Y-170078400D02*
X106420920Y-170848020D01*
X106420920Y-170848020D02*
X106420920Y-189745620D01*
X106420920Y-189745620D02*
X107236260Y-190560960D01*
X107236260Y-190560960D02*
X113576100Y-190560960D01*
X114195860Y-189941200D02*
X114195860Y-189108080D01*
X113576100Y-190560960D02*
X114195860Y-189941200D01*
X114221220Y-164033200D02*
X114221220Y-165148300D01*
X114221220Y-165148300D02*
X114002820Y-165366700D01*
X114002820Y-165366700D02*
X113596420Y-165366700D01*
X108008420Y-165366700D02*
X107523280Y-164881560D01*
X107523280Y-162478720D02*
X107767120Y-162234880D01*
X107767120Y-162234880D02*
X108465620Y-162234880D01*
X108752640Y-161947860D02*
X108752640Y-159986980D01*
X108465620Y-162234880D02*
X108752640Y-161947860D01*
X107525820Y-164061140D02*
X107523280Y-164058600D01*
X108742400Y-164061140D02*
X107525820Y-164061140D01*
X107523280Y-164058600D02*
X107523280Y-162478720D01*
X107523280Y-164881560D02*
X107523280Y-164058600D01*
X115729740Y-152625480D02*
X115729740Y-150645140D01*
X115729740Y-150645140D02*
X116149120Y-150225760D01*
X116149120Y-150225760D02*
X117850920Y-150225760D01*
X117850920Y-150225760D02*
X118137940Y-149938740D01*
X115374460Y-148186140D02*
X118049040Y-148186140D01*
X118049040Y-148186140D02*
X118137940Y-148275040D01*
X118137940Y-149938740D02*
X118137940Y-148275040D01*
X122044460Y-141124940D02*
X122521980Y-141602460D01*
X122044460Y-137121900D02*
X122085100Y-137162540D01*
X118137940Y-145072100D02*
X118127780Y-145061940D01*
X118137940Y-148275040D02*
X118137940Y-145072100D01*
X108752640Y-149891220D02*
X108752640Y-152841220D01*
X108752640Y-152841220D02*
X108752640Y-154967940D01*
X108752640Y-154967940D02*
X108752640Y-157036980D01*
X113596420Y-165366700D02*
X108008420Y-165366700D01*
X122085100Y-137162540D02*
X121356120Y-137162540D01*
X120947180Y-136753600D02*
X120947180Y-135506060D01*
X121356120Y-137162540D02*
X120947180Y-136753600D01*
X120811230Y-112574050D02*
X121265970Y-112574050D01*
X121732040Y-112107980D02*
X123045220Y-112107980D01*
X121265970Y-112574050D02*
X121732040Y-112107980D01*
%TO.N,BAT-CR2032*%
X108822360Y-187892660D02*
X111922360Y-187892660D01*
X111922360Y-187892660D02*
X112480120Y-187892660D01*
X111922360Y-167092660D02*
X108822360Y-167092660D01*
X110820200Y-186790500D02*
X111922360Y-187892660D01*
X110820200Y-185030640D02*
X110820200Y-186790500D01*
X135364220Y-163946840D02*
X135364220Y-169001440D01*
X135364220Y-169001440D02*
X134622540Y-169743120D01*
%TO.N,/5V_USB*%
X124325380Y-120385840D02*
X122435620Y-120385840D01*
X115575080Y-123802140D02*
X124061220Y-123802140D01*
X122435620Y-120385840D02*
X121897140Y-120924320D01*
X124696220Y-123167140D02*
X124696220Y-120756680D01*
X124696220Y-120756680D02*
X124325380Y-120385840D01*
X124061220Y-123802140D02*
X124696220Y-123167140D01*
X118285300Y-120773180D02*
X118285300Y-121658420D01*
X118285300Y-121658420D02*
X118597680Y-121970800D01*
X118597680Y-121970800D02*
X121508520Y-121970800D01*
X121897140Y-121582180D02*
X121897140Y-120924320D01*
X121508520Y-121970800D02*
X121897140Y-121582180D01*
X137820400Y-186697500D02*
X137820400Y-189537340D01*
X137820400Y-189537340D02*
X137200640Y-190157100D01*
X137200640Y-190157100D02*
X115232180Y-190157100D01*
X115232180Y-190157100D02*
X114757200Y-190632080D01*
X114757200Y-190632080D02*
X114757200Y-190888620D01*
X114757200Y-190888620D02*
X114475260Y-191170560D01*
X114475260Y-191170560D02*
X102661720Y-191170560D01*
X102661720Y-191170560D02*
X101787960Y-190296800D01*
X101787960Y-190296800D02*
X101787960Y-128592580D01*
X101787960Y-128592580D02*
X102981760Y-127398780D01*
X102981760Y-127398780D02*
X113703100Y-127398780D01*
X114345720Y-128041400D02*
X114345720Y-129646680D01*
X113703100Y-127398780D02*
X114345720Y-128041400D01*
%TO.N,Net-(C4-Pad1)*%
X123911360Y-108127800D02*
X133055360Y-108127800D01*
X133055360Y-108127800D02*
X133601460Y-108127800D01*
X133601460Y-108127800D02*
X134081520Y-107647740D01*
X134081520Y-107647740D02*
X134081520Y-102786180D01*
X134520940Y-102346760D02*
X136728200Y-102346760D01*
X134081520Y-102786180D02*
X134520940Y-102346760D01*
%TO.N,Net-(C4-Pad2)*%
X123019820Y-109245400D02*
X136768840Y-109245400D01*
%TO.N,+3V3*%
X121851420Y-100759260D02*
X138031220Y-100759260D01*
X138031220Y-100759260D02*
X138803380Y-101531420D01*
X138803380Y-111112300D02*
X138739880Y-111175800D01*
X138803380Y-101531420D02*
X138803380Y-111112300D01*
%TO.N,/D+*%
X102524560Y-112709960D02*
X102524560Y-114701320D01*
X103327200Y-111907320D02*
X102524560Y-112709960D01*
X120802400Y-111907320D02*
X103327200Y-111907320D01*
X121513600Y-111196120D02*
X120802400Y-111907320D01*
X124406660Y-111196120D02*
X121513600Y-111196120D01*
X124810520Y-111599980D02*
X124406660Y-111196120D01*
X124566680Y-115501420D02*
X124810520Y-115257580D01*
X121798720Y-115501420D02*
X124566680Y-115501420D01*
X124777420Y-114007980D02*
X124810520Y-113974880D01*
X123045220Y-114007980D02*
X124777420Y-114007980D01*
X124810520Y-113974880D02*
X124810520Y-111599980D01*
X124810520Y-115257580D02*
X124810520Y-113974880D01*
%TO.N,/D-*%
X123047720Y-119578120D02*
X123228100Y-119397740D01*
X121475500Y-119578120D02*
X123047720Y-119578120D01*
X123228100Y-119397740D02*
X124919780Y-119397740D01*
X124919780Y-119397740D02*
X125780800Y-118536720D01*
X125780800Y-118536720D02*
X125780800Y-110855760D01*
X125780800Y-110855760D02*
X125239780Y-110314740D01*
X125239780Y-110314740D02*
X121145300Y-110314740D01*
X121145300Y-110314740D02*
X120860820Y-110030260D01*
X120860820Y-110030260D02*
X117388640Y-110030260D01*
X104056180Y-110030260D02*
X103487220Y-110599220D01*
X117388640Y-110030260D02*
X104056180Y-110030260D01*
%TO.N,VDD*%
X112015900Y-170112100D02*
X112049600Y-170078400D01*
X112015900Y-172097700D02*
X112015900Y-170112100D01*
X109898180Y-172097700D02*
X112015900Y-172097700D01*
X109550200Y-172445680D02*
X109898180Y-172097700D01*
X109550200Y-175326780D02*
X109562900Y-175339480D01*
X109550200Y-172445680D02*
X109550200Y-175326780D01*
X113464340Y-160289880D02*
X113388140Y-160213680D01*
X115816380Y-160289880D02*
X113464340Y-160289880D01*
X113388140Y-160213680D02*
X113388140Y-161345880D01*
X113388140Y-161345880D02*
X113698020Y-161655760D01*
X113698020Y-161655760D02*
X114254280Y-161655760D01*
X114792760Y-161655760D02*
X115296210Y-162159210D01*
X114891820Y-170078400D02*
X112049600Y-170078400D01*
X115296210Y-169674010D02*
X114891820Y-170078400D01*
X122521980Y-168455340D02*
X115326160Y-168455340D01*
X115296210Y-168485290D02*
X115296210Y-169674010D01*
X115326160Y-168455340D02*
X115296210Y-168485290D01*
X115296210Y-162159210D02*
X115296210Y-168485290D01*
X144805400Y-158958280D02*
X143398240Y-158958280D01*
X143398240Y-158958280D02*
X143217900Y-158777940D01*
X143398240Y-158958280D02*
X143131540Y-158958280D01*
X143131540Y-158958280D02*
X142793720Y-158620460D01*
X142793720Y-158620460D02*
X142793720Y-141287500D01*
X134285140Y-167690380D02*
X134285140Y-160144040D01*
X133520180Y-168455340D02*
X134285140Y-167690380D01*
X114254280Y-161655760D02*
X114792760Y-161655760D01*
X150066380Y-110777660D02*
X149806660Y-110517940D01*
X150066380Y-123217300D02*
X150066380Y-110777660D01*
%TO.N,+5V*%
X122143520Y-128940960D02*
X122044460Y-128841900D01*
X121178720Y-128874520D02*
X120947180Y-129106060D01*
X123842780Y-128874520D02*
X121178720Y-128874520D01*
X120683020Y-128841900D02*
X120947180Y-129106060D01*
X118732300Y-158930340D02*
X120164860Y-158930340D01*
X122521980Y-161366200D02*
X118831360Y-161366200D01*
X118336060Y-160870900D02*
X118336060Y-159326580D01*
X118336060Y-159326580D02*
X118732300Y-158930340D01*
X118831360Y-161366200D02*
X118336060Y-160870900D01*
X120164860Y-158930340D02*
X120586500Y-158508700D01*
X120586500Y-158508700D02*
X120586500Y-139298680D01*
X120642380Y-129410860D02*
X120947180Y-129106060D01*
X120642380Y-131297680D02*
X120642380Y-129410860D01*
%TO.N,ESP_EN*%
X142343710Y-143844850D02*
X142343710Y-190099110D01*
X141571980Y-143073120D02*
X142343710Y-143844850D01*
X142343710Y-190099110D02*
X141759940Y-190682880D01*
X141759940Y-190682880D02*
X121988580Y-190682880D01*
X121406920Y-191264540D02*
X121406920Y-193664840D01*
X121988580Y-190682880D02*
X121406920Y-191264540D01*
%TO.N,Net-(C21-Pad1)*%
X115089740Y-152625480D02*
X115089740Y-153936500D01*
X115089740Y-153936500D02*
X115328700Y-154175460D01*
X115328700Y-154175460D02*
X116751100Y-154175460D01*
X116751100Y-154175460D02*
X117703600Y-155127960D01*
X117703600Y-155127960D02*
X117703600Y-163563300D01*
X117233700Y-164033200D02*
X116121220Y-164033200D01*
X117703600Y-163563300D02*
X117233700Y-164033200D01*
%TO.N,Net-(C22-Pad1)*%
X114429740Y-154795480D02*
X114180560Y-154546300D01*
X114429740Y-156045480D02*
X114429740Y-154795480D01*
X111409480Y-164061140D02*
X110642400Y-164061140D01*
X111808260Y-163662360D02*
X111409480Y-164061140D01*
X111808260Y-163662360D02*
X111808260Y-154851100D01*
X112113060Y-154546300D02*
X114180560Y-154546300D01*
X111808260Y-154851100D02*
X112113060Y-154546300D01*
%TO.N,Net-(J1-PadB5)*%
X120228360Y-124767340D02*
X111401860Y-124767340D01*
X111401860Y-124767340D02*
X110939580Y-124305060D01*
X110939580Y-124305060D02*
X110939580Y-119613680D01*
X111432440Y-119120820D02*
X112464020Y-119120820D01*
X110939580Y-119613680D02*
X111432440Y-119120820D01*
%TO.N,Net-(J1-PadA5)*%
X117238140Y-113708180D02*
X117281320Y-113665000D01*
X115920520Y-113708180D02*
X117238140Y-113708180D01*
%TO.N,PWM_SERVO*%
X130101340Y-141094460D02*
X130101340Y-140200380D01*
X130101340Y-140200380D02*
X129758440Y-139857480D01*
X129758440Y-139857480D02*
X124973080Y-139857480D01*
X124973080Y-139857480D02*
X124561600Y-140268960D01*
X124561600Y-140268960D02*
X124561600Y-158211520D01*
X123946920Y-158826200D02*
X122521980Y-158826200D01*
X124561600Y-158211520D02*
X123946920Y-158826200D01*
%TO.N,Net-(J11-Pad2)*%
X114429740Y-143759120D02*
X113797080Y-143126460D01*
X114429740Y-152625480D02*
X114429740Y-143759120D01*
%TO.N,/RTS*%
X132420360Y-193126360D02*
X143240760Y-193126360D01*
X143240760Y-193126360D02*
X143695420Y-192671700D01*
X143695420Y-180789580D02*
X144211040Y-180273960D01*
X143695420Y-192671700D02*
X143695420Y-180789580D01*
%TO.N,EN_3V3*%
X115089740Y-154819070D02*
X115089740Y-156045480D01*
X114366961Y-154096291D02*
X115089740Y-154819070D01*
X113084011Y-154096291D02*
X114366961Y-154096291D01*
X112809020Y-153821300D02*
X113084011Y-154096291D01*
%TO.N,EN_5V*%
X135100060Y-141046200D02*
X135100060Y-138816080D01*
X135100060Y-138816080D02*
X134785100Y-138501120D01*
X134785100Y-138501120D02*
X118432580Y-138501120D01*
X118432580Y-138501120D02*
X117998240Y-138935460D01*
X117998240Y-138935460D02*
X117998240Y-140030200D01*
X117256560Y-140771880D02*
X111777780Y-140771880D01*
X117998240Y-140030200D02*
X117256560Y-140771880D01*
%TO.N,SDA*%
X109562900Y-184639480D02*
X109562900Y-181137560D01*
X109562900Y-181137560D02*
X109921040Y-180779420D01*
X109921040Y-180779420D02*
X119186960Y-180779420D01*
X119186960Y-180779420D02*
X119550180Y-180416200D01*
X119550180Y-180416200D02*
X119550180Y-178897280D01*
X119832120Y-178615340D02*
X122521980Y-178615340D01*
X119550180Y-178897280D02*
X119832120Y-178615340D01*
X137683240Y-153687780D02*
X137683240Y-173255940D01*
X137683240Y-173255940D02*
X136989820Y-173949360D01*
X136989820Y-173949360D02*
X131978400Y-173949360D01*
X131978400Y-173949360D02*
X131152900Y-174774860D01*
X131152900Y-174774860D02*
X131152900Y-177253900D01*
X129791460Y-178615340D02*
X122521980Y-178615340D01*
X131152900Y-177253900D02*
X129791460Y-178615340D01*
%TO.N,SCL*%
X122521980Y-176075340D02*
X119311420Y-176075340D01*
X119311420Y-176075340D02*
X118874540Y-176512220D01*
X118874540Y-176512220D02*
X118874540Y-179715160D01*
X118874540Y-179715160D02*
X118455440Y-180134260D01*
X118455440Y-180134260D02*
X108795820Y-180134260D01*
X108292900Y-180637180D02*
X108292900Y-184639480D01*
X108795820Y-180134260D02*
X108292900Y-180637180D01*
X128976120Y-176075340D02*
X122521980Y-176075340D01*
X129880360Y-175171100D02*
X128976120Y-176075340D01*
X129880360Y-173405800D02*
X129880360Y-175171100D01*
X131155440Y-172130720D02*
X129880360Y-173405800D01*
X136476740Y-152951180D02*
X136476740Y-170980100D01*
X137172700Y-152255220D02*
X136476740Y-152951180D01*
X136476740Y-170980100D02*
X135326120Y-172130720D01*
X141069060Y-152255220D02*
X137172700Y-152255220D01*
X135326120Y-172130720D02*
X131155440Y-172130720D01*
X141470380Y-152656540D02*
X141069060Y-152255220D01*
X141470380Y-153642060D02*
X141470380Y-152656540D01*
%TO.N,INT_RTC*%
X115125500Y-172354240D02*
X114868960Y-172097700D01*
X115125500Y-173093380D02*
X115125500Y-172354240D01*
X114813080Y-173405800D02*
X115125500Y-173093380D01*
X110817660Y-173667420D02*
X111079280Y-173405800D01*
X111079280Y-173405800D02*
X114813080Y-173405800D01*
X114868960Y-172097700D02*
X113840900Y-172097700D01*
X110817660Y-175324240D02*
X110832900Y-175339480D01*
X110817660Y-173667420D02*
X110817660Y-175324240D01*
X131335780Y-142057120D02*
X131335780Y-141124940D01*
X130901440Y-142491460D02*
X131335780Y-142057120D01*
X129806700Y-142491460D02*
X130901440Y-142491460D01*
X123452639Y-169630341D02*
X123469400Y-169613580D01*
X128788160Y-169613580D02*
X129532380Y-168869360D01*
X120861839Y-169630341D02*
X123452639Y-169630341D01*
X123469400Y-169613580D02*
X128788160Y-169613580D01*
X120142000Y-170350180D02*
X120861839Y-169630341D01*
X129532380Y-142765780D02*
X129806700Y-142491460D01*
X129532380Y-168869360D02*
X129532380Y-142765780D01*
X119761000Y-172354240D02*
X120142000Y-171973240D01*
X120142000Y-171973240D02*
X120142000Y-170350180D01*
X115125500Y-172354240D02*
X119761000Y-172354240D01*
%TO.N,BUTTON_INT*%
X115816380Y-156132120D02*
X115729740Y-156045480D01*
X115816380Y-157599380D02*
X116390420Y-157599380D01*
X115816380Y-158464880D02*
X115816380Y-157599380D01*
X115816380Y-157599380D02*
X115816380Y-156132120D01*
X116801900Y-157187900D02*
X116801900Y-156814520D01*
X116390420Y-157599380D02*
X116801900Y-157187900D01*
%TO.N,BUTTON_KILL*%
X113789740Y-156045480D02*
X113789740Y-157113960D01*
X113388140Y-157515560D02*
X113388140Y-158388680D01*
X112949820Y-157426660D02*
X112533260Y-157010100D01*
X113477040Y-157426660D02*
X112949820Y-157426660D01*
X113789740Y-157113960D02*
X113477040Y-157426660D01*
X113477040Y-157426660D02*
X113388140Y-157515560D01*
%TO.N,LORA_RST*%
X119306340Y-160159700D02*
X127574040Y-160159700D01*
X128823720Y-158910020D02*
X128823720Y-141124940D01*
X127574040Y-160159700D02*
X128823720Y-158910020D01*
%TO.N,RST_RTC*%
X112102900Y-177368200D02*
X112102900Y-175339480D01*
X118016020Y-177152300D02*
X117375940Y-177792380D01*
X118016020Y-175757840D02*
X118016020Y-177152300D01*
X118445280Y-175328580D02*
X118016020Y-175757840D01*
X132626100Y-141137640D02*
X132626100Y-142788640D01*
X132626100Y-142788640D02*
X132367020Y-143047720D01*
X130182620Y-143309340D02*
X130182620Y-171264580D01*
X129086861Y-172360339D02*
X121235721Y-172360339D01*
X121235721Y-172360339D02*
X120710960Y-172885100D01*
X117375940Y-177792380D02*
X112527080Y-177792380D01*
X130444240Y-143047720D02*
X130182620Y-143309340D01*
X130182620Y-171264580D02*
X129086861Y-172360339D01*
X120710960Y-172885100D02*
X120710960Y-174896780D01*
X120284240Y-175323500D02*
X119426850Y-175323500D01*
X112527080Y-177792380D02*
X112102900Y-177368200D01*
X120710960Y-174896780D02*
X120284240Y-175323500D01*
X132367020Y-143047720D02*
X130444240Y-143047720D01*
X119426850Y-175323500D02*
X119421770Y-175328580D01*
X119421770Y-175328580D02*
X118445280Y-175328580D01*
%TO.N,Net-(J9-Pad3)*%
X111714280Y-151366220D02*
X111734600Y-151386540D01*
X110277640Y-151366220D02*
X111714280Y-151366220D01*
%TO.N,Net-(J4-Pad3)*%
X110277640Y-158511980D02*
X104515180Y-158511980D01*
X104515180Y-158511980D02*
X103045260Y-159981900D01*
X103045260Y-188722000D02*
X104523540Y-190200280D01*
X103045260Y-159981900D02*
X103045260Y-188722000D01*
X125788420Y-184787540D02*
X125702060Y-184873900D01*
X125702060Y-184873900D02*
X125702060Y-182331360D01*
X125702060Y-182331360D02*
X126499620Y-181533800D01*
X126499620Y-181533800D02*
X140279120Y-181533800D01*
X141003020Y-180809900D02*
X141003020Y-177779680D01*
X140279120Y-181533800D02*
X141003020Y-180809900D01*
%TO.N,/FB1*%
X119465706Y-119393326D02*
X119650500Y-119578120D01*
X116385300Y-119456160D02*
X116322466Y-119393326D01*
X116385300Y-120773180D02*
X116385300Y-119456160D01*
X116322466Y-119393326D02*
X119465706Y-119393326D01*
X115461172Y-119393326D02*
X116322466Y-119393326D01*
%TO.N,/FB2*%
X119948320Y-115526820D02*
X119973720Y-115501420D01*
X116413280Y-115526820D02*
X119948320Y-115526820D01*
X116385300Y-115554800D02*
X116413280Y-115526820D01*
X116385300Y-118073180D02*
X116385300Y-115554800D01*
X115602980Y-115554800D02*
X116385300Y-115554800D01*
X115430300Y-115727480D02*
X115602980Y-115554800D01*
X115430300Y-118297960D02*
X115430300Y-115727480D01*
X115007440Y-118720820D02*
X115430300Y-118297960D01*
X113164020Y-118720820D02*
X115007440Y-118720820D01*
%TD*%
M02*
